<svg xmlns="http://www.w3.org/2000/svg" viewBox="0 0 3278.21 184.25"><defs><style>.cls-1{fill:#fff;}</style></defs><g id="Layer_2" data-name="Layer 2"><g id="Layer_1-2" data-name="Layer 1"><path class="cls-1" d="M3184.72,168.37h-36.59V167.2c0-10.65-.13-21.31.06-32,.1-5.77-2.09-10.39-5.9-14.47s-8.08-7.25-12.32-10.65a56.17,56.17,0,0,1-8.33-7.61c-3.42-4.12-3.3-8.07.4-12,2.92-3.1,6.42-5.47,9.83-8A75.1,75.1,0,0,0,3142.25,74c2.63-2.75,4.79-5.8,5.55-9.62a16.35,16.35,0,0,0,.32-3.12q0-28.71,0-57.44V2.64h36.71c-3.52,12.83-7,25.59-10.55,38.49,1.63,0,3.5,0,5.08,0,.07,0,.16-.27.22-.46,1.4-4.89,2.67-9.83,4.2-14.67,1.11-3.51,2.54-6.92,3.88-10.34a33.12,33.12,0,0,1,4.93-8.7c2.66-3.34,5.92-5.87,10.26-6.48a32.41,32.41,0,0,1,7.48-.37,13.7,13.7,0,0,1,11.37,7.42,25.56,25.56,0,0,1,2.94,9.9c.16,1.68.34,3.35.38,5,.07,2.44.12,4.88,0,7.3s-.48,4.82-.74,7.23c-.19,1.68-.39,3.37-.6,5.11h4.09c.27-1.51.49-3.06.83-4.58,1-4.22,1.87-8.44,3-12.62a55.11,55.11,0,0,1,4.88-12.22A25.72,25.72,0,0,1,3245,2.82a17.07,17.07,0,0,1,9.08-2.8,26.29,26.29,0,0,1,9.28,1.15,17.88,17.88,0,0,1,10,8.5,37.72,37.72,0,0,1,4.08,13.16,95.25,95.25,0,0,1,.76,13.91c0,8.27-.14,16.53,0,24.79a18.44,18.44,0,0,1-6,14.56c-3.56,3.31-7.45,6.27-11.19,9.4-2.78,2.34-5.62,4.61-8.28,7.07a9.17,9.17,0,0,0-3.22,6.22,8.08,8.08,0,0,0,1.76,5.19,35.77,35.77,0,0,0,7,6.89c4.64,3.79,9.56,7.24,13.69,11.63,2.88,3.06,5.25,6.43,6,10.7a18,18,0,0,1,.3,2.83q0,15.89,0,31.77c0,.16,0,.32,0,.55h-36.75v-1.15c0-10.13-.11-20.26,0-30.39a19.71,19.71,0,0,0-5.63-14.2,94.5,94.5,0,0,0-11.54-10.07c-3.26-2.58-6.62-5.06-9.34-8.25a9.76,9.76,0,0,1-2.66-5.37,8,8,0,0,1,2.85-6.73c2.73-2.53,5.67-4.84,8.57-7.17,3.34-2.69,6.82-5.21,10.09-8a22.57,22.57,0,0,0,6.5-8.64,15.44,15.44,0,0,0,1.11-5.85c0-6.85.05-13.7,0-20.55a22.36,22.36,0,0,0-.69-5.35c-.7-2.64-3.31-2.68-5-1.23a9.52,9.52,0,0,0-3,5.7,55.71,55.71,0,0,0-1,8c-.21,4.15-.28,8.31-.21,12.45a17.58,17.58,0,0,1-4.54,12.12c-3.17,3.68-7.08,6.5-10.92,9.42-3.35,2.55-6.68,5.16-9.9,7.88a14.54,14.54,0,0,0-2.79,3.52,6.62,6.62,0,0,0-.09,7,22,22,0,0,0,5.67,6.34c4.11,3.4,8.33,6.68,12.42,10.11a33.79,33.79,0,0,1,7.88,9,16.31,16.31,0,0,1,2.24,8.14q0,16.23,0,32.46v.81h-36.58v-1.12c0-10.27-.19-20.53.06-30.79a19.69,19.69,0,0,0-6.4-15.64c-3.53-3.31-7.36-6.3-11.12-9.35-3.21-2.6-6.6-5-9.25-8.19a3.76,3.76,0,0,1-.25-.31c-2.88-3.71-2.86-7,.09-10.7,2.35-2.91,5.37-5.08,8.27-7.37,3.6-2.84,7.24-5.63,10.73-8.61a21.57,21.57,0,0,0,6.63-8.88,18.56,18.56,0,0,0,1.18-5.82c.13-7.47.09-14.95,0-22.43a6.74,6.74,0,0,0-1-3.36c-1.06-1.69-3.22-1.73-4.85-.51a8.44,8.44,0,0,0-2.94,5.37,52.93,52.93,0,0,0-1,8.14c-.21,4.31-.15,8.63-.25,12.94a17.52,17.52,0,0,1-4.56,11c-3.25,3.88-7.25,6.9-11.22,10-2.88,2.22-5.78,4.42-8.51,6.81a21.28,21.28,0,0,0-3.6,4.25,6.69,6.69,0,0,0-.1,7.35,19.54,19.54,0,0,0,4.84,5.52c4.16,3.39,8.41,6.68,12.57,10.06a38.68,38.68,0,0,1,7.43,7.69,17.1,17.1,0,0,1,3.18,10.12c0,10.89,0,21.77,0,32.66Z"/><path class="cls-1" d="M0,63.65V2.48H17.39l14.42,47.1.7,7H34l.62-7L49,2.48H66.5V63.65H55.93V9.56H54.44l-.78,11.36L40.29,63.65H26.13L12.85,20.92,12,9.56H10.49V63.65Z"/><path class="cls-1" d="M117.8,45.21H87.3a15.1,15.1,0,0,0,2.36,7.08c1.84,2.62,4.63,4.11,8.74,4.11,4.46,0,7.78-2,9.09-5.77H117.8c-1.49,8.39-9.18,14.24-19.14,14.24-8.3,0-14.15-2.79-17.74-8C78.3,53.16,77,48.36,77,42.59a25.31,25.31,0,0,1,4.28-14.51C84.94,22.75,90.88,20,97.79,20c12.76,0,20,8,20,21.76Zm-10.4-7.43c-.26-6.2-3.67-9.52-9.52-9.52a9.93,9.93,0,0,0-8.31,4.19,13.94,13.94,0,0,0-2,5.33Z"/><path class="cls-1" d="M160.62,29.92H141V49.49c0,4.37,1.83,6.38,4.63,6.38,3.41,0,4.72-2.09,4.72-7.34V42.42h10.31v6.29c0,10.13-5.59,16.16-15,16.16-10.05,0-14.94-5.15-14.94-15.29V29.92h-8.39V21.18h8.39V13.75L141,9V21.18h19.66Z"/><path class="cls-1" d="M205.36,36V63.65H195.05l2.45-11.36H196c-2.18,8.56-6.81,12.58-14.59,12.58a13.24,13.24,0,0,1-9.53-3.58,11.63,11.63,0,0,1-3.23-8.48q0-5.51,3.15-8.65,3.93-3.93,11.79-4.45l11.45-.79V36c0-4.64-2.79-7.43-8.47-7.43-8.22,0-8.31,6.38-8.31,7.16v.35H167.79v-.35c0-1.22.08-15.81,19.05-15.81C199.07,20,205.36,25.72,205.36,36Zm-10.31,9.87-9,1c-2.53.26-4.37,1-5.5,2.1a4.52,4.52,0,0,0-1.32,3.32,4.15,4.15,0,0,0,1.23,3.15,5.59,5.59,0,0,0,4.11,1.39C192,56.83,195,49.84,195.05,45.91Z"/><path class="cls-1" d="M217.6,63.65V21.18h10.31l-2.62,11.36h1.48C229,24.41,233.06,20,239.88,20c6.12,0,11.19,4.28,11.19,12.58h1.48C254.74,23.36,259.89,20,266.36,20c8.91,0,13.81,5.68,13.81,16.51V63.65H269.59V38.57c0-6-2.36-9.18-6.9-9.18-5.59,0-8.74,4.46-8.74,11.54V63.65H243.64V38.57c0-6-3-9.18-7.08-9.18-5.68,0-8.65,4.37-8.65,11.54V63.65Z"/><path class="cls-1" d="M292.93,55.87A23,23,0,0,1,289,42.42,23.05,23.05,0,0,1,292.93,29c3.84-5.77,10.31-9,18.17-9s14.42,3.23,18.27,9a23.12,23.12,0,0,1,3.93,13.46,23.11,23.11,0,0,1-3.93,13.45c-3.85,5.77-10.32,9-18.27,9S296.77,61.64,292.93,55.87Zm27.43-4.8a15.53,15.53,0,0,0,2.37-8.65,15.54,15.54,0,0,0-2.37-8.66,11.37,11.37,0,0,0-18.43,0,14.87,14.87,0,0,0-2.45,8.66,14.86,14.86,0,0,0,2.45,8.65,11.36,11.36,0,0,0,18.43,0Z"/><path class="cls-1" d="M343,63.65V21.18h10.22l-3,12.23h1.58C353.92,24.15,358.55,20,365,20c7.87,0,11.71,5.15,11.71,14V43.2H366.16V37.43c0-5.59-1.93-7.86-5.77-7.86-4.63,0-7.08,3.93-7.08,11.36V63.65Z"/><path class="cls-1" d="M385.47,79.38V21.18h10.31l-2.62,11.36h1.49c2.44-8.21,7.6-12.58,15.2-12.58a17.34,17.34,0,0,1,14.86,7.6c2.62,3.76,3.93,8.83,3.93,14.86s-1.31,11.09-3.93,14.85a17.34,17.34,0,0,1-14.86,7.6c-7.6,0-12.76-4.37-15.2-12.58h-1.49l2.62,11.36V79.38ZM415.71,51.5a15.56,15.56,0,0,0,2.44-9.08,15.58,15.58,0,0,0-2.44-9.09,11.25,11.25,0,0,0-17.66,0,15.58,15.58,0,0,0-2.44,9.09,15.56,15.56,0,0,0,2.44,9.08,11.23,11.23,0,0,0,17.66,0Z"/><path class="cls-1" d="M438.86,63.65V2.48h10.32v18.7l-2.63,11.36H448c2.54-8.3,7.34-12.58,14.33-12.58,10.05,0,15.38,5.94,15.38,17.3V63.65H467.18V38.92c0-6.29-2.71-9.53-8.13-9.53-6,0-9.87,4.64-9.87,12.15V63.65Z"/><path class="cls-1" d="M490.51,55.87a23.11,23.11,0,0,1-3.93-13.45A23.12,23.12,0,0,1,490.51,29c3.85-5.77,10.31-9,18.18-9s14.42,3.23,18.26,9a23,23,0,0,1,3.93,13.46A23,23,0,0,1,527,55.87c-3.84,5.77-10.31,9-18.26,9S494.36,61.64,490.51,55.87ZM518,51.07a15.53,15.53,0,0,0,2.36-8.65A15.54,15.54,0,0,0,518,33.76a11.38,11.38,0,0,0-18.44,0,14.94,14.94,0,0,0-2.44,8.66,14.93,14.93,0,0,0,2.44,8.65,11.37,11.37,0,0,0,18.44,0Z"/><path class="cls-1" d="M537.88,50.28v-.52h10v.52c0,4.37,2.53,6.55,7.51,6.55,2.54,0,4.37-.52,5.51-1.66a4.18,4.18,0,0,0,1.22-3.05c0-2.63-1.48-4.2-5.5-5l-6.29-1.39c-7.87-1.58-11.8-5.68-11.8-12.68a11.65,11.65,0,0,1,3.32-8.56c3-3,7.69-4.54,13.81-4.54,10.74,0,17.12,5.59,17.12,14.68v.44h-10v-.44c0-4.37-2.62-6.64-7.6-6.64-2.54,0-4.37.52-5.51,1.66a4.22,4.22,0,0,0-1.22,3.05c0,2.54,1.75,4,5.51,4.81l5.5,1.22c8.74,1.84,12.67,5.77,12.67,12.94a11.42,11.42,0,0,1-3.41,8.65c-2.88,3-7.6,4.54-13.63,4.54C544.26,64.87,537.88,59.46,537.88,50.28Z"/><path class="cls-1" d="M583.06,15.15V4.4h11.27V15.15Zm.43,48.5V21.18H593.8V63.65Z"/><path class="cls-1" d="M604.2,50.28v-.52h10v.52c0,4.37,2.53,6.55,7.51,6.55,2.54,0,4.37-.52,5.51-1.66a4.22,4.22,0,0,0,1.22-3.05c0-2.63-1.49-4.2-5.5-5l-6.3-1.39c-7.86-1.58-11.79-5.68-11.79-12.68a11.65,11.65,0,0,1,3.32-8.56c3-3,7.69-4.54,13.8-4.54,10.75,0,17.13,5.59,17.13,14.68v.44h-10v-.44c0-4.37-2.62-6.64-7.6-6.64-2.54,0-4.37.52-5.51,1.66a4.22,4.22,0,0,0-1.22,3.05c0,2.54,1.75,4,5.5,4.81l5.51,1.22c8.74,1.84,12.67,5.77,12.67,12.94a11.45,11.45,0,0,1-3.41,8.65c-2.88,3-7.6,4.54-13.63,4.54C610.58,64.87,604.2,59.46,604.2,50.28Z"/><path class="cls-1" d="M647.81,28.35a5.17,5.17,0,0,1,5.24-5.51c3.06,0,5.07,2.27,5.16,5.51a5.2,5.2,0,1,1-10.4,0Zm0,30.84a5.17,5.17,0,0,1,5.24-5.5c3.06,0,5.07,2.27,5.16,5.5a5.2,5.2,0,1,1-10.4,0Z"/><path class="cls-1" d="M687.22,63.65V2.48h36.7V12.62H698.06V28h25V38h-25V53.51h25.86V63.65Z"/><path class="cls-1" d="M730.83,63.65l14.42-21.32L730.83,21.18h12.23l8.39,13.28.18,3.5h1.48l.18-3.5,8.39-13.28h12.23L759.49,42.33l14.42,21.32H761.68l-8.39-12.93-.18-3.41h-1.48l-.18,3.41-8.39,12.93Z"/><path class="cls-1" d="M782.39,79.38V21.18H792.7l-2.62,11.36h1.48C794,24.33,799.16,20,806.77,20a17.32,17.32,0,0,1,14.85,7.6c2.63,3.76,3.94,8.83,3.94,14.86s-1.31,11.09-3.94,14.85a17.32,17.32,0,0,1-14.85,7.6c-7.61,0-12.76-4.37-15.21-12.58h-1.48l2.62,11.36V79.38ZM812.62,51.5a15.49,15.49,0,0,0,2.45-9.08,15.5,15.5,0,0,0-2.45-9.09,11.24,11.24,0,0,0-17.65,0,15.58,15.58,0,0,0-2.45,9.09A15.56,15.56,0,0,0,795,51.5a11.22,11.22,0,0,0,17.65,0Z"/><path class="cls-1" d="M873.18,45.21h-30.5A15.1,15.1,0,0,0,845,52.29c1.84,2.62,4.64,4.11,8.74,4.11,4.46,0,7.78-2,9.09-5.77h10.31C871.7,59,864,64.87,854.05,64.87c-8.31,0-14.16-2.79-17.74-8-2.63-3.67-3.94-8.47-3.94-14.24a25.24,25.24,0,0,1,4.29-14.51c3.66-5.33,9.61-8.12,16.51-8.12,12.76,0,20,8,20,21.76Zm-10.4-7.43c-.26-6.2-3.67-9.52-9.52-9.52a9.9,9.9,0,0,0-8.3,4.19,13.94,13.94,0,0,0-2,5.33Z"/><path class="cls-1" d="M883,63.65V21.18H893.2l-3,12.23h1.57C893.89,24.15,898.53,20,905,20c7.87,0,11.71,5.15,11.71,14V43.2H906.13V37.43c0-5.59-1.92-7.86-5.77-7.86-4.63,0-7.08,3.93-7.08,11.36V63.65Z"/><path class="cls-1" d="M925,15.15V4.4h11.28V15.15Zm.44,48.5V21.18h10.31V63.65Z"/><path class="cls-1" d="M948.86,63.65V21.18h10.31l-2.62,11.36H958C960.22,24.41,964.33,20,971.15,20c6.11,0,11.18,4.28,11.18,12.58h1.49C986,23.36,991.16,20,997.62,20c8.92,0,13.81,5.68,13.81,16.51V63.65h-10.57V38.57c0-6-2.36-9.18-6.91-9.18-5.59,0-8.74,4.46-8.74,11.54V63.65H974.9V38.57c0-6-3-9.18-7.07-9.18-5.69,0-8.66,4.37-8.66,11.54V63.65Z"/><path class="cls-1" d="M1061.07,45.21h-30.5a15.1,15.1,0,0,0,2.36,7.08c1.84,2.62,4.63,4.11,8.74,4.11,4.46,0,7.78-2,9.09-5.77h10.31c-1.49,8.39-9.18,14.24-19.14,14.24-8.3,0-14.16-2.79-17.74-8-2.62-3.67-3.93-8.47-3.93-14.24a25.31,25.31,0,0,1,4.28-14.51c3.67-5.33,9.61-8.12,16.52-8.12,12.76,0,20,8,20,21.76Zm-10.4-7.43c-.26-6.2-3.67-9.52-9.53-9.52a9.93,9.93,0,0,0-8.3,4.19,13.94,13.94,0,0,0-2,5.33Z"/><path class="cls-1" d="M1070.86,63.65V21.18h10.31l-2.62,11.36H1080c2.54-8.3,7.34-12.58,14.33-12.58,10.05,0,15.38,5.94,15.38,17.3V63.65h-10.57V38.92c0-6.29-2.71-9.53-8.13-9.53-6,0-9.87,4.64-9.87,12.15V63.65Z"/><path class="cls-1" d="M1155,29.92h-19.66V49.49c0,4.37,1.83,6.38,4.63,6.38,3.41,0,4.72-2.09,4.72-7.34V42.42H1155v6.29c0,10.13-5.59,16.16-15,16.16-10,0-14.94-5.15-14.94-15.29V29.92h-8.39V21.18H1125V13.75L1135.35,9V21.18H1155Z"/><path class="cls-1" d="M1162.35,50.28v-.52h10v.52c0,4.37,2.53,6.55,7.51,6.55,2.53,0,4.37-.52,5.5-1.66a4.18,4.18,0,0,0,1.23-3.05c0-2.63-1.49-4.2-5.51-5l-6.29-1.39c-7.86-1.58-11.8-5.68-11.8-12.68a11.65,11.65,0,0,1,3.33-8.56c3-3,7.69-4.54,13.8-4.54,10.75,0,17.13,5.59,17.13,14.68v.44h-10v-.44c0-4.37-2.62-6.64-7.61-6.64-2.53,0-4.36.52-5.5,1.66a4.18,4.18,0,0,0-1.22,3.05c0,2.54,1.74,4,5.5,4.81l5.51,1.22c8.74,1.84,12.67,5.77,12.67,12.94a11.45,11.45,0,0,1-3.41,8.65c-2.88,3-7.6,4.54-13.63,4.54C1168.73,64.87,1162.35,59.46,1162.35,50.28Z"/><path class="cls-1" d="M1229.2,15.15V4.4h11.28V15.15Zm.44,48.5V21.18H1240V63.65Z"/><path class="cls-1" d="M1253.06,63.65V21.18h10.31l-2.62,11.36h1.49c2.53-8.3,7.34-12.58,14.33-12.58,10,0,15.38,5.94,15.38,17.3V63.65h-10.58V38.92c0-6.29-2.71-9.53-8.12-9.53-6,0-9.88,4.64-9.88,12.15V63.65Z"/><path class="cls-1" d="M1358.89,29.92h-19.67V49.49c0,4.37,1.84,6.38,4.64,6.38,3.4,0,4.71-2.09,4.71-7.34V42.42h10.32v6.29c0,10.13-5.6,16.16-15,16.16-10,0-14.95-5.15-14.95-15.29V29.92h-8.39V21.18h8.39V13.75L1339.22,9V21.18h19.67Z"/><path class="cls-1" d="M1368.94,63.65V2.48h10.31v18.7l-2.62,11.36h1.48c2.54-8.3,7.34-12.58,14.33-12.58,10,0,15.38,5.94,15.38,17.3V63.65h-10.57V38.92c0-6.29-2.71-9.53-8.13-9.53-6,0-9.87,4.64-9.87,12.15V63.65Z"/><path class="cls-1" d="M1457.46,45.21H1427a15.1,15.1,0,0,0,2.36,7.08c1.84,2.62,4.63,4.11,8.74,4.11,4.46,0,7.78-2,9.09-5.77h10.31c-1.49,8.39-9.18,14.24-19.14,14.24-8.3,0-14.15-2.79-17.74-8-2.62-3.67-3.93-8.47-3.93-14.24a25.31,25.31,0,0,1,4.28-14.51c3.67-5.33,9.61-8.12,16.52-8.12,12.76,0,20,8,20,21.76Zm-10.4-7.43c-.26-6.2-3.67-9.52-9.52-9.52a9.93,9.93,0,0,0-8.31,4.19,13.94,13.94,0,0,0-2,5.33Z"/><path class="cls-1" d="M1489.71,63.65V2.48h22.54c13.81,0,24.12,6.73,28.23,18.26a38.88,38.88,0,0,1,1.92,12.32,36.58,36.58,0,0,1-2,12.41c-4.11,11.54-14.24,18.18-28.14,18.18Zm10.83-10.14H1513a16.89,16.89,0,0,0,16.61-11.71,25.11,25.11,0,0,0,1.48-8.74,26.51,26.51,0,0,0-1.48-8.91A17,17,0,0,0,1513,12.62h-12.41Z"/><path class="cls-1" d="M1589.85,45.21h-30.49a14.88,14.88,0,0,0,2.36,7.08c1.83,2.62,4.63,4.11,8.73,4.11,4.46,0,7.78-2,9.09-5.77h10.31c-1.48,8.39-9.17,14.24-19.13,14.24-8.31,0-14.16-2.79-17.74-8-2.63-3.67-3.94-8.47-3.94-14.24a25.24,25.24,0,0,1,4.29-14.51c3.67-5.33,9.61-8.12,16.51-8.12,12.76,0,20,8,20,21.76Zm-10.4-7.43c-.26-6.2-3.67-9.52-9.52-9.52a9.9,9.9,0,0,0-8.3,4.19,13.94,13.94,0,0,0-2,5.33Z"/><path class="cls-1" d="M1596.93,50.28v-.52h10v.52c0,4.37,2.53,6.55,7.51,6.55,2.53,0,4.37-.52,5.5-1.66a4.18,4.18,0,0,0,1.23-3.05c0-2.63-1.49-4.2-5.51-5l-6.29-1.39c-7.86-1.58-11.8-5.68-11.8-12.68a11.68,11.68,0,0,1,3.32-8.56c3-3,7.7-4.54,13.81-4.54,10.75,0,17.13,5.59,17.13,14.68v.44h-10v-.44c0-4.37-2.62-6.64-7.61-6.64-2.53,0-4.36.52-5.5,1.66a4.18,4.18,0,0,0-1.22,3.05c0,2.54,1.74,4,5.5,4.81l5.51,1.22c8.74,1.84,12.67,5.77,12.67,12.94a11.45,11.45,0,0,1-3.41,8.65c-2.88,3-7.6,4.54-13.63,4.54C1603.31,64.87,1596.93,59.46,1596.93,50.28Z"/><path class="cls-1" d="M1642.11,15.15V4.4h11.28V15.15Zm.44,48.5V21.18h10.31V63.65Z"/><path class="cls-1" d="M1663.08,63.82h10.14c.44,5.07,3.67,8.13,10.14,8.13,6.73,0,10.57-3.93,10.57-11V59.81l3.24-11.54h-1.49c-2.36,8.91-7.78,12.67-14.33,12.67-6.21,0-11.36-2.62-14.51-7.25-2.44-3.41-3.76-7.95-3.76-13.29a23,23,0,0,1,3.76-13.28c3.15-4.63,8.3-7.16,14.51-7.16,6.55,0,12,3.75,14.33,12.67h1.49L1694,21.18h10.23V57.62c0,15.29-7,22.9-20.89,22.9C1670.43,80.52,1663.61,74.49,1663.08,63.82ZM1692,48.36a13.35,13.35,0,0,0,2.27-8,13.25,13.25,0,0,0-2.27-7.86,10.22,10.22,0,0,0-16.25,0,13.19,13.19,0,0,0-2.28,7.86,13.29,13.29,0,0,0,2.28,8,10.22,10.22,0,0,0,16.25,0Z"/><path class="cls-1" d="M1717,63.65V21.18h10.32l-2.63,11.36h1.49c2.53-8.3,7.34-12.58,14.33-12.58,10,0,15.38,5.94,15.38,17.3V63.65h-10.57V38.92c0-6.29-2.71-9.53-8.13-9.53-6,0-9.87,4.64-9.87,12.15V63.65Z"/><path class="cls-1" d="M1790.32,55.87a23.11,23.11,0,0,1-3.93-13.45A23.12,23.12,0,0,1,1790.32,29c3.85-5.77,10.31-9,18.18-9s14.42,3.23,18.26,9a23.05,23.05,0,0,1,3.94,13.46,23,23,0,0,1-3.94,13.45c-3.84,5.77-10.31,9-18.26,9S1794.17,61.64,1790.32,55.87Zm27.44-4.8a15.53,15.53,0,0,0,2.36-8.65,15.54,15.54,0,0,0-2.36-8.66,11.38,11.38,0,0,0-18.44,0,14.94,14.94,0,0,0-2.44,8.66,14.93,14.93,0,0,0,2.44,8.65,11.37,11.37,0,0,0,18.44,0Z"/><path class="cls-1" d="M1864.25,15.67v-.26c0-3.93-1.83-5.94-5-5.94-3.49,0-5.5,2.45-5.5,6.47v5.24h15.55v8.74h-15.55V63.65h-10.32V29.92h-8.38V21.18h8.38V16.29c0-9.27,6.12-15.12,15.74-15.12,9.87,0,15.2,4.8,15.2,14.15v.35Z"/><path class="cls-1" d="M1900.34,63.65V2.48h10.84V63.65Z"/><path class="cls-1" d="M1925.07,63.65V21.18h10.32l-2.63,11.36h1.49c2.53-8.3,7.34-12.58,14.33-12.58,10.05,0,15.38,5.94,15.38,17.3V63.65h-10.57V38.92c0-6.29-2.71-9.53-8.13-9.53-6,0-9.87,4.64-9.87,12.15V63.65Z"/><path class="cls-1" d="M2009.23,29.92h-19.66V49.49c0,4.37,1.83,6.38,4.63,6.38,3.41,0,4.72-2.09,4.72-7.34V42.42h10.31v6.29c0,10.13-5.59,16.16-15,16.16-10,0-14.94-5.15-14.94-15.29V29.92h-8.39V21.18h8.39V13.75L1989.57,9V21.18h19.66Z"/><path class="cls-1" d="M2056.68,45.21h-30.5a15.1,15.1,0,0,0,2.36,7.08c1.84,2.62,4.63,4.11,8.74,4.11,4.46,0,7.78-2,9.09-5.77h10.31c-1.48,8.39-9.18,14.24-19.14,14.24-8.3,0-14.15-2.79-17.74-8-2.62-3.67-3.93-8.47-3.93-14.24a25.31,25.31,0,0,1,4.28-14.51c3.67-5.33,9.62-8.12,16.52-8.12,12.76,0,20,8,20,21.76Zm-10.4-7.43c-.26-6.2-3.67-9.52-9.52-9.52a9.9,9.9,0,0,0-8.3,4.19,13.78,13.78,0,0,0-2,5.33Z"/><path class="cls-1" d="M2066.47,63.65V21.18h10.22l-3,12.23h1.57c2.1-9.26,6.73-13.45,13.2-13.45,7.87,0,11.71,5.15,11.71,14V43.2h-10.57V37.43c0-5.59-1.93-7.86-5.77-7.86-4.63,0-7.08,3.93-7.08,11.36V63.65Z"/><path class="cls-1" d="M2143.63,36V63.65h-10.31l2.45-11.36h-1.49c-2.18,8.56-6.81,12.58-14.59,12.58a13.22,13.22,0,0,1-9.53-3.58,11.63,11.63,0,0,1-3.23-8.48q0-5.51,3.15-8.65,3.93-3.93,11.79-4.45l11.45-.79V36c0-4.64-2.8-7.43-8.48-7.43-8.21,0-8.3,6.38-8.3,7.16v.35h-10.48v-.35c0-1.22.08-15.81,19.05-15.81C2137.34,20,2143.63,25.72,2143.63,36Zm-10.31,9.87-9,1c-2.54.26-4.37,1-5.51,2.1a4.55,4.55,0,0,0-1.31,3.32,4.15,4.15,0,0,0,1.23,3.15,5.58,5.58,0,0,0,4.1,1.39C2130.26,56.83,2133.23,49.84,2133.32,45.91Z"/><path class="cls-1" d="M2156.39,56.83c-2.62-3.67-3.93-8.47-3.93-14.24,0-5.94,1.48-10.84,4-14.51,3.76-5.33,9.79-8.12,17.39-8.12,11.36,0,19.49,6.64,19.84,17h-10.23c-.78-5.07-4.19-7.95-9.52-7.95a9.84,9.84,0,0,0-8.48,4.1c-1.66,2.36-2.53,5.42-2.53,9.44a15.93,15.93,0,0,0,2.44,9.18,9.26,9.26,0,0,0,8.13,4c5.15,0,8.39-2.8,9.09-8h10.22c-.26,10.49-8.21,17-19.57,17C2165.83,64.87,2160,62.08,2156.39,56.83Z"/><path class="cls-1" d="M2236.26,29.92H2216.6V49.49c0,4.37,1.84,6.38,4.63,6.38,3.41,0,4.72-2.09,4.72-7.34V42.42h10.31v6.29c0,10.13-5.59,16.16-15,16.16-10.05,0-14.94-5.15-14.94-15.29V29.92h-8.39V21.18h8.39V13.75L2216.6,9V21.18h19.66Z"/><path class="cls-1" d="M2245.88,15.15V4.4h11.27V15.15Zm.43,48.5V21.18h10.32V63.65Z"/><path class="cls-1" d="M2278,63.65,2264.4,21.18h10.93l10.05,33.12.26,3.23h1.48l.27-3.23,10.05-33.12h10.92l-13.63,42.47Z"/><path class="cls-1" d="M2353.54,45.21H2323a15.1,15.1,0,0,0,2.36,7.08c1.84,2.62,4.63,4.11,8.74,4.11,4.46,0,7.78-2,9.09-5.77h10.31c-1.49,8.39-9.18,14.24-19.14,14.24-8.3,0-14.16-2.79-17.74-8-2.62-3.67-3.93-8.47-3.93-14.24A25.31,25.31,0,0,1,2317,28.08c3.67-5.33,9.61-8.12,16.52-8.12,12.76,0,20,8,20,21.76Zm-10.4-7.43c-.26-6.2-3.67-9.52-9.53-9.52a9.93,9.93,0,0,0-8.3,4.19,13.94,13.94,0,0,0-2,5.33Z"/><path class="cls-1" d="M2385.78,63.65V2.48h17.39l14.42,47.1.7,7h1.49l.61-7,14.42-47.1h17.48V63.65h-10.58V9.56h-1.48l-.79,11.36-13.37,42.73h-14.16l-13.28-42.73-.87-11.36h-1.49V63.65Z"/><path class="cls-1" d="M2466.71,55.87a23,23,0,0,1-3.94-13.45A23.05,23.05,0,0,1,2466.71,29c3.84-5.77,10.31-9,18.17-9s14.42,3.23,18.27,9a23.12,23.12,0,0,1,3.93,13.46,23.11,23.11,0,0,1-3.93,13.45c-3.85,5.77-10.32,9-18.27,9S2470.55,61.64,2466.71,55.87Zm27.43-4.8a15.53,15.53,0,0,0,2.36-8.65,15.54,15.54,0,0,0-2.36-8.66,11.37,11.37,0,0,0-18.43,0,14.87,14.87,0,0,0-2.45,8.66,14.86,14.86,0,0,0,2.45,8.65,11.36,11.36,0,0,0,18.43,0Z"/><path class="cls-1" d="M2525.08,63.65l-13.63-42.47h10.92l10.05,33.12.26,3.23h1.49l.26-3.23,10.05-33.12h10.92l-13.63,42.47Z"/><path class="cls-1" d="M2562.75,15.15V4.4H2574V15.15Zm.43,48.5V21.18h10.31V63.65Z"/><path class="cls-1" d="M2586.6,63.65V21.18h10.31l-2.62,11.36h1.49c2.53-8.3,7.34-12.58,14.33-12.58,10,0,15.38,5.94,15.38,17.3V63.65h-10.58V38.92c0-6.29-2.7-9.53-8.12-9.53-6,0-9.88,4.64-9.88,12.15V63.65Z"/><path class="cls-1" d="M2634.84,63.82H2645c.43,5.07,3.67,8.13,10.14,8.13,6.72,0,10.57-3.93,10.57-11V59.81l3.23-11.54h-1.48c-2.36,8.91-7.78,12.67-14.34,12.67-6.2,0-11.36-2.62-14.5-7.25-2.45-3.41-3.76-7.95-3.76-13.29a22.89,22.89,0,0,1,3.76-13.28c3.14-4.63,8.3-7.16,14.5-7.16,6.56,0,12,3.75,14.34,12.67h1.48l-3.14-11.45H2676V57.62c0,15.29-7,22.9-20.88,22.9C2642.18,80.52,2635.37,74.49,2634.84,63.82Zm28.93-15.46a13.35,13.35,0,0,0,2.27-8,13.25,13.25,0,0,0-2.27-7.86,10.23,10.23,0,0,0-16.26,0,13.25,13.25,0,0,0-2.27,7.86,13.35,13.35,0,0,0,2.27,8,10.23,10.23,0,0,0,16.26,0Z"/><path class="cls-1" d="M2754.12,20.92a18.91,18.91,0,0,1-2.35,9.61c-3.15,5.59-9.62,8.91-17.66,8.91h-12.06V63.65h-10.83V2.48h22.89c8,0,14.51,3.23,17.66,8.83A18.88,18.88,0,0,1,2754.12,20.92Zm-11,0a9.61,9.61,0,0,0-1.13-4.63c-1.4-2.36-4.28-3.94-8.39-3.94h-11.54V29.48h11.54c4.11,0,7-1.57,8.39-3.93A9.64,9.64,0,0,0,2743.11,20.92Z"/><path class="cls-1" d="M2763.56,55.87a23.11,23.11,0,0,1-3.93-13.45A23.12,23.12,0,0,1,2763.56,29c3.85-5.77,10.31-9,18.18-9s14.42,3.23,18.26,9a23.05,23.05,0,0,1,3.94,13.46A23,23,0,0,1,2800,55.87c-3.84,5.77-10.31,9-18.26,9S2767.41,61.64,2763.56,55.87Zm27.44-4.8a15.53,15.53,0,0,0,2.36-8.65,15.54,15.54,0,0,0-2.36-8.66,11.38,11.38,0,0,0-18.44,0,14.94,14.94,0,0,0-2.44,8.66,14.93,14.93,0,0,0,2.44,8.65,11.37,11.37,0,0,0,18.44,0Z"/><path class="cls-1" d="M2810.93,50.28v-.52h10v.52c0,4.37,2.54,6.55,7.52,6.55,2.53,0,4.37-.52,5.5-1.66a4.18,4.18,0,0,0,1.23-3.05c0-2.63-1.49-4.2-5.51-5l-6.29-1.39c-7.87-1.58-11.8-5.68-11.8-12.68a11.68,11.68,0,0,1,3.32-8.56c3-3,7.69-4.54,13.81-4.54,10.75,0,17.13,5.59,17.13,14.68v.44h-10v-.44c0-4.37-2.62-6.64-7.6-6.64-2.53,0-4.37.52-5.5,1.66a4.18,4.18,0,0,0-1.23,3.05c0,2.54,1.75,4,5.51,4.81l5.5,1.22c8.74,1.84,12.67,5.77,12.67,12.94a11.45,11.45,0,0,1-3.4,8.65c-2.89,3-7.61,4.54-13.64,4.54C2817.31,64.87,2810.93,59.46,2810.93,50.28Z"/><path class="cls-1" d="M2889.58,29.92h-19.66V49.49c0,4.37,1.83,6.38,4.63,6.38,3.4,0,4.72-2.09,4.72-7.34V42.42h10.31v6.29c0,10.13-5.6,16.16-15,16.16-10.05,0-15-5.15-15-15.29V29.92h-8.39V21.18h8.39V13.75L2869.92,9V21.18h19.66Z"/><path class="cls-1" d="M2937,45.21h-30.5a15.1,15.1,0,0,0,2.36,7.08c1.84,2.62,4.63,4.11,8.74,4.11,4.46,0,7.78-2,9.09-5.77H2937c-1.48,8.39-9.17,14.24-19.14,14.24-8.3,0-14.15-2.79-17.74-8-2.62-3.67-3.93-8.47-3.93-14.24a25.31,25.31,0,0,1,4.28-14.51c3.67-5.33,9.61-8.12,16.52-8.12,12.76,0,20,8,20,21.76Zm-10.4-7.43c-.26-6.2-3.67-9.52-9.52-9.52a9.93,9.93,0,0,0-8.31,4.19,13.94,13.94,0,0,0-2,5.33Z"/><path class="cls-1" d="M2946.82,63.65V21.18H2957l-3,12.23h1.57c2.1-9.26,6.73-13.45,13.2-13.45,7.86,0,11.71,5.15,11.71,14V43.2H2970V37.43c0-5.59-1.93-7.86-5.77-7.86-4.63,0-7.08,3.93-7.08,11.36V63.65Z"/><path class="cls-1" d="M2986.58,50.28v-.52h10v.52c0,4.37,2.54,6.55,7.52,6.55,2.53,0,4.37-.52,5.5-1.66a4.18,4.18,0,0,0,1.23-3.05c0-2.63-1.49-4.2-5.51-5L2999,45.74c-7.87-1.58-11.8-5.68-11.8-12.68a11.68,11.68,0,0,1,3.32-8.56c3-3,7.69-4.54,13.81-4.54,10.75,0,17.13,5.59,17.13,14.68v.44h-10v-.44c0-4.37-2.63-6.64-7.61-6.64-2.53,0-4.37.52-5.5,1.66a4.18,4.18,0,0,0-1.23,3.05c0,2.54,1.75,4,5.51,4.81l5.5,1.22c8.74,1.84,12.68,5.77,12.68,12.94a11.45,11.45,0,0,1-3.41,8.65c-2.89,3-7.6,4.54-13.63,4.54C2993,64.87,2986.58,59.46,2986.58,50.28Z"/><path class="cls-1" d="M0,168.52V107.35H36.7v10.13H10.84v15.73H35.13v10H10.84v25.34Z"/><path class="cls-1" d="M45,152.44V126.05H55.49v24.73c0,6.29,2.62,9.52,7.78,9.52,5.77,0,9.44-4.63,9.44-12.14V126.05H83v42.47H72.71l2.62-11.36H73.84c-2.44,8.3-7.08,12.58-13.89,12.58C50.07,169.74,45,163.8,45,152.44Z"/><path class="cls-1" d="M96.13,168.52V107.35h10.31v61.17Z"/><path class="cls-1" d="M119.55,168.52V107.35h10.31v61.17Z"/><path class="cls-1" d="M165.43,168.52V107.35h36.7v10.13H176.26v15.38h25v10h-25v15.55h25.87v10.14Z"/><path class="cls-1" d="M209,168.52l14.42-21.32L209,126.05h12.24l8.39,13.28.17,3.5h1.49l.17-3.5,8.39-13.28h12.23L237.69,147.2l14.42,21.32H239.88l-8.39-12.94-.17-3.4h-1.49l-.17,3.4-8.39,12.94Z"/><path class="cls-1" d="M260.59,168.52V107.35H270.9v18.7l-2.62,11.36h1.49c2.53-8.3,7.34-12.59,14.33-12.59,10,0,15.38,6,15.38,17.31v26.39H288.9V143.79c0-6.29-2.71-9.53-8.12-9.53-6,0-9.88,4.63-9.88,12.15v22.11Z"/><path class="cls-1" d="M311.28,120V109.27h11.27V120Zm.43,48.5V126.05H322v42.47Z"/><path class="cls-1" d="M344.31,157.16h-1.49l2.62,11.36H335.13V107.35h10.31v18.7l-2.62,11.36h1.49c2.45-8.22,7.6-12.59,15.2-12.59a17.31,17.31,0,0,1,14.86,7.61c2.62,3.75,3.93,8.82,3.93,14.85s-1.31,11.1-3.93,14.86a17.33,17.33,0,0,1-14.86,7.6C351.91,169.74,346.76,165.37,344.31,157.16Zm21.06-.79a18.09,18.09,0,0,0,0-18.18,11.24,11.24,0,0,0-17.65,0,18.09,18.09,0,0,0,0,18.18,11.24,11.24,0,0,0,17.65,0Z"/><path class="cls-1" d="M388.09,120V109.27h11.27V120Zm.44,48.5V126.05h10.31v42.47Z"/><path class="cls-1" d="M445,134.79H425.32v19.57c0,4.37,1.83,6.38,4.63,6.38,3.41,0,4.72-2.1,4.72-7.34v-6.12H445v6.29c0,10.14-5.59,16.17-15,16.17-10.05,0-14.95-5.15-14.95-15.29V134.79h-8.39v-8.74H415v-7.43l10.32-4.81v12.24H445Z"/><path class="cls-1" d="M454.59,120V109.27h11.28V120Zm.44,48.5V126.05h10.31v42.47Z"/><path class="cls-1" d="M479,160.74a25,25,0,0,1,0-26.91c3.85-5.77,10.32-9,18.18-9s14.42,3.24,18.26,9a24.94,24.94,0,0,1,0,26.91c-3.84,5.77-10.31,9-18.26,9S482.82,166.51,479,160.74Zm27.44-4.81a17,17,0,0,0,0-17.3,11.37,11.37,0,0,0-18.44,0,16.55,16.55,0,0,0,0,17.3,11.37,11.37,0,0,0,18.44,0Z"/><path class="cls-1" d="M529.05,168.52V126.05h10.31l-2.62,11.36h1.48c2.54-8.3,7.34-12.59,14.33-12.59,10.05,0,15.38,6,15.38,17.31v26.39H557.36V143.79c0-6.29-2.71-9.53-8.13-9.53-6,0-9.87,4.63-9.87,12.15v22.11Z"/><path class="cls-1" d="M636.53,140.9v27.62H626.22l2.45-11.36h-1.49c-2.18,8.56-6.81,12.58-14.59,12.58a13.24,13.24,0,0,1-9.53-3.58,11.63,11.63,0,0,1-3.23-8.48q0-5.51,3.15-8.65,3.93-3.93,11.79-4.46l11.45-.78V140.9c0-4.63-2.8-7.42-8.48-7.42-8.21,0-8.3,6.37-8.3,7.16V141H599v-.35c0-1.22.08-15.82,19-15.82C630.24,124.82,636.53,130.59,636.53,140.9Zm-10.31,9.88-9,1q-3.79.39-5.51,2.1a4.55,4.55,0,0,0-1.31,3.32,4.11,4.11,0,0,0,1.23,3.14,5.58,5.58,0,0,0,4.1,1.4C623.16,161.7,626.13,154.71,626.22,150.78Z"/><path class="cls-1" d="M681.8,134.79H662.14v19.57c0,4.37,1.83,6.38,4.63,6.38,3.41,0,4.72-2.1,4.72-7.34v-6.12H681.8v6.29c0,10.14-5.59,16.17-15,16.17-10,0-14.94-5.15-14.94-15.29V134.79h-8.39v-8.74h8.39v-7.43l10.31-4.81v12.24H681.8Z"/><path class="cls-1" d="M709.41,168.52l8.31-42.47H728l-4.28,10.48h1.48c3.32-7.95,8.13-11.71,14.51-11.71,7.08,0,10.66,4.9,9.44,11.71h1.48c3.15-8.3,8-11.71,14.68-11.71,11,0,13.55,8.48,11.28,20L772,168.52H761.5l4.63-23.77c1.14-6.29.26-10.49-5.77-10.49-5.59,0-8.74,4.37-10.22,11.71l-4.37,22.55H735.46l4.63-23.68c1.22-6.3.26-10.49-5.77-10.49-5.5,0-8.74,4.28-10.14,11.71l-4.45,22.46Z"/><path class="cls-1" d="M825.38,150.08H795.06a13.6,13.6,0,0,0,2,7.43,8.43,8.43,0,0,0,7.25,3.75c4.63,0,8-2.09,9.52-5.76h10.67c-3.24,9-10.32,14.24-20.54,14.24-6.82,0-12.23-2.71-15.64-7.78A21.54,21.54,0,0,1,785,150a27.29,27.29,0,0,1,4.8-15.64c3.85-5.68,10.05-9.53,18.79-9.53,13.2,0,17.91,9,17.91,17.66A28.08,28.08,0,0,1,825.38,150.08Zm-8.74-7.43a15.22,15.22,0,0,0,.18-2.1c0-3.49-1.66-7.42-8.31-7.42a12,12,0,0,0-10.31,5.33,17.49,17.49,0,0,0-2.1,4.19Z"/><path class="cls-1" d="M851.42,134.79l-3.76,19.4c-.78,3.93-.17,6.55,3.41,6.55,4.11,0,5.24-2.53,6.29-7.6l1.23-5.86h10.13l-1.22,6c-2.1,10.58-6.64,16.43-16.87,16.43-10.74,0-15.11-5.77-13.19-15.82l3.67-19.13h-8.3l1.74-8.74h8.31l1.4-7.43,11.27-4.81-2.36,12.24h19.75l-1.75,8.74Z"/><path class="cls-1" d="M914.34,142.74l-5,25.78H899l4.89-11.27h-1.48c-3.58,8.91-8.39,12.49-15.64,12.49a12.3,12.3,0,0,1-9-3.32,10.76,10.76,0,0,1-3-7.69c0-3.93,1.23-7,3.5-9.17,2.88-3,7.43-4.46,12.84-4.81l12.85-1,.26-1.49c1.31-6.46-.61-8.82-6.81-8.82-8.65,0-9.53,5.76-9.79,7.51H877c.69-3.58,3.14-16.17,21.23-16.17C910.41,124.82,916.87,130,914.34,142.74Zm-11.8,8-9.7,1.05c-2.88.35-4.89,1-6.11,2.27a4.34,4.34,0,0,0-1.32,3.5,3.72,3.72,0,0,0,1,2.88,5.32,5.32,0,0,0,3.93,1.22C898,161.7,901.84,153.75,902.54,150.78Z"/><path class="cls-1" d="M921.59,168.52l8.3-42.47h10.32l-4.29,10.48h1.49c3.32-7.95,8.13-11.71,14.51-11.71,7.08,0,10.66,4.9,9.43,11.71h1.49c3.15-8.3,8-11.71,14.68-11.71,11,0,13.55,8.48,11.27,20l-4.63,23.68H973.68l4.63-23.77c1.13-6.29.26-10.49-5.77-10.49-5.59,0-8.74,4.37-10.22,11.71L958,168.52H947.64l4.63-23.68c1.22-6.3.26-10.49-5.77-10.49-5.51,0-8.74,4.28-10.14,11.71l-4.46,22.46Z"/><path class="cls-1" d="M1000.59,161.88a21,21,0,0,1-3.41-12,27.07,27.07,0,0,1,4.72-15.47c3.94-5.6,10.23-9.62,19.49-9.62,7.6,0,13.37,3,16.69,7.87a21.59,21.59,0,0,1,3.41,12,27.7,27.7,0,0,1-4.72,15.47c-3.93,5.59-10.22,9.61-19.49,9.61C1009.68,169.74,1003.91,166.77,1000.59,161.88Zm27.27-6.47a18.18,18.18,0,0,0,3.06-10.14,12.88,12.88,0,0,0-2.1-7.51c-1.57-2.45-4.28-3.85-7.95-3.85a11.72,11.72,0,0,0-10,5.25,18.07,18.07,0,0,0-3.06,10.13,12.92,12.92,0,0,0,2.1,7.52c1.57,2.45,4.28,3.84,7.95,3.84A11.73,11.73,0,0,0,1027.86,155.41Z"/><path class="cls-1" d="M1047.08,168.52l8.31-42.47h10.22l-5.16,11.71h1.49c3.76-7.43,7.25-12.94,15.12-12.94,7.25,0,9.78,4.81,9.78,10.32,0,2.36-.34,4.63-2,12.93h-10.67c1.23-5.68,1.49-7.43,1.49-8.91,0-2.36-.79-4.72-4.54-4.72-5.33,0-8,4.45-9.35,11.88l-4.37,22.2Z"/><path class="cls-1" d="M1086.58,184.25l11.36-58.2h10.14l-4.54,10.48H1105c3.59-7.95,8.74-11.71,15.82-11.71,6,0,10.22,2.54,12.76,6.3a21.68,21.68,0,0,1,3.32,12c0,5.33-1.49,12.49-5.33,17.91a19.31,19.31,0,0,1-16.43,8.74c-8.65,0-12.76-6.12-13.46-13.46h-1.48l-.09,12.24-3.23,15.73Zm36.53-28.84a18.7,18.7,0,0,0,3.24-10.49c0-3-.44-5.33-1.84-7.34-1.57-2.36-4.54-3.67-8-3.67a11.27,11.27,0,0,0-9.61,5.25,19.4,19.4,0,0,0-3.24,10.48c0,3,.44,5.33,1.84,7.34,1.57,2.36,4.54,3.67,8,3.67A11.28,11.28,0,0,0,1123.11,155.41Z"/><path class="cls-1" d="M1142.77,168.52l11.8-61.17H1165l-3.58,18.7-4.46,10.48h1.49c3.93-8,8.47-11.71,15.55-11.71,10.75,0,14.68,8.22,12.5,19.23l-4.81,24.47h-10.48l4.71-24.3c1.14-5.85-.52-10-6.81-10-5.77,0-10,3.85-11.62,12.15l-4.37,22.11Z"/><path class="cls-1" d="M1198.09,161.88a21,21,0,0,1-3.41-12,27.07,27.07,0,0,1,4.72-15.47c3.93-5.6,10.23-9.62,19.49-9.62,7.6,0,13.37,3,16.69,7.87a21.59,21.59,0,0,1,3.41,12,27.7,27.7,0,0,1-4.72,15.47c-3.93,5.59-10.22,9.61-19.49,9.61C1207.18,169.74,1201.41,166.77,1198.09,161.88Zm27.27-6.47a18.18,18.18,0,0,0,3.06-10.14,12.88,12.88,0,0,0-2.1-7.51c-1.57-2.45-4.28-3.85-8-3.85a11.71,11.71,0,0,0-10,5.25,18.07,18.07,0,0,0-3.06,10.13,12.92,12.92,0,0,0,2.1,7.52c1.57,2.45,4.28,3.84,8,3.84A11.73,11.73,0,0,0,1225.36,155.41Z"/><path class="cls-1" d="M1244.58,156.72a9.34,9.34,0,0,1,.18-2.1h9.78a10.69,10.69,0,0,0-.17,1.75c0,3.32,2.8,5.33,7.25,5.33A7.83,7.83,0,0,0,1267,160a4.9,4.9,0,0,0,1.22-3.41c0-2.27-1.39-3.67-4.8-4.8l-5.42-1.75c-6.9-2.27-10-6.55-10-12a12.4,12.4,0,0,1,3.41-8.83c2.62-2.62,6.73-4.46,13.28-4.46,12.23,0,17.21,6.38,17.21,12.94a9.28,9.28,0,0,1-.17,2.18h-9.87a8.57,8.57,0,0,0,.17-1.66c0-3.41-3-5.5-7.6-5.5-2.62,0-4.37.7-5.33,1.74a4,4,0,0,0-1.23,3c0,2,1.4,3.58,5.42,4.8l5.33,1.66c6.29,2,9.44,5.77,9.44,11.62a13.85,13.85,0,0,1-3.58,9.71c-2.62,2.62-6.56,4.45-13.2,4.45C1249.83,169.74,1244.58,163.8,1244.58,156.72Z"/><path class="cls-1" d="M1286.88,168.52l8.3-42.47h10.31l-8.3,42.47Zm8.91-48.5,2.1-10.75h11.27L1307.07,120Z"/><path class="cls-1" d="M1310.39,156.72a9.54,9.54,0,0,1,.17-2.1h9.79a9.62,9.62,0,0,0-.18,1.75c0,3.32,2.8,5.33,7.26,5.33a7.84,7.84,0,0,0,5.42-1.66,5,5,0,0,0,1.22-3.41c0-2.27-1.4-3.67-4.81-4.8l-5.42-1.75c-6.9-2.27-10-6.55-10-12a12.44,12.44,0,0,1,3.41-8.83c2.62-2.62,6.73-4.46,13.28-4.46,12.24,0,17.22,6.38,17.22,12.94a9.07,9.07,0,0,1-.18,2.18h-9.87a7.85,7.85,0,0,0,.17-1.66c0-3.41-3-5.5-7.6-5.5-2.62,0-4.37.7-5.33,1.74a4,4,0,0,0-1.22,3c0,2,1.4,3.58,5.42,4.8l5.33,1.66c6.29,2,9.43,5.77,9.43,11.62a13.8,13.8,0,0,1-3.58,9.71c-2.62,2.62-6.55,4.45-13.19,4.45C1315.63,169.74,1310.39,163.8,1310.39,156.72Z"/><path class="cls-1" d="M1350.41,168.52l2.53-12.59h13.2l-2.53,12.59Z"/><path class="cls-1" d="M1379,163.45a21.62,21.62,0,0,1-3.32-12c0-5.33,1.48-12.5,5.33-17.92a19,19,0,0,1,16.34-8.74c8.74,0,12.76,6.12,13.46,13.46h1.48l.18-12.23,3.75-18.7h10.32l-11.89,61.17H1404.5L1409,158h-1.48c-3.5,7.95-8.66,11.71-15.82,11.71C1385.63,169.74,1381.52,167.21,1379,163.45Zm26.65-8a19.42,19.42,0,0,0,3.23-10.49c0-3-.43-5.33-1.83-7.34a9.52,9.52,0,0,0-8-3.67,11.43,11.43,0,0,0-9.7,5.25,19.4,19.4,0,0,0-3.24,10.48c0,3,.44,5.33,1.84,7.34a9.52,9.52,0,0,0,8,3.67A11.44,11.44,0,0,0,1405.64,155.41Z"/><path class="cls-1" d="M1468.91,150.08h-30.32a13.6,13.6,0,0,0,2,7.43,8.43,8.43,0,0,0,7.25,3.75c4.63,0,8-2.09,9.52-5.76H1468c-3.24,9-10.32,14.24-20.54,14.24-6.82,0-12.23-2.71-15.64-7.78a21.54,21.54,0,0,1-3.32-12,27.29,27.29,0,0,1,4.8-15.64c3.85-5.68,10.05-9.53,18.79-9.53,13.2,0,17.91,9,17.91,17.66A28.08,28.08,0,0,1,1468.91,150.08Zm-8.74-7.43a15.26,15.26,0,0,0,.17-2.1c0-3.49-1.66-7.42-8.3-7.42a12,12,0,0,0-10.31,5.33,17.49,17.49,0,0,0-2.1,4.19Z"/><path class="cls-1" d="M1475.11,168.52l8.31-42.47h10.31l-8.31,42.47ZM1484,120l2.09-10.75h11.28L1495.3,120Z"/><path class="cls-1" d="M1496.35,168.52l2.53-12.59h13.2l-2.54,12.59Z"/><path class="cls-1" d="M1523.27,150.52l4.8-24.47h10.49l-4.72,24.29c-1.22,5.86.52,10,6.29,10s9.61-3.84,11.27-12.14l4.29-22.11H1566l-8.22,42.47h-10.31l4.72-10.49h-1.49c-3.84,8-8.39,11.71-15.38,11.71C1525,169.74,1521.08,161.53,1523.27,150.52Z"/><path class="cls-1" d="M1575,162a21.54,21.54,0,0,1-3.32-12,27.29,27.29,0,0,1,4.8-15.64c3.85-5.68,10-9.53,18.88-9.53,13,0,18.52,8.39,18.61,17.05h-10.22c-.18-3.06-1.92-8-8.92-8a11.26,11.26,0,0,0-9.61,5.07,17.81,17.81,0,0,0-3,10.4,13.48,13.48,0,0,0,1.92,7.6,8.46,8.46,0,0,0,7.26,3.67c6,0,8.91-4.28,9.7-8h10.31c-2.1,8.91-8.57,17-20.71,17C1583.82,169.74,1578.41,167,1575,162Z"/><path class="cls-1" d="M1616.86,168.52l2.53-12.59h13.2l-2.54,12.59Z"/><path class="cls-1" d="M1638.09,184.25l11.36-58.2h10.14l-4.54,10.48h1.48c3.59-7.95,8.74-11.71,15.82-11.71,6,0,10.22,2.54,12.76,6.3a21.68,21.68,0,0,1,3.32,12c0,5.33-1.49,12.49-5.33,17.91a19.31,19.31,0,0,1-16.43,8.74c-8.65,0-12.76-6.12-13.46-13.46h-1.48l-.09,12.24-3.24,15.73Zm36.53-28.84a18.69,18.69,0,0,0,3.23-10.49c0-3-.43-5.33-1.83-7.34-1.57-2.36-4.54-3.67-8-3.67a11.27,11.27,0,0,0-9.61,5.25,19.4,19.4,0,0,0-3.24,10.48c0,3,.44,5.33,1.84,7.34,1.57,2.36,4.54,3.67,8,3.67A11.28,11.28,0,0,0,1674.62,155.41Z"/><path class="cls-1" d="M1714.12,134.79l-3.76,19.4c-.78,3.93-.17,6.55,3.41,6.55,4.11,0,5.24-2.53,6.29-7.6l1.23-5.86h10.13l-1.22,6c-2.1,10.58-6.64,16.43-16.87,16.43-10.74,0-15.11-5.77-13.19-15.82l3.67-19.13h-8.3l1.74-8.74h8.31l1.39-7.43,11.28-4.81-2.36,12.24h19.75l-1.75,8.74Z"/></g></g></svg>