<svg xmlns="http://www.w3.org/2000/svg" viewBox="0 0 3286.21 155.61"><defs><style>.cls-1{fill:#fff;}</style></defs><g id="Layer_2" data-name="Layer 2"><g id="Layer_1-2" data-name="Layer 1"><path class="cls-1" d="M3207,142.73h-31v-1c0-9-.11-18.07,0-27.1a16.89,16.89,0,0,0-5-12.26,96.54,96.54,0,0,0-10.45-9,47.42,47.42,0,0,1-7.06-6.45c-2.9-3.5-2.79-6.84.34-10.16a58.61,58.61,0,0,1,8.33-6.74,63,63,0,0,0,8.8-7.23,16.54,16.54,0,0,0,4.71-8.16,13.83,13.83,0,0,0,.27-2.64q0-24.34,0-48.69v-1h31.12l-8.95,32.63c1.39,0,3,0,4.31,0,.06,0,.14-.23.19-.39,1.19-4.15,2.26-8.33,3.56-12.44.94-3,2.15-5.86,3.29-8.77a28.19,28.19,0,0,1,4.17-7.36c2.26-2.83,5-5,8.7-5.5a27.1,27.1,0,0,1,6.35-.31,11.57,11.57,0,0,1,9.63,6.29,21.75,21.75,0,0,1,2.5,8.39c.13,1.42.28,2.84.32,4.27,0,2.06.1,4.13,0,6.18s-.4,4.09-.63,6.13c-.16,1.43-.33,2.86-.51,4.33h3.47c.23-1.28.41-2.59.71-3.88.8-3.57,1.58-7.16,2.51-10.7a47.5,47.5,0,0,1,4.14-10.36,21.85,21.85,0,0,1,7.24-8.34,14.51,14.51,0,0,1,7.7-2.37,22.38,22.38,0,0,1,7.88,1,15.18,15.18,0,0,1,8.45,7.21,32.24,32.24,0,0,1,3.45,11.16,78.85,78.85,0,0,1,.64,11.79c0,7-.11,14,0,21a15.7,15.7,0,0,1-5.13,12.34c-3,2.81-6.32,5.32-9.49,8-2.36,2-4.77,3.9-7,6a7.83,7.83,0,0,0-2.73,5.27,6.81,6.81,0,0,0,1.5,4.4,30,30,0,0,0,5.9,5.84c3.93,3.22,8.11,6.15,11.61,9.86,2.44,2.6,4.45,5.46,5.07,9.08a16.14,16.14,0,0,1,.25,2.4q0,13.45,0,26.93c0,.13,0,.27,0,.47H3255v-1c0-8.58-.1-17.17,0-25.76a16.69,16.69,0,0,0-4.77-12,80.2,80.2,0,0,0-9.78-8.54,53.13,53.13,0,0,1-7.92-7,8.27,8.27,0,0,1-2.25-4.55,6.66,6.66,0,0,1,2.41-5.7C3235,76,3237.52,74,3240,72.06c2.83-2.28,5.78-4.41,8.55-6.76A19.12,19.12,0,0,0,3254,58,12.89,12.89,0,0,0,3255,53c0-5.81,0-11.62,0-17.43a19.2,19.2,0,0,0-.58-4.53c-.59-2.24-2.81-2.27-4.28-1a8.08,8.08,0,0,0-2.58,4.84,47.24,47.24,0,0,0-.84,6.82c-.18,3.51-.23,7-.18,10.55a14.85,14.85,0,0,1-3.85,10.27c-2.69,3.13-6,5.51-9.25,8-2.84,2.16-5.67,4.37-8.4,6.68a12.27,12.27,0,0,0-2.36,3,5.61,5.61,0,0,0-.07,5.94,18.54,18.54,0,0,0,4.8,5.37c3.48,2.89,7.06,5.66,10.53,8.57a29.08,29.08,0,0,1,6.68,7.6,13.85,13.85,0,0,1,1.9,6.9v28.2h-31v-.95c0-8.7-.15-17.4.06-26.1a16.73,16.73,0,0,0-5.43-13.26c-3-2.8-6.23-5.34-9.43-7.93-2.71-2.2-5.59-4.21-7.84-6.94l-.21-.26c-2.44-3.15-2.42-6,.08-9.07a42.08,42.08,0,0,1,7-6.25c3.05-2.41,6.14-4.77,9.09-7.29a18.35,18.35,0,0,0,5.63-7.54,15.45,15.45,0,0,0,1-4.93c.12-6.33.09-12.67,0-19a5.71,5.71,0,0,0-.82-2.85c-.9-1.43-2.73-1.46-4.11-.43a7.14,7.14,0,0,0-2.49,4.55,44.4,44.4,0,0,0-.85,6.9c-.18,3.65-.13,7.32-.21,11a14.91,14.91,0,0,1-3.87,9.35,58.75,58.75,0,0,1-9.51,8.45c-2.44,1.88-4.89,3.75-7.21,5.78a17.27,17.27,0,0,0-3.05,3.6,5.66,5.66,0,0,0-.09,6.23,16.57,16.57,0,0,0,4.1,4.68c3.53,2.87,7.13,5.66,10.66,8.53a32.14,32.14,0,0,1,6.29,6.52,14.43,14.43,0,0,1,2.7,8.58c0,9.22,0,18.45,0,27.68Z"/><path class="cls-1" d="M0,54.87V3.77H14.53l12,39.35L27.16,49H28.4l.51-5.84L41,3.77h14.6v51.1H46.72V9.68H45.48l-.66,9.49L33.65,54.87H21.83l-11.1-35.7L10,9.68H8.76V54.87Z"/><path class="cls-1" d="M98.4,39.47H72.93a12.54,12.54,0,0,0,2,5.91c1.53,2.19,3.87,3.43,7.3,3.43,3.72,0,6.49-1.68,7.59-4.82H98.4c-1.24,7-7.66,11.9-16,11.9-6.94,0-11.83-2.34-14.82-6.72-2.19-3.06-3.29-7.08-3.29-11.89a21.06,21.06,0,0,1,3.58-12.12c3.07-4.45,8-6.79,13.8-6.79,10.65,0,16.71,6.72,16.71,18.18Zm-8.68-6.21c-.22-5.18-3.07-8-8-8a8.31,8.31,0,0,0-6.94,3.51,11.57,11.57,0,0,0-1.67,4.45Z"/><path class="cls-1" d="M134.17,26.69H117.75V43c0,3.65,1.53,5.33,3.87,5.33,2.84,0,3.94-1.75,3.94-6.13V37.13h8.61v5.26c0,8.46-4.67,13.5-12.55,13.5-8.4,0-12.49-4.31-12.49-12.77V26.69h-7v-7.3h7v-6.2l8.62-4V19.39h16.42Z"/><path class="cls-1" d="M171.55,31.8V54.87h-8.62l2-9.49h-1.24c-1.83,7.15-5.7,10.51-12.19,10.51a11,11,0,0,1-8-3,9.69,9.69,0,0,1-2.7-7.08,9.73,9.73,0,0,1,2.63-7.23q3.28-3.29,9.85-3.72l9.56-.66V31.8c0-3.87-2.33-6.2-7.08-6.2-6.86,0-6.93,5.33-6.93,6v.29h-8.76v-.29c0-1,.07-13.21,15.91-13.21C166.29,18.37,171.55,23.19,171.55,31.8Zm-8.62,8.25-7.51.8a7.45,7.45,0,0,0-4.6,1.76,3.77,3.77,0,0,0-1.1,2.77,3.49,3.49,0,0,0,1,2.63,4.68,4.68,0,0,0,3.43,1.16C160.38,49.17,162.86,43.33,162.93,40.05Z"/><path class="cls-1" d="M181.77,54.87V19.39h8.61l-2.19,9.49h1.24c1.83-6.79,5.26-10.51,10.95-10.51,5.11,0,9.35,3.58,9.35,10.51H211c1.82-7.66,6.13-10.51,11.53-10.51,7.45,0,11.53,4.74,11.53,13.8v22.7H225.2V33.92c0-5-2-7.67-5.77-7.67-4.67,0-7.3,3.73-7.3,9.64v19h-8.61V33.92c0-5-2.48-7.67-5.91-7.67-4.75,0-7.23,3.65-7.23,9.64v19Z"/><path class="cls-1" d="M244.69,48.37a19.34,19.34,0,0,1-3.28-11.24,19.34,19.34,0,0,1,3.28-11.24c3.21-4.82,8.62-7.52,15.19-7.52s12,2.7,15.25,7.52a19.27,19.27,0,0,1,3.29,11.24,19.27,19.27,0,0,1-3.29,11.24c-3.21,4.82-8.61,7.52-15.25,7.52S247.9,53.19,244.69,48.37Zm22.92-4a13,13,0,0,0,2-7.23,13,13,0,0,0-2-7.23,9.49,9.49,0,0,0-15.4,0,12.48,12.48,0,0,0-2,7.23,12.48,12.48,0,0,0,2,7.23,9.49,9.49,0,0,0,15.4,0Z"/><path class="cls-1" d="M286.52,54.87V19.39h8.54l-2.48,10.22h1.31c1.76-7.74,5.62-11.24,11-11.24,6.57,0,9.78,4.31,9.78,11.68v7.74h-8.83V33c0-4.67-1.61-6.57-4.82-6.57-3.87,0-5.92,3.28-5.92,9.49v19Z"/><path class="cls-1" d="M322,68V19.39h8.61l-2.19,9.49h1.24c2-6.86,6.35-10.51,12.7-10.51a14.46,14.46,0,0,1,12.41,6.35c2.19,3.14,3.29,7.37,3.29,12.41s-1.1,9.27-3.29,12.41a14.46,14.46,0,0,1-12.41,6.35c-6.35,0-10.65-3.65-12.7-10.51h-1.24l2.19,9.49V68Zm25.26-23.29a13,13,0,0,0,2-7.59,13,13,0,0,0-2-7.59,9.39,9.39,0,0,0-14.75,0,13,13,0,0,0-2,7.59,13,13,0,0,0,2,7.59,9.39,9.39,0,0,0,14.75,0Z"/><path class="cls-1" d="M366.6,54.87V3.77h8.61V19.39L373,28.88h1.25c2.11-6.93,6.13-10.51,12-10.51,8.39,0,12.84,5,12.84,14.45v22h-8.83V34.21c0-5.26-2.26-8-6.79-8-5,0-8.25,3.87-8.25,10.15V54.87Z"/><path class="cls-1" d="M409.74,48.37a19.34,19.34,0,0,1-3.28-11.24,19.34,19.34,0,0,1,3.28-11.24c3.22-4.82,8.62-7.52,15.19-7.52s12,2.7,15.25,7.52a19.27,19.27,0,0,1,3.29,11.24,19.27,19.27,0,0,1-3.29,11.24c-3.21,4.82-8.61,7.52-15.25,7.52S413,53.19,409.74,48.37Zm22.92-4a12.92,12.92,0,0,0,2-7.23,12.92,12.92,0,0,0-2-7.23,9.49,9.49,0,0,0-15.4,0,12.48,12.48,0,0,0-2,7.23,12.48,12.48,0,0,0,2,7.23,9.49,9.49,0,0,0,15.4,0Z"/><path class="cls-1" d="M449.31,43.7v-.44h8.32v.44c0,3.65,2.12,5.47,6.28,5.47,2.12,0,3.65-.43,4.6-1.38a3.57,3.57,0,0,0,1-2.56c0-2.19-1.24-3.5-4.6-4.16l-5.26-1.17c-6.57-1.31-9.85-4.74-9.85-10.58a9.74,9.74,0,0,1,2.77-7.15c2.49-2.49,6.43-3.8,11.54-3.8,9,0,14.3,4.67,14.3,12.26V31h-8.32v-.37c0-3.65-2.19-5.54-6.35-5.54-2.11,0-3.65.43-4.6,1.38a3.57,3.57,0,0,0-1,2.56c0,2.11,1.46,3.36,4.6,4l4.6,1c7.3,1.54,10.58,4.82,10.58,10.81a9.57,9.57,0,0,1-2.84,7.22c-2.41,2.49-6.35,3.8-11.39,3.8C454.64,55.89,449.31,51.36,449.31,43.7Z"/><path class="cls-1" d="M487.05,14.36v-9h9.42v9Zm.36,40.51V19.39H496V54.87Z"/><path class="cls-1" d="M504.71,43.7v-.44H513v.44c0,3.65,2.11,5.47,6.27,5.47,2.12,0,3.65-.43,4.6-1.38a3.54,3.54,0,0,0,1-2.56c0-2.19-1.25-3.5-4.6-4.16l-5.26-1.17c-6.57-1.31-9.85-4.74-9.85-10.58A9.7,9.7,0,0,1,508,22.17c2.48-2.49,6.42-3.8,11.53-3.8,9,0,14.31,4.67,14.31,12.26V31h-8.32v-.37c0-3.65-2.19-5.54-6.35-5.54-2.12,0-3.65.43-4.6,1.38a3.53,3.53,0,0,0-1,2.56c0,2.11,1.46,3.36,4.6,4l4.6,1c7.29,1.54,10.58,4.82,10.58,10.81a9.54,9.54,0,0,1-2.85,7.22c-2.41,2.49-6.35,3.8-11.38,3.8C510,55.89,504.71,51.36,504.71,43.7Z"/><path class="cls-1" d="M541.14,25.38a4.32,4.32,0,0,1,4.38-4.6c2.56,0,4.23,1.9,4.31,4.6a4.35,4.35,0,1,1-8.69,0Zm0,25.77a4.31,4.31,0,0,1,4.38-4.6c2.56,0,4.23,1.89,4.31,4.6a4.35,4.35,0,1,1-8.69,0Z"/><path class="cls-1" d="M574.06,54.87V3.77h30.66v8.47H583.11V25.09H604v8.32H583.11v13h21.61v8.47Z"/><path class="cls-1" d="M610.49,54.87l12-17.81-12-17.67h10.22l7,11.1.14,2.92h1.24l.15-2.92,7-11.1h10.22L634.43,37.06l12.05,17.81H636.26l-7-10.8-.15-2.85h-1.24l-.14,2.85-7,10.8Z"/><path class="cls-1" d="M653.56,68V19.39h8.61L660,28.88h1.24c2-6.86,6.35-10.51,12.7-10.51a14.46,14.46,0,0,1,12.41,6.35c2.19,3.14,3.29,7.37,3.29,12.41s-1.1,9.27-3.29,12.41a14.46,14.46,0,0,1-12.41,6.35c-6.35,0-10.65-3.65-12.7-10.51H660l2.19,9.49V68Zm25.26-23.29a13,13,0,0,0,2-7.59,13,13,0,0,0-2-7.59,9.39,9.39,0,0,0-14.75,0,13,13,0,0,0-2,7.59,13,13,0,0,0,2,7.59,9.39,9.39,0,0,0,14.75,0Z"/><path class="cls-1" d="M729.4,39.47H703.93a12.54,12.54,0,0,0,2,5.91c1.53,2.19,3.87,3.43,7.3,3.43,3.72,0,6.49-1.68,7.59-4.82h8.61c-1.24,7-7.66,11.9-16,11.9-6.94,0-11.83-2.34-14.82-6.72-2.19-3.06-3.29-7.08-3.29-11.89a21.06,21.06,0,0,1,3.58-12.12c3.07-4.45,8-6.79,13.8-6.79,10.65,0,16.71,6.72,16.71,18.18Zm-8.68-6.21c-.22-5.18-3.07-8-8-8a8.28,8.28,0,0,0-6.93,3.51,11.41,11.41,0,0,0-1.68,4.45Z"/><path class="cls-1" d="M737.58,54.87V19.39h8.54l-2.48,10.22H745c1.76-7.74,5.62-11.24,11-11.24,6.57,0,9.78,4.31,9.78,11.68v7.74h-8.84V33c0-4.67-1.6-6.57-4.81-6.57-3.87,0-5.92,3.28-5.92,9.49v19Z"/><path class="cls-1" d="M772.69,14.36v-9h9.42v9Zm.37,40.51V19.39h8.61V54.87Z"/><path class="cls-1" d="M792.62,54.87V19.39h8.62L799,28.88h1.25c1.82-6.79,5.25-10.51,11-10.51,5.11,0,9.34,3.58,9.34,10.51h1.24c1.83-7.66,6.13-10.51,11.53-10.51,7.45,0,11.54,4.74,11.54,13.8v22.7h-8.83V33.92c0-5-2-7.67-5.77-7.67-4.67,0-7.3,3.73-7.3,9.64v19h-8.61V33.92c0-5-2.49-7.67-5.92-7.67-4.74,0-7.22,3.65-7.22,9.64v19Z"/><path class="cls-1" d="M886.35,39.47H860.88a12.54,12.54,0,0,0,2,5.91c1.53,2.19,3.87,3.43,7.3,3.43,3.72,0,6.49-1.68,7.59-4.82h8.61c-1.24,7-7.66,11.9-16,11.9-6.94,0-11.83-2.34-14.82-6.72-2.19-3.06-3.29-7.08-3.29-11.89a21.06,21.06,0,0,1,3.58-12.12c3.06-4.45,8-6.79,13.8-6.79,10.65,0,16.71,6.72,16.71,18.18Zm-8.68-6.21c-.22-5.18-3.07-8-8-8a8.31,8.31,0,0,0-6.94,3.51,11.74,11.74,0,0,0-1.68,4.45Z"/><path class="cls-1" d="M894.53,54.87V19.39h8.61L901,28.88h1.24c2.12-6.93,6.13-10.51,12-10.51,8.4,0,12.85,5,12.85,14.45v22h-8.83V34.21c0-5.26-2.26-8-6.79-8-5,0-8.25,3.87-8.25,10.15V54.87Z"/><path class="cls-1" d="M964.83,26.69H948.4V43c0,3.65,1.53,5.33,3.87,5.33,2.85,0,3.94-1.75,3.94-6.13V37.13h8.62v5.26c0,8.46-4.68,13.5-12.56,13.5-8.4,0-12.48-4.31-12.48-12.77V26.69h-7v-7.3h7v-6.2l8.61-4V19.39h16.43Z"/><path class="cls-1" d="M971,43.7v-.44h8.32v.44c0,3.65,2.12,5.47,6.28,5.47,2.11,0,3.65-.43,4.6-1.38a3.57,3.57,0,0,0,1-2.56c0-2.19-1.24-3.5-4.6-4.16l-5.26-1.17c-6.57-1.31-9.85-4.74-9.85-10.58a9.74,9.74,0,0,1,2.77-7.15c2.48-2.49,6.43-3.8,11.54-3.8,9,0,14.3,4.67,14.3,12.26V31h-8.32v-.37c0-3.65-2.19-5.54-6.35-5.54-2.12,0-3.65.43-4.6,1.38a3.57,3.57,0,0,0-1,2.56c0,2.11,1.46,3.36,4.6,4l4.6,1c7.3,1.54,10.58,4.82,10.58,10.81a9.57,9.57,0,0,1-2.84,7.22c-2.41,2.49-6.35,3.8-11.39,3.8C976.29,55.89,971,51.36,971,43.7Z"/><path class="cls-1" d="M1026.8,14.36v-9h9.42v9Zm.37,40.51V19.39h8.61V54.87Z"/><path class="cls-1" d="M1046.73,54.87V19.39h8.61l-2.19,9.49h1.24c2.12-6.93,6.14-10.51,12-10.51,8.39,0,12.84,5,12.84,14.45v22h-8.83V34.21c0-5.26-2.26-8-6.79-8-5,0-8.25,3.87-8.25,10.15V54.87Z"/><path class="cls-1" d="M1135.13,26.69h-16.42V43c0,3.65,1.53,5.33,3.87,5.33,2.84,0,3.94-1.75,3.94-6.13V37.13h8.61v5.26c0,8.46-4.67,13.5-12.55,13.5-8.4,0-12.49-4.31-12.49-12.77V26.69h-7v-7.3h7v-6.2l8.62-4V19.39h16.42Z"/><path class="cls-1" d="M1143.53,54.87V3.77h8.61V19.39L1150,28.88h1.24c2.12-6.93,6.13-10.51,12-10.51,8.4,0,12.85,5,12.85,14.45v22h-8.83V34.21c0-5.26-2.27-8-6.79-8-5,0-8.25,3.87-8.25,10.15V54.87Z"/><path class="cls-1" d="M1217.47,39.47H1192a12.54,12.54,0,0,0,2,5.91c1.53,2.19,3.87,3.43,7.3,3.43,3.72,0,6.49-1.68,7.59-4.82h8.61c-1.24,7-7.66,11.9-16,11.9-6.94,0-11.83-2.34-14.82-6.72-2.19-3.06-3.29-7.08-3.29-11.89A21.06,21.06,0,0,1,1187,25.16c3.07-4.45,8-6.79,13.8-6.79,10.65,0,16.71,6.72,16.71,18.18Zm-8.68-6.21c-.22-5.18-3.07-8-8-8a8.31,8.31,0,0,0-6.94,3.51,11.57,11.57,0,0,0-1.67,4.45Z"/><path class="cls-1" d="M1244.41,54.87V3.77h18.83c11.54,0,20.15,5.62,23.58,15.26a32.38,32.38,0,0,1,1.61,10.29,30.72,30.72,0,0,1-1.68,10.37c-3.43,9.63-11.9,15.18-23.51,15.18Zm9-8.47h10.37a14.11,14.11,0,0,0,13.87-9.78,21,21,0,0,0,1.24-7.3,22.26,22.26,0,0,0-1.24-7.45,14.19,14.19,0,0,0-13.87-9.63h-10.37Z"/><path class="cls-1" d="M1328.07,39.47h-25.48a12.65,12.65,0,0,0,2,5.91c1.53,2.19,3.87,3.43,7.3,3.43,3.72,0,6.5-1.68,7.59-4.82h8.62c-1.24,7-7.67,11.9-16,11.9-6.93,0-11.83-2.34-14.82-6.72-2.19-3.06-3.28-7.08-3.28-11.89a21.13,21.13,0,0,1,3.57-12.12c3.07-4.45,8-6.79,13.8-6.79,10.66,0,16.72,6.72,16.72,18.18Zm-8.69-6.21c-.22-5.18-3.07-8-8-8a8.29,8.29,0,0,0-6.93,3.51,11.57,11.57,0,0,0-1.68,4.45Z"/><path class="cls-1" d="M1334,43.7v-.44h8.32v.44c0,3.65,2.12,5.47,6.28,5.47,2.12,0,3.65-.43,4.6-1.38a3.57,3.57,0,0,0,1-2.56c0-2.19-1.24-3.5-4.6-4.16l-5.26-1.17c-6.56-1.31-9.85-4.74-9.85-10.58a9.74,9.74,0,0,1,2.77-7.15c2.49-2.49,6.43-3.8,11.54-3.8,9,0,14.31,4.67,14.31,12.26V31h-8.33v-.37c0-3.65-2.19-5.54-6.35-5.54-2.11,0-3.65.43-4.6,1.38a3.57,3.57,0,0,0-1,2.56c0,2.11,1.46,3.36,4.6,4l4.6,1c7.3,1.54,10.58,4.82,10.58,10.81a9.53,9.53,0,0,1-2.84,7.22c-2.41,2.49-6.35,3.8-11.39,3.8C1339.31,55.89,1334,51.36,1334,43.7Z"/><path class="cls-1" d="M1371.72,14.36v-9h9.42v9Zm.36,40.51V19.39h8.62V54.87Z"/><path class="cls-1" d="M1389.24,55h8.47c.36,4.24,3.06,6.79,8.46,6.79,5.63,0,8.84-3.28,8.84-9.19v-1l2.7-9.64h-1.24c-2,7.45-6.5,10.59-12,10.59a14.14,14.14,0,0,1-12.12-6.06,18.8,18.8,0,0,1-3.14-11.1,19.05,19.05,0,0,1,3.14-11.09c2.63-3.87,6.93-6,12.12-6,5.47,0,10,3.14,12,10.58h1.24l-2.63-9.56h8.54V49.83c0,12.78-5.84,19.13-17.45,19.13C1395.37,69,1389.68,63.92,1389.24,55Zm24.16-12.92a11.06,11.06,0,0,0,1.9-6.64,11,11,0,0,0-1.9-6.57,8.54,8.54,0,0,0-13.58,0,11.09,11.09,0,0,0-1.89,6.57,11.12,11.12,0,0,0,1.89,6.64,8.54,8.54,0,0,0,13.58,0Z"/><path class="cls-1" d="M1434.28,54.87V19.39h8.61l-2.19,9.49H1442c2.11-6.93,6.13-10.51,12-10.51,8.39,0,12.84,5,12.84,14.45v22h-8.83V34.21c0-5.26-2.26-8-6.79-8-5,0-8.25,3.87-8.25,10.15V54.87Z"/><path class="cls-1" d="M1495.53,48.37a19.27,19.27,0,0,1-3.29-11.24,19.27,19.27,0,0,1,3.29-11.24c3.21-4.82,8.61-7.52,15.18-7.52s12,2.7,15.26,7.52a19.34,19.34,0,0,1,3.28,11.24A19.34,19.34,0,0,1,1526,48.37c-3.22,4.82-8.62,7.52-15.26,7.52S1498.74,53.19,1495.53,48.37Zm22.92-4a13,13,0,0,0,2-7.23,13,13,0,0,0-2-7.23,9.5,9.5,0,0,0-15.41,0,12.48,12.48,0,0,0-2,7.23,12.48,12.48,0,0,0,2,7.23,9.5,9.5,0,0,0,15.41,0Z"/><path class="cls-1" d="M1557.28,14.79v-.22c0-3.28-1.53-5-4.16-5-2.92,0-4.6,2-4.6,5.4v4.38h13v7.3h-13V54.87h-8.61V26.69h-7v-7.3h7V15.3c0-7.73,5.11-12.62,13.14-12.62,8.25,0,12.7,4,12.7,11.82v.29Z"/><path class="cls-1" d="M1587.43,54.87V3.77h9v51.1Z"/><path class="cls-1" d="M1608.09,54.87V19.39h8.61l-2.19,9.49h1.24c2.12-6.93,6.14-10.51,12-10.51,8.39,0,12.84,5,12.84,14.45v22h-8.83V34.21c0-5.26-2.26-8-6.79-8-5,0-8.25,3.87-8.25,10.15V54.87Z"/><path class="cls-1" d="M1678.39,26.69H1662V43c0,3.65,1.54,5.33,3.87,5.33,2.85,0,3.94-1.75,3.94-6.13V37.13h8.62v5.26c0,8.46-4.68,13.5-12.56,13.5-8.39,0-12.48-4.31-12.48-12.77V26.69h-7v-7.3h7v-6.2l8.61-4V19.39h16.43Z"/><path class="cls-1" d="M1718,39.47h-25.48a12.54,12.54,0,0,0,2,5.91c1.53,2.19,3.87,3.43,7.3,3.43,3.72,0,6.5-1.68,7.59-4.82H1718c-1.25,7-7.67,11.9-16,11.9-6.94,0-11.83-2.34-14.82-6.72-2.19-3.06-3.28-7.08-3.28-11.89a21.13,21.13,0,0,1,3.57-12.12c3.07-4.45,8-6.79,13.8-6.79,10.66,0,16.72,6.72,16.72,18.18Zm-8.69-6.21c-.22-5.18-3.07-8-8-8a8.29,8.29,0,0,0-6.93,3.51,11.41,11.41,0,0,0-1.68,4.45Z"/><path class="cls-1" d="M1726.2,54.87V19.39h8.54l-2.48,10.22h1.31c1.76-7.74,5.63-11.24,11-11.24,6.57,0,9.78,4.31,9.78,11.68v7.74h-8.83V33c0-4.67-1.61-6.57-4.82-6.57-3.87,0-5.91,3.28-5.91,9.49v19Z"/><path class="cls-1" d="M1790.66,31.8V54.87h-8.61l2-9.49h-1.24c-1.83,7.15-5.7,10.51-12.19,10.51a11,11,0,0,1-8-3,9.69,9.69,0,0,1-2.7-7.08,9.77,9.77,0,0,1,2.63-7.23q3.28-3.29,9.85-3.72l9.57-.66V31.8c0-3.87-2.34-6.2-7.09-6.2-6.86,0-6.93,5.33-6.93,6v.29h-8.76v-.29c0-1,.07-13.21,15.91-13.21C1785.4,18.37,1790.66,23.19,1790.66,31.8Zm-8.61,8.25-7.52.8a7.45,7.45,0,0,0-4.6,1.76,3.77,3.77,0,0,0-1.1,2.77,3.49,3.49,0,0,0,1,2.63,4.71,4.71,0,0,0,3.44,1.16C1779.49,49.17,1782,43.33,1782.05,40.05Z"/><path class="cls-1" d="M1801.32,49.17c-2.19-3.06-3.29-7.08-3.29-11.89a21,21,0,0,1,3.36-12.12c3.14-4.45,8.18-6.79,14.53-6.79,9.49,0,16.28,5.55,16.57,14.23H1824c-.66-4.23-3.51-6.64-8-6.64a8.2,8.2,0,0,0-7.08,3.43,13.28,13.28,0,0,0-2.12,7.89,13.2,13.2,0,0,0,2,7.66,7.71,7.71,0,0,0,6.78,3.36c4.31,0,7-2.34,7.6-6.64h8.54c-.22,8.76-6.86,14.23-16.35,14.23C1809.2,55.89,1804.31,53.55,1801.32,49.17Z"/><path class="cls-1" d="M1868,26.69h-16.43V43c0,3.65,1.54,5.33,3.87,5.33,2.85,0,3.94-1.75,3.94-6.13V37.13H1868v5.26c0,8.46-4.67,13.5-12.56,13.5-8.39,0-12.48-4.31-12.48-12.77V26.69h-7v-7.3h7v-6.2l8.61-4V19.39H1868Z"/><path class="cls-1" d="M1876.07,14.36v-9h9.41v9Zm.36,40.51V19.39h8.62V54.87Z"/><path class="cls-1" d="M1902.93,54.87l-11.39-35.48h9.13l8.39,27.67.22,2.7h1.24l.22-2.7,8.4-27.67h9.12l-11.39,35.48Z"/><path class="cls-1" d="M1966,39.47h-25.47a12.54,12.54,0,0,0,2,5.91c1.53,2.19,3.87,3.43,7.3,3.43,3.72,0,6.49-1.68,7.59-4.82H1966c-1.24,7-7.66,11.9-16,11.9-6.94,0-11.83-2.34-14.82-6.72-2.19-3.06-3.29-7.08-3.29-11.89a21.06,21.06,0,0,1,3.58-12.12c3.06-4.45,8-6.79,13.8-6.79,10.65,0,16.71,6.72,16.71,18.18Zm-8.68-6.21c-.22-5.18-3.07-8-8-8a8.31,8.31,0,0,0-6.94,3.51,11.57,11.57,0,0,0-1.67,4.45Z"/><path class="cls-1" d="M1992.94,54.87V3.77h14.52l12,39.35.58,5.84h1.24l.52-5.84,12-39.35h14.6v51.1h-8.83V9.68h-1.24l-.66,9.49-11.17,35.7h-11.83l-11.09-35.7-.73-9.49h-1.24V54.87Z"/><path class="cls-1" d="M2060.54,48.37a19.27,19.27,0,0,1-3.29-11.24,19.27,19.27,0,0,1,3.29-11.24c3.21-4.82,8.61-7.52,15.18-7.52s12,2.7,15.26,7.52a19.34,19.34,0,0,1,3.28,11.24A19.34,19.34,0,0,1,2091,48.37c-3.22,4.82-8.62,7.52-15.26,7.52S2063.75,53.19,2060.54,48.37Zm22.92-4a13,13,0,0,0,2-7.23,13,13,0,0,0-2-7.23,9.5,9.5,0,0,0-15.41,0,12.48,12.48,0,0,0-2,7.23,12.48,12.48,0,0,0,2,7.23,9.5,9.5,0,0,0,15.41,0Z"/><path class="cls-1" d="M2109.3,54.87l-11.39-35.48H2107l8.39,27.67.22,2.7h1.24l.22-2.7,8.39-27.67h9.13l-11.39,35.48Z"/><path class="cls-1" d="M2140.76,14.36v-9h9.42v9Zm.37,40.51V19.39h8.61V54.87Z"/><path class="cls-1" d="M2160.69,54.87V19.39h8.61l-2.19,9.49h1.24c2.12-6.93,6.14-10.51,12-10.51,8.39,0,12.84,5,12.84,14.45v22h-8.83V34.21c0-5.26-2.26-8-6.79-8-5,0-8.25,3.87-8.25,10.15V54.87Z"/><path class="cls-1" d="M2201,55h8.46c.37,4.24,3.07,6.79,8.47,6.79,5.62,0,8.83-3.28,8.83-9.19v-1l2.7-9.64h-1.24c-2,7.45-6.49,10.59-12,10.59a14.15,14.15,0,0,1-12.12-6.06,18.87,18.87,0,0,1-3.13-11.1,19.12,19.12,0,0,1,3.13-11.09c2.63-3.87,6.94-6,12.12-6,5.48,0,10,3.14,12,10.58h1.24l-2.62-9.56h8.54V49.83c0,12.78-5.84,19.13-17.45,19.13C2207.12,69,2201.42,63.92,2201,55Zm24.16-12.92a11.12,11.12,0,0,0,1.89-6.64,11.09,11.09,0,0,0-1.89-6.57,8.54,8.54,0,0,0-13.58,0,11.1,11.1,0,0,0-1.9,6.57,11.13,11.13,0,0,0,1.9,6.64,8.54,8.54,0,0,0,13.58,0Z"/><path class="cls-1" d="M2300.63,19.17a15.8,15.8,0,0,1-2,8c-2.63,4.67-8,7.45-14.75,7.45h-10.07V54.87h-9.05V3.77h19.12c6.72,0,12.12,2.7,14.75,7.37A15.85,15.85,0,0,1,2300.63,19.17Zm-9.2,0a8,8,0,0,0-.95-3.87c-1.17-2-3.58-3.28-7-3.28h-9.63V26.33h9.63c3.43,0,5.84-1.32,7-3.29A8,8,0,0,0,2291.43,19.17Z"/><path class="cls-1" d="M2308.51,48.37a19.26,19.26,0,0,1-3.28-11.24,19.26,19.26,0,0,1,3.28-11.24c3.21-4.82,8.61-7.52,15.19-7.52s12,2.7,15.25,7.52a19.27,19.27,0,0,1,3.29,11.24A19.27,19.27,0,0,1,2339,48.37c-3.21,4.82-8.61,7.52-15.25,7.52S2311.72,53.19,2308.51,48.37Zm22.92-4a13,13,0,0,0,2-7.23,13,13,0,0,0-2-7.23,9.49,9.49,0,0,0-15.4,0,12.48,12.48,0,0,0-2,7.23,12.48,12.48,0,0,0,2,7.23,9.49,9.49,0,0,0,15.4,0Z"/><path class="cls-1" d="M2348.08,43.7v-.44h8.32v.44c0,3.65,2.12,5.47,6.28,5.47,2.11,0,3.65-.43,4.6-1.38a3.57,3.57,0,0,0,1-2.56c0-2.19-1.24-3.5-4.6-4.16l-5.26-1.17c-6.57-1.31-9.85-4.74-9.85-10.58a9.74,9.74,0,0,1,2.77-7.15c2.48-2.49,6.43-3.8,11.54-3.8,9,0,14.3,4.67,14.3,12.26V31h-8.32v-.37c0-3.65-2.19-5.54-6.35-5.54-2.11,0-3.65.43-4.6,1.38a3.57,3.57,0,0,0-1,2.56c0,2.11,1.46,3.36,4.6,4l4.6,1c7.3,1.54,10.58,4.82,10.58,10.81a9.57,9.57,0,0,1-2.84,7.22c-2.41,2.49-6.35,3.8-11.39,3.8C2353.41,55.89,2348.08,51.36,2348.08,43.7Z"/><path class="cls-1" d="M2413.78,26.69h-16.43V43c0,3.65,1.53,5.33,3.87,5.33,2.85,0,3.94-1.75,3.94-6.13V37.13h8.62v5.26c0,8.46-4.68,13.5-12.56,13.5-8.39,0-12.48-4.31-12.48-12.77V26.69h-7v-7.3h7v-6.2l8.61-4V19.39h16.43Z"/><path class="cls-1" d="M2453.42,39.47h-25.48a12.65,12.65,0,0,0,2,5.91c1.53,2.19,3.87,3.43,7.3,3.43,3.72,0,6.5-1.68,7.59-4.82h8.62c-1.25,7-7.67,11.9-16,11.9-6.94,0-11.83-2.34-14.82-6.72-2.19-3.06-3.28-7.08-3.28-11.89a21.13,21.13,0,0,1,3.57-12.12c3.07-4.45,8-6.79,13.8-6.79,10.66,0,16.72,6.72,16.72,18.18Zm-8.69-6.21c-.22-5.18-3.07-8-8-8a8.28,8.28,0,0,0-6.93,3.51,11.41,11.41,0,0,0-1.68,4.45Z"/><path class="cls-1" d="M2461.59,54.87V19.39h8.54l-2.48,10.22H2469c1.76-7.74,5.62-11.24,11-11.24,6.57,0,9.78,4.31,9.78,11.68v7.74h-8.83V33c0-4.67-1.61-6.57-4.82-6.57-3.87,0-5.91,3.28-5.91,9.49v19Z"/><path class="cls-1" d="M2494.81,43.7v-.44h8.32v.44c0,3.65,2.12,5.47,6.28,5.47,2.11,0,3.65-.43,4.59-1.38a3.54,3.54,0,0,0,1-2.56c0-2.19-1.24-3.5-4.6-4.16l-5.26-1.17c-6.57-1.31-9.85-4.74-9.85-10.58a9.74,9.74,0,0,1,2.77-7.15c2.48-2.49,6.43-3.8,11.53-3.8,9,0,14.31,4.67,14.31,12.26V31h-8.32v-.37c0-3.65-2.19-5.54-6.35-5.54-2.12,0-3.65.43-4.6,1.38a3.53,3.53,0,0,0-1,2.56c0,2.11,1.46,3.36,4.6,4l4.6,1c7.3,1.54,10.58,4.82,10.58,10.81a9.57,9.57,0,0,1-2.84,7.22c-2.41,2.49-6.36,3.8-11.39,3.8C2500.14,55.89,2494.81,51.36,2494.81,43.7Z"/><path class="cls-1" d="M0,142.47V91.37H30.66v8.47H9.05V113H29.34v8.32H9.05v21.17Z"/><path class="cls-1" d="M37.59,129V107h8.76v20.66c0,5.26,2.19,8,6.5,8,4.82,0,7.89-3.87,7.89-10.15V107h8.61v35.48H60.74L62.92,133H61.68c-2,6.93-5.91,10.51-11.6,10.51C41.83,143.49,37.59,138.53,37.59,129Z"/><path class="cls-1" d="M80.3,142.47V91.37h8.61v51.1Z"/><path class="cls-1" d="M99.86,142.47V91.37h8.62v51.1Z"/><path class="cls-1" d="M138.19,142.47V91.37h30.66v8.47H147.24v12.85h20.88V121H147.24v13h21.61v8.47Z"/><path class="cls-1" d="M174.61,142.47l12-17.81-12-17.67h10.22l7,11.1L192,121h1.24l.14-2.92,7-11.1H210.6l-12,17.67,12,17.81H200.38l-7-10.81-.14-2.84H192l-.15,2.84-7,10.81Z"/><path class="cls-1" d="M217.68,142.47V91.37h8.61V107l-2.19,9.49h1.25c2.11-6.93,6.13-10.51,12-10.51,8.39,0,12.85,5,12.85,14.45v22h-8.84V121.81c0-5.26-2.26-8-6.79-8-5,0-8.25,3.87-8.25,10.15v18.47Z"/><path class="cls-1" d="M260,102V93h9.42v9Zm.37,40.52V107H269v35.48Z"/><path class="cls-1" d="M287.61,133h-1.24l2.19,9.49H280V91.37h8.61V107l-2.19,9.49h1.24C289.66,109.62,294,106,300.32,106a14.48,14.48,0,0,1,12.41,6.35c2.19,3.14,3.28,7.37,3.28,12.41s-1.09,9.27-3.28,12.41a14.48,14.48,0,0,1-12.41,6.35C294,143.49,289.66,139.84,287.61,133Zm17.6-.66a15.14,15.14,0,0,0,0-15.18,9.39,9.39,0,0,0-14.75,0,15.14,15.14,0,0,0,0,15.18,9.39,9.39,0,0,0,14.75,0Z"/><path class="cls-1" d="M324.19,102V93h9.41v9Zm.36,40.52V107h8.62v35.48Z"/><path class="cls-1" d="M371.71,114.29H355.28v16.35c0,3.65,1.54,5.33,3.87,5.33,2.85,0,3.94-1.75,3.94-6.13v-5.11h8.62V130c0,8.46-4.67,13.5-12.56,13.5-8.39,0-12.48-4.31-12.48-12.77V114.29h-7V107h7v-6.2l8.61-4V107h16.43Z"/><path class="cls-1" d="M379.74,102V93h9.42v9Zm.36,40.52V107h8.62v35.48Z"/><path class="cls-1" d="M400.11,136a20.85,20.85,0,0,1,0-22.48c3.21-4.82,8.61-7.52,15.18-7.52s12,2.7,15.26,7.52a20.9,20.9,0,0,1,0,22.48c-3.22,4.82-8.62,7.52-15.26,7.52S403.32,140.79,400.11,136ZM423,132a14.25,14.25,0,0,0,0-14.46,9.5,9.5,0,0,0-15.41,0,13.83,13.83,0,0,0,0,14.46A9.5,9.5,0,0,0,423,132Z"/><path class="cls-1" d="M441.93,142.47V107h8.62l-2.19,9.49h1.24c2.11-6.93,6.13-10.51,12-10.51,8.39,0,12.85,5,12.85,14.45v22h-8.84V121.81c0-5.26-2.26-8-6.78-8-5,0-8.25,3.87-8.25,10.15v18.47Z"/><path class="cls-1" d="M531.72,119.4v23.07h-8.61l2-9.49h-1.24c-1.83,7.15-5.69,10.51-12.19,10.51a11,11,0,0,1-8-3,10.94,10.94,0,0,1-.07-14.31q3.29-3.28,9.85-3.72l9.57-.66V119.4c0-3.87-2.34-6.2-7.08-6.2-6.87,0-6.94,5.32-6.94,6v.29h-8.76v-.29c0-1,.07-13.21,15.92-13.21C526.46,106,531.72,110.79,531.72,119.4Zm-8.61,8.25-7.52.8a7.5,7.5,0,0,0-4.6,1.75,3.82,3.82,0,0,0-1.1,2.78,3.46,3.46,0,0,0,1,2.63,4.67,4.67,0,0,0,3.43,1.16C520.55,136.77,523,130.94,523.11,127.65Z"/><path class="cls-1" d="M569.53,114.29H553.11v16.35c0,3.65,1.53,5.33,3.87,5.33,2.85,0,3.94-1.75,3.94-6.13v-5.11h8.61V130c0,8.46-4.67,13.5-12.55,13.5-8.4,0-12.48-4.31-12.48-12.77V114.29h-7V107h7v-6.2l8.61-4V107h16.42Z"/><path class="cls-1" d="M592.6,142.47,599.54,107h8.61l-3.58,8.76h1.24c2.78-6.64,6.79-9.78,12.12-9.78,5.91,0,8.91,4.09,7.89,9.78h1.24c2.62-6.93,6.71-9.78,12.26-9.78,9.2,0,11.31,7.08,9.42,16.72l-3.87,19.78h-8.76L640,122.61c.95-5.25.22-8.76-4.82-8.76-4.67,0-7.3,3.65-8.54,9.79L623,142.47h-8.62l3.87-19.78c1-5.26.22-8.76-4.81-8.76-4.6,0-7.3,3.57-8.47,9.78l-3.72,18.76Z"/><path class="cls-1" d="M689.47,127.07H664.14a11.38,11.38,0,0,0,1.68,6.2,7,7,0,0,0,6.06,3.14c3.87,0,6.71-1.75,8-4.82h8.91c-2.7,7.52-8.61,11.9-17.15,11.9-5.7,0-10.22-2.26-13.07-6.5a18,18,0,0,1-2.77-10,22.78,22.78,0,0,1,4-13.06c3.21-4.75,8.4-8,15.7-8,11,0,15,7.52,15,14.75A23.31,23.31,0,0,1,689.47,127.07Zm-7.3-6.21a13.58,13.58,0,0,0,.15-1.75c0-2.92-1.39-6.21-6.94-6.21a10,10,0,0,0-8.61,4.46,14.33,14.33,0,0,0-1.75,3.5Z"/><path class="cls-1" d="M711.22,114.29l-3.13,16.21c-.66,3.28-.15,5.47,2.84,5.47,3.43,0,4.38-2.11,5.26-6.35l1-4.89h8.47l-1,5c-1.76,8.83-5.55,13.72-14.09,13.72-9,0-12.63-4.82-11-13.21l3.07-16h-6.93l1.46-7.3h6.93l1.17-6.2,9.42-4-2,10.22h16.5l-1.46,7.3Z"/><path class="cls-1" d="M763.78,120.93l-4.16,21.54h-8.68l4.08-9.42h-1.24c-3,7.45-7,10.44-13.06,10.44a10.25,10.25,0,0,1-7.52-2.77,9,9,0,0,1-2.48-6.43,10.15,10.15,0,0,1,2.92-7.66c2.4-2.48,6.2-3.73,10.73-4l10.73-.8.22-1.24c1.09-5.4-.52-7.37-5.7-7.37-7.22,0-8,4.81-8.17,6.27h-8.84c.59-3,2.63-13.5,17.74-13.5C760.5,106,765.9,110.28,763.78,120.93Zm-9.85,6.72-8.1.88c-2.41.29-4.09.87-5.11,1.89a3.63,3.63,0,0,0-1.1,2.92,3.12,3.12,0,0,0,.8,2.41,4.46,4.46,0,0,0,3.29,1C750.13,136.77,753.34,130.13,753.93,127.65Z"/><path class="cls-1" d="M769.84,142.47,776.78,107h8.61l-3.58,8.76h1.25c2.77-6.64,6.78-9.78,12.11-9.78,5.92,0,8.91,4.09,7.89,9.78h1.24c2.63-6.93,6.71-9.78,12.26-9.78,9.2,0,11.32,7.08,9.42,16.72l-3.87,19.78h-8.76l3.87-19.86c.95-5.25.22-8.76-4.82-8.76-4.67,0-7.3,3.65-8.54,9.79l-3.65,18.83H791.6l3.86-19.78c1-5.26.22-8.76-4.81-8.76-4.6,0-7.3,3.57-8.47,9.78l-3.72,18.76Z"/><path class="cls-1" d="M835.83,136.92a17.53,17.53,0,0,1-2.84-10A22.61,22.61,0,0,1,836.93,114c3.28-4.67,8.54-8,16.28-8,6.35,0,11.17,2.48,13.94,6.57a18,18,0,0,1,2.85,10,23.23,23.23,0,0,1-3.94,12.92c-3.29,4.67-8.55,8-16.28,8C843.43,143.49,838.61,141,835.83,136.92Zm22.78-5.4a15.16,15.16,0,0,0,2.56-8.47,10.79,10.79,0,0,0-1.76-6.28c-1.31-2-3.57-3.21-6.64-3.21a9.79,9.79,0,0,0-8.39,4.38,15.08,15.08,0,0,0-2.56,8.47,10.78,10.78,0,0,0,1.75,6.28c1.32,2,3.58,3.21,6.64,3.21A9.81,9.81,0,0,0,858.61,131.52Z"/><path class="cls-1" d="M874.67,142.47,881.6,107h8.55l-4.31,9.78h1.24c3.14-6.2,6.06-10.8,12.63-10.8,6.06,0,8.17,4,8.17,8.61,0,2-.29,3.87-1.67,10.81H897.3c1-4.75,1.24-6.21,1.24-7.45,0-2-.66-3.94-3.8-3.94-4.45,0-6.64,3.72-7.81,9.93l-3.65,18.54Z"/><path class="cls-1" d="M907.67,155.61,917.16,107h8.46l-3.79,8.76h1.24c3-6.64,7.3-9.78,13.21-9.78,5,0,8.54,2.12,10.66,5.26a18.07,18.07,0,0,1,2.77,10,27.1,27.1,0,0,1-4.45,15,16.13,16.13,0,0,1-13.72,7.3c-7.23,0-10.66-5.11-11.25-11.24h-1.24L919,142.47l-2.7,13.14Zm30.51-24.09a15.69,15.69,0,0,0,2.7-8.76,10.3,10.3,0,0,0-1.53-6.13,7.79,7.79,0,0,0-6.65-3.07,9.45,9.45,0,0,0-8,4.38,16.26,16.26,0,0,0-2.7,8.76,10.23,10.23,0,0,0,1.54,6.13,7.76,7.76,0,0,0,6.64,3.07A9.44,9.44,0,0,0,938.18,131.52Z"/><path class="cls-1" d="M954.6,142.47l9.86-51.1h8.69l-3,15.62-3.72,8.76h1.24c3.29-6.71,7.08-9.78,13-9.78,9,0,12.27,6.86,10.44,16.06l-4,20.44h-8.76l3.94-20.29c1-4.9-.44-8.33-5.69-8.33-4.82,0-8.33,3.22-9.71,10.15l-3.65,18.47Z"/><path class="cls-1" d="M1000.81,136.92a17.53,17.53,0,0,1-2.84-10,22.61,22.61,0,0,1,3.94-12.92c3.28-4.67,8.54-8,16.28-8,6.35,0,11.16,2.48,13.94,6.57a18.09,18.09,0,0,1,2.85,10,23.16,23.16,0,0,1-4,12.92c-3.28,4.67-8.54,8-16.28,8C1008.4,143.49,1003.59,141,1000.81,136.92Zm22.78-5.4a15.15,15.15,0,0,0,2.55-8.47,10.78,10.78,0,0,0-1.75-6.28c-1.31-2-3.58-3.21-6.64-3.21a9.83,9.83,0,0,0-8.4,4.38,15.15,15.15,0,0,0-2.55,8.47,10.78,10.78,0,0,0,1.75,6.28c1.31,2,3.58,3.21,6.64,3.21A9.81,9.81,0,0,0,1023.59,131.52Z"/><path class="cls-1" d="M1039.65,132.61a8.35,8.35,0,0,1,.14-1.75H1048a8.53,8.53,0,0,0-.15,1.46c0,2.78,2.34,4.45,6.06,4.45a6.57,6.57,0,0,0,4.53-1.38,4.1,4.1,0,0,0,1-2.85c0-1.9-1.17-3.06-4-4l-4.53-1.46c-5.77-1.9-8.32-5.48-8.32-10a10.39,10.39,0,0,1,2.85-7.38c2.19-2.19,5.62-3.72,11.09-3.72,10.22,0,14.38,5.33,14.38,10.8a8.13,8.13,0,0,1-.14,1.83h-8.25a7,7,0,0,0,.14-1.39c0-2.85-2.48-4.6-6.35-4.6-2.19,0-3.65.59-4.45,1.46a3.31,3.31,0,0,0-1,2.48c0,1.68,1.17,3,4.52,4l4.46,1.39c5.25,1.68,7.88,4.81,7.88,9.7a11.57,11.57,0,0,1-3,8.11c-2.19,2.19-5.48,3.72-11,3.72C1044,143.49,1039.65,138.53,1039.65,132.61Z"/><path class="cls-1" d="M1075,142.47l6.94-35.48h8.61l-6.94,35.48Zm7.45-40.52,1.75-9h9.41l-1.75,9Z"/><path class="cls-1" d="M1094.62,132.61a8.35,8.35,0,0,1,.14-1.75h8.18a8.53,8.53,0,0,0-.15,1.46c0,2.78,2.34,4.45,6.06,4.45a6.57,6.57,0,0,0,4.53-1.38,4.15,4.15,0,0,0,1-2.85c0-1.9-1.17-3.06-4-4l-4.52-1.46c-5.77-1.9-8.32-5.48-8.32-10a10.42,10.42,0,0,1,2.84-7.38c2.19-2.19,5.62-3.72,11.1-3.72,10.22,0,14.38,5.33,14.38,10.8a7.33,7.33,0,0,1-.15,1.83h-8.24a7,7,0,0,0,.14-1.39c0-2.85-2.48-4.6-6.35-4.6-2.19,0-3.65.59-4.45,1.46a3.31,3.31,0,0,0-1,2.48c0,1.68,1.16,3,4.52,4l4.45,1.39c5.26,1.68,7.89,4.81,7.89,9.7a11.57,11.57,0,0,1-3,8.11c-2.19,2.19-5.48,3.72-11,3.72C1099,143.49,1094.62,138.53,1094.62,132.61Z"/><path class="cls-1" d="M1128.05,142.47l2.12-10.51h11l-2.12,10.51Z"/><path class="cls-1" d="M1151.92,138.23a18.07,18.07,0,0,1-2.77-10,27.1,27.1,0,0,1,4.45-15,15.91,15.91,0,0,1,13.65-7.3c7.3,0,10.66,5.11,11.24,11.24h1.24l.15-10.22L1183,91.37h8.61l-9.92,51.1h-8.47l3.72-8.76h-1.24c-2.92,6.64-7.23,9.78-13.21,9.78C1157.47,143.49,1154,141.37,1151.92,138.23Zm22.27-6.71a16.26,16.26,0,0,0,2.7-8.76,10.23,10.23,0,0,0-1.54-6.13,7.94,7.94,0,0,0-6.64-3.07,9.56,9.56,0,0,0-8.1,4.38,16.26,16.26,0,0,0-2.7,8.76,10.23,10.23,0,0,0,1.53,6.13,8,8,0,0,0,6.64,3.07A9.59,9.59,0,0,0,1174.19,131.52Z"/><path class="cls-1" d="M1227,127.07h-25.33a11.38,11.38,0,0,0,1.68,6.2,7,7,0,0,0,6,3.14c3.87,0,6.72-1.75,8-4.82h8.91c-2.7,7.52-8.62,11.9-17.16,11.9-5.69,0-10.22-2.26-13.07-6.5a18,18,0,0,1-2.77-10,22.79,22.79,0,0,1,4-13.06c3.21-4.75,8.39-8,15.69-8,11,0,15,7.52,15,14.75A23.7,23.7,0,0,1,1227,127.07Zm-7.3-6.21a13.64,13.64,0,0,0,.14-1.75c0-2.92-1.38-6.21-6.93-6.21a10,10,0,0,0-8.62,4.46,14.33,14.33,0,0,0-1.75,3.5Z"/><path class="cls-1" d="M1232.22,142.47l6.93-35.48h8.62l-6.94,35.48Zm7.45-40.52,1.75-9h9.41l-1.75,9Z"/><path class="cls-1" d="M1250,142.47l2.12-10.51h11L1261,142.47Z"/><path class="cls-1" d="M1272.44,127.43l4-20.44h8.76l-4,20.29c-1,4.9.44,8.33,5.26,8.33s8-3.21,9.42-10.15l3.57-18.47h8.62l-6.86,35.48h-8.62l3.94-8.76h-1.24c-3.21,6.71-7,9.78-12.84,9.78C1273.9,143.49,1270.62,136.63,1272.44,127.43Z"/><path class="cls-1" d="M1315.66,137a18,18,0,0,1-2.78-10,22.79,22.79,0,0,1,4-13.06c3.21-4.75,8.39-8,15.77-8,10.87,0,15.47,7,15.54,14.23h-8.54c-.14-2.55-1.6-6.64-7.44-6.64a9.39,9.39,0,0,0-8,4.24,14.8,14.8,0,0,0-2.48,8.68,11.26,11.26,0,0,0,1.6,6.35,7.07,7.07,0,0,0,6.06,3.07,8,8,0,0,0,8.1-6.64h8.62c-1.76,7.44-7.16,14.23-17.3,14.23C1323,143.49,1318.5,141.23,1315.66,137Z"/><path class="cls-1" d="M1350.62,142.47l2.12-10.51h11l-2.11,10.51Z"/><path class="cls-1" d="M1368.36,155.61l9.49-48.62h8.47l-3.8,8.76h1.25c3-6.64,7.3-9.78,13.21-9.78,5,0,8.54,2.12,10.66,5.26a18.15,18.15,0,0,1,2.77,10,27.1,27.1,0,0,1-4.45,15,16.14,16.14,0,0,1-13.73,7.3c-7.22,0-10.65-5.11-11.24-11.24h-1.24l-.07,10.22-2.7,13.14Zm30.52-24.09a15.69,15.69,0,0,0,2.7-8.76,10.23,10.23,0,0,0-1.54-6.13,7.76,7.76,0,0,0-6.64-3.07,9.44,9.44,0,0,0-8,4.38,16.26,16.26,0,0,0-2.7,8.76,10.3,10.3,0,0,0,1.53,6.13,7.79,7.79,0,0,0,6.65,3.07A9.45,9.45,0,0,0,1398.88,131.52Z"/><path class="cls-1" d="M1431.87,114.29l-3.14,16.21c-.65,3.28-.14,5.47,2.85,5.47,3.43,0,4.38-2.11,5.25-6.35l1-4.89h8.47l-1,5c-1.75,8.83-5.55,13.72-14.09,13.72-9,0-12.62-4.82-11-13.21l3.07-16h-6.94l1.46-7.3h6.94l1.17-6.2,9.41-4-2,10.22h16.5l-1.46,7.3Z"/></g></g></svg>