<svg xmlns="http://www.w3.org/2000/svg" viewBox="0 0 3289.76 253.49"><defs><style>.cls-1{fill:#fff;}</style></defs><g id="Layer_2" data-name="Layer 2"><g id="Layer_1-2" data-name="Layer 1"><path class="cls-1" d="M3161.67,230.67h-50.12v-1.6c0-14.6-.18-29.2.07-43.79.14-7.91-2.86-14.24-8.07-19.82s-11.08-9.94-16.89-14.6c-4-3.23-8.08-6.42-11.41-10.42-4.69-5.65-4.52-11.05.54-16.41,4-4.24,8.8-7.49,13.47-10.9,5-3.63,10-7.22,14.23-11.69,3.6-3.77,6.56-8,7.6-13.19a21.76,21.76,0,0,0,.44-4.26q0-39.34,0-78.7V3.62h50.28c-4.81,17.57-9.61,35.06-14.45,52.73,2.24,0,4.8,0,7,0,.09,0,.22-.38.29-.64,1.92-6.7,3.66-13.46,5.76-20.1,1.52-4.8,3.48-9.47,5.31-14.17a45.84,45.84,0,0,1,6.75-11.91c3.65-4.57,8.11-8,14.06-8.88a44.67,44.67,0,0,1,10.25-.51,18.75,18.75,0,0,1,15.58,10.18,35.1,35.1,0,0,1,4,13.55c.22,2.3.46,4.6.52,6.9.09,3.33.16,6.67,0,10s-.65,6.6-1,9.89c-.26,2.31-.54,4.62-.82,7h5.6c.37-2.07.67-4.19,1.14-6.28,1.31-5.77,2.56-11.56,4.07-17.29a76,76,0,0,1,6.68-16.74c2.9-5.36,6.51-10.13,11.71-13.47A23.35,23.35,0,0,1,3256.7,0a35.87,35.87,0,0,1,12.72,1.58,24.5,24.5,0,0,1,13.65,11.64c3.13,5.6,4.65,11.71,5.58,18a126.67,126.67,0,0,1,1,19.06c0,11.32-.18,22.64.06,34a25.34,25.34,0,0,1-8.29,19.94c-4.88,4.54-10.22,8.6-15.33,12.89-3.81,3.19-7.71,6.3-11.36,9.68a12.63,12.63,0,0,0-4.41,8.52,11.13,11.13,0,0,0,2.41,7.11c2.61,3.71,6.07,6.59,9.55,9.43,6.35,5.2,13.09,9.93,18.75,15.94,3.95,4.2,7.2,8.82,8.19,14.67a24,24,0,0,1,.41,3.87q0,21.77,0,43.52c0,.22,0,.44,0,.76h-50.36v-1.57c0-13.88-.15-27.76.07-41.64.11-7.67-2.65-13.95-7.71-19.46-4.77-5.18-10.31-9.46-15.81-13.8-4.48-3.52-9.08-6.92-12.8-11.29-1.82-2.14-3.36-4.45-3.65-7.36-.37-3.78,1.32-6.83,3.9-9.22,3.74-3.46,7.77-6.63,11.75-9.83,4.58-3.68,9.34-7.14,13.82-10.93a30.92,30.92,0,0,0,8.9-11.84,21.08,21.08,0,0,0,1.53-8c0-9.39.07-18.78,0-28.17a30.69,30.69,0,0,0-.94-7.33c-.95-3.61-4.54-3.66-6.92-1.68a13,13,0,0,0-4.16,7.81,75.58,75.58,0,0,0-1.36,11c-.29,5.68-.38,11.38-.29,17.06a24,24,0,0,1-6.22,16.59c-4.34,5.05-9.7,8.91-15,12.91-4.6,3.5-9.16,7.07-13.57,10.8a20,20,0,0,0-3.83,4.82,9.06,9.06,0,0,0-.11,9.59c1.89,3.52,4.75,6.19,7.76,8.69,5.63,4.66,11.41,9.14,17,13.84a46.82,46.82,0,0,1,10.79,12.29,22.11,22.11,0,0,1,3.07,11.15q0,22.23,0,44.47v1.11h-50.13v-1.54c0-14.06-.25-28.13.09-42.18.22-8.62-2.66-15.71-8.77-21.43-4.84-4.53-10.08-8.64-15.24-12.81-4.39-3.56-9-6.81-12.67-11.22l-.34-.42c-3.94-5.09-3.91-9.64.13-14.66,3.22-4,7.35-7,11.33-10.1,4.93-3.89,9.92-7.71,14.69-11.79,3.91-3.34,7.31-7.26,9.09-12.17a25.2,25.2,0,0,0,1.61-8c.18-10.23.13-20.48,0-30.72A9.2,9.2,0,0,0,3174,49c-1.45-2.32-4.41-2.37-6.64-.7-2.45,1.84-3.46,4.59-4,7.35A73.35,73.35,0,0,0,3162,66.85c-.28,5.9-.2,11.82-.33,17.73s-2.58,10.73-6.25,15.11c-4.45,5.31-9.94,9.45-15.38,13.65-3.94,3-7.9,6.06-11.65,9.33a29,29,0,0,0-4.93,5.83c-2.13,3.23-2,6.68-.13,10.07a26.76,26.76,0,0,0,6.62,7.55c5.7,4.66,11.52,9.15,17.23,13.8a53.1,53.1,0,0,1,10.17,10.52,23.45,23.45,0,0,1,4.35,13.87c-.05,14.92,0,29.83,0,44.74Z"/><path class="cls-1" d="M0,87.89v-84H23.88l19.8,64.68,1,9.6h2l.84-9.6L67.32,3.89h24v84H76.8V13.61h-2l-1.08,15.6L55.32,87.89H35.88L17.64,29.21l-1.2-15.6h-2V87.89Z"/><path class="cls-1" d="M158,50V87.89H143.88l3.36-15.6h-2c-3,11.76-9.36,17.28-20,17.28-5.4,0-10-1.8-13.08-4.92A15.93,15.93,0,0,1,107.64,73q0-7.56,4.32-11.88,5.4-5.4,16.2-6.12l15.72-1.08V50c0-6.36-3.84-10.2-11.64-10.2-11.28,0-11.4,8.76-11.4,9.84v.48h-14.4v-.48c0-1.68.12-21.72,26.16-21.72C149.4,27.89,158,35.81,158,50ZM143.88,63.53l-12.36,1.32q-5.22.54-7.56,2.88a6.24,6.24,0,0,0-1.8,4.56,5.69,5.69,0,0,0,1.68,4.32,7.67,7.67,0,0,0,5.64,1.92C139.68,78.53,143.76,68.93,143.88,63.53Z"/><path class="cls-1" d="M171.12,69.53v-.72H184.8v.72c0,6,3.48,9,10.32,9,3.48,0,6-.72,7.56-2.28a5.79,5.79,0,0,0,1.68-4.2c0-3.6-2-5.76-7.56-6.84l-8.64-1.92c-10.8-2.16-16.2-7.8-16.2-17.4a16,16,0,0,1,4.56-11.76c4.08-4.08,10.56-6.24,19-6.24,14.76,0,23.52,7.68,23.52,20.16v.6H205.32v-.6c0-6-3.6-9.12-10.44-9.12-3.48,0-6,.72-7.56,2.28a5.79,5.79,0,0,0-1.68,4.2c0,3.48,2.4,5.52,7.56,6.6l7.56,1.68c12,2.52,17.4,7.92,17.4,17.76q0,7.38-4.68,11.88c-4,4.08-10.44,6.24-18.72,6.24C179.88,89.57,171.12,82.13,171.12,69.53Z"/><path class="cls-1" d="M279.12,41.57h-27V68.45c0,6,2.52,8.76,6.36,8.76,4.68,0,6.48-2.88,6.48-10.08v-8.4h14.16v8.64c0,13.92-7.68,22.2-20.64,22.2-13.8,0-20.52-7.08-20.52-21v-27H226.44v-12H238V19.37l14.16-6.6v16.8h27Z"/><path class="cls-1" d="M344.27,62.57H302.4c.48,4,1.44,7.2,3.24,9.72,2.52,3.6,6.36,5.64,12,5.64,6.12,0,10.68-2.76,12.48-7.92h14.15c-2,11.52-12.6,19.56-26.27,19.56-11.4,0-19.44-3.84-24.36-11-3.6-5-5.4-11.64-5.4-19.56a34.69,34.69,0,0,1,5.88-19.92c5-7.32,13.2-11.16,22.68-11.16,17.51,0,27.47,11,27.47,29.88ZM330,52.37c-.37-8.52-5-13.08-13.08-13.08a13.62,13.62,0,0,0-11.4,5.76,19,19,0,0,0-2.76,7.32Z"/><path class="cls-1" d="M357.72,87.89V29.57h14l-4.08,16.8h2.16c2.88-12.72,9.24-18.48,18.12-18.48,10.8,0,16.08,7.08,16.08,19.2V59.81H389.51V51.89c0-7.68-2.64-10.8-7.92-10.8-6.36,0-9.71,5.4-9.71,15.6v31.2Z"/><path class="cls-1" d="M423.59,5.69l-2,28.8h-6.47l-1.92-28.8Z"/><path class="cls-1" d="M434.87,69.53v-.72h13.68v.72c0,6,3.48,9,10.32,9,3.48,0,6-.72,7.56-2.28a5.79,5.79,0,0,0,1.68-4.2c0-3.6-2-5.76-7.56-6.84l-8.64-1.92c-10.8-2.16-16.2-7.8-16.2-17.4a16,16,0,0,1,4.56-11.76c4.08-4.08,10.56-6.24,19-6.24,14.76,0,23.52,7.68,23.52,20.16v.6H469.07v-.6c0-6-3.6-9.12-10.44-9.12-3.48,0-6,.72-7.56,2.28a5.79,5.79,0,0,0-1.68,4.2c0,3.48,2.4,5.52,7.56,6.6l7.56,1.68c12,2.52,17.4,7.92,17.4,17.76q0,7.38-4.68,11.88c-4,4.08-10.44,6.24-18.72,6.24C443.63,89.57,434.87,82.13,434.87,69.53Z"/><path class="cls-1" d="M528.35,87.89v-84h31c19,0,33.12,9.24,38.76,25.08a53.24,53.24,0,0,1,2.64,16.92,50.24,50.24,0,0,1-2.76,17c-5.64,15.84-19.56,25-38.64,25ZM543.23,74h17c11.28,0,19.32-6.36,22.8-16.08a34.47,34.47,0,0,0,2-12,36.37,36.37,0,0,0-2-12.24c-3.6-9.6-11.64-15.84-22.8-15.84h-17Z"/><path class="cls-1" d="M665.87,62.57H624c.48,4,1.44,7.2,3.24,9.72,2.52,3.6,6.36,5.64,12,5.64,6.12,0,10.68-2.76,12.48-7.92h14.16c-2,11.52-12.6,19.56-26.28,19.56-11.4,0-19.44-3.84-24.36-11-3.6-5-5.4-11.64-5.4-19.56a34.69,34.69,0,0,1,5.88-19.92c5-7.32,13.2-11.16,22.68-11.16,17.52,0,27.48,11,27.48,29.88Zm-14.28-10.2c-.36-8.52-5-13.08-13.08-13.08a13.62,13.62,0,0,0-11.4,5.76,19,19,0,0,0-2.76,7.32Z"/><path class="cls-1" d="M675.35,88.13h13.92c.6,7,5,11.16,13.92,11.16,9.24,0,14.52-5.4,14.52-15.12V82.61l4.44-15.84h-2c-3.24,12.24-10.68,17.4-19.68,17.4-8.52,0-15.6-3.6-19.92-10-3.36-4.68-5.16-10.92-5.16-18.24s1.8-13.44,5.16-18.24c4.32-6.36,11.4-9.84,19.92-9.84,9,0,16.44,5.16,19.68,17.4h2l-4.32-15.72h14v50c0,21-9.6,31.44-28.68,31.44C685.43,111.05,676.07,102.77,675.35,88.13Zm39.72-21.24A18.29,18.29,0,0,0,718.19,56a18.17,18.17,0,0,0-3.12-10.8c-2.4-3.6-6.36-5.52-11.16-5.52s-8.76,1.92-11.16,5.52A18.17,18.17,0,0,0,689.63,56a18.29,18.29,0,0,0,3.12,10.92,14,14,0,0,0,22.32,0Z"/><path class="cls-1" d="M749.39,87.89V29.57h14l-4.08,16.8h2.16c2.88-12.72,9.24-18.48,18.12-18.48,10.8,0,16.08,7.08,16.08,19.2V59.81H781.19V51.89c0-7.68-2.64-10.8-7.92-10.8-6.36,0-9.72,5.4-9.72,15.6v31.2Z"/><path class="cls-1" d="M859.07,62.57H817.19c.48,4,1.44,7.2,3.24,9.72,2.52,3.6,6.36,5.64,12,5.64,6.12,0,10.68-2.76,12.48-7.92h14.16c-2,11.52-12.6,19.56-26.28,19.56-11.4,0-19.44-3.84-24.36-11-3.6-5-5.4-11.64-5.4-19.56a34.69,34.69,0,0,1,5.88-19.92c5-7.32,13.2-11.16,22.68-11.16,17.52,0,27.48,11,27.48,29.88Zm-14.28-10.2c-.36-8.52-5-13.08-13.08-13.08a13.62,13.62,0,0,0-11.4,5.76,19,19,0,0,0-2.76,7.32Z"/><path class="cls-1" d="M923.86,62.57H882c.48,4,1.44,7.2,3.24,9.72,2.52,3.6,6.36,5.64,12,5.64,6.12,0,10.68-2.76,12.48-7.92h14.15c-2,11.52-12.6,19.56-26.27,19.56-11.4,0-19.44-3.84-24.36-11-3.6-5-5.4-11.64-5.4-19.56a34.69,34.69,0,0,1,5.88-19.92c5-7.32,13.2-11.16,22.68-11.16,17.51,0,27.47,11,27.47,29.88Zm-14.28-10.2c-.36-8.52-5-13.08-13.07-13.08a13.62,13.62,0,0,0-11.4,5.76,19,19,0,0,0-2.76,7.32Z"/><path class="cls-1" d="M966.46,21.29V6.53h15.48V21.29Zm.6,66.6V29.57h14.16V87.89Z"/><path class="cls-1" d="M999.22,87.89V29.57h14.16l-3.6,15.6h2c3.48-11.4,10.08-17.28,19.68-17.28,13.8,0,21.12,8.16,21.12,23.76V87.89H1038.1v-34c0-8.64-3.72-13.08-11.16-13.08-8.28,0-13.56,6.36-13.56,16.68V87.89Z"/><path class="cls-1" d="M1100.26,87.89v-84h31c19,0,33.12,9.24,38.76,25.08a53.24,53.24,0,0,1,2.64,16.92,50.24,50.24,0,0,1-2.76,17c-5.64,15.84-19.56,25-38.64,25ZM1115.14,74h17c11.28,0,19.32-6.36,22.8-16.08a34.47,34.47,0,0,0,2-12,36.37,36.37,0,0,0-2-12.24c-3.6-9.6-11.64-15.84-22.8-15.84h-17Z"/><path class="cls-1" d="M1237.78,62.57H1195.9c.48,4,1.44,7.2,3.24,9.72,2.52,3.6,6.36,5.64,12,5.64,6.12,0,10.68-2.76,12.48-7.92h14.16c-2,11.52-12.6,19.56-26.28,19.56-11.4,0-19.44-3.84-24.36-11-3.6-5-5.4-11.64-5.4-19.56a34.69,34.69,0,0,1,5.88-19.92c5-7.32,13.2-11.16,22.68-11.16,17.52,0,27.48,11,27.48,29.88Zm-14.28-10.2c-.36-8.52-5-13.08-13.08-13.08a13.62,13.62,0,0,0-11.4,5.76,19,19,0,0,0-2.76,7.32Z"/><path class="cls-1" d="M1247.5,69.53v-.72h13.68v.72c0,6,3.48,9,10.32,9,3.48,0,6-.72,7.56-2.28a5.79,5.79,0,0,0,1.68-4.2c0-3.6-2-5.76-7.56-6.84l-8.64-1.92c-10.8-2.16-16.2-7.8-16.2-17.4a16,16,0,0,1,4.56-11.76c4.08-4.08,10.56-6.24,19-6.24,14.76,0,23.52,7.68,23.52,20.16v.6H1281.7v-.6c0-6-3.6-9.12-10.44-9.12-3.48,0-6,.72-7.56,2.28a5.79,5.79,0,0,0-1.68,4.2c0,3.48,2.4,5.52,7.56,6.6l7.56,1.68c12,2.52,17.4,7.92,17.4,17.76q0,7.38-4.68,11.88c-4,4.08-10.44,6.24-18.72,6.24C1256.26,89.57,1247.5,82.13,1247.5,69.53Z"/><path class="cls-1" d="M1309.54,21.29V6.53H1325V21.29Zm.6,66.6V29.57h14.16V87.89Z"/><path class="cls-1" d="M1338.34,88.13h13.92c.6,7,5,11.16,13.92,11.16,9.24,0,14.52-5.4,14.52-15.12V82.61l4.44-15.84h-2c-3.24,12.24-10.68,17.4-19.68,17.4-8.52,0-15.6-3.6-19.92-10-3.36-4.68-5.16-10.92-5.16-18.24s1.8-13.44,5.16-18.24c4.32-6.36,11.4-9.84,19.92-9.84,9,0,16.44,5.16,19.68,17.4h2l-4.32-15.72h14v50c0,21-9.6,31.44-28.68,31.44C1348.42,111.05,1339.06,102.77,1338.34,88.13Zm39.72-21.24A18.29,18.29,0,0,0,1381.18,56a18.17,18.17,0,0,0-3.12-10.8c-2.4-3.6-6.36-5.52-11.16-5.52s-8.76,1.92-11.16,5.52a18.17,18.17,0,0,0-3.12,10.8,18.29,18.29,0,0,0,3.12,10.92,14,14,0,0,0,22.32,0Z"/><path class="cls-1" d="M1412.38,87.89V29.57h14.16l-3.6,15.6h2c3.48-11.4,10.08-17.28,19.68-17.28,13.8,0,21.12,8.16,21.12,23.76V87.89h-14.52v-34c0-8.64-3.72-13.08-11.16-13.08-8.28,0-13.56,6.36-13.56,16.68V87.89Z"/><path class="cls-1" d="M1560,50V87.89h-14.16l3.36-15.6h-2c-3,11.76-9.36,17.28-20,17.28-5.39,0-9.95-1.8-13.07-4.92A15.93,15.93,0,0,1,1509.58,73q0-7.56,4.32-11.88,5.4-5.4,16.19-6.12l15.72-1.08V50c0-6.36-3.84-10.2-11.64-10.2-11.27,0-11.39,8.76-11.39,9.84v.48h-14.4v-.48c0-1.68.12-21.72,26.16-21.72C1551.33,27.89,1560,35.81,1560,50Zm-14.16,13.56-12.35,1.32c-3.49.36-6,1.32-7.57,2.88a6.28,6.28,0,0,0-1.8,4.56,5.69,5.69,0,0,0,1.69,4.32,7.64,7.64,0,0,0,5.64,1.92C1541.61,78.53,1545.69,68.93,1545.81,63.53Z"/><path class="cls-1" d="M1576.77,87.89V29.57h14.16l-3.6,15.6h2c3.48-11.4,10.08-17.28,19.68-17.28,13.8,0,21.12,8.16,21.12,23.76V87.89h-14.52v-34c0-8.64-3.72-13.08-11.16-13.08-8.28,0-13.56,6.36-13.56,16.68V87.89Z"/><path class="cls-1" d="M1648.41,79.13C1644.93,74,1643,67,1643,58.73s1.92-15.24,5.4-20.4a23.94,23.94,0,0,1,20.4-10.44c10.44,0,17.64,6,20.88,17.28h2l-3.6-15.6V3.89h14.16v84h-14.16l3.6-15.6h-2c-3.24,11.28-10.44,17.28-20.88,17.28A23.94,23.94,0,0,1,1648.41,79.13Zm36.6-7.92c2.16-3,3.36-7.32,3.36-12.48s-1.2-9.48-3.36-12.48c-2.64-3.84-6.84-5.88-12.12-5.88s-9.36,2-12,5.88c-2.16,3-3.48,7.32-3.48,12.48s1.32,9.48,3.48,12.48c2.64,3.84,6.84,5.88,12,5.88S1682.37,75.05,1685,71.21Z"/><path class="cls-1" d="M1751.13,87.89v-84H1775l19.8,64.68,1,9.6h2l.84-9.6,19.8-64.68h24v84h-14.52V13.61h-2l-1.08,15.6-18.36,58.68H1787l-18.24-58.68-1.2-15.6h-2V87.89Z"/><path class="cls-1" d="M1860.33,65.81V29.57h14.4v34c0,8.64,3.6,13.08,10.68,13.08,7.92,0,13-6.36,13-16.68V29.57h14.16V87.89h-14.16l3.6-15.6h-2c-3.36,11.4-9.72,17.28-19.08,17.28C1867.29,89.57,1860.33,81.41,1860.33,65.81Z"/><path class="cls-1" d="M1930.53,87.89v-84h14.16v84Z"/><path class="cls-1" d="M2008.05,41.57h-27V68.45c0,6,2.52,8.76,6.36,8.76,4.68,0,6.48-2.88,6.48-10.08v-8.4h14.16v8.64c0,13.92-7.68,22.2-20.64,22.2-13.8,0-20.52-7.08-20.52-21v-27h-11.52v-12h11.52V19.37l14.16-6.6v16.8h27Z"/><path class="cls-1" d="M2021.25,21.29V6.53h15.48V21.29Zm.6,66.6V29.57H2036V87.89Z"/><path class="cls-1" d="M2054,87.89V29.57h14.16l-3.6,15.6h2c3-11.16,8.64-17.28,18-17.28,8.39,0,15.35,5.88,15.35,17.28h2c3-12.6,10.08-17.28,19-17.28,12.24,0,19,7.8,19,22.68V87.89H2125.4V53.45c0-8.28-3.24-12.6-9.48-12.6-7.68,0-12,6.12-12,15.84v31.2h-14.16V53.45c0-8.28-4.07-12.6-9.72-12.6-7.79,0-11.87,6-11.87,15.84v31.2Z"/><path class="cls-1" d="M2208.08,62.57h-41.87c.47,4,1.43,7.2,3.23,9.72,2.52,3.6,6.36,5.64,12,5.64,6.12,0,10.68-2.76,12.48-7.92h14.16c-2,11.52-12.6,19.56-26.28,19.56-11.4,0-19.43-3.84-24.35-11-3.6-5-5.41-11.64-5.41-19.56a34.76,34.76,0,0,1,5.88-19.92c5-7.32,13.2-11.16,22.68-11.16,17.52,0,27.48,11,27.48,29.88Zm-14.28-10.2c-.36-8.52-5-13.08-13.08-13.08a13.62,13.62,0,0,0-11.4,5.76,19,19,0,0,0-2.76,7.32Z"/><path class="cls-1" d="M2223,79.13c-3.48-5.16-5.4-12.12-5.4-20.4s1.92-15.24,5.4-20.4a23.94,23.94,0,0,1,20.4-10.44c10.44,0,17.64,6,20.88,17.28h2l-3.6-15.6V3.89h14.16v84h-14.16l3.6-15.6h-2c-3.24,11.28-10.44,17.28-20.88,17.28A23.94,23.94,0,0,1,2223,79.13Zm36.6-7.92c2.16-3,3.36-7.32,3.36-12.48s-1.2-9.48-3.36-12.48c-2.64-3.84-6.84-5.88-12.12-5.88s-9.36,2-12,5.88c-2.16,3-3.48,7.32-3.48,12.48s1.32,9.48,3.48,12.48c2.64,3.84,6.84,5.88,12,5.88S2256.92,75.05,2259.56,71.21Z"/><path class="cls-1" d="M2294.24,21.29V6.53h15.48V21.29Zm.6,66.6V29.57H2309V87.89Z"/><path class="cls-1" d="M2374.64,50V87.89h-14.16l3.36-15.6h-2c-3,11.76-9.36,17.28-20,17.28-5.4,0-10-1.8-13.08-4.92A15.93,15.93,0,0,1,2324.24,73q0-7.56,4.32-11.88,5.4-5.4,16.2-6.12l15.72-1.08V50c0-6.36-3.84-10.2-11.64-10.2-11.28,0-11.4,8.76-11.4,9.84v.48H2323v-.48c0-1.68.12-21.72,26.16-21.72C2366,27.89,2374.64,35.81,2374.64,50Zm-14.16,13.56-12.36,1.32q-5.22.54-7.56,2.88a6.24,6.24,0,0,0-1.8,4.56,5.69,5.69,0,0,0,1.68,4.32,7.67,7.67,0,0,0,5.64,1.92C2356.28,78.53,2360.36,68.93,2360.48,63.53Z"/><path class="cls-1" d="M0,231.89v-84H50.4v13.92H14.88v21.6H48.24v13.68H14.88v34.8Z"/><path class="cls-1" d="M61.8,209.81V173.57H76.2v34c0,8.64,3.6,13.08,10.68,13.08,7.92,0,13-6.36,13-16.68V173.57H114v58.32H99.84l3.6-15.6h-2c-3.36,11.4-9.72,17.28-19.08,17.28C68.76,233.57,61.8,225.41,61.8,209.81Z"/><path class="cls-1" d="M132,231.89v-84h14.16v84Z"/><path class="cls-1" d="M164.16,231.89v-84h14.16v84Z"/><path class="cls-1" d="M227.16,231.89v-84h50.39v13.92H242v21.12h34.31v13.68H242V218h35.51v13.92Z"/><path class="cls-1" d="M287,231.89l19.8-29.28-19.8-29h16.8l11.52,18.24.24,4.8h2l.24-4.8,11.52-18.24h16.8l-19.8,29,19.8,29.28h-16.8l-11.52-17.76-.24-4.68h-2l-.24,4.68-11.52,17.76Z"/><path class="cls-1" d="M357.83,231.89v-84H372v25.68l-3.6,15.6h2c3.48-11.4,10.08-17.28,19.68-17.28,13.8,0,21.12,8.16,21.12,23.76v36.24H396.71v-34c0-8.64-3.72-13.08-11.16-13.08-8.28,0-13.56,6.36-13.56,16.68v30.36Z"/><path class="cls-1" d="M427.43,165.29V150.53h15.48v14.76Zm.6,66.6V173.57h14.16v58.32Z"/><path class="cls-1" d="M472.79,216.29h-2l3.6,15.6H460.19v-84h14.16v25.68l-3.6,15.6h2c3.36-11.28,10.44-17.28,20.88-17.28,8.64,0,15.84,3.72,20.4,10.44,3.6,5.16,5.4,12.12,5.4,20.4s-1.8,15.24-5.4,20.4c-4.56,6.72-11.76,10.44-20.4,10.44C483.23,233.57,476.15,227.57,472.79,216.29Zm28.92-1.08c2.16-3,3.36-7.32,3.36-12.48s-1.2-9.48-3.36-12.48a15.43,15.43,0,0,0-24.24,0c-2.16,3-3.36,7.32-3.36,12.48s1.2,9.48,3.36,12.48a15.43,15.43,0,0,0,24.24,0Z"/><path class="cls-1" d="M532.91,165.29V150.53h15.48v14.76Zm.6,66.6V173.57h14.16v58.32Z"/><path class="cls-1" d="M611,185.57H584v26.88c0,6,2.52,8.76,6.36,8.76,4.68,0,6.48-2.88,6.48-10.08v-8.4H611v8.64c0,13.92-7.68,22.2-20.64,22.2-13.8,0-20.52-7.08-20.52-21v-27H558.35v-12h11.52v-10.2l14.16-6.6v16.8h27Z"/><path class="cls-1" d="M624.23,165.29V150.53h15.48v14.76Zm.6,66.6V173.57H639v58.32Z"/><path class="cls-1" d="M657.71,221.21a34.32,34.32,0,0,1,0-37c5.28-7.92,14.16-12.36,25-12.36s19.8,4.44,25.08,12.36a34.32,34.32,0,0,1,0,37c-5.28,7.92-14.16,12.36-25.08,12.36S663,229.13,657.71,221.21Zm37.68-6.6a23.4,23.4,0,0,0,0-23.76,15.61,15.61,0,0,0-25.32,0,22.68,22.68,0,0,0,0,23.76,15.61,15.61,0,0,0,25.32,0Z"/><path class="cls-1" d="M726.47,231.89V173.57h14.16l-3.6,15.6h2c3.48-11.4,10.08-17.28,19.68-17.28,13.8,0,21.12,8.16,21.12,23.76v36.24H765.35v-34c0-8.64-3.72-13.08-11.16-13.08-8.28,0-13.56,6.36-13.56,16.68v30.36Z"/><path class="cls-1" d="M874.06,194v37.92H859.9l3.36-15.6h-2c-3,11.76-9.36,17.28-20,17.28-5.39,0-9.95-1.8-13.07-4.92A15.93,15.93,0,0,1,823.67,217q0-7.56,4.32-11.88c3.59-3.6,9-5.64,16.19-6.12l15.72-1.08v-4c0-6.36-3.84-10.2-11.64-10.2-11.27,0-11.39,8.76-11.39,9.84v.48h-14.4v-.48c0-1.68.12-21.72,26.15-21.72C865.42,171.89,874.06,179.81,874.06,194ZM859.9,207.53l-12.36,1.32q-5.22.54-7.56,2.88a6.28,6.28,0,0,0-1.8,4.56,5.69,5.69,0,0,0,1.69,4.32,7.63,7.63,0,0,0,5.63,1.92C855.7,222.53,859.78,212.93,859.9,207.53Z"/><path class="cls-1" d="M935.38,185.57h-27v26.88c0,6,2.52,8.76,6.36,8.76,4.68,0,6.48-2.88,6.48-10.08v-8.4h14.16v8.64c0,13.92-7.68,22.2-20.64,22.2-13.8,0-20.52-7.08-20.52-21v-27H882.71v-12h11.51v-10.2l14.16-6.6v16.8h27Z"/><path class="cls-1" d="M973.3,231.89l11.4-58.32h14.16L993,188h2c4.56-10.92,11.16-16.08,19.92-16.08,9.72,0,14.64,6.72,13,16.08h2c4.32-11.4,11-16.08,20.16-16.08,15.12,0,18.6,11.64,15.48,27.48l-6.36,32.52h-14.4l6.36-32.64c1.56-8.64.36-14.4-7.92-14.4-7.68,0-12,6-14,16.08l-6,31h-14.16l6.36-32.52c1.68-8.64.36-14.4-7.92-14.4-7.56,0-12,5.88-13.92,16.08l-6.12,30.84Z"/><path class="cls-1" d="M1132.54,206.57H1090.9c.12,3.84.84,7.44,2.76,10.2a11.57,11.57,0,0,0,10,5.16c6.36,0,11-2.88,13.08-7.92h14.64c-4.44,12.36-14.16,19.56-28.2,19.56-9.36,0-16.8-3.72-21.48-10.68a29.62,29.62,0,0,1-4.56-16.44,37.48,37.48,0,0,1,6.6-21.48c5.28-7.8,13.8-13.08,25.8-13.08,18.12,0,24.6,12.36,24.6,24.24A38.58,38.58,0,0,1,1132.54,206.57Zm-12-10.2a21.5,21.5,0,0,0,.24-2.88c0-4.8-2.28-10.2-11.4-10.2a16.41,16.41,0,0,0-14.16,7.32,23.52,23.52,0,0,0-2.88,5.76Z"/><path class="cls-1" d="M1167.58,185.57l-5.16,26.64c-1.08,5.4-.24,9,4.68,9,5.64,0,7.2-3.48,8.64-10.44l1.68-8h13.92l-1.68,8.28c-2.88,14.52-9.12,22.56-23.16,22.56-14.76,0-20.76-7.92-18.12-21.72l5-26.28H1142l2.4-12h11.4l1.92-10.2,15.48-6.6-3.24,16.8h27.12l-2.4,12Z"/><path class="cls-1" d="M1254,196.49l-6.84,35.4h-14.28l6.72-15.48h-2c-4.92,12.24-11.52,17.16-21.48,17.16-5.52,0-9.6-1.8-12.36-4.56a14.77,14.77,0,0,1-4.08-10.56c0-5.4,1.68-9.6,4.8-12.6,4-4.08,10.2-6.12,17.64-6.6l17.64-1.32.36-2c1.8-8.88-.84-12.12-9.36-12.12-11.88,0-13.08,7.92-13.44,10.32h-14.52c1-4.92,4.32-22.2,29.16-22.2C1248.58,171.89,1257.46,179,1254,196.49Zm-16.2,11L1224.46,209c-4,.48-6.72,1.44-8.4,3.12a6,6,0,0,0-1.8,4.8,5.12,5.12,0,0,0,1.32,4c1.2,1.2,3,1.68,5.4,1.68C1231.54,222.53,1236.82,211.61,1237.78,207.53Z"/><path class="cls-1" d="M1263.94,231.89l11.4-58.32h14.16l-5.88,14.4h2c4.56-10.92,11.16-16.08,19.92-16.08,9.71,0,14.63,6.72,13,16.08h2c4.32-11.4,11-16.08,20.16-16.08,15.12,0,18.6,11.64,15.48,27.48l-6.36,32.52h-14.4l6.36-32.64c1.56-8.64.36-14.4-7.92-14.4-7.68,0-12,6-14,16.08l-6,31H1299.7l6.36-32.52c1.68-8.64.36-14.4-7.92-14.4-7.56,0-12,5.88-13.92,16.08l-6.12,30.84Z"/><path class="cls-1" d="M1372.42,222.77a28.76,28.76,0,0,1-4.68-16.44,37.15,37.15,0,0,1,6.48-21.24c5.4-7.68,14-13.2,26.76-13.2,10.44,0,18.35,4.08,22.91,10.8a29.71,29.71,0,0,1,4.68,16.44,38.08,38.08,0,0,1-6.48,21.24c-5.39,7.68-14,13.2-26.75,13.2C1384.9,233.57,1377,229.49,1372.42,222.77Zm37.44-8.88a24.86,24.86,0,0,0,4.19-13.92,17.73,17.73,0,0,0-2.88-10.32c-2.15-3.36-5.88-5.28-10.91-5.28a16.1,16.1,0,0,0-13.8,7.2,24.87,24.87,0,0,0-4.2,13.92,17.73,17.73,0,0,0,2.88,10.32c2.16,3.36,5.88,5.28,10.92,5.28A16.1,16.1,0,0,0,1409.86,213.89Z"/><path class="cls-1" d="M1436.26,231.89l11.4-58.32h14l-7.08,16.08h2c5.16-10.2,10-17.76,20.76-17.76,9.95,0,13.43,6.6,13.43,14.16,0,3.24-.48,6.36-2.76,17.76h-14.63c1.67-7.8,2-10.2,2-12.24,0-3.24-1.08-6.48-6.25-6.48-7.31,0-10.91,6.12-12.83,16.32l-6,30.48Z"/><path class="cls-1" d="M1490.5,253.49l15.6-79.92H1520l-6.24,14.4h2c4.92-10.92,12-16.08,21.72-16.08,8.27,0,14,3.48,17.51,8.64a29.78,29.78,0,0,1,4.56,16.44c0,7.32-2,17.16-7.32,24.6a26.5,26.5,0,0,1-22.55,12c-11.88,0-17.52-8.4-18.48-18.48h-2l-.12,16.8-4.44,21.6Zm50.16-39.6a25.78,25.78,0,0,0,4.43-14.4c0-4.08-.59-7.32-2.51-10.08-2.16-3.24-6.25-5-10.92-5a15.5,15.5,0,0,0-13.2,7.2A26.69,26.69,0,0,0,1514,206c0,4.08.6,7.32,2.52,10.08,2.16,3.24,6.24,5,10.92,5A15.5,15.5,0,0,0,1540.66,213.89Z"/><path class="cls-1" d="M1567.65,231.89l16.2-84h14.28l-4.92,25.68-6.12,14.4h2c5.4-11,11.64-16.08,21.36-16.08,14.76,0,20.16,11.28,17.16,26.4l-6.6,33.6h-14.4l6.48-33.36c1.56-8-.72-13.68-9.36-13.68-7.92,0-13.68,5.28-16,16.68l-6,30.36Z"/><path class="cls-1" d="M1643.61,222.77a28.76,28.76,0,0,1-4.68-16.44,37.15,37.15,0,0,1,6.48-21.24c5.4-7.68,14-13.2,26.76-13.2,10.44,0,18.36,4.08,22.92,10.8a29.71,29.71,0,0,1,4.68,16.44,38.08,38.08,0,0,1-6.48,21.24c-5.4,7.68-14,13.2-26.76,13.2C1656.09,233.57,1648.17,229.49,1643.61,222.77Zm37.44-8.88a24.87,24.87,0,0,0,4.2-13.92,17.73,17.73,0,0,0-2.88-10.32c-2.16-3.36-5.88-5.28-10.92-5.28a16.1,16.1,0,0,0-13.8,7.2,24.87,24.87,0,0,0-4.2,13.92,17.73,17.73,0,0,0,2.88,10.32c2.16,3.36,5.88,5.28,10.92,5.28A16.1,16.1,0,0,0,1681.05,213.89Z"/><path class="cls-1" d="M1707.45,215.69a13.17,13.17,0,0,1,.24-2.88h13.44a13.49,13.49,0,0,0-.24,2.4c0,4.56,3.84,7.32,10,7.32,3.6,0,6-1,7.44-2.28a6.76,6.76,0,0,0,1.68-4.68c0-3.12-1.92-5-6.6-6.6l-7.44-2.4c-9.48-3.12-13.68-9-13.68-16.44a17.06,17.06,0,0,1,4.68-12.12c3.6-3.6,9.24-6.12,18.24-6.12,16.8,0,23.64,8.76,23.64,17.76a12.84,12.84,0,0,1-.24,3H1745a11,11,0,0,0,.24-2.28c0-4.68-4.08-7.56-10.44-7.56-3.6,0-6,1-7.32,2.4a5.44,5.44,0,0,0-1.68,4.08c0,2.76,1.92,4.92,7.44,6.6l7.32,2.28c8.64,2.76,13,7.92,13,16,0,4.68-1.44,9.84-4.92,13.32s-9,6.12-18.12,6.12C1714.65,233.57,1707.45,225.41,1707.45,215.69Z"/><path class="cls-1" d="M1765.53,231.89l11.4-58.32h14.16l-11.4,58.32Zm12.24-66.6,2.88-14.76h15.48l-2.88,14.76Z"/><path class="cls-1" d="M1797.81,215.69a13.17,13.17,0,0,1,.24-2.88h13.44a13.49,13.49,0,0,0-.24,2.4c0,4.56,3.84,7.32,10,7.32,3.6,0,6-1,7.44-2.28a6.76,6.76,0,0,0,1.68-4.68c0-3.12-1.92-5-6.6-6.6l-7.44-2.4c-9.48-3.12-13.68-9-13.68-16.44a17.06,17.06,0,0,1,4.68-12.12c3.6-3.6,9.24-6.12,18.24-6.12,16.8,0,23.64,8.76,23.64,17.76a12.84,12.84,0,0,1-.24,3h-13.56a11,11,0,0,0,.24-2.28c0-4.68-4.08-7.56-10.44-7.56-3.6,0-6,1-7.32,2.4a5.44,5.44,0,0,0-1.68,4.08c0,2.76,1.92,4.92,7.44,6.6l7.32,2.28c8.64,2.76,13,7.92,13,16,0,4.68-1.44,9.84-4.92,13.32s-9,6.12-18.12,6.12C1805,233.57,1797.81,225.41,1797.81,215.69Z"/><path class="cls-1" d="M1851.81,231.89l3.48-17.28h18.12l-3.48,17.28Z"/><path class="cls-1" d="M1890.09,224.93a29.78,29.78,0,0,1-4.56-16.44c0-7.32,2-17.16,7.32-24.6a26.13,26.13,0,0,1,22.44-12c12,0,17.52,8.4,18.48,18.48h2l.24-16.8,5.16-25.68h14.16l-16.32,84h-13.92l6.12-14.4h-2c-4.8,10.92-11.88,16.08-21.72,16.08C1899.21,233.57,1893.57,230.09,1890.09,224.93Zm36.6-11a26.69,26.69,0,0,0,4.44-14.4c0-4.08-.6-7.32-2.52-10.08-2.28-3.24-6.36-5-10.92-5a15.71,15.71,0,0,0-13.32,7.2,26.69,26.69,0,0,0-4.44,14.4c0,4.08.6,7.32,2.52,10.08,2.28,3.24,6.36,5,10.92,5A15.71,15.71,0,0,0,1926.69,213.89Z"/><path class="cls-1" d="M2013.57,206.57h-41.64c.12,3.84.84,7.44,2.76,10.2a11.57,11.57,0,0,0,10,5.16c6.36,0,11-2.88,13.08-7.92h14.64c-4.44,12.36-14.16,19.56-28.2,19.56-9.36,0-16.8-3.72-21.48-10.68a29.62,29.62,0,0,1-4.56-16.44,37.48,37.48,0,0,1,6.6-21.48c5.28-7.8,13.8-13.08,25.8-13.08,18.12,0,24.6,12.36,24.6,24.24A38.58,38.58,0,0,1,2013.57,206.57Zm-12-10.2a21.5,21.5,0,0,0,.24-2.88c0-4.8-2.28-10.2-11.4-10.2a16.41,16.41,0,0,0-14.16,7.32,23.52,23.52,0,0,0-2.88,5.76Z"/><path class="cls-1" d="M2022.09,231.89l11.4-58.32h14.16l-11.4,58.32Zm12.24-66.6,2.88-14.76h15.48l-2.88,14.76Z"/><path class="cls-1" d="M2051.25,231.89l3.48-17.28h18.12l-3.48,17.28Z"/><path class="cls-1" d="M2088.21,207.17l6.6-33.6h14.4l-6.48,33.36c-1.68,8,.72,13.68,8.64,13.68s13.2-5.28,15.48-16.68l5.88-30.36h14.16l-11.28,58.32h-14.16l6.48-14.4h-2c-5.28,11-11.52,16.08-21.12,16.08C2090.61,233.57,2085.21,222.29,2088.21,207.17Z"/><path class="cls-1" d="M2159.25,222.89a29.62,29.62,0,0,1-4.56-16.44,37.48,37.48,0,0,1,6.6-21.48c5.28-7.8,13.8-13.08,25.92-13.08,17.87,0,25.43,11.52,25.55,23.4h-14c-.24-4.2-2.65-10.92-12.24-10.92a15.46,15.46,0,0,0-13.2,7c-3,4.08-4.08,9.48-4.08,14.28,0,3.84.72,7.68,2.64,10.44a11.6,11.6,0,0,0,10,5c8.28,0,12.23-5.88,13.31-10.92h14.17c-2.88,12.24-11.76,23.4-28.44,23.4C2171.37,233.57,2163.93,229.85,2159.25,222.89Z"/><path class="cls-1" d="M2216.73,231.89l3.48-17.28h18.12l-3.48,17.28Z"/><path class="cls-1" d="M2245.89,253.49l15.6-79.92h13.92l-6.24,14.4h2c4.91-10.92,12-16.08,21.71-16.08,8.28,0,14,3.48,17.52,8.64A29.78,29.78,0,0,1,2315,197c0,7.32-2,17.16-7.32,24.6a26.5,26.5,0,0,1-22.56,12c-11.87,0-17.51-8.4-18.47-18.48h-2l-.12,16.8-4.44,21.6Zm50.15-39.6a25.71,25.71,0,0,0,4.44-14.4c0-4.08-.6-7.32-2.52-10.08-2.16-3.24-6.24-5-10.92-5a15.48,15.48,0,0,0-13.19,7.2,26.69,26.69,0,0,0-4.44,14.4c0,4.08.6,7.32,2.52,10.08,2.16,3.24,6.24,5,10.91,5A15.49,15.49,0,0,0,2296,213.89Z"/><path class="cls-1" d="M2349.56,185.57l-5.16,26.64c-1.08,5.4-.24,9,4.68,9,5.64,0,7.2-3.48,8.64-10.44l1.68-8h13.92l-1.68,8.28c-2.88,14.52-9.12,22.56-23.16,22.56-14.76,0-20.76-7.92-18.12-21.72l5-26.28H2324l2.4-12h11.4l1.92-10.2,15.48-6.6-3.24,16.8h27.12l-2.4,12Z"/></g></g></svg>