<svg xmlns="http://www.w3.org/2000/svg" xmlns:xlink="http://www.w3.org/1999/xlink" viewBox="0 0 3440.29 930.71"><defs><style>.cls-1{fill:url(#linear-gradient);}</style><linearGradient id="linear-gradient" x1="1720.14" x2="1720.14" y2="930.71" gradientUnits="userSpaceOnUse"><stop offset="0" stop-color="#fff" stop-opacity="0"/><stop offset="0.64" stop-color="#fff"/></linearGradient></defs><g id="Layer_2" data-name="Layer 2"><g id="Layer_1-2" data-name="Layer 1"><rect class="cls-1" width="3440.29" height="930.71"/><path d="M3272.13,842.26h-36.59v-1.17c0-10.66-.13-21.32.05-32,.1-5.77-2.08-10.39-5.89-14.46s-8.09-7.26-12.33-10.66a56.59,56.59,0,0,1-8.32-7.61c-3.43-4.12-3.3-8.06.39-12,2.93-3.09,6.43-5.47,9.84-7.95a76.43,76.43,0,0,0,10.38-8.53c2.63-2.76,4.79-5.8,5.55-9.63a16.25,16.25,0,0,0,.32-3.11q0-28.73,0-57.44v-1.22h36.7c-3.51,12.82-7,25.58-10.55,38.49,1.64,0,3.51,0,5.09,0,.07,0,.16-.27.22-.47,1.4-4.89,2.67-9.82,4.2-14.67,1.11-3.51,2.54-6.91,3.88-10.34a33.32,33.32,0,0,1,4.92-8.69c2.67-3.34,5.92-5.88,10.27-6.49a32.35,32.35,0,0,1,7.48-.37,13.71,13.71,0,0,1,11.37,7.43,25.69,25.69,0,0,1,2.94,9.89c.16,1.68.33,3.36.38,5,.06,2.43.12,4.87,0,7.3s-.48,4.81-.74,7.22c-.19,1.69-.4,3.37-.6,5.11h4.08c.28-1.51.5-3.06.84-4.58.95-4.21,1.87-8.44,3-12.62a55.3,55.3,0,0,1,4.88-12.22,25.66,25.66,0,0,1,8.54-9.83,17.11,17.11,0,0,1,9.09-2.81,26.33,26.33,0,0,1,9.28,1.16,17.86,17.86,0,0,1,10,8.49,38,38,0,0,1,4.07,13.17,92.47,92.47,0,0,1,.76,13.91c0,8.26-.13,16.52,0,24.78a18.5,18.5,0,0,1-6.05,14.56c-3.56,3.32-7.45,6.28-11.19,9.41-2.78,2.33-5.62,4.6-8.29,7.06a9.22,9.22,0,0,0-3.22,6.22,8.13,8.13,0,0,0,1.76,5.19,36.1,36.1,0,0,0,7,6.89c4.63,3.79,9.56,7.24,13.69,11.63,2.88,3.06,5.25,6.44,6,10.71a16.75,16.75,0,0,1,.29,2.82q0,15.89,0,31.77c0,.16,0,.32,0,.55h-36.75v-1.14c0-10.13-.12-20.27,0-30.39a19.72,19.72,0,0,0-5.63-14.21,95.26,95.26,0,0,0-11.54-10.07c-3.27-2.57-6.62-5.06-9.34-8.25a9.77,9.77,0,0,1-2.66-5.36,7.91,7.91,0,0,1,2.85-6.73c2.73-2.53,5.67-4.84,8.57-7.18,3.34-2.69,6.82-5.21,10.09-8a22.47,22.47,0,0,0,6.49-8.64,15.21,15.21,0,0,0,1.12-5.84c0-6.86,0-13.71,0-20.56a22.41,22.41,0,0,0-.68-5.35c-.7-2.64-3.32-2.68-5.05-1.23a9.49,9.49,0,0,0-3,5.7,55.86,55.86,0,0,0-1,8c-.2,4.14-.27,8.3-.2,12.45a17.58,17.58,0,0,1-4.55,12.11c-3.17,3.69-7.08,6.5-10.91,9.42-3.35,2.56-6.68,5.16-9.9,7.88a14.58,14.58,0,0,0-2.8,3.52,6.62,6.62,0,0,0-.08,7,21.91,21.91,0,0,0,5.67,6.34c4.11,3.4,8.33,6.68,12.42,10.11a34,34,0,0,1,7.87,9,16.19,16.19,0,0,1,2.25,8.14q0,16.21,0,32.45v.81h-36.59v-1.12c0-10.26-.18-20.53.07-30.79a19.68,19.68,0,0,0-6.41-15.64c-3.53-3.31-7.35-6.3-11.11-9.35-3.21-2.6-6.6-5-9.25-8.19l-.26-.3c-2.87-3.72-2.85-7,.1-10.7,2.35-2.92,5.37-5.08,8.27-7.38,3.6-2.84,7.24-5.63,10.72-8.6a21.54,21.54,0,0,0,6.64-8.89,18.22,18.22,0,0,0,1.17-5.82c.14-7.47.1-15,0-22.42a6.79,6.79,0,0,0-1-3.36c-1.06-1.7-3.23-1.73-4.85-.51a8.42,8.42,0,0,0-2.94,5.36,53.23,53.23,0,0,0-1,8.15c-.2,4.3-.14,8.62-.24,12.94a17.57,17.57,0,0,1-4.56,11c-3.25,3.87-7.26,6.9-11.23,10-2.87,2.22-5.77,4.43-8.5,6.82a20.69,20.69,0,0,0-3.6,4.25,6.69,6.69,0,0,0-.1,7.35,19.62,19.62,0,0,0,4.83,5.51c4.16,3.4,8.42,6.68,12.58,10.07a38.58,38.58,0,0,1,7.42,7.68,17,17,0,0,1,3.18,10.13c0,10.88,0,21.77,0,32.65Z"/><path d="M87.41,737.53V676.36H104.8l14.42,47.1.7,7h1.48l.61-7,14.42-47.1h17.48v61.17H143.34V683.44h-1.49l-.79,11.36-13.37,42.73H113.54L100.25,694.8l-.87-11.36H97.89v54.09Z"/><path d="M205.21,719.1h-30.5a15.06,15.06,0,0,0,2.36,7.07c1.83,2.63,4.63,4.11,8.74,4.11,4.45,0,7.78-2,9.09-5.77h10.31c-1.49,8.39-9.18,14.25-19.14,14.25-8.3,0-14.16-2.8-17.74-8-2.62-3.67-3.93-8.48-3.93-14.25a25.2,25.2,0,0,1,4.28-14.5c3.67-5.33,9.61-8.13,16.52-8.13,12.75,0,20,8,20,21.76Zm-10.4-7.43c-.26-6.21-3.67-9.53-9.53-9.53a9.91,9.91,0,0,0-8.3,4.2,13.82,13.82,0,0,0-2,5.33Z"/><path d="M248,703.8H228.36v19.58c0,4.37,1.84,6.38,4.64,6.38,3.4,0,4.71-2.1,4.71-7.34V716.3H248v6.29c0,10.14-5.6,16.17-15,16.17-10.05,0-14.95-5.16-14.95-15.3V703.8h-8.39v-8.74h8.39v-7.42l10.31-4.81v12.23H248Z"/><path d="M292.77,709.92v27.61H282.46l2.45-11.36h-1.49c-2.18,8.57-6.82,12.59-14.59,12.59a13.21,13.21,0,0,1-9.53-3.58,11.61,11.61,0,0,1-3.23-8.48c0-3.67,1.05-6.56,3.14-8.65q3.93-3.94,11.8-4.46l11.45-.79v-2.88c0-4.63-2.8-7.43-8.48-7.43-8.21,0-8.3,6.38-8.3,7.17V710H255.19v-.35c0-1.23.09-15.82,19.05-15.82C286.48,693.84,292.77,699.61,292.77,709.92Zm-10.31,9.87-9,1c-2.54.26-4.37,1-5.51,2.09a4.57,4.57,0,0,0-1.31,3.32,4.18,4.18,0,0,0,1.22,3.15,5.61,5.61,0,0,0,4.11,1.4C279.4,730.72,282.37,723.73,282.46,719.79Z"/><path d="M305,737.53V695.06h10.32l-2.63,11.36h1.49c2.18-8.12,6.29-12.58,13.11-12.58,6.11,0,11.18,4.28,11.18,12.58H340c2.18-9.17,7.34-12.58,13.81-12.58,8.91,0,13.8,5.68,13.8,16.52v27.17H357V712.45c0-6-2.36-9.17-6.9-9.17-5.6,0-8.74,4.45-8.74,11.53v22.72H331.05V712.45c0-6-3-9.17-7.08-9.17-5.68,0-8.65,4.37-8.65,11.53v22.72Z"/><path d="M380.33,729.76a25,25,0,0,1,0-26.92c3.85-5.77,10.31-9,18.18-9s14.42,3.23,18.26,9a25,25,0,0,1,0,26.92c-3.84,5.76-10.31,9-18.26,9S384.18,735.52,380.33,729.76ZM407.77,725a17,17,0,0,0,0-17.3,11.37,11.37,0,0,0-18.44,0,16.55,16.55,0,0,0,0,17.3,11.37,11.37,0,0,0,18.44,0Z"/><path d="M430.41,737.53V695.06h10.22l-3,12.24h1.57c2.1-9.26,6.73-13.46,13.2-13.46,7.86,0,11.71,5.16,11.71,14v9.26H453.56v-5.76c0-5.59-1.92-7.87-5.76-7.87-4.63,0-7.08,3.94-7.08,11.36v22.72Z"/><path d="M472.88,753.26v-58.2h10.31l-2.62,11.36h1.48c2.45-8.21,7.61-12.58,15.21-12.58a17.32,17.32,0,0,1,14.85,7.6c2.63,3.76,3.94,8.83,3.94,14.86s-1.31,11.1-3.94,14.85a17.31,17.31,0,0,1-14.85,7.61c-7.6,0-12.76-4.37-15.21-12.59h-1.48l2.62,11.36v15.73Zm30.23-27.87a18.09,18.09,0,0,0,0-18.18,11.24,11.24,0,0,0-17.65,0,18.09,18.09,0,0,0,0,18.18,11.24,11.24,0,0,0,17.65,0Z"/><path d="M526.27,737.53V676.36h10.31v18.7L534,706.42h1.49c2.53-8.3,7.34-12.58,14.33-12.58,10.05,0,15.38,5.94,15.38,17.3v26.39H554.59V712.8c0-6.29-2.71-9.52-8.13-9.52-6,0-9.88,4.63-9.88,12.14v22.11Z"/><path d="M577.92,729.76a25,25,0,0,1,0-26.92c3.84-5.77,10.31-9,18.18-9s14.41,3.23,18.26,9a25,25,0,0,1,0,26.92c-3.85,5.76-10.31,9-18.26,9S581.76,735.52,577.92,729.76ZM605.36,725a17,17,0,0,0,0-17.3,11.37,11.37,0,0,0-18.44,0,16.49,16.49,0,0,0,0,17.3,11.37,11.37,0,0,0,18.44,0Z"/><path d="M625.28,724.16v-.52h10v.52c0,4.37,2.54,6.56,7.52,6.56,2.54,0,4.37-.53,5.51-1.66a4.26,4.26,0,0,0,1.22-3.06c0-2.62-1.49-4.2-5.51-5l-6.29-1.4c-7.86-1.57-11.8-5.68-11.8-12.67a11.66,11.66,0,0,1,3.33-8.57c3-3,7.69-4.54,13.8-4.54,10.75,0,17.13,5.59,17.13,14.68V709h-10v-.44c0-4.37-2.62-6.64-7.6-6.64-2.54,0-4.37.52-5.51,1.66a4.22,4.22,0,0,0-1.22,3.06c0,2.53,1.75,4,5.5,4.81l5.51,1.22c8.74,1.83,12.67,5.77,12.67,12.93a11.45,11.45,0,0,1-3.41,8.65c-2.88,3-7.6,4.55-13.63,4.55C631.66,738.76,625.28,733.34,625.28,724.16Z"/><path d="M670.46,689V678.28h11.28V689Zm.44,48.5V695.06h10.31v42.47Z"/><path d="M691.61,724.16v-.52h10v.52c0,4.37,2.54,6.56,7.52,6.56,2.53,0,4.37-.53,5.5-1.66a4.22,4.22,0,0,0,1.23-3.06c0-2.62-1.49-4.2-5.51-5l-6.29-1.4c-7.86-1.57-11.8-5.68-11.8-12.67a11.69,11.69,0,0,1,3.32-8.57c3-3,7.69-4.54,13.81-4.54,10.75,0,17.13,5.59,17.13,14.68V709h-10v-.44c0-4.37-2.63-6.64-7.61-6.64-2.53,0-4.37.52-5.5,1.66a4.22,4.22,0,0,0-1.22,3.06c0,2.53,1.74,4,5.5,4.81l5.51,1.22c8.73,1.83,12.67,5.77,12.67,12.93a11.45,11.45,0,0,1-3.41,8.65c-2.88,3-7.6,4.55-13.63,4.55C698,738.76,691.61,733.34,691.61,724.16Z"/><path d="M735.22,702.23a5.17,5.17,0,0,1,5.24-5.51c3.06,0,5.07,2.28,5.16,5.51a5.2,5.2,0,1,1-10.4,0Zm0,30.85a5.16,5.16,0,0,1,5.24-5.51c3.06,0,5.07,2.27,5.16,5.51a5.2,5.2,0,1,1-10.4,0Z"/><path d="M774.63,737.53V676.36h36.7V686.5H785.46v15.38h25v10h-25V727.4h25.87v10.13Z"/><path d="M818.24,737.53l14.41-21.32-14.41-21.15h12.23l8.39,13.29.17,3.49h1.49l.17-3.49,8.39-13.29h12.24L846.9,716.21l14.42,21.32H849.08l-8.39-12.93-.17-3.41H839l-.17,3.41-8.39,12.93Z"/><path d="M869.79,753.26v-58.2h10.32l-2.63,11.36H879c2.45-8.21,7.6-12.58,15.21-12.58a17.32,17.32,0,0,1,14.85,7.6c2.62,3.76,3.93,8.83,3.93,14.86s-1.31,11.1-3.93,14.85a17.31,17.31,0,0,1-14.85,7.61c-7.61,0-12.76-4.37-15.21-12.59h-1.49l2.63,11.36v15.73ZM900,725.39a18.09,18.09,0,0,0,0-18.18,11.24,11.24,0,0,0-17.65,0,18.09,18.09,0,0,0,0,18.18,11.24,11.24,0,0,0,17.65,0Z"/><path d="M960.59,719.1h-30.5a15.06,15.06,0,0,0,2.36,7.07c1.84,2.63,4.63,4.11,8.74,4.11,4.46,0,7.78-2,9.09-5.77h10.31c-1.48,8.39-9.17,14.25-19.14,14.25-8.3,0-14.15-2.8-17.74-8-2.62-3.67-3.93-8.48-3.93-14.25a25.28,25.28,0,0,1,4.28-14.5c3.67-5.33,9.61-8.13,16.52-8.13,12.76,0,20,8,20,21.76Zm-10.4-7.43c-.26-6.21-3.67-9.53-9.52-9.53a9.94,9.94,0,0,0-8.31,4.2,13.82,13.82,0,0,0-2,5.33Z"/><path d="M970.38,737.53V695.06H980.6l-3,12.24h1.57c2.1-9.26,6.73-13.46,13.2-13.46,7.87,0,11.71,5.16,11.71,14v9.26H993.54v-5.76c0-5.59-1.93-7.87-5.77-7.87-4.63,0-7.08,3.94-7.08,11.36v22.72Z"/><path d="M1012.41,689V678.28h11.28V689Zm.44,48.5V695.06h10.31v42.47Z"/><path d="M1036.27,737.53V695.06h10.31L1044,706.42h1.49c2.18-8.12,6.29-12.58,13.1-12.58,6.12,0,11.19,4.28,11.19,12.58h1.48c2.19-9.17,7.34-12.58,13.81-12.58,8.91,0,13.81,5.68,13.81,16.52v27.17h-10.57V712.45c0-6-2.36-9.17-6.91-9.17-5.59,0-8.74,4.45-8.74,11.53v22.72h-10.31V712.45c0-6-3-9.17-7.08-9.17-5.68,0-8.65,4.37-8.65,11.53v22.72Z"/><path d="M1148.48,719.1H1118a15.06,15.06,0,0,0,2.36,7.07c1.83,2.63,4.63,4.11,8.74,4.11,4.45,0,7.77-2,9.08-5.77h10.32c-1.49,8.39-9.18,14.25-19.14,14.25-8.3,0-14.16-2.8-17.74-8-2.62-3.67-3.93-8.48-3.93-14.25A25.2,25.2,0,0,1,1112,702c3.67-5.33,9.61-8.13,16.51-8.13,12.76,0,20,8,20,21.76Zm-10.4-7.43c-.26-6.21-3.67-9.53-9.53-9.53a9.91,9.91,0,0,0-8.3,4.2,13.82,13.82,0,0,0-2,5.33Z"/><path d="M1158.26,737.53V695.06h10.32L1166,706.42h1.49c2.53-8.3,7.34-12.58,14.33-12.58,10,0,15.38,5.94,15.38,17.3v26.39h-10.57V712.8c0-6.29-2.71-9.52-8.13-9.52-6,0-9.87,4.63-9.87,12.14v22.11Z"/><path d="M1242.42,703.8h-19.66v19.58c0,4.37,1.83,6.38,4.63,6.38,3.41,0,4.72-2.1,4.72-7.34V716.3h10.31v6.29c0,10.14-5.59,16.17-15,16.17-10.05,0-15-5.16-15-15.3V703.8h-8.39v-8.74h8.39v-7.42l10.32-4.81v12.23h19.66Z"/><path d="M1249.76,724.16v-.52h10v.52c0,4.37,2.54,6.56,7.52,6.56,2.53,0,4.37-.53,5.5-1.66A4.22,4.22,0,0,0,1274,726c0-2.62-1.49-4.2-5.51-5l-6.29-1.4c-7.87-1.57-11.8-5.68-11.8-12.67a11.69,11.69,0,0,1,3.32-8.57c3-3,7.69-4.54,13.81-4.54,10.75,0,17.13,5.59,17.13,14.68V709h-10v-.44c0-4.37-2.63-6.64-7.61-6.64-2.53,0-4.37.52-5.5,1.66a4.22,4.22,0,0,0-1.23,3.06c0,2.53,1.75,4,5.51,4.81l5.5,1.22c8.74,1.83,12.68,5.77,12.68,12.93a11.45,11.45,0,0,1-3.41,8.65c-2.89,3-7.6,4.55-13.63,4.55C1256.14,738.76,1249.76,733.34,1249.76,724.16Z"/><path d="M1316.61,689V678.28h11.27V689Zm.44,48.5V695.06h10.31v42.47Z"/><path d="M1340.47,737.53V695.06h10.31l-2.62,11.36h1.48c2.54-8.3,7.34-12.58,14.33-12.58,10,0,15.38,5.94,15.38,17.3v26.39h-10.57V712.8c0-6.29-2.71-9.52-8.13-9.52-6,0-9.87,4.63-9.87,12.14v22.11Z"/><path d="M1446.29,703.8h-19.66v19.58c0,4.37,1.84,6.38,4.63,6.38,3.41,0,4.72-2.1,4.72-7.34V716.3h10.31v6.29c0,10.14-5.59,16.17-15,16.17-10,0-14.94-5.16-14.94-15.3V703.8h-8.39v-8.74h8.39v-7.42l10.31-4.81v12.23h19.66Z"/><path d="M1456.34,737.53V676.36h10.32v18.7L1464,706.42h1.49c2.53-8.3,7.34-12.58,14.33-12.58,10.05,0,15.38,5.94,15.38,17.3v26.39h-10.57V712.8c0-6.29-2.71-9.52-8.13-9.52-6,0-9.87,4.63-9.87,12.14v22.11Z"/><path d="M1544.87,719.1h-30.5a15.06,15.06,0,0,0,2.36,7.07c1.83,2.63,4.63,4.11,8.74,4.11,4.45,0,7.78-2,9.09-5.77h10.31c-1.49,8.39-9.18,14.25-19.14,14.25-8.3,0-14.16-2.8-17.74-8-2.62-3.67-3.93-8.48-3.93-14.25a25.28,25.28,0,0,1,4.28-14.5c3.67-5.33,9.61-8.13,16.52-8.13,12.75,0,20,8,20,21.76Zm-10.4-7.43c-.26-6.21-3.67-9.53-9.53-9.53a9.91,9.91,0,0,0-8.3,4.2,13.82,13.82,0,0,0-2,5.33Z"/><path d="M1577.11,737.53V676.36h22.55c13.81,0,24.12,6.73,28.23,18.27a38.83,38.83,0,0,1,1.92,12.32,36.62,36.62,0,0,1-2,12.41c-4.11,11.53-14.24,18.17-28.14,18.17ZM1588,727.4h12.41a16.88,16.88,0,0,0,16.6-11.71,25.14,25.14,0,0,0,1.49-8.74A26.47,26.47,0,0,0,1617,698a17,17,0,0,0-16.6-11.54H1588Z"/><path d="M1677.26,719.1h-30.5a15.06,15.06,0,0,0,2.36,7.07c1.84,2.63,4.63,4.11,8.74,4.11,4.46,0,7.78-2,9.09-5.77h10.31c-1.48,8.39-9.18,14.25-19.14,14.25-8.3,0-14.15-2.8-17.74-8-2.62-3.67-3.93-8.48-3.93-14.25a25.28,25.28,0,0,1,4.28-14.5c3.67-5.33,9.62-8.13,16.52-8.13,12.76,0,20,8,20,21.76Zm-10.4-7.43c-.26-6.21-3.67-9.53-9.52-9.53a9.91,9.91,0,0,0-8.3,4.2,13.66,13.66,0,0,0-2,5.33Z"/><path d="M1684.34,724.16v-.52h10v.52c0,4.37,2.54,6.56,7.52,6.56,2.53,0,4.37-.53,5.5-1.66a4.22,4.22,0,0,0,1.23-3.06c0-2.62-1.49-4.2-5.51-5l-6.29-1.4c-7.87-1.57-11.8-5.68-11.8-12.67a11.69,11.69,0,0,1,3.32-8.57c3-3,7.69-4.54,13.81-4.54,10.75,0,17.13,5.59,17.13,14.68V709h-10v-.44c0-4.37-2.63-6.64-7.61-6.64-2.53,0-4.37.52-5.5,1.66a4.22,4.22,0,0,0-1.23,3.06c0,2.53,1.75,4,5.51,4.81l5.5,1.22c8.74,1.83,12.68,5.77,12.68,12.93a11.45,11.45,0,0,1-3.41,8.65c-2.89,3-7.6,4.55-13.63,4.55C1690.72,738.76,1684.34,733.34,1684.34,724.16Z"/><path d="M1729.52,689V678.28h11.27V689Zm.44,48.5V695.06h10.31v42.47Z"/><path d="M1750.49,737.71h10.14c.44,5.07,3.67,8.13,10.14,8.13,6.73,0,10.57-3.94,10.57-11v-1.14l3.23-11.54h-1.48c-2.36,8.92-7.78,12.68-14.33,12.68-6.21,0-11.36-2.63-14.51-7.26-2.45-3.41-3.76-8-3.76-13.28a22.87,22.87,0,0,1,3.76-13.28c3.15-4.63,8.3-7.17,14.51-7.17,6.55,0,12,3.76,14.33,12.67h1.48l-3.14-11.45h10.22V731.5c0,15.3-7,22.9-20.88,22.9C1757.83,754.4,1751,748.37,1750.49,737.71Zm28.93-15.47a14.92,14.92,0,0,0,0-15.82,10.23,10.23,0,0,0-16.26,0,14.92,14.92,0,0,0,0,15.82,10.23,10.23,0,0,0,16.26,0Z"/><path d="M1804.41,737.53V695.06h10.31l-2.62,11.36h1.49c2.53-8.3,7.34-12.58,14.33-12.58,10,0,15.38,5.94,15.38,17.3v26.39h-10.57V712.8c0-6.29-2.71-9.52-8.13-9.52-6,0-9.88,4.63-9.88,12.14v22.11Z"/><path d="M1877.73,729.76a25,25,0,0,1,0-26.92c3.85-5.77,10.31-9,18.18-9s14.42,3.23,18.26,9a25,25,0,0,1,0,26.92c-3.84,5.76-10.31,9-18.26,9S1881.58,735.52,1877.73,729.76Zm27.44-4.81a17,17,0,0,0,0-17.3,11.37,11.37,0,0,0-18.44,0,16.49,16.49,0,0,0,0,17.3,11.37,11.37,0,0,0,18.44,0Z"/><path d="M1951.66,689.56v-.26c0-3.94-1.83-5.95-5-5.95-3.5,0-5.51,2.45-5.51,6.47v5.24h15.56v8.74h-15.56v33.73h-10.31V703.8h-8.39v-8.74h8.39v-4.89c0-9.26,6.12-15.12,15.73-15.12,9.88,0,15.21,4.81,15.21,14.16v.35Z"/><path d="M1987.75,737.53V676.36h10.84v61.17Z"/><path d="M2012.48,737.53V695.06h10.31l-2.62,11.36h1.49c2.53-8.3,7.34-12.58,14.33-12.58,10,0,15.38,5.94,15.38,17.3v26.39h-10.58V712.8c0-6.29-2.7-9.52-8.12-9.52-6,0-9.88,4.63-9.88,12.14v22.11Z"/><path d="M2096.64,703.8H2077v19.58c0,4.37,1.84,6.38,4.64,6.38,3.4,0,4.71-2.1,4.71-7.34V716.3h10.32v6.29c0,10.14-5.6,16.17-15,16.17-10.05,0-15-5.16-15-15.3V703.8h-8.39v-8.74h8.39v-7.42l10.31-4.81v12.23h19.67Z"/><path d="M2144.09,719.1h-30.5a15.06,15.06,0,0,0,2.36,7.07c1.84,2.63,4.63,4.11,8.74,4.11,4.46,0,7.78-2,9.09-5.77h10.31c-1.49,8.39-9.18,14.25-19.14,14.25-8.3,0-14.16-2.8-17.74-8-2.62-3.67-3.93-8.48-3.93-14.25a25.28,25.28,0,0,1,4.28-14.5c3.67-5.33,9.61-8.13,16.52-8.13,12.76,0,20,8,20,21.76Zm-10.4-7.43c-.26-6.21-3.67-9.53-9.53-9.53a9.94,9.94,0,0,0-8.3,4.2,13.82,13.82,0,0,0-2,5.33Z"/><path d="M2153.88,737.53V695.06h10.22l-3,12.24h1.57c2.1-9.26,6.73-13.46,13.2-13.46,7.86,0,11.71,5.16,11.71,14v9.26H2177v-5.76c0-5.59-1.92-7.87-5.76-7.87-4.64,0-7.08,3.94-7.08,11.36v22.72Z"/><path d="M2231,709.92v27.61h-10.31l2.44-11.36h-1.48c-2.19,8.57-6.82,12.59-14.6,12.59a13.2,13.2,0,0,1-9.52-3.58,11.61,11.61,0,0,1-3.23-8.48c0-3.67,1-6.56,3.14-8.65q3.93-3.94,11.8-4.46l11.45-.79v-2.88c0-4.63-2.8-7.43-8.48-7.43-8.21,0-8.3,6.38-8.3,7.17V710h-10.49v-.35c0-1.23.09-15.82,19.05-15.82C2224.75,693.84,2231,699.61,2231,709.92Zm-10.31,9.87-9,1c-2.54.26-4.37,1-5.51,2.09a4.57,4.57,0,0,0-1.31,3.32,4.18,4.18,0,0,0,1.22,3.15,5.59,5.59,0,0,0,4.11,1.4C2217.67,730.72,2220.64,723.73,2220.73,719.79Z"/><path d="M2243.8,730.72c-2.62-3.67-3.93-8.48-3.93-14.25,0-5.94,1.48-10.83,4-14.5,3.75-5.33,9.78-8.13,17.39-8.13,11.36,0,19.48,6.64,19.83,17h-10.22c-.79-5.07-4.2-8-9.53-8a9.8,9.8,0,0,0-8.47,4.11c-1.66,2.35-2.54,5.41-2.54,9.43a15.88,15.88,0,0,0,2.45,9.18,9.25,9.25,0,0,0,8.13,4c5.15,0,8.39-2.8,9.08-7.95h10.23c-.26,10.48-8.22,17-19.58,17C2253.24,738.76,2247.38,736,2243.8,730.72Z"/><path d="M2323.67,703.8H2304v19.58c0,4.37,1.83,6.38,4.63,6.38,3.41,0,4.72-2.1,4.72-7.34V716.3h10.31v6.29c0,10.14-5.59,16.17-15,16.17-10,0-14.94-5.16-14.94-15.3V703.8h-8.39v-8.74h8.39v-7.42l10.31-4.81v12.23h19.66Z"/><path d="M2333.28,689V678.28h11.28V689Zm.44,48.5V695.06H2344v42.47Z"/><path d="M2365.44,737.53l-13.63-42.47h10.92l10.05,33.12.27,3.24h1.48l.26-3.24,10.05-33.12h10.93l-13.64,42.47Z"/><path d="M2441,719.1h-30.5a15.06,15.06,0,0,0,2.36,7.07c1.83,2.63,4.63,4.11,8.74,4.11,4.45,0,7.77-2,9.08-5.77H2441c-1.49,8.39-9.18,14.25-19.14,14.25-8.3,0-14.16-2.8-17.74-8-2.62-3.67-3.93-8.48-3.93-14.25a25.2,25.2,0,0,1,4.28-14.5c3.67-5.33,9.61-8.13,16.51-8.13,12.76,0,20,8,20,21.76Zm-10.4-7.43c-.26-6.21-3.67-9.53-9.53-9.53a9.91,9.91,0,0,0-8.3,4.2,13.82,13.82,0,0,0-2,5.33Z"/><path d="M2473.19,737.53V676.36h17.39l14.42,47.1.7,7h1.49l.61-7,14.42-47.1h17.47v61.17h-10.57V683.44h-1.49l-.78,11.36-13.37,42.73h-14.16L2486,694.8l-.88-11.36h-1.48v54.09Z"/><path d="M2554.11,729.76a25,25,0,0,1,0-26.92c3.85-5.77,10.31-9,18.18-9s14.42,3.23,18.26,9a25,25,0,0,1,0,26.92c-3.84,5.76-10.31,9-18.26,9S2558,735.52,2554.11,729.76Zm27.44-4.81a17,17,0,0,0,0-17.3,11.37,11.37,0,0,0-18.44,0,16.55,16.55,0,0,0,0,17.3,11.37,11.37,0,0,0,18.44,0Z"/><path d="M2612.49,737.53l-13.63-42.47h10.92l10,33.12.26,3.24h1.49l.26-3.24,10-33.12h10.92l-13.63,42.47Z"/><path d="M2650.15,689V678.28h11.28V689Zm.44,48.5V695.06h10.31v42.47Z"/><path d="M2674,737.53V695.06h10.31l-2.62,11.36h1.48c2.54-8.3,7.35-12.58,14.34-12.58,10.05,0,15.38,5.94,15.38,17.3v26.39h-10.58V712.8c0-6.29-2.71-9.52-8.12-9.52-6,0-9.88,4.63-9.88,12.14v22.11Z"/><path d="M2722.25,737.71h10.13c.44,5.07,3.68,8.13,10.14,8.13,6.73,0,10.58-3.94,10.58-11v-1.14l3.23-11.54h-1.49c-2.36,8.92-7.77,12.68-14.33,12.68-6.2,0-11.36-2.63-14.5-7.26-2.45-3.41-3.76-8-3.76-13.28A22.87,22.87,0,0,1,2726,701c3.14-4.63,8.3-7.17,14.5-7.17,6.56,0,12,3.76,14.33,12.67h1.49l-3.15-11.45h10.23V731.5c0,15.3-7,22.9-20.89,22.9C2729.59,754.4,2722.77,748.37,2722.25,737.71Zm28.92-15.47a14.86,14.86,0,0,0,0-15.82,10.22,10.22,0,0,0-16.25,0,14.92,14.92,0,0,0,0,15.82,10.22,10.22,0,0,0,16.25,0Z"/><path d="M2841.53,694.8a18.91,18.91,0,0,1-2.36,9.61c-3.14,5.6-9.61,8.92-17.65,8.92h-12.06v24.2h-10.84V676.36h22.9c8,0,14.51,3.24,17.65,8.83A18.91,18.91,0,0,1,2841.53,694.8Zm-11,0a9.64,9.64,0,0,0-1.13-4.63c-1.4-2.36-4.29-3.93-8.39-3.93h-11.54v17.13H2821c4.1,0,7-1.58,8.39-3.94A9.61,9.61,0,0,0,2830.52,694.8Z"/><path d="M2851,729.76a25,25,0,0,1,0-26.92c3.85-5.77,10.31-9,18.18-9s14.42,3.23,18.26,9a25,25,0,0,1,0,26.92c-3.84,5.76-10.31,9-18.26,9S2854.82,735.52,2851,729.76Zm27.44-4.81a17,17,0,0,0,0-17.3,11.37,11.37,0,0,0-18.44,0,16.49,16.49,0,0,0,0,17.3,11.37,11.37,0,0,0,18.44,0Z"/><path d="M2898.34,724.16v-.52h10v.52c0,4.37,2.53,6.56,7.51,6.56,2.54,0,4.37-.53,5.51-1.66a4.22,4.22,0,0,0,1.22-3.06c0-2.62-1.48-4.2-5.5-5l-6.29-1.4c-7.87-1.57-11.8-5.68-11.8-12.67a11.65,11.65,0,0,1,3.32-8.57c3-3,7.69-4.54,13.81-4.54,10.75,0,17.12,5.59,17.12,14.68V709h-10v-.44c0-4.37-2.62-6.64-7.6-6.64-2.53,0-4.37.52-5.51,1.66a4.26,4.26,0,0,0-1.22,3.06c0,2.53,1.75,4,5.51,4.81l5.5,1.22c8.74,1.83,12.67,5.77,12.67,12.93a11.42,11.42,0,0,1-3.41,8.65c-2.88,3-7.6,4.55-13.63,4.55C2904.72,738.76,2898.34,733.34,2898.34,724.16Z"/><path d="M2977,703.8h-19.67v19.58c0,4.37,1.84,6.38,4.63,6.38,3.41,0,4.72-2.1,4.72-7.34V716.3H2977v6.29c0,10.14-5.6,16.17-15,16.17-10,0-14.94-5.16-14.94-15.3V703.8h-8.39v-8.74H2947v-7.42l10.31-4.81v12.23H2977Z"/><path d="M3024.44,719.1h-30.5a15.06,15.06,0,0,0,2.36,7.07c1.83,2.63,4.63,4.11,8.74,4.11,4.45,0,7.77-2,9.09-5.77h10.31c-1.49,8.39-9.18,14.25-19.14,14.25-8.3,0-14.16-2.8-17.74-8-2.62-3.67-3.93-8.48-3.93-14.25a25.28,25.28,0,0,1,4.28-14.5c3.67-5.33,9.61-8.13,16.52-8.13,12.75,0,20,8,20,21.76Zm-10.4-7.43c-.26-6.21-3.67-9.53-9.53-9.53a9.92,9.92,0,0,0-8.3,4.2,13.82,13.82,0,0,0-2,5.33Z"/><path d="M3034.22,737.53V695.06h10.23l-3,12.24h1.57c2.1-9.26,6.73-13.46,13.2-13.46,7.86,0,11.71,5.16,11.71,14v9.26h-10.58v-5.76c0-5.59-1.92-7.87-5.76-7.87-4.64,0-7.08,3.94-7.08,11.36v22.72Z"/><path d="M3074,724.16v-.52h10v.52c0,4.37,2.53,6.56,7.52,6.56,2.53,0,4.36-.53,5.5-1.66a4.22,4.22,0,0,0,1.22-3.06c0-2.62-1.48-4.2-5.5-5l-6.29-1.4c-7.87-1.57-11.8-5.68-11.8-12.67a11.69,11.69,0,0,1,3.32-8.57c3-3,7.69-4.54,13.81-4.54,10.75,0,17.13,5.59,17.13,14.68V709h-10v-.44c0-4.37-2.62-6.64-7.6-6.64-2.53,0-4.37.52-5.51,1.66a4.26,4.26,0,0,0-1.22,3.06c0,2.53,1.75,4,5.51,4.81l5.5,1.22c8.74,1.83,12.67,5.77,12.67,12.93a11.45,11.45,0,0,1-3.4,8.65c-2.89,3-7.61,4.55-13.64,4.55C3080.37,738.76,3074,733.34,3074,724.16Z"/><path d="M87.41,842.4V781.23h36.7v10.14H98.24V807.1h24.3v10H98.24V842.4Z"/><path d="M132.41,826.32V799.93H142.9v24.73c0,6.29,2.62,9.53,7.78,9.53,5.76,0,9.43-4.63,9.43-12.15V799.93h10.32V842.4H160.11L162.74,831h-1.49c-2.45,8.3-7.08,12.59-13.89,12.59C137.48,843.63,132.41,837.68,132.41,826.32Z"/><path d="M183.53,842.4V781.23h10.32V842.4Z"/><path d="M207,842.4V781.23h10.32V842.4Z"/><path d="M252.83,842.4V781.23h36.71v10.14H263.67v15.38h25v10h-25v15.55h25.87V842.4Z"/><path d="M296.44,842.4l14.42-21.32-14.42-21.15h12.23l8.39,13.28.18,3.5h1.48l.18-3.5,8.39-13.28h12.23L325.1,821.08l14.42,21.32H327.29l-8.39-12.93-.18-3.41h-1.48l-.18,3.41-8.39,12.93Z"/><path d="M348,842.4V781.23h10.31v18.7l-2.62,11.36h1.48c2.54-8.3,7.34-12.58,14.33-12.58,10.05,0,15.38,5.94,15.38,17.3V842.4H376.31V817.67c0-6.29-2.71-9.52-8.13-9.52-6,0-9.87,4.63-9.87,12.14V842.4Z"/><path d="M398.68,793.9V783.15H410V793.9Zm.44,48.5V799.93h10.31V842.4Z"/><path d="M431.72,831h-1.49l2.62,11.36H422.54V781.23h10.31v18.7l-2.62,11.36h1.49c2.44-8.21,7.6-12.58,15.2-12.58a17.34,17.34,0,0,1,14.86,7.6c2.62,3.76,3.93,8.83,3.93,14.86s-1.31,11.09-3.93,14.85a17.32,17.32,0,0,1-14.86,7.61C439.32,843.63,434.16,839.26,431.72,831Zm21.06-.79a18.13,18.13,0,0,0,0-18.17,11.25,11.25,0,0,0-17.66,0,18.13,18.13,0,0,0,0,18.17,11.23,11.23,0,0,0,17.66,0Z"/><path d="M475.5,793.9V783.15h11.27V793.9Zm.43,48.5V799.93h10.32V842.4Z"/><path d="M532.39,808.67H512.72v19.58c0,4.36,1.84,6.37,4.64,6.37,3.4,0,4.71-2.09,4.71-7.34v-6.11h10.32v6.29c0,10.14-5.6,16.17-15,16.17-10.05,0-14.95-5.16-14.95-15.3V808.67H494v-8.74h8.39V792.5l10.31-4.8v12.23h19.67Z"/><path d="M542,793.9V783.15h11.27V793.9Zm.44,48.5V799.93h10.31V842.4Z"/><path d="M566.38,834.62a25,25,0,0,1,0-26.91c3.85-5.77,10.31-9,18.18-9s14.42,3.23,18.26,9a25,25,0,0,1,0,26.91c-3.84,5.77-10.31,9-18.26,9S570.23,840.39,566.38,834.62Zm27.44-4.8a17,17,0,0,0,0-17.3,11.37,11.37,0,0,0-18.44,0,16.49,16.49,0,0,0,0,17.3,11.37,11.37,0,0,0,18.44,0Z"/><path d="M616.45,842.4V799.93h10.32l-2.63,11.36h1.49c2.53-8.3,7.34-12.58,14.33-12.58,10,0,15.38,5.94,15.38,17.3V842.4H644.77V817.67c0-6.29-2.71-9.52-8.13-9.52-6,0-9.87,4.63-9.87,12.14V842.4Z"/><path d="M723.94,814.79V842.4H713.63L716.08,831h-1.49c-2.18,8.56-6.82,12.59-14.59,12.59a13.21,13.21,0,0,1-9.53-3.59,11.59,11.59,0,0,1-3.23-8.47q0-5.51,3.14-8.66,3.95-3.93,11.8-4.45l11.45-.79v-2.88c0-4.63-2.8-7.43-8.48-7.43-8.21,0-8.3,6.38-8.3,7.17v.34H686.36v-.34c0-1.23.09-15.82,19-15.82C717.65,798.71,723.94,804.48,723.94,814.79Zm-10.31,9.87-9,1c-2.54.27-4.37,1-5.51,2.1a4.55,4.55,0,0,0-1.31,3.32,4.18,4.18,0,0,0,1.22,3.15,5.61,5.61,0,0,0,4.11,1.4C710.57,835.59,713.54,828.59,713.63,824.66Z"/><path d="M769.21,808.67H749.55v19.58c0,4.36,1.83,6.37,4.63,6.37,3.4,0,4.72-2.09,4.72-7.34v-6.11h10.31v6.29c0,10.14-5.6,16.17-15,16.17-10,0-14.95-5.16-14.95-15.3V808.67h-8.39v-8.74h8.39V792.5l10.32-4.8v12.23h19.66Z"/><path d="M796.82,842.4l8.3-42.47h10.32l-4.29,10.49h1.49c3.32-7.95,8.13-11.71,14.51-11.71,7.07,0,10.66,4.89,9.43,11.71h1.49c3.14-8.3,8-11.71,14.68-11.71,11,0,13.54,8.47,11.27,20l-4.63,23.68H848.9l4.64-23.77c1.13-6.29.26-10.48-5.77-10.48-5.59,0-8.74,4.37-10.23,11.71l-4.36,22.54H822.86l4.63-23.68c1.23-6.29.27-10.49-5.76-10.49-5.51,0-8.74,4.29-10.14,11.71l-4.46,22.46Z"/><path d="M912.79,824H882.46a13.68,13.68,0,0,0,2,7.43,8.43,8.43,0,0,0,7.26,3.76c4.63,0,8-2.1,9.52-5.77h10.66c-3.23,9-10.31,14.25-20.53,14.25-6.82,0-12.24-2.71-15.65-7.78a21.58,21.58,0,0,1-3.32-12,27.35,27.35,0,0,1,4.81-15.65c3.84-5.68,10-9.52,18.79-9.52,13.19,0,17.91,9,17.91,17.65A28,28,0,0,1,912.79,824Zm-8.74-7.43a16.84,16.84,0,0,0,.17-2.09c0-3.5-1.66-7.43-8.3-7.43a11.93,11.93,0,0,0-10.31,5.33,17.49,17.49,0,0,0-2.1,4.19Z"/><path d="M938.83,808.67l-3.76,19.4c-.79,3.93-.17,6.55,3.41,6.55,4.11,0,5.24-2.53,6.29-7.6l1.22-5.85h10.14l-1.22,6c-2.1,10.57-6.64,16.43-16.87,16.43-10.75,0-15.12-5.77-13.19-15.82l3.67-19.14h-8.3l1.74-8.74h8.3l1.4-7.43,11.27-4.8-2.35,12.23h19.75l-1.75,8.74Z"/><path d="M1001.75,816.62l-5,25.78h-10.4l4.89-11.27h-1.48c-3.59,8.91-8.39,12.5-15.65,12.5a12.28,12.28,0,0,1-9-3.33,10.74,10.74,0,0,1-3-7.69c0-3.93,1.22-7,3.5-9.17,2.88-3,7.42-4.46,12.84-4.81l12.85-1,.26-1.48c1.31-6.47-.61-8.83-6.82-8.83-8.65,0-9.52,5.77-9.78,7.51H964.43c.7-3.58,3.15-16.16,21.24-16.16C997.82,798.71,1004.28,803.86,1001.75,816.62Zm-11.8,8-9.7,1.05c-2.88.35-4.89,1-6.12,2.27a4.38,4.38,0,0,0-1.31,3.5,3.72,3.72,0,0,0,1,2.88,5.32,5.32,0,0,0,3.94,1.23C985.41,835.59,989.25,827.63,990,824.66Z"/><path d="M1009,842.4l8.3-42.47h10.31l-4.28,10.49h1.49c3.32-7.95,8.13-11.71,14.5-11.71,7.08,0,10.67,4.89,9.44,11.71h1.49c3.14-8.3,8-11.71,14.68-11.71,11,0,13.54,8.47,11.27,20l-4.63,23.68h-10.49l4.64-23.77c1.13-6.29.26-10.48-5.77-10.48-5.6,0-8.74,4.37-10.23,11.71l-4.37,22.54H1035l4.63-23.68c1.23-6.29.27-10.49-5.76-10.49-5.51,0-8.74,4.29-10.14,11.71l-4.46,22.46Z"/><path d="M1088,835.76a21,21,0,0,1-3.41-12,27.11,27.11,0,0,1,4.72-15.47c3.93-5.59,10.23-9.61,19.49-9.61,7.6,0,13.37,3,16.69,7.86a21.68,21.68,0,0,1,3.41,12,27.67,27.67,0,0,1-4.72,15.46c-3.93,5.59-10.23,9.62-19.49,9.62C1097.09,843.63,1091.32,840.65,1088,835.76Zm27.26-6.47a18.07,18.07,0,0,0,3.06-10.13,12.91,12.91,0,0,0-2.09-7.52c-1.58-2.45-4.29-3.84-8-3.84a11.73,11.73,0,0,0-10,5.24,18.17,18.17,0,0,0-3,10.14,13,13,0,0,0,2.09,7.51c1.58,2.45,4.29,3.85,8,3.85A11.7,11.7,0,0,0,1115.26,829.29Z"/><path d="M1134.49,842.4l8.3-42.47H1153l-5.16,11.71h1.49c3.76-7.43,7.25-12.93,15.11-12.93,7.26,0,9.79,4.8,9.79,10.31,0,2.36-.35,4.63-2,12.93h-10.66c1.22-5.68,1.49-7.42,1.49-8.91,0-2.36-.79-4.72-4.55-4.72-5.33,0-8,4.46-9.35,11.89l-4.37,22.19Z"/><path d="M1174,858.13l11.36-58.2h10.14l-4.55,10.49h1.49c3.58-7.95,8.74-11.71,15.82-11.71,6,0,10.22,2.53,12.76,6.29a21.7,21.7,0,0,1,3.32,12c0,5.33-1.49,12.5-5.33,17.92a19.33,19.33,0,0,1-16.43,8.74c-8.65,0-12.76-6.12-13.46-13.46h-1.49l-.08,12.23-3.24,15.73Zm36.53-28.84a18.74,18.74,0,0,0,3.23-10.48c0-3-.43-5.33-1.83-7.34-1.58-2.36-4.55-3.67-8-3.67a11.3,11.3,0,0,0-9.62,5.24,19.51,19.51,0,0,0-3.23,10.49c0,3,.44,5.33,1.83,7.34,1.58,2.36,4.55,3.67,8,3.67A11.29,11.29,0,0,0,1210.52,829.29Z"/><path d="M1230.18,842.4l11.8-61.17h10.4l-3.58,18.7-4.46,10.49h1.48c3.94-8,8.48-11.71,15.56-11.71,10.75,0,14.68,8.21,12.5,19.22l-4.81,24.47h-10.49l4.72-24.29c1.14-5.86-.52-10-6.81-10-5.77,0-10,3.84-11.63,12.14l-4.37,22.11Z"/><path d="M1285.5,835.76a21,21,0,0,1-3.41-12,27.11,27.11,0,0,1,4.72-15.47c3.93-5.59,10.22-9.61,19.49-9.61,7.6,0,13.37,3,16.69,7.86a21.68,21.68,0,0,1,3.41,12,27.75,27.75,0,0,1-4.72,15.46c-3.93,5.59-10.23,9.62-19.49,9.62C1294.59,843.63,1288.82,840.65,1285.5,835.76Zm27.26-6.47a18.07,18.07,0,0,0,3.06-10.13,13,13,0,0,0-2.09-7.52c-1.58-2.45-4.29-3.84-8-3.84a11.73,11.73,0,0,0-10,5.24,18.17,18.17,0,0,0-3,10.14,12.88,12.88,0,0,0,2.09,7.51c1.58,2.45,4.28,3.85,8,3.85A11.71,11.71,0,0,0,1312.76,829.29Z"/><path d="M1332,830.6a10.19,10.19,0,0,1,.17-2.09H1342a10.56,10.56,0,0,0-.17,1.74c0,3.33,2.79,5.34,7.25,5.34a7.84,7.84,0,0,0,5.42-1.66,5,5,0,0,0,1.22-3.41c0-2.27-1.4-3.67-4.8-4.81l-5.42-1.75c-6.91-2.27-10-6.55-10-12a12.42,12.42,0,0,1,3.4-8.82c2.63-2.63,6.73-4.46,13.29-4.46,12.23,0,17.21,6.38,17.21,12.93a10,10,0,0,1-.17,2.19h-9.88a7.83,7.83,0,0,0,.18-1.66c0-3.41-3-5.51-7.61-5.51-2.62,0-4.37.7-5.33,1.75a4,4,0,0,0-1.22,3c0,2,1.4,3.58,5.42,4.81l5.33,1.66c6.29,2,9.44,5.76,9.44,11.62a13.79,13.79,0,0,1-3.59,9.7c-2.62,2.62-6.55,4.46-13.19,4.46C1337.23,843.63,1332,837.68,1332,830.6Z"/><path d="M1374.29,842.4l8.3-42.47h10.31l-8.3,42.47Zm8.91-48.5,2.1-10.75h11.27l-2.1,10.75Z"/><path d="M1397.79,830.6a9.3,9.3,0,0,1,.18-2.09h9.79a9.51,9.51,0,0,0-.18,1.74c0,3.33,2.8,5.34,7.25,5.34a7.83,7.83,0,0,0,5.42-1.66,4.94,4.94,0,0,0,1.23-3.41c0-2.27-1.4-3.67-4.81-4.81l-5.42-1.75c-6.9-2.27-10-6.55-10-12a12.39,12.39,0,0,1,3.41-8.82c2.62-2.63,6.73-4.46,13.28-4.46,12.23,0,17.22,6.38,17.22,12.93a9.11,9.11,0,0,1-.18,2.19h-9.87a8.66,8.66,0,0,0,.17-1.66c0-3.41-3-5.51-7.6-5.51-2.62,0-4.37.7-5.33,1.75a3.93,3.93,0,0,0-1.23,3c0,2,1.4,3.58,5.42,4.81l5.33,1.66c6.3,2,9.44,5.76,9.44,11.62a13.82,13.82,0,0,1-3.58,9.7c-2.62,2.62-6.56,4.46-13.2,4.46C1403,843.63,1397.79,837.68,1397.79,830.6Z"/><path d="M1437.82,842.4l2.53-12.58h13.2L1451,842.4Z"/><path d="M1466.39,837.33a21.68,21.68,0,0,1-3.32-12c0-5.33,1.49-12.49,5.33-17.91a19,19,0,0,1,16.35-8.74c8.73,0,12.75,6.12,13.45,13.46h1.49l.17-12.24,3.76-18.7h10.31l-11.88,61.17h-10.14l4.46-10.49h-1.49c-3.49,8-8.65,11.72-15.81,11.72C1473,843.63,1468.93,841.09,1466.39,837.33Zm26.66-8a19.39,19.39,0,0,0,3.23-10.48c0-3-.44-5.33-1.83-7.34a9.54,9.54,0,0,0-8-3.67,11.44,11.44,0,0,0-9.7,5.24,19.51,19.51,0,0,0-3.23,10.49c0,3,.44,5.33,1.84,7.34a9.52,9.52,0,0,0,7.95,3.67A11.45,11.45,0,0,0,1493.05,829.29Z"/><path d="M1556.32,824H1526a13.77,13.77,0,0,0,2,7.43,8.43,8.43,0,0,0,7.26,3.76c4.63,0,8-2.1,9.52-5.77h10.66c-3.23,9-10.31,14.25-20.53,14.25-6.82,0-12.24-2.71-15.65-7.78a21.58,21.58,0,0,1-3.32-12,27.35,27.35,0,0,1,4.81-15.65c3.84-5.68,10-9.52,18.79-9.52,13.19,0,17.91,9,17.91,17.65A28.42,28.42,0,0,1,1556.32,824Zm-8.74-7.43a16.84,16.84,0,0,0,.17-2.09c0-3.5-1.66-7.43-8.3-7.43a11.93,11.93,0,0,0-10.31,5.33,17.49,17.49,0,0,0-2.1,4.19Z"/><path d="M1562.52,842.4l8.3-42.47h10.31l-8.3,42.47Zm8.91-48.5,2.1-10.75h11.27l-2.09,10.75Z"/><path d="M1583.76,842.4l2.53-12.58h13.2L1597,842.4Z"/><path d="M1610.67,824.4l4.81-24.47H1626l-4.71,24.29c-1.23,5.86.52,10,6.29,10s9.61-3.85,11.27-12.15l4.28-22.11h10.31l-8.21,42.47h-10.31l4.72-10.49h-1.49c-3.84,8-8.39,11.72-15.38,11.72C1612.42,843.63,1608.49,835.41,1610.67,824.4Z"/><path d="M1662.41,835.85a21.59,21.59,0,0,1-3.33-12,27.35,27.35,0,0,1,4.81-15.65c3.85-5.68,10-9.52,18.88-9.52,13,0,18.52,8.39,18.61,17h-10.22c-.18-3.06-1.93-8-8.92-8a11.26,11.26,0,0,0-9.61,5.07,17.73,17.73,0,0,0-3,10.39,13.51,13.51,0,0,0,1.92,7.61,8.45,8.45,0,0,0,7.25,3.67,9.6,9.6,0,0,0,9.7-7.95h10.32c-2.1,8.91-8.57,17-20.72,17C1671.23,843.63,1665.81,840.92,1662.41,835.85Z"/><path d="M1704.27,842.4l2.53-12.58H1720l-2.53,12.58Z"/><path d="M1725.5,858.13l11.36-58.2H1747l-4.55,10.49h1.49c3.58-7.95,8.74-11.71,15.82-11.71,6,0,10.22,2.53,12.75,6.29a21.63,21.63,0,0,1,3.33,12c0,5.33-1.49,12.5-5.33,17.92a19.33,19.33,0,0,1-16.43,8.74c-8.65,0-12.76-6.12-13.46-13.46h-1.49l-.08,12.23-3.24,15.73ZM1762,829.29a18.74,18.74,0,0,0,3.23-10.48c0-3-.44-5.33-1.83-7.34-1.58-2.36-4.55-3.67-8-3.67a11.28,11.28,0,0,0-9.61,5.24,19.51,19.51,0,0,0-3.23,10.49c0,3,.44,5.33,1.83,7.34,1.58,2.36,4.55,3.67,8,3.67A11.29,11.29,0,0,0,1762,829.29Z"/><path d="M1801.53,808.67l-3.76,19.4c-.79,3.93-.17,6.55,3.41,6.55,4.11,0,5.24-2.53,6.29-7.6l1.22-5.85h10.14l-1.22,6c-2.1,10.57-6.64,16.43-16.87,16.43-10.75,0-15.12-5.77-13.19-15.82l3.67-19.14h-8.31l1.75-8.74h8.3l1.4-7.43,11.27-4.8-2.35,12.23H1823l-1.75,8.74Z"/></g></g></svg>