<svg xmlns="http://www.w3.org/2000/svg" xmlns:xlink="http://www.w3.org/1999/xlink" viewBox="0 0 3440.29 930.71"><defs><style>.cls-1{fill:url(#linear-gradient);}</style><linearGradient id="linear-gradient" x1="1720.14" x2="1720.14" y2="930.71" gradientUnits="userSpaceOnUse"><stop offset="0" stop-color="#fff" stop-opacity="0"/><stop offset="0.64" stop-color="#fff"/></linearGradient></defs><g id="Layer_2" data-name="Layer 2"><g id="Layer_1-2" data-name="Layer 1"><rect class="cls-1" width="3440.29" height="930.71"/><path d="M3242.91,817.76h-36v-1.15c0-10.5-.13-21,0-31.49.1-5.69-2-10.24-5.8-14.25s-8-7.15-12.15-10.5a55.52,55.52,0,0,1-8.2-7.5c-3.37-4.06-3.25-7.94.39-11.8,2.88-3.05,6.33-5.39,9.69-7.84a74.2,74.2,0,0,0,10.23-8.4c2.58-2.71,4.71-5.72,5.46-9.49a15.74,15.74,0,0,0,.32-3.06q0-28.29,0-56.59v-1.2H3243c-3.46,12.63-6.91,25.2-10.4,37.92,1.62,0,3.46,0,5,0,.06,0,.16-.27.21-.46,1.38-4.82,2.63-9.68,4.14-14.46,1.09-3.45,2.5-6.8,3.82-10.18a32.59,32.59,0,0,1,4.86-8.57c2.62-3.28,5.83-5.78,10.11-6.39a31.93,31.93,0,0,1,7.36-.36,13.48,13.48,0,0,1,11.21,7.32,25.5,25.5,0,0,1,2.9,9.74c.15,1.66.32,3.31.37,5,.06,2.39.11,4.79,0,7.19s-.47,4.74-.73,7.11c-.19,1.66-.39,3.32-.59,5h4c.27-1.49.49-3,.83-4.51.94-4.16,1.84-8.32,2.92-12.44a54.58,54.58,0,0,1,4.81-12,25.29,25.29,0,0,1,8.42-9.7,17,17,0,0,1,8.95-2.76,26,26,0,0,1,9.14,1.14,17.6,17.6,0,0,1,9.82,8.37,37.27,37.27,0,0,1,4,13,92.32,92.32,0,0,1,.74,13.7c0,8.14-.13,16.28,0,24.42a18.2,18.2,0,0,1-6,14.34c-3.51,3.27-7.34,6.18-11,9.27-2.74,2.3-5.54,4.53-8.17,7a9,9,0,0,0-3.17,6.12,8,8,0,0,0,1.73,5.12,35.63,35.63,0,0,0,6.87,6.79c4.56,3.73,9.42,7.13,13.48,11.45,2.84,3,5.18,6.35,5.9,10.55a18.72,18.72,0,0,1,.29,2.79q0,15.65,0,31.29c0,.16,0,.32,0,.55h-36.21V816.6c0-10-.11-20,.05-29.94a19.46,19.46,0,0,0-5.55-14,95,95,0,0,0-11.37-9.92c-3.22-2.53-6.52-5-9.2-8.12a9.68,9.68,0,0,1-2.62-5.29,7.81,7.81,0,0,1,2.8-6.63c2.69-2.49,5.59-4.77,8.45-7.07,3.29-2.65,6.72-5.13,9.94-7.86a22.35,22.35,0,0,0,6.4-8.51,15.17,15.17,0,0,0,1.1-5.76c0-6.75.05-13.5,0-20.25A21.76,21.76,0,0,0,3298,688c-.68-2.6-3.26-2.64-5-1.21a9.3,9.3,0,0,0-3,5.61,54.2,54.2,0,0,0-1,7.93c-.21,4.08-.27,8.18-.21,12.27a17.28,17.28,0,0,1-4.47,11.93c-3.13,3.63-7,6.4-10.75,9.28-3.31,2.52-6.59,5.08-9.76,7.76a14.32,14.32,0,0,0-2.75,3.47,6.51,6.51,0,0,0-.08,6.9,21.48,21.48,0,0,0,5.58,6.24c4,3.35,8.2,6.58,12.23,10a33.43,33.43,0,0,1,7.76,8.83,15.87,15.87,0,0,1,2.21,8q0,16,0,32v.8h-36.05v-1.11c0-10.11-.18-20.23.07-30.33a19.44,19.44,0,0,0-6.31-15.41c-3.48-3.26-7.25-6.21-11-9.21-3.16-2.56-6.5-4.9-9.11-8.07l-.25-.3c-2.83-3.66-2.81-6.93.1-10.54,2.31-2.87,5.28-5,8.15-7.27,3.54-2.8,7.13-5.54,10.56-8.47a21.39,21.39,0,0,0,6.54-8.76,18,18,0,0,0,1.15-5.73c.14-7.36.1-14.73,0-22.09a6.62,6.62,0,0,0-.95-3.31c-1-1.67-3.18-1.71-4.78-.51a8.3,8.3,0,0,0-2.89,5.29,52.78,52.78,0,0,0-1,8c-.21,4.25-.15,8.5-.25,12.75a17.26,17.26,0,0,1-4.49,10.87c-3.2,3.82-7.14,6.79-11.05,9.81-2.84,2.19-5.69,4.37-8.38,6.72a20.38,20.38,0,0,0-3.55,4.19,6.59,6.59,0,0,0-.1,7.24,19.51,19.51,0,0,0,4.76,5.43c4.1,3.35,8.29,6.58,12.4,9.92a38,38,0,0,1,7.31,7.57,16.81,16.81,0,0,1,3.13,10c0,10.73,0,21.45,0,32.17Z"/><path d="M105.41,714.59V654.33h17.13l14.2,46.4.69,6.89h1.47l.6-6.89,14.21-46.4h17.21v60.26H160.51V661.3H159l-.77,11.19-13.17,42.1H131.15l-13.09-42.1-.86-11.19h-1.46v53.29Z"/><path d="M221.46,696.43H191.41a14.94,14.94,0,0,0,2.33,7c1.81,2.58,4.56,4.05,8.61,4.05,4.39,0,7.66-2,9-5.69h10.16c-1.46,8.27-9,14-18.85,14-8.18,0-14-2.76-17.48-7.93-2.58-3.61-3.87-8.35-3.87-14a25,25,0,0,1,4.21-14.29c3.62-5.25,9.47-8,16.28-8,12.56,0,19.71,7.93,19.71,21.44Zm-10.24-7.32c-.26-6.11-3.62-9.39-9.39-9.39a9.78,9.78,0,0,0-8.18,4.14,13.79,13.79,0,0,0-2,5.25Z"/><path d="M263.65,681.36H244.27v19.28c0,4.31,1.81,6.29,4.57,6.29,3.35,0,4.65-2.07,4.65-7.23v-6h10.16v6.2c0,10-5.51,15.93-14.81,15.93-9.9,0-14.72-5.08-14.72-15.07V681.36h-8.27v-8.61h8.27v-7.32l10.15-4.73v12h19.38Z"/><path d="M307.73,687.39v27.2H297.57L300,703.4h-1.47c-2.15,8.44-6.71,12.4-14.37,12.4a13.05,13.05,0,0,1-9.39-3.53,11.46,11.46,0,0,1-3.18-8.35q0-5.43,3.1-8.53,3.87-3.87,11.62-4.39l11.28-.77v-2.84c0-4.57-2.76-7.32-8.35-7.32-8.1,0-8.18,6.28-8.18,7.06v.34H270.71v-.34c0-1.21.08-15.59,18.76-15.59C301.53,671.54,307.73,677.23,307.73,687.39Zm-10.16,9.72-8.87.95q-3.75.39-5.42,2.07a4.49,4.49,0,0,0-1.3,3.27,4.11,4.11,0,0,0,1.21,3.1,5.49,5.49,0,0,0,4.05,1.37C294.55,707.87,297.48,701,297.57,697.11Z"/><path d="M319.78,714.59V672.75h10.16l-2.59,11.19h1.47c2.15-8,6.2-12.4,12.91-12.4,6,0,11,4.22,11,12.4h1.46c2.16-9,7.24-12.4,13.61-12.4,8.78,0,13.6,5.6,13.6,16.28v26.77H371V689.88c0-5.94-2.32-9-6.8-9-5.51,0-8.61,4.39-8.61,11.37v22.38H345.43V689.88c0-5.94-2.92-9-7-9-5.6,0-8.52,4.31-8.52,11.37v22.38Z"/><path d="M394,706.93a24.65,24.65,0,0,1,0-26.52c3.79-5.68,10.16-8.87,17.91-8.87s14.2,3.19,18,8.87a24.65,24.65,0,0,1,0,26.52c-3.79,5.68-10.16,8.87-18,8.87S397.78,712.61,394,706.93Zm27-4.74a16.74,16.74,0,0,0,0-17,11.19,11.19,0,0,0-18.16,0,16.27,16.27,0,0,0,0,17,11.19,11.19,0,0,0,18.16,0Z"/><path d="M443.32,714.59V672.75h10.07l-2.92,12H452c2.06-9.12,6.63-13.26,13-13.26,7.74,0,11.53,5.08,11.53,13.78v9.12H466.14v-5.68c0-5.51-1.9-7.75-5.69-7.75-4.56,0-7,3.88-7,11.2v22.38Z"/><path d="M485.16,730.09V672.75h10.16l-2.58,11.19h1.46c2.41-8.09,7.49-12.4,15-12.4A17.07,17.07,0,0,1,523.82,679c2.58,3.71,3.87,8.7,3.87,14.64s-1.29,10.93-3.87,14.64a17.07,17.07,0,0,1-14.64,7.49c-7.49,0-12.57-4.31-15-12.4h-1.46l2.58,11.19v15.5ZM515,702.62a17.82,17.82,0,0,0,0-17.9,11.07,11.07,0,0,0-17.39,0,17.82,17.82,0,0,0,0,17.9,11.07,11.07,0,0,0,17.39,0Z"/><path d="M537.76,714.59V654.33h10.16v18.42l-2.58,11.19h1.46c2.5-8.18,7.24-12.4,14.12-12.4,9.9,0,15.16,5.86,15.16,17.05v26H565.66V690.23c0-6.2-2.67-9.39-8-9.39-5.94,0-9.73,4.57-9.73,12v21.78Z"/><path d="M588.65,706.93a24.6,24.6,0,0,1,0-26.52c3.78-5.68,10.15-8.87,17.9-8.87s14.21,3.19,18,8.87a24.6,24.6,0,0,1,0,26.52c-3.78,5.68-10.15,8.87-18,8.87S592.43,712.61,588.65,706.93Zm27-4.74a16.8,16.8,0,0,0,0-17,11.2,11.2,0,0,0-18.17,0,16.27,16.27,0,0,0,0,17,11.2,11.2,0,0,0,18.17,0Z"/><path d="M635.31,701.42v-.52h9.81v.52c0,4.3,2.5,6.45,7.41,6.45,2.49,0,4.3-.51,5.42-1.63a4.19,4.19,0,0,0,1.21-3c0-2.59-1.47-4.14-5.43-4.91l-6.2-1.38c-7.75-1.55-11.62-5.59-11.62-12.48a11.49,11.49,0,0,1,3.27-8.44c2.93-2.93,7.58-4.48,13.6-4.48,10.59,0,16.88,5.51,16.88,14.47v.43h-9.82V686c0-4.31-2.58-6.54-7.49-6.54-2.49,0-4.3.51-5.42,1.63a4.18,4.18,0,0,0-1.2,3c0,2.5,1.72,4,5.42,4.74l5.42,1.2c8.61,1.81,12.49,5.69,12.49,12.75a11.27,11.27,0,0,1-3.36,8.52c-2.84,2.93-7.49,4.48-13.43,4.48C641.59,715.8,635.31,710.46,635.31,701.42Z"/><path d="M679.82,666.81V656.22h11.1v10.59Zm.43,47.78V672.75h10.16v41.84Z"/><path d="M700.65,701.42v-.52h9.82v.52c0,4.3,2.49,6.45,7.4,6.45,2.5,0,4.3-.51,5.42-1.63a4.15,4.15,0,0,0,1.21-3c0-2.59-1.46-4.14-5.42-4.91l-6.2-1.38c-7.75-1.55-11.63-5.59-11.63-12.48a11.45,11.45,0,0,1,3.28-8.44c2.92-2.93,7.57-4.48,13.6-4.48,10.59,0,16.87,5.51,16.87,14.47v.43h-9.81V686c0-4.31-2.58-6.54-7.49-6.54-2.5,0-4.31.51-5.43,1.63a4.18,4.18,0,0,0-1.2,3c0,2.5,1.72,4,5.42,4.74l5.43,1.2c8.61,1.81,12.48,5.69,12.48,12.75a11.27,11.27,0,0,1-3.36,8.52c-2.84,2.93-7.49,4.48-13.43,4.48C706.94,715.8,700.65,710.46,700.65,701.42Z"/><path d="M743.61,679.81a5.09,5.09,0,0,1,5.17-5.42c3,0,5,2.23,5.08,5.42a5.13,5.13,0,1,1-10.25,0Zm0,30.39a5.09,5.09,0,0,1,5.17-5.42c3,0,5,2.23,5.08,5.42a5.13,5.13,0,1,1-10.25,0Z"/><path d="M782.44,714.59V654.33H818.6v10H793.11v15.16h24.63v9.81H793.11V704.6H818.6v10Z"/><path d="M825.4,714.59l14.2-21-14.2-20.83h12.05l8.27,13.09.17,3.44h1.46l.17-3.44,8.27-13.09h12.05l-14.2,20.83,14.2,21H855.79l-8.27-12.74-.17-3.36h-1.46l-.17,3.36-8.27,12.74Z"/><path d="M876.19,730.09V672.75h10.16l-2.58,11.19h1.46c2.41-8.09,7.49-12.4,15-12.4A17.07,17.07,0,0,1,914.85,679c2.58,3.71,3.87,8.7,3.87,14.64s-1.29,10.93-3.87,14.64a17.07,17.07,0,0,1-14.64,7.49c-7.49,0-12.57-4.31-15-12.4h-1.46l2.58,11.19v15.5ZM906,702.62a17.82,17.82,0,0,0,0-17.9,11.07,11.07,0,0,0-17.39,0,17.82,17.82,0,0,0,0,17.9,11.07,11.07,0,0,0,17.39,0Z"/><path d="M965.64,696.43h-30a14.83,14.83,0,0,0,2.32,7c1.81,2.58,4.56,4.05,8.61,4.05,4.39,0,7.66-2,9-5.69h10.16c-1.46,8.27-9,14-18.85,14-8.18,0-13.95-2.76-17.48-7.93-2.58-3.61-3.87-8.35-3.87-14a24.88,24.88,0,0,1,4.22-14.29c3.61-5.25,9.47-8,16.27-8,12.57,0,19.71,7.93,19.71,21.44Zm-10.24-7.32c-.26-6.11-3.62-9.39-9.39-9.39a9.76,9.76,0,0,0-8.17,4.14,13.47,13.47,0,0,0-2,5.25Z"/><path d="M975.29,714.59V672.75h10.07l-2.93,12H984c2.07-9.12,6.63-13.26,13-13.26,7.75,0,11.54,5.08,11.54,13.78v9.12H998.1v-5.68c0-5.51-1.89-7.75-5.68-7.75-4.56,0-7,3.88-7,11.2v22.38Z"/><path d="M1016.7,666.81V656.22h11.1v10.59Zm.43,47.78V672.75h10.16v41.84Z"/><path d="M1040.2,714.59V672.75h10.16l-2.58,11.19h1.46c2.15-8,6.2-12.4,12.91-12.4,6,0,11,4.22,11,12.4h1.47c2.15-9,7.23-12.4,13.6-12.4,8.78,0,13.6,5.6,13.6,16.28v26.77h-10.42V689.88c0-5.94-2.32-9-6.8-9-5.51,0-8.61,4.39-8.61,11.37v22.38h-10.15V689.88c0-5.94-2.93-9-7-9-5.59,0-8.52,4.31-8.52,11.37v22.38Z"/><path d="M1150.74,696.43h-30a14.83,14.83,0,0,0,2.32,7c1.81,2.58,4.56,4.05,8.61,4.05,4.39,0,7.66-2,8.95-5.69h10.16c-1.46,8.27-9,14-18.85,14-8.18,0-14-2.76-17.48-7.93-2.58-3.61-3.87-8.35-3.87-14a24.88,24.88,0,0,1,4.22-14.29c3.61-5.25,9.47-8,16.27-8,12.57,0,19.71,7.93,19.71,21.44Zm-10.24-7.32c-.26-6.11-3.62-9.39-9.39-9.39a9.79,9.79,0,0,0-8.18,4.14,13.62,13.62,0,0,0-2,5.25Z"/><path d="M1160.38,714.59V672.75h10.16L1168,683.94h1.46c2.5-8.18,7.24-12.4,14.12-12.4,9.9,0,15.16,5.86,15.16,17.05v26h-10.42V690.23c0-6.2-2.67-9.39-8-9.39-5.94,0-9.73,4.57-9.73,12v21.78Z"/><path d="M1243.29,681.36h-19.37v19.28c0,4.31,1.81,6.29,4.56,6.29,3.36,0,4.65-2.07,4.65-7.23v-6h10.16v6.2c0,10-5.51,15.93-14.81,15.93-9.9,0-14.72-5.08-14.72-15.07V681.36h-8.26v-8.61h8.26v-7.32l10.16-4.73v12h19.37Z"/><path d="M1250.52,701.42v-.52h9.82v.52c0,4.3,2.5,6.45,7.4,6.45,2.5,0,4.31-.51,5.43-1.63a4.18,4.18,0,0,0,1.2-3c0-2.59-1.46-4.14-5.42-4.91l-6.2-1.38c-7.75-1.55-11.62-5.59-11.62-12.48a11.49,11.49,0,0,1,3.27-8.44c2.93-2.93,7.57-4.48,13.6-4.48,10.59,0,16.87,5.51,16.87,14.47v.43h-9.81V686c0-4.31-2.58-6.54-7.49-6.54-2.5,0-4.3.51-5.42,1.63a4.15,4.15,0,0,0-1.21,3c0,2.5,1.72,4,5.43,4.74l5.42,1.2c8.61,1.81,12.48,5.69,12.48,12.75a11.3,11.3,0,0,1-3.35,8.52c-2.85,2.93-7.49,4.48-13.44,4.48C1256.81,715.8,1250.52,710.46,1250.52,701.42Z"/><path d="M1316.38,666.81V656.22h11.11v10.59Zm.43,47.78V672.75H1327v41.84Z"/><path d="M1339.89,714.59V672.75h10.16l-2.59,11.19h1.47c2.49-8.18,7.23-12.4,14.12-12.4,9.9,0,15.15,5.86,15.15,17.05v26h-10.42V690.23c0-6.2-2.67-9.39-8-9.39-5.94,0-9.72,4.57-9.72,12v21.78Z"/><path d="M1444.14,681.36h-19.37v19.28c0,4.31,1.81,6.29,4.57,6.29,3.35,0,4.65-2.07,4.65-7.23v-6h10.15v6.2c0,10-5.51,15.93-14.8,15.93-9.9,0-14.72-5.08-14.72-15.07V681.36h-8.27v-8.61h8.27v-7.32l10.15-4.73v12h19.37Z"/><path d="M1454,714.59V654.33h10.16v18.42l-2.58,11.19h1.46c2.5-8.18,7.24-12.4,14.12-12.4,9.9,0,15.16,5.86,15.16,17.05v26h-10.42V690.23c0-6.2-2.67-9.39-8-9.39-5.94,0-9.73,4.57-9.73,12v21.78Z"/><path d="M1541.26,696.43h-30a14.72,14.72,0,0,0,2.33,7c1.8,2.58,4.56,4.05,8.6,4.05,4.39,0,7.67-2,9-5.69h10.16c-1.47,8.27-9,14-18.86,14-8.18,0-13.94-2.76-17.47-7.93-2.59-3.61-3.88-8.35-3.88-14a24.88,24.88,0,0,1,4.22-14.29c3.62-5.25,9.47-8,16.27-8,12.57,0,19.72,7.93,19.72,21.44ZM1531,689.11c-.26-6.11-3.62-9.39-9.38-9.39a9.77,9.77,0,0,0-8.18,4.14,13.47,13.47,0,0,0-2,5.25Z"/><path d="M1573,714.59V654.33h22.21c13.6,0,23.76,6.63,27.8,18a38,38,0,0,1,1.9,12.14,36,36,0,0,1-2,12.22c-4,11.37-14,17.91-27.72,17.91Zm10.67-10h12.22a16.62,16.62,0,0,0,16.36-11.53,24.72,24.72,0,0,0,1.47-8.61,26,26,0,0,0-1.47-8.78,16.75,16.75,0,0,0-16.36-11.37H1583.7Z"/><path d="M1671.69,696.43h-30a14.72,14.72,0,0,0,2.33,7c1.8,2.58,4.56,4.05,8.6,4.05,4.4,0,7.67-2,9-5.69h10.16c-1.47,8.27-9,14-18.86,14-8.18,0-13.94-2.76-17.47-7.93-2.59-3.61-3.88-8.35-3.88-14a24.88,24.88,0,0,1,4.22-14.29c3.62-5.25,9.47-8,16.27-8,12.57,0,19.72,7.93,19.72,21.44Zm-10.25-7.32c-.26-6.11-3.61-9.39-9.38-9.39a9.77,9.77,0,0,0-8.18,4.14,13.47,13.47,0,0,0-2,5.25Z"/><path d="M1678.66,701.42v-.52h9.82v.52c0,4.3,2.49,6.45,7.4,6.45,2.5,0,4.3-.51,5.42-1.63a4.15,4.15,0,0,0,1.21-3c0-2.59-1.47-4.14-5.43-4.91l-6.2-1.38c-7.74-1.55-11.62-5.59-11.62-12.48a11.49,11.49,0,0,1,3.27-8.44c2.93-2.93,7.58-4.48,13.61-4.48,10.59,0,16.87,5.51,16.87,14.47v.43h-9.81V686c0-4.31-2.59-6.54-7.49-6.54-2.5,0-4.31.51-5.43,1.63a4.18,4.18,0,0,0-1.2,3c0,2.5,1.72,4,5.42,4.74l5.42,1.2c8.61,1.81,12.49,5.69,12.49,12.75a11.27,11.27,0,0,1-3.36,8.52c-2.84,2.93-7.49,4.48-13.43,4.48C1685,715.8,1678.66,710.46,1678.66,701.42Z"/><path d="M1723.17,666.81V656.22h11.11v10.59Zm.43,47.78V672.75h10.16v41.84Z"/><path d="M1743.83,714.76h10c.43,5,3.62,8,10,8,6.62,0,10.41-3.88,10.41-10.85V710.8l3.19-11.36h-1.47c-2.32,8.78-7.66,12.48-14.11,12.48-6.12,0-11.2-2.58-14.3-7.14-2.41-3.36-3.7-7.84-3.7-13.09a22.59,22.59,0,0,1,3.7-13.09c3.1-4.56,8.18-7.06,14.3-7.06,6.45,0,11.79,3.71,14.11,12.49h1.47l-3.1-11.28h10.07v35.9c0,15.07-6.89,22.56-20.57,22.56C1751.06,731.21,1744.35,725.27,1743.83,714.76Zm28.5-15.24a14.67,14.67,0,0,0,0-15.58,10.07,10.07,0,0,0-16,0,14.67,14.67,0,0,0,0,15.58,10.07,10.07,0,0,0,16,0Z"/><path d="M1797,714.59V672.75h10.16l-2.58,11.19H1806c2.5-8.18,7.23-12.4,14.12-12.4,9.9,0,15.15,5.86,15.15,17.05v26h-10.41V690.23c0-6.2-2.67-9.39-8-9.39-5.94,0-9.73,4.57-9.73,12v21.78Z"/><path d="M1869.18,706.93a24.65,24.65,0,0,1,0-26.52c3.79-5.68,10.16-8.87,17.91-8.87s14.21,3.19,18,8.87a24.6,24.6,0,0,1,0,26.52c-3.78,5.68-10.16,8.87-18,8.87S1873,712.61,1869.18,706.93Zm27-4.74a16.8,16.8,0,0,0,0-17,11.2,11.2,0,0,0-18.17,0,16.27,16.27,0,0,0,0,17,11.2,11.2,0,0,0,18.17,0Z"/><path d="M1942,667.33v-.26c0-3.88-1.81-5.86-4.91-5.86-3.44,0-5.42,2.41-5.42,6.37v5.17H1947v8.61h-15.32v33.23h-10.16V681.36h-8.27v-8.61h8.27v-4.82c0-9.13,6-14.89,15.49-14.89,9.73,0,15,4.73,15,13.94v.35Z"/><path d="M1977.57,714.59V654.33h10.68v60.26Z"/><path d="M2001.94,714.59V672.75h10.16l-2.59,11.19H2011c2.49-8.18,7.23-12.4,14.12-12.4,9.9,0,15.15,5.86,15.15,17.05v26h-10.42V690.23c0-6.2-2.67-9.39-8-9.39-5.94,0-9.72,4.57-9.72,12v21.78Z"/><path d="M2084.84,681.36h-19.37v19.28c0,4.31,1.81,6.29,4.57,6.29,3.35,0,4.64-2.07,4.64-7.23v-6h10.16v6.2c0,10-5.51,15.93-14.8,15.93-9.9,0-14.73-5.08-14.73-15.07V681.36h-8.26v-8.61h8.26v-7.32l10.16-4.73v12h19.37Z"/><path d="M2131.59,696.43h-30a14.83,14.83,0,0,0,2.32,7c1.81,2.58,4.56,4.05,8.61,4.05,4.39,0,7.66-2,8.95-5.69h10.16c-1.46,8.27-9,14-18.85,14-8.18,0-13.95-2.76-17.48-7.93-2.58-3.61-3.87-8.35-3.87-14a24.88,24.88,0,0,1,4.22-14.29c3.61-5.25,9.47-8,16.27-8,12.57,0,19.71,7.93,19.71,21.44Zm-10.24-7.32c-.26-6.11-3.62-9.39-9.39-9.39a9.79,9.79,0,0,0-8.18,4.14,13.79,13.79,0,0,0-2,5.25Z"/><path d="M2141.23,714.59V672.75h10.08l-2.93,12h1.55c2.07-9.12,6.63-13.26,13-13.26,7.75,0,11.54,5.08,11.54,13.78v9.12h-10.42v-5.68c0-5.51-1.89-7.75-5.68-7.75-4.57,0-7,3.88-7,11.2v22.38Z"/><path d="M2217.25,687.39v27.2H2207.1l2.41-11.19H2208c-2.15,8.44-6.71,12.4-14.38,12.4a13,13,0,0,1-9.38-3.53,11.42,11.42,0,0,1-3.18-8.35q0-5.43,3.09-8.53,3.89-3.87,11.63-4.39l11.28-.77v-2.84c0-4.57-2.76-7.32-8.36-7.32-8.09,0-8.17,6.28-8.17,7.06v.34h-10.33v-.34c0-1.21.08-15.59,18.76-15.59C2211.06,671.54,2217.25,677.23,2217.25,687.39Zm-10.15,9.72-8.87.95q-3.75.39-5.43,2.07a4.48,4.48,0,0,0-1.29,3.27,4.07,4.07,0,0,0,1.21,3.1,5.46,5.46,0,0,0,4,1.37C2204.08,707.87,2207,701,2207.1,697.11Z"/><path d="M2229.82,707.87c-2.58-3.61-3.87-8.35-3.87-14,0-5.85,1.46-10.67,4-14.29,3.7-5.25,9.64-8,17.13-8,11.19,0,19.2,6.55,19.54,16.79h-10.07c-.77-5-4.13-7.83-9.38-7.83a9.69,9.69,0,0,0-8.35,4c-1.64,2.33-2.5,5.34-2.5,9.3a15.62,15.62,0,0,0,2.41,9,9.12,9.12,0,0,0,8,4c5.08,0,8.26-2.75,9-7.83h10.07c-.25,10.33-8.09,16.79-19.28,16.79C2239.12,715.8,2233.35,713,2229.82,707.87Z"/><path d="M2308.51,681.36h-19.37v19.28c0,4.31,1.81,6.29,4.56,6.29,3.36,0,4.65-2.07,4.65-7.23v-6h10.16v6.2c0,10-5.51,15.93-14.81,15.93-9.9,0-14.72-5.08-14.72-15.07V681.36h-8.26v-8.61H2279v-7.32l10.16-4.73v12h19.37Z"/><path d="M2318,666.81V656.22h11.11v10.59Zm.43,47.78V672.75h10.16v41.84Z"/><path d="M2349.66,714.59l-13.43-41.84H2347l9.91,32.63.25,3.18h1.47l.26-3.18,9.9-32.63h10.76l-13.43,41.84Z"/><path d="M2424.05,696.43H2394a14.83,14.83,0,0,0,2.33,7c1.8,2.58,4.56,4.05,8.61,4.05,4.39,0,7.66-2,8.95-5.69h10.16c-1.47,8.27-9,14-18.86,14-8.17,0-13.94-2.76-17.47-7.93-2.59-3.61-3.88-8.35-3.88-14a24.88,24.88,0,0,1,4.22-14.29c3.62-5.25,9.47-8,16.27-8,12.57,0,19.72,7.93,19.72,21.44Zm-10.25-7.32c-.25-6.11-3.61-9.39-9.38-9.39a9.77,9.77,0,0,0-8.18,4.14,13.47,13.47,0,0,0-2,5.25Z"/><path d="M2455.82,714.59V654.33H2473l14.2,46.4.69,6.89h1.47l.6-6.89,14.2-46.4h17.22v60.26h-10.42V661.3h-1.46l-.77,11.19-13.18,42.1h-13.94l-13.09-42.1-.86-11.19h-1.46v53.29Z"/><path d="M2535.54,706.93a24.6,24.6,0,0,1,0-26.52c3.79-5.68,10.16-8.87,17.9-8.87s14.21,3.19,18,8.87a24.65,24.65,0,0,1,0,26.52c-3.79,5.68-10.16,8.87-18,8.87S2539.33,712.61,2535.54,706.93Zm27-4.74a16.8,16.8,0,0,0,0-17,11.2,11.2,0,0,0-18.17,0,16.27,16.27,0,0,0,0,17,11.2,11.2,0,0,0,18.17,0Z"/><path d="M2593.05,714.59l-13.43-41.84h10.76l9.9,32.63.26,3.18H2602l.26-3.18,9.9-32.63h10.76l-13.43,41.84Z"/><path d="M2630.15,666.81V656.22h11.11v10.59Zm.43,47.78V672.75h10.16v41.84Z"/><path d="M2653.65,714.59V672.75h10.16l-2.58,11.19h1.46c2.5-8.18,7.24-12.4,14.12-12.4,9.9,0,15.16,5.86,15.16,17.05v26h-10.42V690.23c0-6.2-2.67-9.39-8-9.39-5.94,0-9.73,4.57-9.73,12v21.78Z"/><path d="M2701.18,714.76h10c.43,5,3.61,8,10,8,6.63,0,10.42-3.88,10.42-10.85V710.8l3.18-11.36h-1.46c-2.32,8.78-7.66,12.48-14.12,12.48-6.11,0-11.19-2.58-14.29-7.14-2.41-3.36-3.7-7.84-3.7-13.09a22.59,22.59,0,0,1,3.7-13.09c3.1-4.56,8.18-7.06,14.29-7.06,6.46,0,11.8,3.71,14.12,12.49h1.46l-3.09-11.28h10.07v35.9c0,15.07-6.89,22.56-20.58,22.56C2708.41,731.21,2701.7,725.27,2701.18,714.76Zm28.5-15.24a14.72,14.72,0,0,0,0-15.58,10.08,10.08,0,0,0-16,0,14.67,14.67,0,0,0,0,15.58,10.08,10.08,0,0,0,16,0Z"/><path d="M2818.69,672.49a18.59,18.59,0,0,1-2.32,9.47c-3.1,5.51-9.47,8.78-17.39,8.78H2787.1v23.85h-10.68V654.33H2799c7.92,0,14.29,3.18,17.39,8.69A18.62,18.62,0,0,1,2818.69,672.49Zm-10.84,0a9.47,9.47,0,0,0-1.12-4.56c-1.38-2.33-4.22-3.88-8.27-3.88H2787.1v16.88h11.36c4.05,0,6.89-1.55,8.27-3.88A9.44,9.44,0,0,0,2807.85,672.49Z"/><path d="M2828,706.93a24.65,24.65,0,0,1,0-26.52c3.79-5.68,10.16-8.87,17.91-8.87s14.2,3.19,18,8.87a24.6,24.6,0,0,1,0,26.52c-3.79,5.68-10.16,8.87-18,8.87S2831.78,712.61,2828,706.93Zm27-4.74a16.74,16.74,0,0,0,0-17,11.19,11.19,0,0,0-18.16,0,16.27,16.27,0,0,0,0,17,11.19,11.19,0,0,0,18.16,0Z"/><path d="M2874.66,701.42v-.52h9.81v.52c0,4.3,2.5,6.45,7.4,6.45,2.5,0,4.31-.51,5.43-1.63a4.18,4.18,0,0,0,1.2-3c0-2.59-1.46-4.14-5.42-4.91l-6.2-1.38c-7.75-1.55-11.62-5.59-11.62-12.48a11.49,11.49,0,0,1,3.27-8.44c2.93-2.93,7.58-4.48,13.6-4.48,10.59,0,16.88,5.51,16.88,14.47v.43h-9.82V686c0-4.31-2.58-6.54-7.49-6.54-2.49,0-4.3.51-5.42,1.63a4.15,4.15,0,0,0-1.21,3c0,2.5,1.73,4,5.43,4.74l5.42,1.2c8.61,1.81,12.48,5.69,12.48,12.75a11.3,11.3,0,0,1-3.35,8.52c-2.84,2.93-7.49,4.48-13.43,4.48C2880.94,715.8,2874.66,710.46,2874.66,701.42Z"/><path d="M2952.14,681.36h-19.37v19.28c0,4.31,1.81,6.29,4.56,6.29,3.36,0,4.65-2.07,4.65-7.23v-6h10.16v6.2c0,10-5.51,15.93-14.81,15.93-9.9,0-14.72-5.08-14.72-15.07V681.36h-8.27v-8.61h8.27v-7.32l10.16-4.73v12h19.37Z"/><path d="M2998.89,696.43h-30a14.94,14.94,0,0,0,2.33,7c1.8,2.58,4.56,4.05,8.61,4.05,4.39,0,7.66-2,8.95-5.69h10.16c-1.47,8.27-9,14-18.86,14-8.18,0-13.94-2.76-17.47-7.93-2.59-3.61-3.88-8.35-3.88-14a24.88,24.88,0,0,1,4.22-14.29c3.62-5.25,9.47-8,16.27-8,12.57,0,19.72,7.93,19.72,21.44Zm-10.25-7.32c-.26-6.11-3.61-9.39-9.38-9.39a9.77,9.77,0,0,0-8.18,4.14,13.47,13.47,0,0,0-2,5.25Z"/><path d="M3008.53,714.59V672.75h10.07l-2.93,12h1.55c2.07-9.12,6.63-13.26,13-13.26,7.75,0,11.54,5.08,11.54,13.78v9.12h-10.42v-5.68c0-5.51-1.89-7.75-5.68-7.75-4.56,0-7,3.88-7,11.2v22.38Z"/><path d="M3047.7,701.42v-.52h9.82v.52c0,4.3,2.49,6.45,7.4,6.45,2.5,0,4.31-.51,5.42-1.63a4.15,4.15,0,0,0,1.21-3c0-2.59-1.46-4.14-5.42-4.91l-6.2-1.38c-7.75-1.55-11.62-5.59-11.62-12.48a11.45,11.45,0,0,1,3.27-8.44c2.92-2.93,7.57-4.48,13.6-4.48,10.59,0,16.87,5.51,16.87,14.47v.43h-9.81V686c0-4.31-2.58-6.54-7.49-6.54-2.5,0-4.31.51-5.42,1.63a4.15,4.15,0,0,0-1.21,3c0,2.5,1.72,4,5.42,4.74l5.43,1.2c8.61,1.81,12.48,5.69,12.48,12.75a11.27,11.27,0,0,1-3.36,8.52c-2.84,2.93-7.49,4.48-13.43,4.48C3054,715.8,3047.7,710.46,3047.7,701.42Z"/><path d="M105.41,817.9V757.64h36.16v10H116.08v15.49H140v9.82H116.08v25Z"/><path d="M149.75,802.06v-26h10.33v24.37c0,6.19,2.58,9.38,7.66,9.38,5.68,0,9.3-4.56,9.3-12V776.06h10.15V817.9H177l2.58-11.19h-1.46c-2.42,8.18-7,12.4-13.69,12.4C154.74,819.11,149.75,813.25,149.75,802.06Z"/><path d="M200.11,817.9V757.64h10.16V817.9Z"/><path d="M223.18,817.9V757.64h10.16V817.9Z"/><path d="M268.38,817.9V757.64h36.16v10H279.06v15.15h24.62v9.81H279.06v15.33h25.48v10Z"/><path d="M311.34,817.9l14.2-21-14.2-20.84h12.05l8.27,13.09.17,3.44h1.46l.18-3.44,8.26-13.09h12l-14.2,20.84,14.2,21h-12l-8.26-12.74-.18-3.36h-1.46l-.17,3.36-8.27,12.74Z"/><path d="M362.13,817.9V757.64h10.16v18.42l-2.58,11.19h1.46c2.5-8.17,7.23-12.39,14.12-12.39,9.9,0,15.15,5.85,15.15,17v26H390V793.54c0-6.2-2.67-9.39-8-9.39-5.94,0-9.73,4.57-9.73,12V817.9Z"/><path d="M412.07,770.12V759.53h11.1v10.59Zm.43,47.78V776.06h10.16V817.9Z"/><path d="M444.61,806.71h-1.46l2.58,11.19H435.57V757.64h10.16v18.42l-2.58,11.19h1.46c2.41-8.09,7.49-12.39,15-12.39a17.07,17.07,0,0,1,14.64,7.49c2.58,3.7,3.87,8.69,3.87,14.63s-1.29,10.94-3.87,14.64a17.07,17.07,0,0,1-14.64,7.49C452.1,819.11,447,814.8,444.61,806.71Zm20.75-.77a17.84,17.84,0,0,0,0-17.91A11.07,11.07,0,0,0,448,788a17.84,17.84,0,0,0,0,17.91,11.08,11.08,0,0,0,17.39,0Z"/><path d="M487.74,770.12V759.53h11.11v10.59Zm.43,47.78V776.06h10.16V817.9Z"/><path d="M543.79,784.67H524.42V804c0,4.3,1.81,6.28,4.56,6.28,3.36,0,4.65-2.06,4.65-7.23v-6h10.16v6.2c0,10-5.51,15.93-14.81,15.93-9.9,0-14.72-5.08-14.72-15.07V784.67H506v-8.61h8.27v-7.32L524.42,764v12h19.37Z"/><path d="M553.26,770.12V759.53h11.1v10.59Zm.43,47.78V776.06h10.16V817.9Z"/><path d="M577.28,810.24a24.58,24.58,0,0,1,0-26.51c3.79-5.69,10.16-8.87,17.91-8.87s14.2,3.18,18,8.87a24.63,24.63,0,0,1,0,26.51c-3.79,5.68-10.16,8.87-18,8.87S581.07,815.92,577.28,810.24Zm27-4.73a16.76,16.76,0,0,0,0-17,11.19,11.19,0,0,0-18.16,0,16.28,16.28,0,0,0,0,17,11.2,11.2,0,0,0,18.16,0Z"/><path d="M626.61,817.9V776.06h10.16l-2.59,11.19h1.47c2.5-8.17,7.23-12.39,14.12-12.39,9.9,0,15.15,5.85,15.15,17v26H654.5V793.54c0-6.2-2.67-9.39-8-9.39-5.94,0-9.73,4.57-9.73,12V817.9Z"/><path d="M732.5,790.7v27.2H722.34l2.41-11.19h-1.46c-2.15,8.44-6.72,12.4-14.38,12.4a13,13,0,0,1-9.38-3.53,11.43,11.43,0,0,1-3.19-8.35c0-3.62,1-6.46,3.1-8.53q3.88-3.87,11.62-4.39l11.28-.77V790.7c0-4.56-2.75-7.32-8.35-7.32-8.09,0-8.18,6.28-8.18,7.06v.34H695.48v-.34c0-1.21.09-15.58,18.77-15.58C726.3,774.86,732.5,780.54,732.5,790.7Zm-10.16,9.73-8.86.94q-3.75.39-5.43,2.07a4.48,4.48,0,0,0-1.29,3.27,4.06,4.06,0,0,0,1.21,3.1,5.47,5.47,0,0,0,4,1.38C719.33,811.19,722.26,804.3,722.34,800.43Z"/><path d="M777.1,784.67H757.73V804c0,4.3,1.81,6.28,4.56,6.28,3.36,0,4.65-2.06,4.65-7.23v-6H777.1v6.2c0,10-5.51,15.93-14.81,15.93-9.9,0-14.72-5.08-14.72-15.07V784.67H739.3v-8.61h8.27v-7.32L757.73,764v12H777.1Z"/><path d="M804.3,817.9l8.18-41.84h10.16l-4.22,10.33h1.47c3.27-7.83,8-11.53,14.29-11.53,7,0,10.5,4.82,9.29,11.53h1.47c3.1-8.17,7.92-11.53,14.46-11.53,10.85,0,13.35,8.35,11.11,19.71l-4.57,23.33H855.61l4.57-23.41c1.12-6.2.25-10.34-5.69-10.34-5.51,0-8.61,4.31-10.07,11.54l-4.3,22.21H830l4.56-23.33c1.21-6.2.26-10.33-5.68-10.33-5.42,0-8.61,4.22-10,11.54l-4.39,22.12Z"/><path d="M918.55,799.74H888.67a13.59,13.59,0,0,0,2,7.32,8.32,8.32,0,0,0,7.15,3.7c4.56,0,7.92-2.07,9.38-5.68h10.51c-3.19,8.86-10.16,14-20.23,14-6.72,0-12.06-2.67-15.41-7.66a21.24,21.24,0,0,1-3.28-11.8,26.86,26.86,0,0,1,4.74-15.41c3.79-5.6,9.9-9.38,18.51-9.38,13,0,17.65,8.87,17.65,17.39A27.67,27.67,0,0,1,918.55,799.74Zm-8.61-7.32a16.51,16.51,0,0,0,.17-2.07c0-3.44-1.63-7.31-8.18-7.31a11.79,11.79,0,0,0-10.16,5.25,16.62,16.62,0,0,0-2.06,4.13Z"/><path d="M944.2,784.67l-3.7,19.11c-.77,3.88-.17,6.46,3.36,6.46,4,0,5.16-2.5,6.2-7.49l1.2-5.77h10L960,802.92c-2.06,10.42-6.54,16.19-16.61,16.19-10.59,0-14.9-5.68-13-15.58L934,784.67h-8.17l1.72-8.61h8.18l1.37-7.32L948.25,764l-2.33,12h19.46l-1.72,8.61Z"/><path d="M1006.19,792.51l-4.91,25.39H991l4.82-11.1H994.4c-3.53,8.78-8.27,12.31-15.42,12.31a12.07,12.07,0,0,1-8.86-3.27,10.61,10.61,0,0,1-2.93-7.58,12,12,0,0,1,3.44-9c2.84-2.93,7.32-4.39,12.66-4.73l12.65-1,.26-1.46c1.29-6.38-.6-8.7-6.71-8.7-8.52,0-9.39,5.68-9.64,7.4H969.43c.69-3.53,3.1-15.92,20.92-15.92C1002.32,774.86,1008.69,779.94,1006.19,792.51Zm-11.62,7.92-9.56,1c-2.84.34-4.82,1-6,2.24a4.32,4.32,0,0,0-1.29,3.44,3.66,3.66,0,0,0,.95,2.84,5.24,5.24,0,0,0,3.87,1.21C990.09,811.19,993.88,803.35,994.57,800.43Z"/><path d="M1013.34,817.9l8.17-41.84h10.16l-4.22,10.33h1.47c3.27-7.83,8-11.53,14.29-11.53,7,0,10.5,4.82,9.3,11.53H1054c3.1-8.17,7.92-11.53,14.46-11.53,10.85,0,13.35,8.35,11.11,19.71L1075,817.9h-10.33l4.56-23.41c1.12-6.2.26-10.34-5.68-10.34-5.51,0-8.61,4.31-10.08,11.54l-4.3,22.21H1039l4.56-23.33c1.21-6.2.26-10.33-5.68-10.33-5.42,0-8.61,4.22-10,11.54l-4.4,22.12Z"/><path d="M1091.16,811.36a20.69,20.69,0,0,1-3.35-11.79,26.67,26.67,0,0,1,4.64-15.24c3.88-5.51,10.08-9.47,19.2-9.47,7.49,0,13.17,2.92,16.45,7.75a21.3,21.3,0,0,1,3.35,11.79,27.31,27.31,0,0,1-4.64,15.24c-3.88,5.51-10.08,9.47-19.2,9.47C1100.12,819.11,1094.44,816.18,1091.16,811.36ZM1118,805a17.84,17.84,0,0,0,3-10,12.7,12.7,0,0,0-2.07-7.4c-1.55-2.41-4.22-3.79-7.83-3.79a11.52,11.52,0,0,0-9.9,5.17,17.79,17.79,0,0,0-3,10,12.71,12.71,0,0,0,2.07,7.41c1.55,2.41,4.22,3.78,7.83,3.78A11.54,11.54,0,0,0,1118,805Z"/><path d="M1137,817.9l8.17-41.84h10.08l-5.08,11.54h1.46c3.7-7.32,7.15-12.74,14.89-12.74,7.15,0,9.65,4.73,9.65,10.16,0,2.32-.35,4.56-2,12.74h-10.51c1.21-5.6,1.47-7.32,1.47-8.78,0-2.33-.78-4.65-4.48-4.65-5.25,0-7.83,4.39-9.21,11.71l-4.31,21.86Z"/><path d="M1175.88,833.4l11.19-57.34h10l-4.48,10.33H1194c3.53-7.83,8.61-11.53,15.59-11.53,5.94,0,10.07,2.49,12.57,6.2a21.31,21.31,0,0,1,3.27,11.79c0,5.25-1.47,12.31-5.25,17.65a19,19,0,0,1-16.19,8.61c-8.52,0-12.57-6-13.26-13.26h-1.46l-.09,12L1186,833.4Zm36-28.41a18.47,18.47,0,0,0,3.18-10.33c0-2.93-.43-5.25-1.81-7.23-1.55-2.33-4.47-3.62-7.83-3.62a11.11,11.11,0,0,0-9.47,5.17,19.11,19.11,0,0,0-3.19,10.33c0,2.92.43,5.25,1.81,7.23,1.55,2.32,4.48,3.61,7.84,3.61A11.13,11.13,0,0,0,1211.87,805Z"/><path d="M1231.24,817.9l11.62-60.26h10.24l-3.53,18.42-4.39,10.33h1.47c3.87-7.92,8.35-11.53,15.32-11.53,10.59,0,14.46,8.09,12.31,18.94l-4.73,24.1h-10.33l4.64-23.93c1.12-5.77-.51-9.82-6.71-9.82-5.68,0-9.81,3.79-11.45,12l-4.3,21.78Z"/><path d="M1285.73,811.36a20.69,20.69,0,0,1-3.35-11.79,26.67,26.67,0,0,1,4.64-15.24c3.88-5.51,10.08-9.47,19.2-9.47,7.49,0,13.18,2.92,16.45,7.75A21.3,21.3,0,0,1,1326,794.4a27.31,27.31,0,0,1-4.64,15.24c-3.88,5.51-10.08,9.47-19.2,9.47C1294.69,819.11,1289,816.18,1285.73,811.36Zm26.86-6.37a17.84,17.84,0,0,0,3-10,12.7,12.7,0,0,0-2.07-7.4c-1.55-2.41-4.22-3.79-7.83-3.79a11.53,11.53,0,0,0-9.9,5.17,17.79,17.79,0,0,0-3,10,12.71,12.71,0,0,0,2.07,7.41c1.55,2.41,4.22,3.78,7.83,3.78A11.54,11.54,0,0,0,1312.59,805Z"/><path d="M1331.54,806.28a9.34,9.34,0,0,1,.17-2.07h9.64a9.46,9.46,0,0,0-.17,1.73c0,3.27,2.75,5.25,7.14,5.25a7.68,7.68,0,0,0,5.34-1.64,4.83,4.83,0,0,0,1.21-3.36c0-2.23-1.38-3.61-4.74-4.73l-5.34-1.72c-6.8-2.24-9.81-6.46-9.81-11.8a12.21,12.21,0,0,1,3.36-8.69c2.58-2.59,6.63-4.39,13.08-4.39,12.06,0,17,6.28,17,12.74a9,9,0,0,1-.17,2.15h-9.73a7.68,7.68,0,0,0,.17-1.63c0-3.36-2.92-5.43-7.49-5.43-2.58,0-4.3.69-5.25,1.72a3.92,3.92,0,0,0-1.2,2.93c0,2,1.38,3.53,5.34,4.74l5.25,1.63c6.2,2,9.29,5.68,9.29,11.45a13.59,13.59,0,0,1-3.53,9.56c-2.58,2.58-6.45,4.39-13,4.39C1336.7,819.11,1331.54,813.25,1331.54,806.28Z"/><path d="M1373.21,817.9l8.17-41.84h10.16l-8.18,41.84Zm8.78-47.78,2.06-10.59h11.11l-2.07,10.59Z"/><path d="M1396.36,806.28a9.15,9.15,0,0,1,.18-2.07h9.64a9.46,9.46,0,0,0-.17,1.73c0,3.27,2.75,5.25,7.14,5.25a7.68,7.68,0,0,0,5.34-1.64,4.87,4.87,0,0,0,1.2-3.36c0-2.23-1.37-3.61-4.73-4.73l-5.34-1.72c-6.8-2.24-9.81-6.46-9.81-11.8a12.21,12.21,0,0,1,3.36-8.69c2.58-2.59,6.62-4.39,13.08-4.39,12,0,17,6.28,17,12.74a9.62,9.62,0,0,1-.17,2.15h-9.73a7.68,7.68,0,0,0,.17-1.63c0-3.36-2.92-5.43-7.49-5.43-2.58,0-4.3.69-5.25,1.72a3.92,3.92,0,0,0-1.2,2.93c0,2,1.37,3.53,5.33,4.74l5.26,1.63c6.19,2,9.29,5.68,9.29,11.45a13.59,13.59,0,0,1-3.53,9.56c-2.58,2.58-6.45,4.39-13,4.39C1401.53,819.11,1396.36,813.25,1396.36,806.28Z"/><path d="M1435.79,817.9l2.5-12.39h13l-2.5,12.39Z"/><path d="M1464,812.91a21.36,21.36,0,0,1-3.27-11.79c0-5.26,1.46-12.32,5.25-17.65a18.72,18.72,0,0,1,16.1-8.61c8.61,0,12.57,6,13.25,13.26h1.47l.17-12.06,3.7-18.42h10.16l-11.71,60.26h-10l4.39-10.33H1492c-3.44,7.84-8.52,11.54-15.58,11.54C1470.49,819.11,1466.44,816.61,1464,812.91Zm26.26-7.92a19.2,19.2,0,0,0,3.18-10.33c0-2.93-.43-5.25-1.81-7.23a9.36,9.36,0,0,0-7.83-3.62,11.26,11.26,0,0,0-9.56,5.17,19.18,19.18,0,0,0-3.18,10.33c0,2.92.43,5.25,1.8,7.23a9.41,9.41,0,0,0,7.84,3.61A11.29,11.29,0,0,0,1490.21,805Z"/><path d="M1552.53,799.74h-29.87a13.5,13.5,0,0,0,2,7.32,8.31,8.31,0,0,0,7.15,3.7c4.56,0,7.92-2.07,9.38-5.68h10.5c-3.18,8.86-10.15,14-20.23,14-6.71,0-12-2.67-15.41-7.66a21.31,21.31,0,0,1-3.27-11.8,26.86,26.86,0,0,1,4.74-15.41c3.78-5.6,9.9-9.38,18.51-9.38,13,0,17.64,8.87,17.64,17.39A27.67,27.67,0,0,1,1552.53,799.74Zm-8.6-7.32a16.51,16.51,0,0,0,.17-2.07c0-3.44-1.64-7.31-8.18-7.31a11.76,11.76,0,0,0-10.16,5.25,17,17,0,0,0-2.07,4.13Z"/><path d="M1558.65,817.9l8.18-41.84H1577l-8.18,41.84Zm8.78-47.78,2.07-10.59h11.1l-2.06,10.59Z"/><path d="M1579.57,817.9l2.5-12.39h13l-2.5,12.39Z"/><path d="M1606.09,800.17l4.73-24.11h10.33L1616.5,800c-1.2,5.76.52,9.81,6.2,9.81s9.47-3.79,11.11-12l4.22-21.78h10.15l-8.09,41.84h-10.16l4.65-10.33h-1.46c-3.79,7.92-8.27,11.54-15.15,11.54C1607.81,819.11,1603.93,811,1606.09,800.17Z"/><path d="M1657.05,811.45a21.31,21.31,0,0,1-3.27-11.8,26.92,26.92,0,0,1,4.73-15.41c3.79-5.6,9.9-9.38,18.6-9.38,12.83,0,18.25,8.26,18.34,16.79h-10.08c-.17-3-1.89-7.84-8.78-7.84a11.11,11.11,0,0,0-9.47,5,17.57,17.57,0,0,0-2.92,10.25,13.3,13.3,0,0,0,1.89,7.49,8.34,8.34,0,0,0,7.15,3.61,9.44,9.44,0,0,0,9.55-7.83H1693c-2.07,8.78-8.44,16.79-20.4,16.79C1665.75,819.11,1660.41,816.44,1657.05,811.45Z"/><path d="M1698.29,817.9l2.5-12.39h13l-2.5,12.39Z"/><path d="M1719.21,833.4l11.19-57.34h10l-4.48,10.33h1.47c3.53-7.83,8.61-11.53,15.58-11.53,5.94,0,10.07,2.49,12.57,6.2a21.31,21.31,0,0,1,3.27,11.79c0,5.25-1.46,12.31-5.25,17.65a19,19,0,0,1-16.19,8.61c-8.52,0-12.57-6-13.26-13.26h-1.46l-.08,12-3.19,15.5Zm36-28.41a18.47,18.47,0,0,0,3.18-10.33c0-2.93-.43-5.25-1.81-7.23-1.54-2.33-4.47-3.62-7.83-3.62a11.12,11.12,0,0,0-9.47,5.17,19.09,19.09,0,0,0-3.18,10.33c0,2.92.43,5.25,1.8,7.23,1.55,2.32,4.48,3.61,7.84,3.61A11.13,11.13,0,0,0,1755.2,805Z"/><path d="M1794.11,784.67l-3.7,19.11c-.78,3.88-.17,6.46,3.36,6.46,4,0,5.16-2.5,6.19-7.49l1.21-5.77h10l-1.21,5.94c-2.06,10.42-6.54,16.19-16.61,16.19-10.59,0-14.9-5.68-13-15.58l3.61-18.86h-8.18l1.72-8.61h8.18l1.38-7.32,11.11-4.73-2.33,12h19.46l-1.72,8.61Z"/></g></g></svg>