<svg xmlns="http://www.w3.org/2000/svg" viewBox="0 0 817.63 1208.63"><g id="Layer_2" data-name="Layer 2"><g id="Layer_1-2" data-name="Layer 1"><polygon points="678.26 532.41 817.6 532.41 817.6 570.81 724.51 570.81 724.51 590.12 817.6 590.12 817.6 618.87 724.51 618.87 724.51 637.37 817.6 637.37 817.6 676.39 678.26 676.39 678.26 532.41"/><polygon points="817.63 445.43 817.63 483.83 724.53 483.83 724.53 503.14 817.63 503.14 817.63 517.42 678.28 517.42 678.28 445.43 817.63 445.43"/><polygon points="817.63 220.44 817.63 258.84 724.53 258.84 724.53 274.43 678.28 274.43 678.28 220.44 817.63 220.44"/><path d="M343.49,34.42h-150c.27-.39.54-.79.82-1.18,1.19-1.67,2.46-3.27,3.78-4.82.7-.81,1.41-1.61,2.14-2.39,1.18-1.24,2.41-2.45,3.68-3.61s2.79-2.44,4.26-3.59c1.08-.83,2.19-1.63,3.32-2.41a78,78,0,0,1,7.93-4.79c.79-.42,1.61-.81,2.42-1.21.53-.25,1-.53,1.57-.77A94,94,0,0,1,238,4.42,118.54,118.54,0,0,1,268.88.6a116.51,116.51,0,0,1,30.58,3.82,92.69,92.69,0,0,1,14.26,5.13c.62.28,1.22.58,1.82.87.8.4,1.59.8,2.37,1.21a76,76,0,0,1,7.85,4.79c1.11.78,2.21,1.58,3.26,2.41,1.46,1.15,2.85,2.35,4.2,3.59s2.47,2.37,3.63,3.61c.71.77,1.39,1.59,2.07,2.39,1.31,1.55,2.59,3.14,3.77,4.82Z"/><path d="M657.47,85.42h-55.9a20.63,20.63,0,0,0-3.32-1.51q-9.06-3.12-23.72-3.12-14.29,0-19.61,3a15,15,0,0,0-2.32,1.61h-51a42,42,0,0,1,1.63-6c.14-.39.28-.79.43-1.18a37.34,37.34,0,0,1,2.3-4.82c.45-.81.92-1.61,1.44-2.38A40.13,40.13,0,0,1,510,67.42a44.52,44.52,0,0,1,3.32-3.59c.85-.82,1.76-1.62,2.7-2.41,1.31-1.09,2.69-2.14,4.17-3.15.83-.56,1.68-1.11,2.57-1.64q1-.62,2.1-1.2a71.65,71.65,0,0,1,14.84-6Q555.07,45,575.93,45q22.65,0,39.19,4.43a80.07,80.07,0,0,1,16,6c.77.39,1.53.79,2.26,1.2l.07,0a52,52,0,0,1,7,4.76c1,.78,1.9,1.57,2.81,2.41q1.83,1.71,3.49,3.59c1,1.16,2,2.36,2.92,3.62.57.77,1.12,1.57,1.66,2.38,1,1.54,2,3.14,2.87,4.82.2.38.39.79.58,1.18C655.75,81.34,656.66,83.33,657.47,85.42Z"/><path d="M654.78,34.42H503.2c.14-.4.28-.79.43-1.18a36.72,36.72,0,0,1,2.3-4.82c.45-.81.92-1.61,1.44-2.39A41.46,41.46,0,0,1,510,22.42a44.52,44.52,0,0,1,3.32-3.59c.85-.83,1.76-1.62,2.7-2.41,1.31-1.09,2.69-2.14,4.17-3.15.83-.56,1.68-1.11,2.57-1.64.68-.42,1.38-.81,2.1-1.21a72.77,72.77,0,0,1,14.84-6Q555.07,0,575.93,0q22.65,0,39.19,4.42a81.32,81.32,0,0,1,16,6c.77.4,1.53.79,2.26,1.21l.07,0a51.08,51.08,0,0,1,7,4.76c1,.78,1.9,1.57,2.81,2.41a49.33,49.33,0,0,1,3.49,3.59c1,1.15,2,2.36,2.92,3.61.57.78,1.12,1.58,1.66,2.39,1,1.54,2,3.14,2.87,4.82C654.4,33.62,654.59,34,654.78,34.42Z"/><path d="M660.78,204.07H609.51a18.29,18.29,0,0,0-1.22-3.43c-.19-.42-.4-.82-.63-1.22a15.53,15.53,0,0,0-6-6l0,0a20.63,20.63,0,0,0-3.32-1.51q-9.06-3.12-23.72-3.12-14.29,0-19.61,3a14.35,14.35,0,0,0-2.32,1.61s0,0,0,0a8,8,0,0,0-3,6c0,.08,0,.15,0,.23a7.93,7.93,0,0,0,.08,1,6.4,6.4,0,0,0,1.43,3.43,6.33,6.33,0,0,0,1.64,1.35H500.8c-.05-1-.07-1.95-.07-3,0-.61,0-1.22,0-1.82,0-.41,0-.81.06-1.22a46.1,46.1,0,0,1,.73-6v0a42,42,0,0,1,1.63-6c.14-.39.28-.79.43-1.18a36.72,36.72,0,0,1,2.3-4.82c.45-.81.92-1.61,1.44-2.38a40.13,40.13,0,0,1,2.67-3.62,44.52,44.52,0,0,1,3.32-3.59c.85-.82,1.76-1.62,2.7-2.41,1.31-1.09,2.69-2.14,4.17-3.15.83-.56,1.68-1.11,2.57-1.64q1-.62,2.1-1.2a71.65,71.65,0,0,1,14.84-6Q555.07,153,575.93,153q22.65,0,39.19,4.43a80.07,80.07,0,0,1,16,6c.77.39,1.53.79,2.26,1.2l.07,0a52,52,0,0,1,7,4.76c1,.78,1.9,1.57,2.81,2.41,1.22,1.14,2.38,2.33,3.49,3.59s2,2.36,2.92,3.62c.57.77,1.12,1.57,1.66,2.38,1,1.54,2,3.14,2.87,4.82.2.38.39.79.58,1.18a65.65,65.65,0,0,1,2.69,6v0c.75,1.92,1.42,3.92,2,6,.12.41.26.81.37,1.22C660.21,201.76,660.51,202.9,660.78,204.07Z"/><path d="M549.6,142.42H500.84a45.88,45.88,0,0,1,.73-6v0a42,42,0,0,1,1.63-6c.14-.4.28-.79.43-1.18a36.72,36.72,0,0,1,2.3-4.82c.45-.81.92-1.61,1.44-2.39a41.46,41.46,0,0,1,2.67-3.61,42.9,42.9,0,0,1,3.32-3.59c.85-.83,1.76-1.63,2.7-2.41,1.31-1.09,2.69-2.14,4.17-3.15.83-.56,1.68-1.11,2.57-1.64.68-.42,1.38-.82,2.1-1.21a72.77,72.77,0,0,1,14.84-6Q555.07,96,575.93,96q22.65,0,39.19,4.42a81.32,81.32,0,0,1,16,6c.77.39,1.53.79,2.26,1.21l.07,0a51.08,51.08,0,0,1,7,4.76c1,.78,1.9,1.57,2.81,2.41a49.33,49.33,0,0,1,3.49,3.59c1,1.15,2,2.36,2.92,3.61.57.78,1.12,1.58,1.66,2.39,1,1.54,2,3.13,2.87,4.82.2.38.39.79.58,1.18a65.65,65.65,0,0,1,2.69,6v0c.75,1.92,1.42,3.92,2,6H607.66a15.53,15.53,0,0,0-6-6l0,0a19.8,19.8,0,0,0-3.32-1.51q-9.06-3.12-23.72-3.12-14.29,0-19.61,3a14.35,14.35,0,0,0-2.32,1.61s0,0,0,0A8,8,0,0,0,549.6,142.42Z"/><rect x="678.28" y="49.43" width="139.35" height="35.99"/><polygon points="678.28 100.42 817.63 100.42 817.63 138.83 724.53 138.83 724.53 142.42 678.28 142.42 678.28 100.42"/><polygon points="678.28 157.43 817.63 157.43 817.63 195.83 724.53 195.83 724.53 205.42 678.28 205.42 678.28 157.43"/><rect x="678.28" y="4.43" width="139.35" height="29.99"/><path d="M240.53,205.42H184.86c.49-1.62,1-3.22,1.64-4.78.16-.41.35-.81.51-1.22a62.76,62.76,0,0,1,2.81-6v0c.85-1.58,1.75-3.13,2.74-4.63.3-.47.63-.91.94-1.37s.54-.79.82-1.18c1.19-1.67,2.46-3.27,3.78-4.82.7-.81,1.41-1.61,2.14-2.38q1.77-1.87,3.68-3.62t4.26-3.59c1.08-.83,2.19-1.63,3.32-2.41a78,78,0,0,1,7.93-4.79c.79-.42,1.61-.81,2.42-1.2.53-.26,1-.53,1.57-.78A92.91,92.91,0,0,1,238,157.43a118.11,118.11,0,0,1,30.87-3.83,116.09,116.09,0,0,1,30.58,3.83,91.63,91.63,0,0,1,14.26,5.12c.62.28,1.22.58,1.82.88q1.2.58,2.37,1.2a76,76,0,0,1,7.85,4.79c1.11.78,2.21,1.58,3.26,2.41,1.46,1.15,2.85,2.35,4.2,3.59s2.47,2.37,3.63,3.62c.71.76,1.39,1.58,2.07,2.38,1.31,1.55,2.59,3.14,3.77,4.82l.8,1.18c.27.39.54.77.79,1.17,1,1.56,2,3.18,2.82,4.83,0,0,0,0,0,0a64.87,64.87,0,0,1,2.75,6c.17.41.36.81.51,1.22.59,1.56,1.11,3.16,1.6,4.78H296.24c-.34-.32-.66-.64-1-.94a31.19,31.19,0,0,0-5.82-3.84c-.87-.44-1.78-.84-2.71-1.22a48,48,0,0,0-18.21-3.19,48.76,48.76,0,0,0-18.43,3.19c-.93.38-1.84.78-2.71,1.22a30,30,0,0,0-5.91,3.94C241.12,204.84,240.83,205.14,240.53,205.42Z"/><path d="M347.1,85.42H189.83c.85-1.58,1.75-3.13,2.74-4.63.3-.47.63-.91.94-1.37s.54-.79.82-1.18c1.19-1.67,2.46-3.27,3.78-4.82.7-.81,1.41-1.61,2.14-2.38q1.77-1.87,3.68-3.62t4.26-3.59c1.08-.83,2.19-1.63,3.32-2.41a78,78,0,0,1,7.93-4.79c.79-.42,1.61-.81,2.42-1.2.53-.26,1-.53,1.57-.78A92.91,92.91,0,0,1,238,49.43a118.54,118.54,0,0,1,30.87-3.82,116.51,116.51,0,0,1,30.58,3.82,91.63,91.63,0,0,1,14.26,5.12c.62.28,1.22.58,1.82.88q1.2.59,2.37,1.2a76,76,0,0,1,7.85,4.79c1.11.78,2.21,1.58,3.26,2.41,1.46,1.15,2.85,2.35,4.2,3.59s2.47,2.37,3.63,3.62c.71.77,1.39,1.58,2.07,2.38,1.31,1.55,2.59,3.14,3.77,4.82l.8,1.18c.27.39.54.77.79,1.17C345.3,82.15,346.23,83.77,347.1,85.42Z"/><path d="M250.05,142.42H187a61.63,61.63,0,0,1,2.81-6v0c.85-1.58,1.75-3.13,2.74-4.63.3-.47.63-.92.94-1.37s.54-.79.82-1.18c1.19-1.67,2.46-3.27,3.78-4.82.7-.81,1.41-1.61,2.14-2.39q1.77-1.87,3.68-3.61c1.37-1.25,2.79-2.44,4.26-3.59,1.08-.83,2.19-1.63,3.32-2.41a76.18,76.18,0,0,1,7.93-4.79c.79-.42,1.61-.81,2.42-1.21.53-.25,1-.53,1.57-.77A92.93,92.93,0,0,1,238,100.42a118.54,118.54,0,0,1,30.87-3.82,116.51,116.51,0,0,1,30.58,3.82,91.66,91.66,0,0,1,14.26,5.13c.62.28,1.22.58,1.82.87.8.4,1.59.8,2.37,1.21a76,76,0,0,1,7.85,4.79c1.11.78,2.21,1.58,3.26,2.41,1.46,1.15,2.85,2.34,4.2,3.59s2.47,2.36,3.63,3.61c.71.77,1.39,1.59,2.07,2.39,1.31,1.55,2.59,3.14,3.77,4.82.27.38.53.79.8,1.18s.54.77.79,1.17c1,1.56,2,3.18,2.82,4.83,0,0,0,0,0,0a63.68,63.68,0,0,1,2.75,6H286.69a48,48,0,0,0-18.21-3.19A48.76,48.76,0,0,0,250.05,142.42Z"/><path d="M353.52,274.43h-52.6a24.74,24.74,0,0,0-2.4-3.57,23.83,23.83,0,0,0-2.28-2.43c-.34-.32-.66-.64-1-.94a31.7,31.7,0,0,0-5.82-3.84c-.87-.44-1.78-.84-2.71-1.22a48,48,0,0,0-18.21-3.19,48.76,48.76,0,0,0-18.43,3.19c-.93.38-1.84.78-2.71,1.22a30.42,30.42,0,0,0-5.91,3.94c-.31.26-.6.56-.9.84a24.72,24.72,0,0,0-2.26,2.43,24.47,24.47,0,0,0-2.4,3.57h-52.6c.26-1.21.55-2.4.86-3.57.22-.83.48-1.63.73-2.43.49-1.62,1-3.22,1.64-4.78.16-.41.35-.81.51-1.22a62.76,62.76,0,0,1,2.81-6v0c.85-1.58,1.75-3.13,2.74-4.63.3-.47.63-.91.94-1.37s.54-.79.82-1.18c1.19-1.67,2.46-3.27,3.78-4.82.7-.81,1.41-1.61,2.14-2.38q1.77-1.87,3.68-3.62t4.26-3.59c1.08-.83,2.19-1.63,3.32-2.41a78,78,0,0,1,7.93-4.79c.79-.42,1.61-.81,2.42-1.2.53-.26,1-.53,1.57-.78A92.91,92.91,0,0,1,238,220.44a118.54,118.54,0,0,1,30.87-3.82,116.51,116.51,0,0,1,30.58,3.82,91.63,91.63,0,0,1,14.26,5.12c.62.28,1.22.58,1.82.88q1.2.59,2.37,1.2a76,76,0,0,1,7.85,4.79c1.11.78,2.21,1.58,3.26,2.41,1.46,1.15,2.85,2.35,4.2,3.59s2.47,2.37,3.63,3.62c.71.77,1.39,1.58,2.07,2.38,1.31,1.55,2.59,3.14,3.77,4.82l.8,1.18c.27.39.54.77.79,1.17,1,1.56,2,3.18,2.82,4.83v0a64.87,64.87,0,0,1,2.75,6c.17.41.36.81.51,1.22.59,1.56,1.11,3.16,1.6,4.78.24.8.49,1.6.71,2.43Q353.15,272.61,353.52,274.43Z"/><polygon points="367.21 157.43 485.64 157.43 485.64 200.45 449.65 200.45 449.65 205.42 403 205.42 403 200.45 367.21 200.45 367.21 157.43"/><polygon points="367.21 220.44 485.64 220.44 485.64 263.46 449.65 263.46 449.65 274.43 403 274.43 403 263.46 367.21 263.46 367.21 220.44"/><rect x="367.21" y="100.42" width="118.43" height="42"/><rect x="367.21" y="49.43" width="118.43" height="35.99"/><rect x="367.21" y="4.42" width="118.43" height="30"/><path d="M549.6,331.42c0,.08,0,.16,0,.24a7.93,7.93,0,0,0,.08,1,6.44,6.44,0,0,0,1.43,3.43,6.31,6.31,0,0,0,1.64,1.34,17.26,17.26,0,0,0,4.19,1.67c.92.26,2,.51,3.22.76,2.55.52,5.72,1,9.55,1.46q8.44,1,22.31,1.81c1.57.09,3.1.19,4.62.3a182.1,182.1,0,0,1,26.15,3.63c3.15.71,6.09,1.5,8.84,2.37H503c-.26-.77-.51-1.56-.72-2.37-.31-1.17-.57-2.38-.79-3.63s-.36-2.35-.48-3.57c-.08-.8-.13-1.61-.17-2.43-.05-1-.07-1.95-.07-2.95,0-.61,0-1.22,0-1.82,0-.42,0-.82.06-1.23a46.1,46.1,0,0,1,.73-6v0a42,42,0,0,1,1.63-6c.14-.39.28-.79.43-1.18a38,38,0,0,1,2.3-4.82c.45-.8.92-1.6,1.44-2.38a38.63,38.63,0,0,1,2.67-3.61,44.64,44.64,0,0,1,3.32-3.6c.85-.82,1.76-1.62,2.7-2.4,1.31-1.1,2.69-2.15,4.17-3.16.83-.56,1.68-1.11,2.57-1.64q1-.61,2.1-1.2a72.21,72.21,0,0,1,14.84-6Q555.06,285,575.93,285q22.65,0,39.19,4.43a80.69,80.69,0,0,1,16,6c.77.39,1.53.79,2.26,1.2l.07,0a51.14,51.14,0,0,1,7,4.77c1,.77,1.9,1.56,2.81,2.4q1.83,1.71,3.49,3.6,1.53,1.72,2.92,3.61c.57.77,1.12,1.57,1.66,2.38,1,1.54,2,3.14,2.87,4.82.2.38.39.79.58,1.18,1,1.92,1.88,3.91,2.69,6v0c.75,1.92,1.42,3.92,2,6,.12.41.26.81.37,1.23.32,1.12.62,2.26.89,3.43H609.51a18.29,18.29,0,0,0-1.22-3.43,12.93,12.93,0,0,0-.63-1.23,15.53,15.53,0,0,0-6-6l0,0a20.63,20.63,0,0,0-3.32-1.51q-9.06-3.12-23.72-3.12-14.29,0-19.61,3a15,15,0,0,0-2.32,1.61l0,0A8,8,0,0,0,549.6,331.42Z"/><path d="M500.8,268.43c-.05-1-.07-1.95-.07-2.95,0-.62,0-1.23,0-1.83,0-.41,0-.81.06-1.22a46.1,46.1,0,0,1,.73-6v0a42,42,0,0,1,1.63-6c.14-.39.28-.79.43-1.18a37.34,37.34,0,0,1,2.3-4.82c.45-.81.92-1.61,1.44-2.38a40.13,40.13,0,0,1,2.67-3.62,44.52,44.52,0,0,1,3.32-3.59c.85-.82,1.76-1.62,2.7-2.41,1.31-1.09,2.69-2.14,4.17-3.15.83-.56,1.68-1.11,2.57-1.64q1-.62,2.1-1.2a71.65,71.65,0,0,1,14.84-6Q555.07,216,575.93,216q22.65,0,39.19,4.43a80.07,80.07,0,0,1,16,6c.77.39,1.53.79,2.26,1.2l.07,0a52,52,0,0,1,7,4.76c1,.78,1.9,1.57,2.81,2.41,1.22,1.14,2.38,2.33,3.49,3.59s2,2.36,2.92,3.62c.57.77,1.12,1.57,1.66,2.38,1,1.54,2,3.14,2.87,4.82.2.38.39.79.58,1.18,1,1.92,1.88,3.91,2.69,6v0c.75,1.92,1.42,3.92,2,6,.12.41.26.81.37,1.22.32,1.13.62,2.27.89,3.44H609.51a18.39,18.39,0,0,0-1.22-3.44c-.19-.42-.4-.82-.63-1.22a15.53,15.53,0,0,0-6-6l0,0a20.63,20.63,0,0,0-3.32-1.51q-9.06-3.12-23.72-3.12-14.29,0-19.61,3a15,15,0,0,0-2.32,1.61l0,0a8,8,0,0,0-3,6c0,.08,0,.15,0,.23a7.93,7.93,0,0,0,.08,1,6,6,0,0,0,3.07,4.78,17.26,17.26,0,0,0,4.19,1.67c.92.26,2,.51,3.22.76,2.55.52,5.72,1,9.55,1.46q8.44,1,22.31,1.81c1.57.09,3.1.19,4.62.3H501.45q-.3-1.74-.48-3.57C500.89,270.06,500.84,269.25,500.8,268.43Z"/><path d="M354.53,349.42H303.4c-.24-.81-.5-1.61-.79-2.37a28.76,28.76,0,0,0-1.69-3.63,25.3,25.3,0,0,0-2.4-3.57,23.83,23.83,0,0,0-2.28-2.43c-.34-.32-.66-.64-1-.94a31.15,31.15,0,0,0-5.82-3.83c-.87-.45-1.78-.85-2.71-1.23a48,48,0,0,0-18.21-3.19,48.76,48.76,0,0,0-18.43,3.19c-.93.38-1.84.78-2.71,1.23a30.38,30.38,0,0,0-5.91,3.93c-.31.26-.6.56-.9.84a25.91,25.91,0,0,0-2.26,2.43,24.47,24.47,0,0,0-2.4,3.57,28.08,28.08,0,0,0-1.7,3.63c-.3.76-.56,1.56-.8,2.37H182.24c.11-.79.21-1.59.34-2.37q.31-1.85.69-3.63c.26-1.21.55-2.4.86-3.57.22-.82.48-1.62.73-2.43.49-1.62,1-3.22,1.64-4.77.16-.42.35-.82.51-1.23a62.76,62.76,0,0,1,2.81-6v0c.85-1.58,1.75-3.12,2.74-4.63.3-.47.63-.91.94-1.37s.54-.79.82-1.18c1.19-1.67,2.46-3.27,3.78-4.82.7-.81,1.41-1.61,2.14-2.38q1.77-1.87,3.68-3.61t4.26-3.6c1.08-.83,2.19-1.63,3.32-2.4a76.25,76.25,0,0,1,7.93-4.8c.79-.42,1.61-.81,2.42-1.2.53-.26,1-.53,1.57-.78A92.91,92.91,0,0,1,238,289.43a118.54,118.54,0,0,1,30.87-3.82,116.51,116.51,0,0,1,30.58,3.82,91.63,91.63,0,0,1,14.26,5.12c.62.28,1.22.58,1.82.88q1.2.58,2.37,1.2a76.09,76.09,0,0,1,7.85,4.8c1.11.77,2.21,1.57,3.26,2.4,1.46,1.15,2.85,2.35,4.2,3.6s2.47,2.36,3.63,3.61c.71.77,1.39,1.58,2.07,2.38,1.31,1.55,2.59,3.14,3.77,4.82l.8,1.18c.27.39.54.77.79,1.17,1,1.57,2,3.18,2.82,4.83v0a64.87,64.87,0,0,1,2.75,6c.17.41.36.81.51,1.23.59,1.55,1.11,3.15,1.6,4.77.24.81.49,1.61.71,2.43q.46,1.75.84,3.57c.25,1.19.48,2.4.68,3.63C354.32,347.83,354.42,348.63,354.53,349.42Z"/><path d="M644.49,429.87c.31.18.58.37.88.55H505.65c-.22-.39-.45-.77-.65-1.17a35.38,35.38,0,0,1-2.05-4.83q-.39-1.16-.72-2.37-.47-1.76-.78-3.63c-.2-1.16-.37-2.35-.49-3.57-.07-.8-.12-1.61-.16-2.43-.05-1-.08-1.95-.08-2.95,0-.62,0-1.23,0-1.83,0-.41,0-.81.07-1.22a47.91,47.91,0,0,1,.72-6v0a42,42,0,0,1,1.63-6c.14-.39.27-.79.43-1.18a38.65,38.65,0,0,1,2.29-4.82c.46-.81.93-1.61,1.45-2.38a38.3,38.3,0,0,1,2.67-3.62,42.77,42.77,0,0,1,3.32-3.59c.85-.82,1.76-1.62,2.7-2.41,1.31-1.09,2.69-2.14,4.17-3.15.83-.56,1.68-1.11,2.56-1.64.69-.41,1.39-.81,2.11-1.2a71.43,71.43,0,0,1,14.84-6Q555.06,360,575.93,360q22.65,0,39.19,4.43a80.31,80.31,0,0,1,16,6c.77.39,1.52.79,2.26,1.2l.07,0a53.29,53.29,0,0,1,7,4.76c1,.78,1.9,1.57,2.8,2.41a49.41,49.41,0,0,1,3.5,3.59c1,1.16,2,2.36,2.92,3.62.57.77,1.11,1.57,1.65,2.38,1,1.54,2,3.14,2.88,4.82.2.38.38.79.58,1.18,1,1.92,1.88,3.91,2.69,6v0c.75,1.92,1.42,3.92,2,6,.13.41.26.81.38,1.22.32,1.13.62,2.27.89,3.44H609.51a18.39,18.39,0,0,0-1.22-3.44c-.19-.42-.41-.82-.63-1.22a15.67,15.67,0,0,0-6-6l0,0a20.36,20.36,0,0,0-3.33-1.51q-9-3.12-23.72-3.12-14.28,0-19.6,3a15,15,0,0,0-2.32,1.61l0,0a8,8,0,0,0-3,6,1.79,1.79,0,0,0,0,.23,7.93,7.93,0,0,0,.08,1,6.47,6.47,0,0,0,1.43,3.44,6.58,6.58,0,0,0,1.65,1.34,17.26,17.26,0,0,0,4.19,1.67c.92.26,2,.51,3.22.76,2.55.52,5.72,1,9.54,1.46q8.46,1,22.32,1.81c1.57.09,3.1.19,4.61.3a181.7,181.7,0,0,1,26.15,3.63c3.15.7,6.1,1.5,8.85,2.37a69.16,69.16,0,0,1,11.71,4.83C643.72,429.46,644.12,429.66,644.49,429.87Z"/><polygon points="678.28 364.43 817.63 364.43 817.63 402.83 724.53 402.83 724.53 422.14 817.63 422.14 817.63 430.42 678.28 430.42 678.28 364.43"/><polygon points="817.63 289.43 817.63 327.83 724.53 327.83 724.53 347.14 817.63 347.14 817.63 349.42 678.28 349.42 678.28 289.43 817.63 289.43"/><path d="M652.77,517.42H510.13a30.76,30.76,0,0,1-4.48-6c-.22-.39-.45-.77-.65-1.16a34.26,34.26,0,0,1-2-4.84c-.26-.77-.51-1.56-.72-2.37-.31-1.17-.57-2.38-.79-3.63s-.36-2.35-.48-3.57c-.08-.8-.13-1.61-.17-2.43s-.07-1.95-.07-2.95c0-.61,0-1.22,0-1.82,0-.41,0-.82.06-1.23a46.1,46.1,0,0,1,.73-6v0a42,42,0,0,1,1.63-6c.14-.39.28-.79.43-1.18a37.21,37.21,0,0,1,2.3-4.81c.45-.81.92-1.61,1.44-2.39a40,40,0,0,1,2.67-3.61,44.64,44.64,0,0,1,3.32-3.6c.85-.82,1.76-1.62,2.7-2.4,1.31-1.09,2.69-2.15,4.17-3.16.83-.56,1.68-1.11,2.57-1.64q1-.61,2.1-1.2a72.21,72.21,0,0,1,14.84-6Q555.06,441,575.92,441q22.67,0,39.2,4.42a80.69,80.69,0,0,1,16,6c.77.39,1.53.79,2.26,1.2l.07,0a51.14,51.14,0,0,1,7,4.77c1,.77,1.9,1.56,2.81,2.4q1.83,1.71,3.49,3.6,1.53,1.72,2.92,3.61c.57.77,1.12,1.57,1.66,2.39q1.51,2.29,2.87,4.81c.2.38.39.79.58,1.18,1,1.92,1.88,3.91,2.69,6v0c.75,1.92,1.42,3.92,2,6,.12.41.26.81.37,1.23.32,1.12.62,2.26.89,3.43H609.51a18.29,18.29,0,0,0-1.22-3.43,12.93,12.93,0,0,0-.63-1.23,15.53,15.53,0,0,0-6-6l0,0a20.63,20.63,0,0,0-3.32-1.51q-9.06-3.12-23.72-3.12-14.29,0-19.61,3a15,15,0,0,0-2.32,1.61l0,0a8,8,0,0,0-3,6c0,.08,0,.16,0,.24a7.93,7.93,0,0,0,.08,1,6.44,6.44,0,0,0,1.43,3.43,6.31,6.31,0,0,0,1.64,1.34,17.26,17.26,0,0,0,4.19,1.67c.92.26,2,.51,3.22.76,2.55.52,5.72,1,9.55,1.46q8.44,1,22.31,1.81c1.57.09,3.1.19,4.62.3a183.53,183.53,0,0,1,26.15,3.63c3.15.71,6.09,1.5,8.84,2.37a68.46,68.46,0,0,1,11.72,4.84c.39.21.79.41,1.16.62s.58.36.87.54A34,34,0,0,1,652.77,517.42Z"/><path d="M661.57,630.13c0,1.06,0,2.09-.1,3.12,0,.38-.06.76-.09,1.14a46.35,46.35,0,0,1-.84,6s0,0,0,.06a45,45,0,0,1-1.69,5.94c-.15.43-.31.85-.47,1.27a43.68,43.68,0,0,1-2.27,4.73c-.47.84-1,1.66-1.47,2.47-.41.65-.85,1.29-1.3,1.92s-.82,1.08-1.25,1.61a39.9,39.9,0,0,1-3.37,3.67c-.83.81-1.71,1.58-2.63,2.33a52.1,52.1,0,0,1-7.07,4.88c-.67.38-1.36.75-2.06,1.12a73.51,73.51,0,0,1-9.06,4q-3.06,1.11-6.44,2l-.28.08q-15.51,4.13-37.62,4.13-24.84,0-41.68-4.13l-.3-.08c-2.12-.53-4.16-1.09-6.08-1.71A77.18,77.18,0,0,1,525,670.39c-.73-.37-1.46-.74-2.17-1.12a54.62,54.62,0,0,1-7.36-4.88c-1-.75-1.89-1.52-2.77-2.33a44.18,44.18,0,0,1-3.58-3.67c-.43-.5-.85-1-1.25-1.51s-1-1.34-1.47-2-1.13-1.63-1.66-2.47c-1-1.52-1.88-3.09-2.72-4.73-.2-.41-.38-.85-.58-1.27-.91-1.9-1.75-3.87-2.5-5.94a.14.14,0,0,0,0-.06c-.68-1.92-1.28-3.93-1.82-6-.1-.38-.21-.75-.31-1.14-.38-1.58-.73-3.2-1-4.86-.08-.42-.18-.84-.25-1.27H549c.13.44.27.86.41,1.27a20.94,20.94,0,0,0,2.39,4.86q.4.59.84,1.14a20,20,0,0,0,8.08,6l.13.06c.34.14.67.31,1,.44q10,3.72,24.94,3.73,13.66,0,19.91-2.73a13.9,13.9,0,0,0,2.57-1.44l.07-.06a8.06,8.06,0,0,0,3.54-6,7.58,7.58,0,0,0,0-.84c0-.1,0-.2,0-.3a7.29,7.29,0,0,0-1.81-4.86,7.68,7.68,0,0,0-2-1.57,13.07,13.07,0,0,0-1.74-.77,54.48,54.48,0,0,0-12.54-2.45q-5.55-.58-13.66-1.2-7.15-.55-16.3-1.11a184.66,184.66,0,0,1-21.2-2.45c-3.84-.69-7.4-1.51-10.72-2.44a71.43,71.43,0,0,1-12.62-4.76c-.8-.4-1.57-.82-2.32-1.24-.51-.29-1-.58-1.5-.88a32.8,32.8,0,0,1-6.34-5.08l0,0a30.36,30.36,0,0,1-4.48-6c-.22-.39-.45-.77-.66-1.17a34.82,34.82,0,0,1-2-4.83q-.39-1.15-.72-2.37-.46-1.75-.78-3.63c-.2-1.16-.37-2.35-.49-3.57-.07-.8-.12-1.61-.16-2.43s-.08-1.95-.08-2.95c0-.61,0-1.22.05-1.82,0-.42,0-.82.07-1.23a46.1,46.1,0,0,1,.72-6v0a42,42,0,0,1,1.63-6c.14-.39.27-.79.42-1.18a39.39,39.39,0,0,1,2.3-4.82c.46-.8.93-1.6,1.45-2.38a38.17,38.17,0,0,1,2.67-3.61,42.88,42.88,0,0,1,3.32-3.6c.85-.82,1.76-1.62,2.69-2.4,1.32-1.1,2.7-2.15,4.18-3.16.83-.56,1.68-1.11,2.56-1.64q1-.61,2.1-1.2a72.3,72.3,0,0,1,14.85-6Q555,528,575.9,528q22.67,0,39.2,4.42a80.93,80.93,0,0,1,16,6c.77.39,1.52.79,2.26,1.2l.07,0a52.39,52.39,0,0,1,7,4.77c1,.77,1.9,1.56,2.8,2.4q1.83,1.71,3.5,3.6c1,1.15,2,2.35,2.91,3.61.58.77,1.12,1.57,1.66,2.38,1,1.54,2,3.14,2.88,4.82.2.38.38.79.58,1.18,1,1.92,1.88,3.91,2.69,6v0c.75,1.92,1.42,3.92,2,6,.13.41.26.81.38,1.23.32,1.12.62,2.26.89,3.43H609.49a18.29,18.29,0,0,0-1.22-3.43c-.2-.43-.41-.83-.63-1.23a15.62,15.62,0,0,0-6.06-6l0,0a20.36,20.36,0,0,0-3.33-1.51q-9-3.12-23.72-3.12-14.28,0-19.6,3a15,15,0,0,0-2.32,1.61l0,0a8,8,0,0,0-3,6,1.94,1.94,0,0,0,0,.24,7.93,7.93,0,0,0,.08,1,6.44,6.44,0,0,0,1.43,3.43,6.37,6.37,0,0,0,1.65,1.34,17.26,17.26,0,0,0,4.19,1.67c.92.26,2,.51,3.22.76,2.55.52,5.72,1,9.54,1.46q8.45,1,22.32,1.81c1.57.09,3.1.19,4.61.3A181.7,181.7,0,0,1,622.75,590q4.72,1.07,8.85,2.37a69.16,69.16,0,0,1,11.71,4.83l1.16.63c.31.17.58.36.88.54a34,34,0,0,1,7.4,6l0,0a30.25,30.25,0,0,1,4.24,6c.23.41.46.82.67,1.24a32.77,32.77,0,0,1,1.89,4.76c.26.8.49,1.61.7,2.44.28,1.15.51,2.34.7,3.56s.32,2.4.41,3.65c.06.77.1,1.55.13,2.34C661.55,629,661.57,629.54,661.57,630.13Z"/><path d="M232.11,430.42H181.64c0-.39,0-.78.07-1.17.13-1.64.32-3.24.53-4.83.11-.79.21-1.59.34-2.37.21-1.23.43-2.44.69-3.63s.54-2.4.86-3.57c.22-.83.48-1.63.72-2.43.5-1.62,1-3.22,1.64-4.78.17-.41.35-.81.52-1.22a65.23,65.23,0,0,1,2.8-6l0,0c.84-1.58,1.75-3.13,2.74-4.63.3-.47.62-.91.94-1.37s.54-.79.82-1.18c1.19-1.67,2.46-3.27,3.78-4.82.7-.81,1.41-1.61,2.14-2.38,1.18-1.25,2.4-2.46,3.68-3.62s2.79-2.44,4.26-3.59c1.07-.83,2.19-1.63,3.32-2.41a76.87,76.87,0,0,1,7.93-4.79c.79-.42,1.61-.81,2.42-1.2.53-.26,1-.53,1.57-.78A92.79,92.79,0,0,1,238,364.43a118.62,118.62,0,0,1,30.88-3.82,116.51,116.51,0,0,1,30.58,3.82,92,92,0,0,1,14.26,5.12c.61.28,1.22.58,1.82.88q1.2.58,2.37,1.2a75.87,75.87,0,0,1,7.84,4.79c1.12.78,2.21,1.58,3.27,2.41q2.18,1.73,4.2,3.59t3.63,3.62c.71.77,1.39,1.58,2.07,2.38,1.31,1.55,2.58,3.14,3.77,4.82l.8,1.18c.26.39.54.77.79,1.17,1,1.56,2,3.18,2.82,4.83v0a64.87,64.87,0,0,1,2.75,6c.17.41.35.81.51,1.22.59,1.56,1.11,3.16,1.6,4.78.24.8.49,1.6.7,2.43.31,1.17.6,2.36.85,3.57s.47,2.4.67,3.63c.13.78.23,1.58.33,2.37.21,1.59.4,3.19.52,4.83,0,.39,0,.78.07,1.17H304.64c-.05-.39-.1-.79-.16-1.17a38.4,38.4,0,0,0-1.08-4.83c-.24-.81-.5-1.61-.79-2.37a27.47,27.47,0,0,0-1.7-3.63,23.34,23.34,0,0,0-4.67-6c-.34-.32-.67-.64-1-.94a31.7,31.7,0,0,0-5.82-3.84c-.87-.44-1.78-.84-2.71-1.22a48,48,0,0,0-18.21-3.19,48.76,48.76,0,0,0-18.43,3.19c-.93.38-1.84.78-2.71,1.22a30.42,30.42,0,0,0-5.91,3.94c-.32.26-.6.56-.9.84a26.11,26.11,0,0,0-2.27,2.43,24.42,24.42,0,0,0-2.39,3.57,28.84,28.84,0,0,0-1.71,3.63c-.29.76-.55,1.56-.79,2.37a36.71,36.71,0,0,0-1.1,4.83C232.21,429.63,232.16,430,232.11,430.42Z"/><path d="M355.34,517.42H305.05a49.47,49.47,0,0,0-.41-6c-.05-.39-.1-.78-.16-1.16a36.88,36.88,0,0,0-1.08-4.84c-.24-.81-.5-1.61-.79-2.37a28.76,28.76,0,0,0-1.69-3.63,25.3,25.3,0,0,0-2.4-3.57,23.83,23.83,0,0,0-2.28-2.43c-.34-.32-.66-.64-1-.94a31.15,31.15,0,0,0-5.82-3.83c-.87-.45-1.78-.85-2.71-1.23a48,48,0,0,0-18.21-3.19,48.76,48.76,0,0,0-18.43,3.19c-.93.38-1.84.78-2.71,1.23a30.38,30.38,0,0,0-5.91,3.93c-.31.27-.6.56-.9.84a25.91,25.91,0,0,0-2.26,2.43,25,25,0,0,0-2.4,3.57,28.08,28.08,0,0,0-1.7,3.63c-.3.76-.56,1.56-.8,2.37a36.86,36.86,0,0,0-1.1,4.84c-.06.38-.11.77-.16,1.16a49.47,49.47,0,0,0-.41,6H181.41c0-2,.1-4,.23-6,0-.39,0-.78.07-1.16.13-1.65.32-3.25.53-4.84.11-.79.21-1.59.34-2.37q.31-1.85.69-3.63c.26-1.21.55-2.4.86-3.57.22-.82.48-1.62.73-2.43.49-1.62,1-3.22,1.64-4.77.16-.42.35-.82.51-1.23a62.76,62.76,0,0,1,2.81-6v0c.85-1.58,1.75-3.12,2.74-4.63.3-.46.63-.91.94-1.37s.54-.79.82-1.18c1.19-1.67,2.46-3.27,3.78-4.81.7-.82,1.41-1.62,2.14-2.39q1.77-1.87,3.68-3.61t4.26-3.6c1.08-.83,2.19-1.62,3.32-2.4a76.25,76.25,0,0,1,7.93-4.8c.79-.42,1.61-.8,2.42-1.2.53-.26,1-.53,1.57-.78A92.91,92.91,0,0,1,238,445.43a118.52,118.52,0,0,1,30.86-3.82,116.59,116.59,0,0,1,30.59,3.82,91.63,91.63,0,0,1,14.26,5.12l1.82.88q1.2.58,2.37,1.2a76.09,76.09,0,0,1,7.85,4.8c1.11.77,2.21,1.57,3.26,2.4,1.46,1.15,2.85,2.35,4.2,3.6s2.47,2.36,3.63,3.61c.71.77,1.39,1.58,2.07,2.39,1.31,1.54,2.59,3.13,3.77,4.81l.8,1.18c.27.39.54.77.79,1.17,1,1.57,2,3.18,2.82,4.83v0a64.87,64.87,0,0,1,2.75,6c.17.41.36.81.51,1.23.59,1.55,1.11,3.15,1.6,4.77.24.81.49,1.61.71,2.43q.46,1.75.84,3.57c.25,1.19.48,2.4.68,3.63.12.78.22,1.58.33,2.37.21,1.59.39,3.19.52,4.84,0,.38,0,.77.06,1.16C355.24,513.38,355.33,515.37,355.34,517.42Z"/><path d="M355.31,604.4c0-2-.09-4-.22-6,0-.39,0-.78-.07-1.17-.12-1.64-.31-3.24-.52-4.83-.1-.79-.2-1.59-.33-2.37-.2-1.23-.42-2.44-.67-3.63s-.54-2.4-.85-3.57c-.21-.82-.46-1.62-.7-2.43-.49-1.62-1-3.22-1.6-4.77-.16-.42-.34-.82-.51-1.23a64.87,64.87,0,0,0-2.75-6v0q-1.31-2.48-2.82-4.83c-.26-.4-.53-.78-.79-1.17l-.8-1.18c-1.19-1.68-2.46-3.27-3.77-4.82-.68-.8-1.36-1.61-2.08-2.38q-1.74-1.87-3.62-3.61t-4.2-3.6q-1.59-1.24-3.27-2.4a75.94,75.94,0,0,0-7.84-4.8q-1.17-.61-2.37-1.2c-.6-.3-1.21-.6-1.83-.88a91.51,91.51,0,0,0-14.25-5.12,116.51,116.51,0,0,0-30.58-3.82A118.62,118.62,0,0,0,238,532.41a92.79,92.79,0,0,0-14.57,5.22c-.54.25-1,.52-1.57.78-.81.39-1.63.78-2.42,1.2a76.4,76.4,0,0,0-7.94,4.8c-1.13.78-2.24,1.57-3.31,2.4q-2.22,1.73-4.26,3.6T200.23,554c-.74.77-1.44,1.57-2.14,2.38-1.33,1.55-2.59,3.15-3.78,4.82-.28.39-.55.79-.82,1.18s-.64.91-1,1.37q-1.47,2.26-2.74,4.63s0,0,0,0a65.23,65.23,0,0,0-2.8,6c-.17.41-.36.81-.52,1.23-.61,1.55-1.14,3.15-1.64,4.77-.25.81-.5,1.61-.72,2.43-.32,1.17-.6,2.36-.86,3.57s-.49,2.4-.69,3.63c-.13.78-.23,1.58-.34,2.37-.22,1.59-.4,3.19-.53,4.83,0,.39-.05.78-.07,1.17-.13,2-.22,4-.23,6v0c0,.12,0,.24,0,.36v.4c0,1.77.05,3.49.13,5.2,0,.41,0,.83.05,1.24.09,1.62.23,3.2.39,4.76.09.82.17,1.64.27,2.44.16,1.2.33,2.39.53,3.56s.43,2.45.69,3.65c.17.79.37,1.57.57,2.34.41,1.66.85,3.29,1.35,4.86.13.39.28.76.41,1.14.71,2.07,1.48,4.08,2.36,6l0,.06a58.77,58.77,0,0,0,3.14,5.94c.25.42.49.83.75,1.24v0c1.06,1.64,2.19,3.21,3.37,4.73.66.84,1.32,1.67,2,2.47q1.58,1.83,3.3,3.53c1.29,1.28,2.64,2.51,4.06,3.67,1,.81,2,1.58,3,2.33a67.46,67.46,0,0,0,7.8,4.88c.74.39,1.49.75,2.24,1.12,1.41.69,2.84,1.35,4.34,2a95.35,95.35,0,0,0,12.1,4l.29.08a135,135,0,0,0,33.86,3.93,129,129,0,0,0,32.94-3.93l.28-.08a95.38,95.38,0,0,0,12.42-4.23c1.31-.56,2.59-1.16,3.84-1.77.75-.37,1.51-.74,2.24-1.12a70.87,70.87,0,0,0,7.88-4.88c1.05-.75,2.09-1.52,3.08-2.33,1.45-1.16,2.83-2.39,4.16-3.67s2.31-2.31,3.41-3.53c.71-.8,1.39-1.63,2.06-2.47,1.22-1.52,2.38-3.09,3.47-4.73l.22-.33c.2-.31.37-.63.56-.94a56,56,0,0,0,3.29-5.94l0-.06c.91-1.92,1.71-3.93,2.45-6,.14-.38.29-.75.42-1.14.52-1.57,1-3.2,1.41-4.86.2-.77.41-1.55.58-2.34.27-1.2.51-2.42.72-3.65s.39-2.36.54-3.56c.11-.8.19-1.62.28-2.44.17-1.56.32-3.14.41-4.76,0-.41,0-.83.05-1.24.07-1.64.12-3.3.12-5v-.6c0-.12,0-.24,0-.36Zm-50.53,6c0,.41-.07.84-.12,1.24a37.53,37.53,0,0,1-.91,4.76c-.21.84-.45,1.66-.72,2.44a27.18,27.18,0,0,1-1.51,3.56,24.11,24.11,0,0,1-2.28,3.65,23.08,23.08,0,0,1-2.07,2.34,21.68,21.68,0,0,1-2,1.74,31.16,31.16,0,0,1-4.95,3.12c-.8.41-1.64.79-2.5,1.14q-8.16,3.38-19.49,3.38a48.38,48.38,0,0,1-19-3.38c-.84-.35-1.65-.73-2.44-1.14a31,31,0,0,1-5.46-3.62c-.46-.39-.9-.81-1.33-1.24a25.26,25.26,0,0,1-2.17-2.34,25.89,25.89,0,0,1-2.41-3.65,28.82,28.82,0,0,1-1.62-3.56c-.29-.78-.55-1.61-.78-2.44a34.52,34.52,0,0,1-1-4.76c-.06-.4-.08-.83-.13-1.24a45.57,45.57,0,0,1-.31-5.2c0-.26,0-.51,0-.76v0a51.52,51.52,0,0,1,.42-6c0-.39.1-.78.16-1.17a36.71,36.71,0,0,1,1.1-4.83c.24-.81.5-1.61.79-2.37a29.47,29.47,0,0,1,1.7-3.63,25.3,25.3,0,0,1,2.4-3.57,27.43,27.43,0,0,1,2.27-2.43c.3-.28.58-.58.89-.84a30.76,30.76,0,0,1,5.92-3.93c.87-.45,1.78-.85,2.71-1.23a48.73,48.73,0,0,1,18.43-3.19,48,48,0,0,1,18.21,3.19c.93.38,1.84.78,2.7,1.23a30.9,30.9,0,0,1,5.83,3.83c.35.3.68.62,1,.94a23.34,23.34,0,0,1,4.67,6,27.47,27.47,0,0,1,1.7,3.63c.29.76.55,1.56.79,2.37a38.4,38.4,0,0,1,1.08,4.83c.06.39.11.78.16,1.17a53.87,53.87,0,0,1,.41,6v0c0,.25,0,.5,0,.76C305.05,607,304.94,608.74,304.78,610.4Z"/><polygon points="367.21 364.43 485.64 364.43 485.64 407.45 449.65 407.45 449.65 430.42 402.99 430.42 402.99 407.45 367.21 407.45 367.21 364.43"/><polygon points="485.64 289.43 485.64 332.46 449.65 332.46 449.65 349.42 403 349.42 403 332.46 367.21 332.46 367.21 289.43 485.64 289.43"/><polygon points="367.21 445.43 485.64 445.43 485.64 488.46 449.65 488.46 449.65 517.42 403 517.42 403 488.46 367.21 488.46 367.21 445.43"/><path d="M661.59,717.15c0,1.06,0,2.09-.1,3.12,0,.38,0,.76-.08,1.14a46.6,46.6,0,0,1-.85,6,.13.13,0,0,1,0,.06,42.13,42.13,0,0,1-1.69,5.94c-.15.42-.3.85-.47,1.26a42,42,0,0,1-2.27,4.74c-.47.83-1,1.66-1.47,2.47-.41.65-.85,1.29-1.3,1.92s-.82,1.08-1.25,1.61a41.24,41.24,0,0,1-3.36,3.67c-.83.8-1.72,1.57-2.63,2.33a51.29,51.29,0,0,1-7.08,4.87c-.66.39-1.36.76-2.06,1.13a72,72,0,0,1-9.06,4q-3.06,1.11-6.44,2l-.27.08q-15.53,4.14-37.63,4.14-24.84,0-41.68-4.14l-.3-.08q-3.18-.78-6.08-1.71A75.27,75.27,0,0,1,525,757.41c-.74-.37-1.47-.74-2.17-1.13a54.7,54.7,0,0,1-7.37-4.87c-1-.76-1.89-1.53-2.77-2.33a47.41,47.41,0,0,1-3.57-3.67c-.43-.5-.85-1-1.26-1.51s-1-1.34-1.47-2-1.12-1.63-1.66-2.47c-1-1.52-1.88-3.09-2.71-4.74-.21-.41-.39-.84-.59-1.26a63.28,63.28,0,0,1-2.49-5.94.14.14,0,0,1,0-.06c-.69-1.93-1.28-3.93-1.82-6-.1-.38-.22-.75-.32-1.14-.38-1.59-.73-3.21-1-4.86-.08-.43-.17-.84-.25-1.28H549c.12.44.26.86.41,1.28a20.74,20.74,0,0,0,2.39,4.86c.26.39.54.77.83,1.14a20,20,0,0,0,8.08,6l.13.06c.34.14.67.31,1,.44q10,3.72,24.94,3.72,13.68,0,19.91-2.72a13.9,13.9,0,0,0,2.57-1.44l.08-.06a8.09,8.09,0,0,0,3.54-6c0-.28,0-.55,0-.84,0-.1,0-.2,0-.3a7.28,7.28,0,0,0-1.8-4.86,7.94,7.94,0,0,0-2-1.58,13.07,13.07,0,0,0-1.74-.77,54.37,54.37,0,0,0-12.53-2.45q-5.55-.58-13.66-1.2-7.17-.54-16.31-1.11a185,185,0,0,1-21.2-2.44c-3.84-.69-7.4-1.51-10.72-2.45a72.54,72.54,0,0,1-12.62-4.75c-.79-.41-1.56-.82-2.31-1.25-.51-.28-1-.57-1.51-.87a32.47,32.47,0,0,1-6.34-5.09l0,0H652.77l0,0a31,31,0,0,1,4.25,6c.22.42.45.82.66,1.25a33.13,33.13,0,0,1,1.9,4.75c.25.8.49,1.61.69,2.45.28,1.15.51,2.33.7,3.55s.32,2.4.41,3.65c.06.78.1,1.56.13,2.35C661.58,716,661.59,716.56,661.59,717.15Z"/><path d="M355.35,691.81v.6c0,1.71-.05,3.37-.12,5,0,.42,0,.84-.05,1.25-.1,1.62-.24,3.19-.41,4.75-.09.82-.18,1.64-.28,2.45-.16,1.2-.34,2.38-.54,3.55s-.46,2.46-.73,3.65c-.17.8-.38,1.57-.58,2.35-.42,1.66-.88,3.28-1.41,4.86-.13.39-.28.76-.42,1.14a63.8,63.8,0,0,1-2.45,6l0,.06a58.81,58.81,0,0,1-3.28,5.94c-.2.31-.37.63-.57.93l-.22.33c-1.09,1.65-2.25,3.22-3.46,4.74-.67.84-1.36,1.66-2.07,2.47-1.09,1.22-2.23,2.39-3.41,3.53s-2.71,2.5-4.15,3.67c-1,.8-2,1.57-3.09,2.33a69.35,69.35,0,0,1-7.88,4.87c-.73.39-1.48.76-2.24,1.13-1.25.61-2.52,1.21-3.84,1.76a92.82,92.82,0,0,1-12.41,4.23l-.29.08a128.51,128.51,0,0,1-32.94,3.94,134.39,134.39,0,0,1-33.85-3.94l-.29-.08a91.93,91.93,0,0,1-12.11-4c-1.49-.61-2.92-1.28-4.33-2-.76-.37-1.51-.74-2.24-1.13a67.53,67.53,0,0,1-7.81-4.87c-1-.76-2-1.53-3-2.33q-2.12-1.76-4-3.67c-1.15-1.14-2.26-2.31-3.31-3.53-.69-.81-1.36-1.63-2-2.47-1.18-1.52-2.31-3.09-3.36-4.74v0c-.26-.4-.51-.82-.76-1.23a57.76,57.76,0,0,1-3.13-5.94l0-.06c-.88-1.93-1.65-3.93-2.36-6-.13-.38-.28-.75-.4-1.14-.51-1.58-.95-3.2-1.36-4.86-.19-.78-.4-1.55-.57-2.35-.25-1.19-.48-2.41-.69-3.65s-.37-2.35-.53-3.55c-.1-.81-.18-1.63-.26-2.45-.17-1.56-.3-3.13-.4-4.75,0-.41,0-.83-.05-1.25-.08-1.7-.13-3.42-.13-5.19v-.41c0-.12,0-.24,0-.36v0H231.7s0,0,0,0c0,.25,0,.5,0,.77a47.79,47.79,0,0,0,.31,5.19c.05.42.08.84.13,1.25a36.25,36.25,0,0,0,1,4.75c.23.84.49,1.66.79,2.45a26.69,26.69,0,0,0,1.62,3.55,23.76,23.76,0,0,0,2.41,3.65,25.27,25.27,0,0,0,2.16,2.35c.44.42.87.84,1.34,1.24a30.54,30.54,0,0,0,5.45,3.62c.79.41,1.61.79,2.45,1.14a48.33,48.33,0,0,0,18.95,3.38q11.34,0,19.49-3.38c.86-.35,1.7-.73,2.51-1.14a31.52,31.52,0,0,0,4.94-3.12,20.41,20.41,0,0,0,2-1.74,21.09,21.09,0,0,0,2.07-2.35,22.89,22.89,0,0,0,2.28-3.65,26.29,26.29,0,0,0,1.51-3.55c.28-.79.51-1.61.73-2.45a39.21,39.21,0,0,0,.91-4.75c0-.4.07-.83.11-1.25.16-1.66.27-3.38.27-5.19,0-.27,0-.52,0-.77v0h50.29v0C355.34,691.57,355.35,691.69,355.35,691.81Z"/><polygon points="485.62 676.38 367.19 676.38 367.19 632.75 402.97 632.75 402.97 575.44 367.19 575.44 367.19 532.41 485.62 532.41 485.62 575.44 449.63 575.44 449.63 632.75 485.62 632.75 485.62 676.38"/><polygon points="485.64 719.77 485.64 763.39 367.21 763.39 367.21 719.77 403 719.77 403 691.41 449.65 691.41 449.65 719.77 485.64 719.77"/><polygon points="449.65 800.77 485.64 800.77 485.64 844.39 367.21 844.39 367.21 800.77 403 800.77 403 778.41 449.65 778.41 449.65 800.77"/><polygon points="678.28 778.41 817.63 778.41 817.63 786.89 724.53 786.89 724.53 805.39 817.63 805.39 817.63 844.4 678.28 844.4 678.28 778.41"/><polygon points="817.63 691.41 817.63 705.89 724.53 705.89 724.53 724.39 817.63 724.39 817.63 763.4 678.28 763.4 678.28 691.41 817.63 691.41"/><path d="M661.55,871.41c0,.58,0,1.15,0,1.74,0,1.06,0,2.09-.1,3.12,0,.38,0,.76-.08,1.14a46.35,46.35,0,0,1-.85,6,.13.13,0,0,1,0,.06,42.13,42.13,0,0,1-1.69,5.94c-.15.42-.3.85-.47,1.27a41.89,41.89,0,0,1-2.27,4.73c-.47.84-1,1.66-1.47,2.47-.41.65-.85,1.29-1.3,1.92s-.82,1.08-1.25,1.61a41.24,41.24,0,0,1-3.36,3.67c-.83.8-1.72,1.58-2.63,2.33a51.29,51.29,0,0,1-7.08,4.87c-.66.39-1.36.76-2.06,1.13a73.51,73.51,0,0,1-9.06,4q-3.06,1.11-6.44,2l-.27.08q-15.53,4.13-37.63,4.13-24.84,0-41.68-4.13l-.3-.08c-2.12-.53-4.15-1.09-6.08-1.71A76.52,76.52,0,0,1,525,913.41c-.74-.37-1.47-.74-2.17-1.13a54.7,54.7,0,0,1-7.37-4.87c-1-.75-1.89-1.52-2.77-2.33a45.69,45.69,0,0,1-3.57-3.67c-.43-.5-.85-1-1.26-1.51s-1-1.34-1.47-2-1.12-1.63-1.66-2.47c-1-1.52-1.88-3.09-2.71-4.73-.21-.42-.39-.85-.59-1.27a62.18,62.18,0,0,1-2.49-5.94.14.14,0,0,1,0-.06c-.69-1.92-1.28-3.93-1.82-6-.1-.38-.22-.75-.32-1.14-.38-1.58-.73-3.2-1-4.86-.08-.42-.17-.84-.25-1.27H549c.12.44.26.85.41,1.27a20.74,20.74,0,0,0,2.39,4.86c.26.39.54.77.83,1.14a20,20,0,0,0,8.08,6l.13.06c.34.14.67.31,1,.44q10,3.72,24.94,3.72,13.68,0,19.91-2.72a13.9,13.9,0,0,0,2.57-1.44l.08-.06a8.09,8.09,0,0,0,3.54-6c0-.27,0-.55,0-.84,0-.1,0-.2,0-.3a7.28,7.28,0,0,0-1.8-4.86,7.91,7.91,0,0,0-2-1.57,13.07,13.07,0,0,0-1.74-.77,54.37,54.37,0,0,0-12.53-2.45q-5.55-.58-13.66-1.2-7.17-.55-16.31-1.12a185,185,0,0,1-21.2-2.44c-3.84-.69-7.4-1.51-10.72-2.44H659.62c.25.8.49,1.61.69,2.44.28,1.15.51,2.34.7,3.56s.32,2.4.41,3.65C661.48,869.84,661.52,870.62,661.55,871.41Z"/><path d="M612.89,802.41c0-.28,0-.55,0-.84,0-.1,0-.2,0-.3a7.28,7.28,0,0,0-1.8-4.86,7.94,7.94,0,0,0-2-1.58,13.07,13.07,0,0,0-1.74-.77,54.37,54.37,0,0,0-12.53-2.45q-5.55-.58-13.66-1.2-7.17-.54-16.31-1.11a185,185,0,0,1-21.2-2.44c-3.84-.69-7.4-1.51-10.72-2.45a72.54,72.54,0,0,1-12.62-4.75c-.79-.41-1.56-.82-2.31-1.25h139c.22.42.45.82.66,1.25a33.13,33.13,0,0,1,1.9,4.75c.25.8.49,1.61.69,2.45.28,1.15.51,2.33.7,3.55s.32,2.4.41,3.65c.06.78.1,1.56.13,2.35,0,.57,0,1.15,0,1.74,0,1.06,0,2.09-.1,3.12,0,.38,0,.76-.08,1.14a46.6,46.6,0,0,1-.85,6,.13.13,0,0,1,0,.06,42.13,42.13,0,0,1-1.69,5.94c-.15.42-.3.85-.47,1.26a42,42,0,0,1-2.27,4.74c-.47.83-1,1.66-1.47,2.47-.41.65-.85,1.29-1.3,1.92s-.82,1.08-1.25,1.61a41.24,41.24,0,0,1-3.36,3.67c-.83.8-1.72,1.57-2.63,2.33a51.29,51.29,0,0,1-7.08,4.87c-.66.39-1.36.76-2.06,1.13a72,72,0,0,1-9.06,4q-3.06,1.11-6.44,2l-.27.08q-15.53,4.14-37.63,4.14-24.84,0-41.68-4.14l-.3-.08q-3.18-.78-6.08-1.71A75.27,75.27,0,0,1,525,838.41c-.74-.37-1.47-.74-2.17-1.13a54.7,54.7,0,0,1-7.37-4.87c-1-.76-1.89-1.53-2.77-2.33a47.41,47.41,0,0,1-3.57-3.67c-.43-.5-.85-1-1.26-1.51s-1-1.34-1.47-2-1.12-1.63-1.66-2.47c-1-1.52-1.88-3.09-2.71-4.74-.21-.41-.39-.84-.59-1.26a63.28,63.28,0,0,1-2.49-5.94.14.14,0,0,1,0-.06c-.69-1.93-1.28-3.93-1.82-6-.1-.38-.22-.75-.32-1.14-.38-1.59-.73-3.21-1-4.86-.08-.43-.17-.84-.25-1.28H549c.12.44.26.86.41,1.28a20.74,20.74,0,0,0,2.39,4.86c.26.39.54.77.83,1.14a20,20,0,0,0,8.08,6l.13.06c.34.14.67.31,1,.44q10,3.72,24.94,3.72,13.68,0,19.91-2.72a13.9,13.9,0,0,0,2.57-1.44l.08-.06A8.09,8.09,0,0,0,612.89,802.41Z"/><path d="M303.78,859.42h51c-.09.82-.18,1.64-.28,2.44-.16,1.2-.34,2.39-.54,3.56s-.46,2.45-.73,3.65c-.17.79-.38,1.57-.58,2.34-.42,1.66-.88,3.29-1.41,4.86-.13.39-.28.76-.42,1.14a62.72,62.72,0,0,1-2.45,6l0,.06a57.74,57.74,0,0,1-3.28,5.94c-.2.31-.37.63-.57.94l-.22.33c-1.09,1.64-2.25,3.21-3.46,4.73-.67.84-1.36,1.67-2.07,2.47q-1.64,1.83-3.41,3.53-2,1.92-4.15,3.67c-1,.81-2,1.58-3.09,2.33a69.35,69.35,0,0,1-7.88,4.87c-.73.39-1.48.76-2.24,1.13-1.25.61-2.52,1.21-3.84,1.77a95.74,95.74,0,0,1-12.41,4.23l-.29.08a129,129,0,0,1-32.94,3.93,134.87,134.87,0,0,1-33.85-3.93l-.29-.08a95,95,0,0,1-12.11-4c-1.49-.62-2.92-1.28-4.33-2-.76-.37-1.51-.74-2.24-1.13a66.19,66.19,0,0,1-7.81-4.87c-1-.75-2-1.52-3-2.33q-2.12-1.76-4-3.67c-1.15-1.13-2.26-2.31-3.31-3.53-.69-.8-1.36-1.63-2-2.47-1.18-1.52-2.31-3.09-3.36-4.73v0c-.26-.41-.51-.82-.76-1.24a56.75,56.75,0,0,1-3.13-5.94l0-.06c-.88-1.92-1.65-3.93-2.36-6-.13-.38-.28-.75-.4-1.14-.51-1.57-.95-3.2-1.36-4.86-.19-.77-.4-1.55-.57-2.34-.25-1.2-.48-2.42-.69-3.65s-.37-2.36-.53-3.56c-.1-.8-.18-1.62-.26-2.44h51.13c.23.83.49,1.65.79,2.44a27.41,27.41,0,0,0,1.62,3.56,24.26,24.26,0,0,0,2.41,3.65,25.15,25.15,0,0,0,2.16,2.34c.44.42.87.85,1.34,1.24a30.54,30.54,0,0,0,5.45,3.62c.79.41,1.61.79,2.45,1.14a48.33,48.33,0,0,0,18.95,3.38q11.34,0,19.49-3.38c.86-.35,1.7-.73,2.51-1.14a31.52,31.52,0,0,0,4.94-3.12,20.41,20.41,0,0,0,2-1.74,21.92,21.92,0,0,0,2.07-2.34,23.82,23.82,0,0,0,2.28-3.65,25.89,25.89,0,0,0,1.51-3.56C303.33,861.08,303.56,860.26,303.78,859.42Z"/><path d="M355.23,778.41c0,.42,0,.84-.05,1.25-.1,1.62-.24,3.19-.41,4.75-.09.82-.18,1.64-.28,2.45-.16,1.2-.34,2.38-.54,3.55s-.46,2.46-.73,3.65c-.17.8-.38,1.57-.58,2.35-.42,1.66-.88,3.28-1.41,4.86-.13.39-.28.76-.42,1.14a63.8,63.8,0,0,1-2.45,6l0,.06a58.81,58.81,0,0,1-3.28,5.94c-.2.31-.37.63-.57.93l-.22.33c-1.09,1.65-2.25,3.22-3.46,4.74-.67.84-1.36,1.66-2.07,2.47-1.09,1.22-2.23,2.39-3.41,3.53s-2.71,2.5-4.15,3.67c-1,.8-2,1.57-3.09,2.33a69.35,69.35,0,0,1-7.88,4.87c-.73.39-1.48.76-2.24,1.13-1.25.61-2.52,1.21-3.84,1.76a92.82,92.82,0,0,1-12.41,4.23l-.29.08a128.51,128.51,0,0,1-32.94,3.94,134.39,134.39,0,0,1-33.85-3.94l-.29-.08a91.93,91.93,0,0,1-12.11-4c-1.49-.61-2.92-1.28-4.33-2-.76-.37-1.51-.74-2.24-1.13a67.53,67.53,0,0,1-7.81-4.87c-1-.76-2-1.53-3-2.33q-2.12-1.76-4-3.67c-1.15-1.14-2.26-2.31-3.31-3.53-.69-.81-1.36-1.63-2-2.47-1.18-1.52-2.31-3.09-3.36-4.74v0c-.26-.4-.51-.82-.76-1.23a57.76,57.76,0,0,1-3.13-5.94l0-.06c-.88-1.93-1.65-3.93-2.36-6-.13-.38-.28-.75-.4-1.14-.51-1.58-.95-3.2-1.36-4.86-.19-.78-.4-1.55-.57-2.35-.25-1.19-.48-2.41-.69-3.65s-.37-2.35-.53-3.55c-.1-.81-.18-1.63-.26-2.45-.17-1.56-.3-3.13-.4-4.75,0-.41,0-.83-.05-1.25H232c.05.42.08.84.13,1.25a36.25,36.25,0,0,0,1,4.75c.23.84.49,1.66.79,2.45a26.69,26.69,0,0,0,1.62,3.55,23.76,23.76,0,0,0,2.41,3.65,25.27,25.27,0,0,0,2.16,2.35c.44.42.87.84,1.34,1.24a30.54,30.54,0,0,0,5.45,3.62c.79.41,1.61.79,2.45,1.14a48.33,48.33,0,0,0,18.95,3.38q11.34,0,19.49-3.38c.86-.35,1.7-.73,2.51-1.14a31.52,31.52,0,0,0,4.94-3.12,20.41,20.41,0,0,0,2-1.74,21.09,21.09,0,0,0,2.07-2.35,22.89,22.89,0,0,0,2.28-3.65,26.29,26.29,0,0,0,1.51-3.55c.28-.79.51-1.61.73-2.45a39.21,39.21,0,0,0,.91-4.75c0-.4.07-.83.11-1.25Z"/><path d="M287.77,1066.41h63c-.73,2.06-1.54,4.07-2.45,6l0,.06a59.92,59.92,0,0,1-3.28,5.94c-.2.31-.37.63-.57.93l-.22.33c-1.09,1.64-2.25,3.22-3.46,4.74q-1,1.26-2.07,2.46c-1.09,1.23-2.23,2.4-3.41,3.54s-2.71,2.5-4.15,3.67c-1,.8-2,1.57-3.09,2.32a69.41,69.41,0,0,1-7.88,4.88c-.73.39-1.48.76-2.24,1.12-1.25.62-2.52,1.21-3.84,1.77a92.82,92.82,0,0,1-12.41,4.23l-.29.08a129,129,0,0,1-32.94,3.94,134.85,134.85,0,0,1-33.85-3.94l-.29-.08a91.93,91.93,0,0,1-12.11-4c-1.49-.61-2.92-1.28-4.33-2-.76-.36-1.51-.73-2.24-1.12a66.26,66.26,0,0,1-7.81-4.88c-1-.75-2-1.52-3-2.32-1.41-1.17-2.76-2.4-4-3.67s-2.26-2.31-3.31-3.54c-.69-.8-1.36-1.62-2-2.46-1.18-1.52-2.31-3.1-3.36-4.74v0c-.26-.4-.51-.82-.76-1.23a57.76,57.76,0,0,1-3.13-5.94l0-.06c-.88-1.93-1.65-3.94-2.36-6h63.54a48.51,48.51,0,0,0,18.95,3.38A51,51,0,0,0,287.77,1066.41Z"/><path d="M297.19,1003.42h55.45c-.42,1.65-.88,3.28-1.41,4.85-.13.39-.28.76-.42,1.15-.73,2.06-1.54,4.07-2.45,6l0,.06a59.92,59.92,0,0,1-3.28,5.94c-.2.3-.37.63-.57.93l-.22.33c-1.09,1.64-2.25,3.22-3.46,4.74-.67.83-1.36,1.66-2.07,2.46-1.09,1.23-2.23,2.4-3.41,3.53s-2.71,2.51-4.15,3.68c-1,.8-2,1.57-3.09,2.32a70.87,70.87,0,0,1-7.88,4.88c-.73.38-1.48.75-2.24,1.12-1.25.62-2.52,1.21-3.84,1.77a94.26,94.26,0,0,1-12.41,4.23l-.29.08a129,129,0,0,1-32.94,3.93,134.87,134.87,0,0,1-33.85-3.93l-.29-.08a93.43,93.43,0,0,1-12.11-4c-1.49-.61-2.92-1.28-4.33-2-.76-.37-1.51-.73-2.24-1.12a66.26,66.26,0,0,1-7.81-4.88c-1-.75-2-1.52-3-2.32q-2.12-1.75-4-3.68c-1.15-1.13-2.26-2.3-3.31-3.53-.69-.8-1.36-1.63-2-2.46-1.18-1.52-2.31-3.1-3.36-4.74v0c-.26-.41-.51-.82-.76-1.23a57.76,57.76,0,0,1-3.13-5.94l0-.06c-.88-1.93-1.65-3.94-2.36-6-.13-.39-.28-.76-.4-1.15-.51-1.57-.95-3.2-1.36-4.85h56.06c.44.42.87.84,1.34,1.23a30.54,30.54,0,0,0,5.45,3.62c.79.41,1.61.79,2.45,1.15a48.51,48.51,0,0,0,18.95,3.38,51,51,0,0,0,19.49-3.38c.86-.36,1.7-.74,2.51-1.15a31.52,31.52,0,0,0,4.94-3.12A21.76,21.76,0,0,0,297.19,1003.42Z"/><path d="M354,934.41c-.22,1.24-.46,2.46-.73,3.65-.17.8-.38,1.57-.58,2.35-.42,1.65-.88,3.28-1.41,4.85-.13.39-.28.76-.42,1.15-.73,2.06-1.54,4.07-2.45,6l0,.06a59.92,59.92,0,0,1-3.28,5.94c-.2.3-.37.63-.57.93l-.22.33c-1.09,1.64-2.25,3.22-3.46,4.74-.67.83-1.36,1.66-2.07,2.46-1.09,1.23-2.23,2.4-3.41,3.53s-2.71,2.51-4.15,3.68c-1,.8-2,1.57-3.09,2.32a70.87,70.87,0,0,1-7.88,4.88c-.73.39-1.48.75-2.24,1.12-1.25.62-2.52,1.21-3.84,1.77a94.26,94.26,0,0,1-12.41,4.23l-.29.08a129,129,0,0,1-32.94,3.93,134.87,134.87,0,0,1-33.85-3.93l-.29-.08a93.43,93.43,0,0,1-12.11-4c-1.49-.61-2.92-1.28-4.33-2-.76-.37-1.51-.73-2.24-1.12a66.26,66.26,0,0,1-7.81-4.88c-1-.75-2-1.52-3-2.32q-2.12-1.76-4-3.68c-1.15-1.13-2.26-2.3-3.31-3.53-.69-.8-1.36-1.63-2-2.46-1.18-1.52-2.31-3.1-3.36-4.74v0c-.26-.41-.51-.82-.76-1.23a57.76,57.76,0,0,1-3.13-5.94l0-.06c-.88-1.93-1.65-3.94-2.36-6-.13-.39-.28-.76-.4-1.15-.51-1.57-.95-3.2-1.36-4.85-.19-.78-.4-1.55-.57-2.35-.25-1.19-.48-2.41-.69-3.65h52.75a23.76,23.76,0,0,0,2.41,3.65,26.6,26.6,0,0,0,2.16,2.35c.44.42.87.84,1.34,1.23a30.54,30.54,0,0,0,5.45,3.62c.79.42,1.61.79,2.45,1.15a48.51,48.51,0,0,0,18.95,3.38,51,51,0,0,0,19.49-3.38c.86-.36,1.7-.73,2.51-1.15a31.52,31.52,0,0,0,4.94-3.12,20.32,20.32,0,0,0,2-1.73,22,22,0,0,0,2.07-2.35,22.89,22.89,0,0,0,2.28-3.65Z"/><path d="M661.59,942.14c0,1.06,0,2.09-.1,3.12,0,.39,0,.77-.08,1.15a46.85,46.85,0,0,1-.85,6,.13.13,0,0,1,0,.06,42.13,42.13,0,0,1-1.69,5.94c-.15.42-.3.84-.47,1.26a42,42,0,0,1-2.27,4.74c-.47.83-1,1.66-1.47,2.46s-.85,1.29-1.3,1.92-.82,1.09-1.25,1.61a41.35,41.35,0,0,1-3.36,3.68c-.83.8-1.72,1.57-2.63,2.32a50.47,50.47,0,0,1-7.08,4.88c-.66.38-1.36.75-2.06,1.12a70.6,70.6,0,0,1-9.06,4q-3.06,1.11-6.44,2l-.27.08q-15.53,4.13-37.63,4.13-24.84,0-41.68-4.13l-.3-.08c-2.12-.53-4.15-1.09-6.08-1.71A75.28,75.28,0,0,1,525,982.4c-.74-.37-1.47-.73-2.17-1.12a53.8,53.8,0,0,1-7.37-4.88c-1-.75-1.89-1.52-2.77-2.32a45.81,45.81,0,0,1-3.57-3.68c-.43-.49-.85-1-1.26-1.51s-1-1.34-1.47-2-1.12-1.63-1.66-2.46c-1-1.52-1.88-3.1-2.71-4.74-.21-.41-.39-.85-.59-1.26-.91-1.91-1.75-3.88-2.49-5.94a.14.14,0,0,1,0-.06c-.69-1.93-1.28-3.94-1.82-6-.1-.39-.22-.76-.32-1.15-.38-1.58-.73-3.2-1-4.85-.08-.43-.17-.85-.25-1.28H549c.12.44.26.86.41,1.28a20.48,20.48,0,0,0,2.39,4.85c.26.4.54.78.83,1.15a20.14,20.14,0,0,0,8.08,6l.13.06c.34.14.67.31,1,.44q10,3.72,24.94,3.72,13.68,0,19.91-2.72a13.9,13.9,0,0,0,2.57-1.44l.08-.06a8.09,8.09,0,0,0,3.54-6c0-.28,0-.56,0-.85,0-.1,0-.2,0-.3a7.26,7.26,0,0,0-1.8-4.85,7.72,7.72,0,0,0-2-1.58,13.07,13.07,0,0,0-1.74-.77,54.37,54.37,0,0,0-12.53-2.45q-5.55-.58-13.66-1.2H661c.18,1.18.32,2.4.41,3.65.06.77.1,1.56.13,2.35C661.58,941,661.59,941.56,661.59,942.14Z"/><polygon points="724.53 880.39 817.63 880.39 817.63 919.41 678.28 919.41 678.28 859.42 817.63 859.42 817.63 861.89 724.53 861.89 724.53 880.39"/><polygon points="724.53 949.39 817.63 949.39 817.63 988.4 678.28 988.4 678.28 934.41 724.53 934.41 724.53 949.39"/><polygon points="724.53 1012.4 817.63 1012.4 817.63 1051.41 678.28 1051.41 678.28 1003.42 724.53 1003.42 724.53 1012.4"/><path d="M191.31,1174.42H345.05c-.2.31-.37.63-.57.93l-.22.33c-1.09,1.65-2.25,3.22-3.46,4.74-.67.84-1.36,1.66-2.07,2.47-1.09,1.22-2.23,2.39-3.41,3.53s-2.71,2.5-4.15,3.67c-1,.8-2,1.57-3.09,2.33a69.35,69.35,0,0,1-7.88,4.87c-.73.39-1.48.76-2.24,1.13-1.25.61-2.52,1.21-3.84,1.76a94.28,94.28,0,0,1-12.41,4.24l-.29.08a129,129,0,0,1-32.94,3.93,134.87,134.87,0,0,1-33.85-3.93l-.29-.08a93.44,93.44,0,0,1-12.11-4c-1.49-.61-2.92-1.27-4.33-2-.76-.37-1.51-.74-2.24-1.13a67.53,67.53,0,0,1-7.81-4.87c-1-.76-2-1.52-3-2.33q-2.12-1.75-4-3.67c-1.15-1.14-2.26-2.31-3.31-3.53-.69-.81-1.36-1.63-2-2.47-1.18-1.52-2.31-3.09-3.36-4.74v0C191.81,1175.25,191.56,1174.83,191.31,1174.42Z"/><path d="M348.36,1123.42l0,.06a59.92,59.92,0,0,1-3.28,5.94c-.2.3-.37.63-.57.93l-.22.33c-1.09,1.64-2.25,3.22-3.46,4.74q-1,1.26-2.07,2.46c-1.09,1.23-2.23,2.4-3.41,3.54s-2.71,2.5-4.15,3.67c-1,.8-2,1.57-3.09,2.32a69.41,69.41,0,0,1-7.88,4.88c-.73.39-1.48.75-2.24,1.12-1.25.62-2.52,1.21-3.84,1.77a94.26,94.26,0,0,1-12.41,4.23l-.29.08a129,129,0,0,1-32.94,3.93,134.87,134.87,0,0,1-33.85-3.93l-.29-.08a93.43,93.43,0,0,1-12.11-4c-1.49-.61-2.92-1.28-4.33-2-.76-.37-1.51-.73-2.24-1.12a66.26,66.26,0,0,1-7.81-4.88c-1-.75-2-1.52-3-2.32-1.41-1.17-2.76-2.4-4-3.67s-2.26-2.31-3.31-3.54c-.69-.8-1.36-1.62-2-2.46-1.18-1.52-2.31-3.1-3.36-4.74v0c-.26-.4-.51-.82-.76-1.23a57.76,57.76,0,0,1-3.13-5.94l0-.06Z"/><rect x="678.28" y="1174.42" width="139.35" height="30"/><polygon points="817.63 1069.39 817.63 1108.4 678.28 1108.4 678.28 1066.41 724.53 1066.41 724.53 1069.39 817.63 1069.39"/><rect x="678.28" y="1123.42" width="139.35" height="35.99"/><path d="M609.35,1123.42h51.21a.13.13,0,0,1,0,.06,42.13,42.13,0,0,1-1.69,5.94c-.15.42-.3.84-.47,1.26a42,42,0,0,1-2.27,4.74c-.47.83-1,1.66-1.47,2.46-.41.65-.85,1.29-1.3,1.92s-.82,1.09-1.25,1.62a42.68,42.68,0,0,1-3.36,3.67c-.83.8-1.72,1.57-2.63,2.32a50.47,50.47,0,0,1-7.08,4.88c-.66.39-1.36.76-2.06,1.12a70.6,70.6,0,0,1-9.06,4q-3.06,1.11-6.44,2l-.27.08q-15.53,4.13-37.63,4.13-24.84,0-41.68-4.13l-.3-.08c-2.12-.53-4.15-1.09-6.08-1.71a75.28,75.28,0,0,1-10.51-4.29c-.74-.36-1.47-.73-2.17-1.12a53.8,53.8,0,0,1-7.37-4.88c-1-.75-1.89-1.52-2.77-2.32a47.41,47.41,0,0,1-3.57-3.67c-.43-.5-.85-1-1.26-1.52s-1-1.34-1.47-2-1.12-1.62-1.66-2.46c-1-1.52-1.88-3.1-2.71-4.74-.21-.41-.39-.85-.59-1.26-.91-1.91-1.75-3.88-2.49-5.94a.14.14,0,0,1,0-.06H560.7l.13.06c.34.14.67.31,1,.44q10,3.72,24.94,3.72,13.68,0,19.91-2.72a13.9,13.9,0,0,0,2.57-1.44Z"/><path d="M501.43,1174.42H658.86c-.15.42-.3.85-.47,1.26a42,42,0,0,1-2.27,4.74c-.47.83-1,1.66-1.47,2.47-.41.65-.85,1.29-1.3,1.92s-.82,1.08-1.25,1.61a41.24,41.24,0,0,1-3.36,3.67c-.83.8-1.72,1.57-2.63,2.33a51.29,51.29,0,0,1-7.08,4.87c-.66.39-1.36.76-2.06,1.13a72,72,0,0,1-9.06,4c-2,.74-4.19,1.41-6.44,2l-.27.08q-15.53,4.13-37.63,4.13-24.84,0-41.68-4.13l-.3-.08q-3.18-.8-6.08-1.72a75.27,75.27,0,0,1-10.51-4.28c-.74-.37-1.47-.74-2.17-1.13a54.7,54.7,0,0,1-7.37-4.87c-1-.76-1.89-1.53-2.77-2.33a47.41,47.41,0,0,1-3.57-3.67c-.43-.5-.85-1-1.26-1.51-.51-.66-1-1.34-1.47-2s-1.12-1.63-1.66-2.47c-1-1.52-1.88-3.09-2.71-4.74C501.81,1175.27,501.63,1174.84,501.43,1174.42Z"/><path d="M661.59,1005.15c0,1.06,0,2.09-.1,3.12,0,.39,0,.77-.08,1.15a46.85,46.85,0,0,1-.85,6,.13.13,0,0,1,0,.06,42.13,42.13,0,0,1-1.69,5.94c-.15.42-.3.84-.47,1.26a42,42,0,0,1-2.27,4.74c-.47.83-1,1.66-1.47,2.46-.41.65-.85,1.29-1.3,1.92s-.82,1.08-1.25,1.61a41.35,41.35,0,0,1-3.36,3.68c-.83.8-1.72,1.57-2.63,2.32a50.47,50.47,0,0,1-7.08,4.88c-.66.38-1.36.75-2.06,1.12a70.6,70.6,0,0,1-9.06,4q-3.06,1.11-6.44,2l-.27.08q-15.53,4.13-37.63,4.13-24.84,0-41.68-4.13l-.3-.08c-2.12-.53-4.15-1.09-6.08-1.71a75.28,75.28,0,0,1-10.51-4.29c-.74-.37-1.47-.73-2.17-1.12a53.8,53.8,0,0,1-7.37-4.88c-1-.75-1.89-1.52-2.77-2.32a45.81,45.81,0,0,1-3.57-3.68c-.43-.49-.85-1-1.26-1.51s-1-1.34-1.47-2-1.12-1.63-1.66-2.46c-1-1.52-1.88-3.1-2.71-4.74-.21-.41-.39-.85-.59-1.26-.91-1.91-1.75-3.88-2.49-5.94a.14.14,0,0,1,0-.06c-.69-1.93-1.28-3.94-1.82-6-.1-.39-.22-.76-.32-1.15-.38-1.58-.73-3.2-1-4.85H549.4a20.48,20.48,0,0,0,2.39,4.85c.26.4.54.78.83,1.15a20.14,20.14,0,0,0,8.08,6l.13.06c.34.14.67.31,1,.44q10,3.72,24.94,3.72,13.68,0,19.91-2.72a13.9,13.9,0,0,0,2.57-1.44l.08-.06a8.09,8.09,0,0,0,3.54-6c0-.28,0-.56,0-.85,0-.1,0-.2,0-.3a7.26,7.26,0,0,0-1.8-4.85h50.44C661.58,1004,661.59,1004.56,661.59,1005.15Z"/><path d="M661.41,1066.41a46.6,46.6,0,0,1-.85,6,.13.13,0,0,1,0,.06,42.13,42.13,0,0,1-1.69,5.94c-.15.42-.3.84-.47,1.26a42,42,0,0,1-2.27,4.74c-.47.83-1,1.66-1.47,2.46s-.85,1.29-1.3,1.92-.82,1.09-1.25,1.62a42.68,42.68,0,0,1-3.36,3.67c-.83.8-1.72,1.57-2.63,2.32a50.47,50.47,0,0,1-7.08,4.88c-.66.39-1.36.76-2.06,1.12a70.6,70.6,0,0,1-9.06,4q-3.06,1.11-6.44,2l-.27.08q-15.53,4.13-37.63,4.13-24.84,0-41.68-4.13l-.3-.08c-2.12-.53-4.15-1.09-6.08-1.71A75.28,75.28,0,0,1,525,1102.4c-.74-.36-1.47-.73-2.17-1.12a53.8,53.8,0,0,1-7.37-4.88c-1-.75-1.89-1.52-2.77-2.32a47.41,47.41,0,0,1-3.57-3.67c-.43-.5-.85-1-1.26-1.52s-1-1.34-1.47-2-1.12-1.62-1.66-2.46c-1-1.52-1.88-3.1-2.71-4.74-.21-.41-.39-.84-.59-1.26a63.28,63.28,0,0,1-2.49-5.94.14.14,0,0,1,0-.06c-.69-1.93-1.28-3.94-1.82-6h55.52a20,20,0,0,0,8.08,6l.13.06c.34.14.67.31,1,.44q10,3.72,24.94,3.72,13.68,0,19.91-2.72a13.9,13.9,0,0,0,2.57-1.44l.08-.06a8.09,8.09,0,0,0,3.54-6Z"/><polygon points="485.64 875.77 485.64 919.4 367.21 919.4 367.21 875.77 403 875.77 403 859.42 449.65 859.42 449.65 875.77 485.64 875.77"/><rect x="367.21" y="1174.42" width="118.43" height="29.99"/><rect x="367.21" y="1123.42" width="118.43" height="35.98"/><rect x="367.21" y="1066.41" width="118.43" height="41.98"/><polygon points="449.65 1007.77 485.64 1007.77 485.64 1051.4 367.21 1051.4 367.21 1007.77 403 1007.77 403 1003.42 449.65 1003.42 449.65 1007.77"/><polygon points="449.65 944.76 485.64 944.76 485.64 988.39 367.21 988.39 367.21 944.76 403 944.76 403 934.41 449.65 934.41 449.65 944.76"/><rect x="0.03" y="934.41" width="46.85" height="53.99"/><rect x="0.03" y="859.42" width="46.85" height="59.99"/><polygon points="46.88 517.42 0.03 517.42 0.03 445.43 47.08 445.43 52.1 451.43 53.07 452.59 57.11 457.43 59.08 459.79 62.11 463.43 65.1 467 67.13 469.43 71.12 474.2 72.14 475.42 77.13 481.4 77.15 481.42 82.16 487.42 83.15 488.61 87.17 493.42 89.17 495.81 92.18 499.42 95.19 503.01 97.2 505.42 101.2 510.22 102.21 511.42 107.22 517.42 58.15 517.42 53.2 511.42 52.21 510.22 48.26 505.42 46.88 503.74 46.88 517.42"/><rect x="0.03" y="691.41" width="46.85" height="71.99"/><rect x="0.03" y="778.41" width="46.85" height="65.99"/><rect x="0.03" y="1123.42" width="46.85" height="35.99"/><polygon points="102.2 430.42 0.03 430.42 0.03 364.43 47.08 364.43 52.09 370.43 53.07 371.59 57.1 376.42 59.08 378.79 62.11 382.42 65.09 386 67.12 388.42 71.12 393.2 72.14 394.42 77.13 400.4 77.14 400.42 82.16 406.42 83.15 407.6 87.17 412.42 89.16 414.81 92.18 418.42 95.19 422.01 97.2 424.42 101.2 429.21 102.2 430.42"/><rect x="0.03" y="1174.42" width="46.85" height="30"/><rect x="0.03" y="1066.41" width="46.85" height="41.99"/><rect x="0.03" y="1003.42" width="46.85" height="47.99"/><polygon points="87.17 205.42 0.03 205.42 0.03 157.43 47.08 157.43 52.1 163.43 53.07 164.59 57.11 169.42 59.08 171.79 62.11 175.42 65.1 179 67.13 181.42 71.12 186.2 72.14 187.42 77.13 193.4 77.15 193.42 82.16 199.42 83.15 200.6 87.17 205.42"/><polygon points="77.15 85.42 0.03 85.42 0.03 49.43 47.08 49.43 52.1 55.43 53.07 56.59 57.11 61.42 59.08 63.79 62.11 67.42 65.1 71 67.13 73.42 71.12 78.2 72.14 79.42 77.13 85.4 77.15 85.42"/><polygon points="82.16 142.42 0.03 142.42 0.03 100.42 47.08 100.42 52.1 106.42 53.07 107.59 57.11 112.42 59.08 114.79 62.11 118.42 65.1 121.99 67.13 124.42 71.12 129.2 72.14 130.42 77.13 136.4 77.15 136.42 82.16 142.42"/><polygon points="92.18 274.43 0.03 274.43 0.03 220.44 47.08 220.44 52.1 226.44 53.07 227.6 57.11 232.43 59.08 234.8 62.11 238.43 65.1 242.01 67.13 244.43 71.12 249.21 72.14 250.43 77.13 256.41 77.15 256.43 82.16 262.43 83.15 263.61 87.17 268.43 89.17 270.82 92.18 274.43"/><polygon points="0.03 349.42 0.03 289.43 47.08 289.43 52.1 295.43 53.07 296.59 57.11 301.43 59.08 303.79 62.11 307.43 65.1 311 67.13 313.42 71.12 318.2 72.14 319.42 77.13 325.4 77.15 325.42 82.16 331.42 83.15 332.61 87.17 337.42 89.17 339.81 92.18 343.42 95.19 347.01 97.2 349.42 0.03 349.42"/><polygon points="72.14 34.42 0.03 34.42 0.03 4.42 47.08 4.42 52.1 10.42 53.07 11.59 57.11 16.42 59.08 18.79 62.11 22.42 65.1 25.99 67.13 28.42 71.12 33.2 72.14 34.42"/><rect x="116.46" y="49.43" width="46.45" height="35.99"/><rect x="116.46" y="157.43" width="46.45" height="47.99"/><rect x="116.45" y="364.43" width="46.45" height="65.99"/><rect x="116.46" y="4.42" width="46.45" height="30"/><rect x="116.46" y="100.42" width="46.45" height="42"/><rect x="116.46" y="289.43" width="46.45" height="59.99"/><rect x="116.46" y="220.44" width="46.45" height="53.99"/><polygon points="162.91 691.41 162.91 763.4 117.47 763.4 112.52 757.41 111.56 756.24 107.58 751.41 105.63 749.04 102.64 745.41 99.69 741.84 97.69 739.41 92.75 733.41 87.82 727.43 87.81 727.41 82.87 721.41 81.89 720.23 77.92 715.41 75.95 713.02 72.98 709.41 68.03 703.41 64.08 698.62 63.09 697.41 58.15 691.41 107.22 691.41 112.23 697.41 113.24 698.62 116.46 702.47 116.46 691.41 162.91 691.41"/><polygon points="63.07 610.4 58.13 604.4 53.18 598.4 52.19 597.19 48.24 592.4 46.85 590.72 46.85 676.39 0 676.39 0 538.41 0.03 538.41 0.03 532.42 47.08 532.42 52.1 538.42 52.08 538.42 53.05 539.57 57.08 544.41 59.06 546.77 62.09 550.41 65.07 553.98 67.1 556.4 71.09 561.18 72.12 562.4 77.11 568.38 77.12 568.4 82.14 574.4 83.13 575.59 87.15 580.4 89.14 582.79 92.16 586.4 95.16 589.99 97.17 592.4 101.18 597.19 102.18 598.4 107.2 604.4 112.21 610.4 113.21 611.6 116.43 615.45 116.43 532.41 162.88 532.41 162.88 676.39 117.44 676.39 112.5 670.39 111.54 669.22 107.56 664.39 105.61 662.02 102.61 658.39 99.67 654.82 97.67 652.39 92.73 646.39 87.8 640.41 87.78 640.39 82.84 634.39 81.87 633.21 77.9 628.39 75.93 626.01 72.95 622.4 68.01 616.4 64.06 611.6 63.07 610.4"/><polygon points="162.91 859.42 162.91 919.41 117.47 919.41 112.52 913.41 111.56 912.24 107.58 907.41 105.63 905.04 102.64 901.41 99.69 897.84 97.69 895.41 92.75 889.41 87.82 883.43 87.81 883.41 82.87 877.41 81.89 876.23 77.92 871.41 75.95 869.03 72.98 865.42 68.03 859.42 162.91 859.42"/><polygon points="72.98 934.41 162.91 934.41 162.91 988.4 117.47 988.4 112.52 982.4 111.56 981.24 107.58 976.4 105.63 974.04 102.64 970.4 99.69 966.83 97.69 964.41 92.75 958.41 87.82 952.43 87.81 952.41 82.87 946.41 81.89 945.22 77.92 940.41 75.95 938.02 72.98 934.41"/><polygon points="162.91 778.41 162.91 844.4 117.47 844.4 112.52 838.41 111.56 837.24 107.58 832.41 105.63 830.04 102.64 826.41 99.69 822.84 97.69 820.41 92.75 814.41 87.82 808.43 87.81 808.41 82.87 802.41 81.89 801.23 77.92 796.41 75.95 794.02 72.98 790.41 68.03 784.41 64.08 779.62 63.09 778.41 162.91 778.41"/><rect x="116.46" y="445.43" width="46.45" height="71.99"/><polygon points="92.75 1174.42 162.91 1174.42 162.91 1204.42 117.47 1204.42 112.52 1198.42 111.56 1197.25 107.58 1192.42 105.63 1190.05 102.64 1186.42 99.69 1182.85 97.69 1180.42 92.75 1174.42"/><polygon points="82.87 1066.41 162.91 1066.41 162.91 1108.4 117.47 1108.4 112.52 1102.4 111.56 1101.24 107.58 1096.4 105.63 1094.04 102.64 1090.41 99.69 1086.83 97.69 1084.41 92.75 1078.41 87.82 1072.43 87.81 1072.41 82.87 1066.41"/><polygon points="162.91 1003.42 162.91 1051.41 117.47 1051.41 112.52 1045.41 111.56 1044.25 107.58 1039.41 105.63 1037.05 102.64 1033.41 99.69 1029.84 97.69 1027.42 92.75 1021.42 87.82 1015.44 87.81 1015.42 82.87 1009.42 81.89 1008.23 77.92 1003.42 162.91 1003.42"/><polygon points="87.81 1123.42 162.91 1123.42 162.91 1159.41 117.47 1159.41 112.52 1153.41 111.56 1152.25 107.58 1147.41 105.63 1145.05 102.64 1141.42 99.69 1137.84 97.69 1135.42 92.75 1129.42 87.82 1123.44 87.81 1123.42"/></g></g></svg>