<svg xmlns="http://www.w3.org/2000/svg" viewBox="0 0 817.63 1118.62"><g id="Layer_2" data-name="Layer 2"><g id="Layer_1-2" data-name="Layer 1"><polygon points="678.26 487.41 817.6 487.41 817.6 525.81 724.51 525.81 724.51 545.12 817.6 545.12 817.6 573.87 724.51 573.87 724.51 592.37 817.6 592.37 817.6 631.39 678.26 631.39 678.26 487.41"/><polygon points="817.63 400.43 817.63 438.83 724.53 438.83 724.53 458.14 817.63 458.14 817.63 472.42 678.28 472.42 678.28 400.43 817.63 400.43"/><polygon points="817.63 175.44 817.63 213.84 724.53 213.84 724.53 229.43 678.28 229.43 678.28 175.44 817.63 175.44"/><path d="M657.47,40.42h-55.9a20.63,20.63,0,0,0-3.32-1.51q-9.06-3.12-23.72-3.12-14.29,0-19.61,3a15,15,0,0,0-2.32,1.61h-51a42,42,0,0,1,1.63-6c.14-.39.28-.79.43-1.18a37.34,37.34,0,0,1,2.3-4.82c.45-.81.92-1.61,1.44-2.38A40.13,40.13,0,0,1,510,22.42a44.52,44.52,0,0,1,3.32-3.59c.85-.82,1.76-1.62,2.7-2.41,1.31-1.09,2.69-2.14,4.17-3.15.83-.56,1.68-1.11,2.57-1.64q1-.62,2.1-1.2a71.65,71.65,0,0,1,14.84-6Q555.07,0,575.93,0q22.65,0,39.19,4.43a80.07,80.07,0,0,1,16,6c.77.39,1.53.79,2.26,1.2l.07,0a52,52,0,0,1,7,4.76c1,.78,1.9,1.57,2.81,2.41q1.83,1.71,3.49,3.59c1,1.16,2,2.36,2.92,3.62.57.77,1.12,1.57,1.66,2.38,1,1.54,2,3.14,2.87,4.82.2.38.39.79.58,1.18C655.75,36.34,656.66,38.33,657.47,40.42Z"/><path d="M660.78,159.07H609.51a18.29,18.29,0,0,0-1.22-3.43c-.19-.42-.4-.82-.63-1.22a15.53,15.53,0,0,0-6-6l0,0a20.63,20.63,0,0,0-3.32-1.51q-9.06-3.12-23.72-3.12-14.29,0-19.61,3a14.35,14.35,0,0,0-2.32,1.61s0,0,0,0a8,8,0,0,0-3,6c0,.08,0,.15,0,.23a7.93,7.93,0,0,0,.08,1,6.4,6.4,0,0,0,1.43,3.43,6.33,6.33,0,0,0,1.64,1.35H500.8c-.05-1-.07-1.95-.07-3,0-.61,0-1.22,0-1.82,0-.41,0-.81.06-1.22a46.1,46.1,0,0,1,.73-6v0a42,42,0,0,1,1.63-6c.14-.39.28-.79.43-1.18a36.72,36.72,0,0,1,2.3-4.82c.45-.81.92-1.61,1.44-2.38a40.13,40.13,0,0,1,2.67-3.62,44.52,44.52,0,0,1,3.32-3.59c.85-.82,1.76-1.62,2.7-2.41,1.31-1.09,2.69-2.14,4.17-3.15.83-.56,1.68-1.11,2.57-1.64q1-.61,2.1-1.2a71.65,71.65,0,0,1,14.84-6Q555.07,108,575.93,108q22.65,0,39.19,4.43a80.07,80.07,0,0,1,16,6c.77.39,1.53.79,2.26,1.2l.07,0a52,52,0,0,1,7,4.76c1,.78,1.9,1.57,2.81,2.41,1.22,1.14,2.38,2.33,3.49,3.59s2,2.36,2.92,3.62c.57.77,1.12,1.57,1.66,2.38,1,1.54,2,3.14,2.87,4.82.2.38.39.79.58,1.18a65.65,65.65,0,0,1,2.69,6v0c.75,1.92,1.42,3.92,2,6,.12.41.26.81.37,1.22C660.21,156.76,660.51,157.9,660.78,159.07Z"/><path d="M549.6,97.42H500.84a45.88,45.88,0,0,1,.73-6v0a42,42,0,0,1,1.63-6c.14-.4.28-.79.43-1.18a36.72,36.72,0,0,1,2.3-4.82c.45-.81.92-1.61,1.44-2.39A41.46,41.46,0,0,1,510,73.42a42.9,42.9,0,0,1,3.32-3.59c.85-.83,1.76-1.63,2.7-2.41,1.31-1.09,2.69-2.14,4.17-3.15.83-.56,1.68-1.11,2.57-1.64.68-.42,1.38-.82,2.1-1.21a72.77,72.77,0,0,1,14.84-6Q555.07,51,575.93,51q22.65,0,39.19,4.42a81.32,81.32,0,0,1,16,6c.77.39,1.53.79,2.26,1.21l.07,0a51.08,51.08,0,0,1,7,4.76c1,.78,1.9,1.57,2.81,2.41a49.33,49.33,0,0,1,3.49,3.59c1,1.15,2,2.36,2.92,3.61.57.78,1.12,1.58,1.66,2.39,1,1.54,2,3.13,2.87,4.82.2.38.39.79.58,1.18a65.65,65.65,0,0,1,2.69,6v0c.75,1.92,1.42,3.92,2,6H607.66a15.53,15.53,0,0,0-6-6l0,0a19.8,19.8,0,0,0-3.32-1.51q-9.06-3.12-23.72-3.12-14.29,0-19.61,3a14.35,14.35,0,0,0-2.32,1.61s0,0,0,0A8,8,0,0,0,549.6,97.42Z"/><rect x="678.28" y="4.43" width="139.35" height="35.99"/><polygon points="678.28 55.42 817.63 55.42 817.63 93.83 724.53 93.83 724.53 97.42 678.28 97.42 678.28 55.42"/><polygon points="678.28 112.43 817.63 112.43 817.63 150.83 724.53 150.83 724.53 160.42 678.28 160.42 678.28 112.43"/><path d="M240.53,160.42H184.86c.49-1.62,1-3.22,1.64-4.78.16-.41.35-.81.51-1.22a62.76,62.76,0,0,1,2.81-6v0c.85-1.58,1.75-3.13,2.74-4.63.3-.47.63-.91.94-1.37s.54-.79.82-1.18c1.19-1.67,2.46-3.27,3.78-4.82.7-.81,1.41-1.61,2.14-2.38q1.77-1.87,3.68-3.62t4.26-3.59c1.08-.83,2.19-1.63,3.32-2.41a78,78,0,0,1,7.93-4.79c.79-.42,1.61-.81,2.42-1.2.53-.26,1-.53,1.57-.78A92.91,92.91,0,0,1,238,112.43a118.11,118.11,0,0,1,30.87-3.83,116.09,116.09,0,0,1,30.58,3.83,91.63,91.63,0,0,1,14.26,5.12c.62.28,1.22.58,1.82.88q1.2.58,2.37,1.2a76,76,0,0,1,7.85,4.79c1.11.78,2.21,1.58,3.26,2.41,1.46,1.15,2.85,2.35,4.2,3.59s2.47,2.37,3.63,3.62c.71.76,1.39,1.58,2.07,2.38,1.31,1.55,2.59,3.14,3.77,4.82l.8,1.18c.27.39.54.77.79,1.17,1,1.56,2,3.18,2.82,4.83,0,0,0,0,0,0a64.87,64.87,0,0,1,2.75,6c.17.41.36.81.51,1.22.59,1.56,1.11,3.16,1.6,4.78H296.24c-.34-.32-.66-.64-1-.94a31.19,31.19,0,0,0-5.82-3.84c-.87-.44-1.78-.84-2.71-1.22a48,48,0,0,0-18.21-3.19,48.76,48.76,0,0,0-18.43,3.19c-.93.38-1.84.78-2.71,1.22a30,30,0,0,0-5.91,3.94C241.12,159.84,240.83,160.14,240.53,160.42Z"/><path d="M347.1,40.42H189.83c.85-1.58,1.75-3.13,2.74-4.63.3-.47.63-.91.94-1.37s.54-.79.82-1.18c1.19-1.67,2.46-3.27,3.78-4.82.7-.81,1.41-1.61,2.14-2.38q1.77-1.87,3.68-3.62t4.26-3.59c1.08-.83,2.19-1.63,3.32-2.41a78,78,0,0,1,7.93-4.79c.79-.42,1.61-.81,2.42-1.2.53-.26,1-.53,1.57-.78A92.91,92.91,0,0,1,238,4.43,118.54,118.54,0,0,1,268.88.61a116.51,116.51,0,0,1,30.58,3.82,91.63,91.63,0,0,1,14.26,5.12c.62.28,1.22.58,1.82.88q1.2.59,2.37,1.2a76,76,0,0,1,7.85,4.79c1.11.78,2.21,1.58,3.26,2.41,1.46,1.15,2.85,2.35,4.2,3.59s2.47,2.37,3.63,3.62c.71.77,1.39,1.58,2.07,2.38,1.31,1.55,2.59,3.14,3.77,4.82l.8,1.18c.27.39.54.77.79,1.17C345.3,37.15,346.23,38.77,347.1,40.42Z"/><path d="M250.05,97.42H187a61.63,61.63,0,0,1,2.81-6v0c.85-1.58,1.75-3.13,2.74-4.63.3-.47.63-.92.94-1.37s.54-.79.82-1.18c1.19-1.67,2.46-3.27,3.78-4.82.7-.81,1.41-1.61,2.14-2.39q1.77-1.87,3.68-3.61c1.37-1.25,2.79-2.44,4.26-3.59,1.08-.83,2.19-1.63,3.32-2.41a76.18,76.18,0,0,1,7.93-4.79c.79-.42,1.61-.81,2.42-1.21.53-.25,1-.53,1.57-.77A92.93,92.93,0,0,1,238,55.42a118.54,118.54,0,0,1,30.87-3.82,116.51,116.51,0,0,1,30.58,3.82,91.66,91.66,0,0,1,14.26,5.13c.62.28,1.22.58,1.82.87.8.4,1.59.8,2.37,1.21a76,76,0,0,1,7.85,4.79c1.11.78,2.21,1.58,3.26,2.41,1.46,1.15,2.85,2.34,4.2,3.59s2.47,2.36,3.63,3.61c.71.77,1.39,1.59,2.07,2.39,1.31,1.55,2.59,3.14,3.77,4.82.27.38.53.79.8,1.18s.54.77.79,1.17c1,1.56,2,3.18,2.82,4.83,0,0,0,0,0,0a63.68,63.68,0,0,1,2.75,6H286.69a48,48,0,0,0-18.21-3.19A48.76,48.76,0,0,0,250.05,97.42Z"/><path d="M353.52,229.43h-52.6a24.74,24.74,0,0,0-2.4-3.57,23.83,23.83,0,0,0-2.28-2.43c-.34-.32-.66-.64-1-.94a31.7,31.7,0,0,0-5.82-3.84c-.87-.44-1.78-.84-2.71-1.22a48,48,0,0,0-18.21-3.19,48.76,48.76,0,0,0-18.43,3.19c-.93.38-1.84.78-2.71,1.22a30.42,30.42,0,0,0-5.91,3.94c-.31.26-.6.56-.9.84a24.72,24.72,0,0,0-2.26,2.43,24.47,24.47,0,0,0-2.4,3.57h-52.6c.26-1.21.55-2.4.86-3.57.22-.83.48-1.63.73-2.43.49-1.62,1-3.22,1.64-4.78.16-.41.35-.81.51-1.22a62.76,62.76,0,0,1,2.81-6v0c.85-1.58,1.75-3.13,2.74-4.63.3-.47.63-.91.94-1.37s.54-.79.82-1.18c1.19-1.67,2.46-3.27,3.78-4.82.7-.81,1.41-1.61,2.14-2.38q1.77-1.87,3.68-3.62t4.26-3.59c1.08-.83,2.19-1.63,3.32-2.41a78,78,0,0,1,7.93-4.79c.79-.42,1.61-.81,2.42-1.2.53-.26,1-.53,1.57-.78A92.91,92.91,0,0,1,238,175.44a118.54,118.54,0,0,1,30.87-3.82,116.51,116.51,0,0,1,30.58,3.82,91.63,91.63,0,0,1,14.26,5.12c.62.28,1.22.58,1.82.88q1.2.59,2.37,1.2a76,76,0,0,1,7.85,4.79c1.11.78,2.21,1.58,3.26,2.41,1.46,1.15,2.85,2.35,4.2,3.59s2.47,2.37,3.63,3.62c.71.77,1.39,1.58,2.07,2.38,1.31,1.55,2.59,3.14,3.77,4.82l.8,1.18c.27.39.54.77.79,1.17,1,1.56,2,3.18,2.82,4.83v0a64.87,64.87,0,0,1,2.75,6c.17.41.36.81.51,1.22.59,1.56,1.11,3.16,1.6,4.78.24.8.49,1.6.71,2.43Q353.15,227.62,353.52,229.43Z"/><polygon points="367.21 112.43 485.64 112.43 485.64 155.45 449.65 155.45 449.65 160.42 403 160.42 403 155.45 367.21 155.45 367.21 112.43"/><polygon points="367.21 175.44 485.64 175.44 485.64 218.46 449.65 218.46 449.65 229.43 403 229.43 403 218.46 367.21 218.46 367.21 175.44"/><rect x="367.21" y="55.42" width="118.43" height="42"/><rect x="367.21" y="4.43" width="118.43" height="35.99"/><path d="M549.6,286.42c0,.08,0,.16,0,.24a7.93,7.93,0,0,0,.08,1,6.44,6.44,0,0,0,1.43,3.43,6.31,6.31,0,0,0,1.64,1.34,17.26,17.26,0,0,0,4.19,1.67c.92.26,2,.51,3.22.76,2.55.52,5.72,1,9.55,1.46q8.44,1,22.31,1.81c1.57.09,3.1.19,4.62.3a182.1,182.1,0,0,1,26.15,3.63c3.15.71,6.09,1.5,8.84,2.37H503c-.26-.77-.51-1.56-.72-2.37-.31-1.17-.57-2.38-.79-3.63s-.36-2.35-.48-3.57c-.08-.8-.13-1.61-.17-2.43-.05-1-.07-1.95-.07-2.95,0-.61,0-1.22,0-1.82,0-.42,0-.82.06-1.23a46.1,46.1,0,0,1,.73-6v0a42,42,0,0,1,1.63-6c.14-.39.28-.79.43-1.18a38,38,0,0,1,2.3-4.82c.45-.8.92-1.6,1.44-2.38a38.63,38.63,0,0,1,2.67-3.61,44.64,44.64,0,0,1,3.32-3.6c.85-.82,1.76-1.62,2.7-2.4,1.31-1.1,2.69-2.15,4.17-3.16.83-.56,1.68-1.11,2.57-1.64q1-.62,2.1-1.2a72.21,72.21,0,0,1,14.84-6Q555.06,240,575.93,240q22.65,0,39.19,4.43a80.69,80.69,0,0,1,16,6c.77.39,1.53.79,2.26,1.2l.07,0a51.14,51.14,0,0,1,7,4.77c1,.77,1.9,1.56,2.81,2.4q1.83,1.71,3.49,3.6,1.53,1.72,2.92,3.61c.57.77,1.12,1.57,1.66,2.38,1,1.54,2,3.14,2.87,4.82.2.38.39.79.58,1.18,1,1.92,1.88,3.91,2.69,6v0c.75,1.92,1.42,3.92,2,6,.12.41.26.81.37,1.23.32,1.12.62,2.26.89,3.43H609.51a18.29,18.29,0,0,0-1.22-3.43,12.93,12.93,0,0,0-.63-1.23,15.53,15.53,0,0,0-6-6l0,0a20.63,20.63,0,0,0-3.32-1.51q-9.06-3.12-23.72-3.12-14.29,0-19.61,3a15,15,0,0,0-2.32,1.61l0,0A8,8,0,0,0,549.6,286.42Z"/><path d="M500.8,223.43c-.05-1-.07-2-.07-3,0-.62,0-1.23,0-1.83,0-.41,0-.81.06-1.22a46.1,46.1,0,0,1,.73-6v0a42,42,0,0,1,1.63-6c.14-.39.28-.79.43-1.18a37.34,37.34,0,0,1,2.3-4.82c.45-.81.92-1.61,1.44-2.38a40.13,40.13,0,0,1,2.67-3.62,44.52,44.52,0,0,1,3.32-3.59c.85-.82,1.76-1.62,2.7-2.41,1.31-1.09,2.69-2.14,4.17-3.15.83-.56,1.68-1.11,2.57-1.64q1-.62,2.1-1.2a71.65,71.65,0,0,1,14.84-6Q555.07,171,575.93,171q22.65,0,39.19,4.43a80.07,80.07,0,0,1,16,6c.77.39,1.53.79,2.26,1.2l.07,0a52,52,0,0,1,7,4.76c1,.78,1.9,1.57,2.81,2.41,1.22,1.14,2.38,2.33,3.49,3.59s2,2.36,2.92,3.62c.57.77,1.12,1.57,1.66,2.38,1,1.54,2,3.14,2.87,4.82.2.38.39.79.58,1.18,1,1.92,1.88,3.91,2.69,6v0c.75,1.92,1.42,3.92,2,6,.12.41.26.81.37,1.22.32,1.13.62,2.27.89,3.44H609.51a18.39,18.39,0,0,0-1.22-3.44c-.19-.42-.4-.82-.63-1.22a15.53,15.53,0,0,0-6-6l0,0a20.63,20.63,0,0,0-3.32-1.51q-9.06-3.12-23.72-3.12-14.29,0-19.61,3a15,15,0,0,0-2.32,1.61l0,0a8,8,0,0,0-3,6c0,.08,0,.15,0,.23a7.93,7.93,0,0,0,.08,1,6,6,0,0,0,3.07,4.78,17.26,17.26,0,0,0,4.19,1.67c.92.26,2,.51,3.22.76,2.55.52,5.72,1,9.55,1.46q8.44,1,22.31,1.81c1.57.09,3.1.19,4.62.3H501.45q-.3-1.74-.48-3.57C500.89,225.06,500.84,224.25,500.8,223.43Z"/><path d="M354.53,304.42H303.4c-.24-.81-.5-1.61-.79-2.37a28.76,28.76,0,0,0-1.69-3.63,25.3,25.3,0,0,0-2.4-3.57,23.83,23.83,0,0,0-2.28-2.43c-.34-.32-.66-.64-1-.94a31.15,31.15,0,0,0-5.82-3.83c-.87-.45-1.78-.85-2.71-1.23a48,48,0,0,0-18.21-3.19,48.76,48.76,0,0,0-18.43,3.19c-.93.38-1.84.78-2.71,1.23a30.38,30.38,0,0,0-5.91,3.93c-.31.26-.6.56-.9.84a25.91,25.91,0,0,0-2.26,2.43,24.47,24.47,0,0,0-2.4,3.57,28.08,28.08,0,0,0-1.7,3.63c-.3.76-.56,1.56-.8,2.37H182.24c.11-.79.21-1.59.34-2.37q.31-1.85.69-3.63c.26-1.21.55-2.4.86-3.57.22-.82.48-1.62.73-2.43.49-1.62,1-3.22,1.64-4.77.16-.42.35-.82.51-1.23a62.76,62.76,0,0,1,2.81-6v0c.85-1.58,1.75-3.12,2.74-4.63.3-.47.63-.91.94-1.37s.54-.79.82-1.18c1.19-1.67,2.46-3.27,3.78-4.82.7-.81,1.41-1.61,2.14-2.38q1.77-1.87,3.68-3.61t4.26-3.6c1.08-.83,2.19-1.63,3.32-2.4a76.25,76.25,0,0,1,7.93-4.8c.79-.42,1.61-.81,2.42-1.2.53-.26,1-.53,1.57-.78A92.91,92.91,0,0,1,238,244.43a118.54,118.54,0,0,1,30.87-3.82,116.51,116.51,0,0,1,30.58,3.82,91.63,91.63,0,0,1,14.26,5.12c.62.28,1.22.58,1.82.88q1.2.58,2.37,1.2a76.09,76.09,0,0,1,7.85,4.8c1.11.77,2.21,1.57,3.26,2.4,1.46,1.15,2.85,2.35,4.2,3.6s2.47,2.36,3.63,3.61c.71.77,1.39,1.58,2.07,2.38,1.31,1.55,2.59,3.14,3.77,4.82l.8,1.18c.27.39.54.77.79,1.17,1,1.57,2,3.18,2.82,4.83v0a64.87,64.87,0,0,1,2.75,6c.17.41.36.81.51,1.23.59,1.55,1.11,3.15,1.6,4.77.24.81.49,1.61.71,2.43q.46,1.75.84,3.57c.25,1.19.48,2.4.68,3.63C354.32,302.83,354.42,303.63,354.53,304.42Z"/><path d="M644.49,384.87c.31.18.58.37.88.55H505.65c-.22-.39-.45-.77-.65-1.17a35.38,35.38,0,0,1-2.05-4.83q-.39-1.16-.72-2.37-.47-1.76-.78-3.63c-.2-1.16-.37-2.35-.49-3.57-.07-.8-.12-1.61-.16-2.43-.05-1-.08-1.95-.08-2.95,0-.62,0-1.23,0-1.83,0-.41,0-.81.07-1.22a47.91,47.91,0,0,1,.72-6v0a42,42,0,0,1,1.63-6c.14-.39.27-.79.43-1.18a38.65,38.65,0,0,1,2.29-4.82c.46-.81.93-1.61,1.45-2.38a38.3,38.3,0,0,1,2.67-3.62,42.77,42.77,0,0,1,3.32-3.59c.85-.82,1.76-1.62,2.7-2.41,1.31-1.09,2.69-2.14,4.17-3.15.83-.56,1.68-1.11,2.56-1.64.69-.41,1.39-.81,2.11-1.2a71.43,71.43,0,0,1,14.84-6Q555.06,315,575.93,315q22.65,0,39.19,4.43a80.31,80.31,0,0,1,16,6c.77.39,1.52.79,2.26,1.2l.07,0a53.29,53.29,0,0,1,7,4.76c1,.78,1.9,1.57,2.8,2.41a49.41,49.41,0,0,1,3.5,3.59c1,1.16,2,2.36,2.92,3.62.57.77,1.11,1.57,1.65,2.38,1,1.54,2,3.14,2.88,4.82.2.38.38.79.58,1.18,1,1.92,1.88,3.91,2.69,6v0c.75,1.92,1.42,3.92,2,6,.13.41.26.81.38,1.22.32,1.13.62,2.27.89,3.44H609.51a18.39,18.39,0,0,0-1.22-3.44c-.19-.42-.41-.82-.63-1.22a15.67,15.67,0,0,0-6-6l0,0a20.36,20.36,0,0,0-3.33-1.51q-9-3.12-23.72-3.12-14.28,0-19.6,3a15,15,0,0,0-2.32,1.61l0,0a8,8,0,0,0-3,6,1.79,1.79,0,0,0,0,.23,7.93,7.93,0,0,0,.08,1,6.47,6.47,0,0,0,1.43,3.44,6.58,6.58,0,0,0,1.65,1.34,17.26,17.26,0,0,0,4.19,1.67c.92.26,2,.51,3.22.76,2.55.52,5.72,1,9.54,1.46q8.46,1,22.32,1.81c1.57.09,3.1.19,4.61.3a181.7,181.7,0,0,1,26.15,3.63c3.15.7,6.1,1.5,8.85,2.37a69.16,69.16,0,0,1,11.71,4.83C643.72,384.46,644.12,384.66,644.49,384.87Z"/><polygon points="678.28 319.43 817.63 319.43 817.63 357.83 724.53 357.83 724.53 377.14 817.63 377.14 817.63 385.42 678.28 385.42 678.28 319.43"/><polygon points="817.63 244.43 817.63 282.83 724.53 282.83 724.53 302.14 817.63 302.14 817.63 304.42 678.28 304.42 678.28 244.43 817.63 244.43"/><path d="M652.77,472.42H510.13a30.76,30.76,0,0,1-4.48-6c-.22-.39-.45-.77-.65-1.16a34.26,34.26,0,0,1-2-4.84c-.26-.77-.51-1.56-.72-2.37-.31-1.17-.57-2.38-.79-3.63s-.36-2.35-.48-3.57c-.08-.8-.13-1.61-.17-2.43s-.07-1.95-.07-2.95c0-.61,0-1.22,0-1.82,0-.41,0-.82.06-1.23a46.1,46.1,0,0,1,.73-6v0a42,42,0,0,1,1.63-6c.14-.39.28-.79.43-1.18a37.21,37.21,0,0,1,2.3-4.81c.45-.81.92-1.61,1.44-2.39a40,40,0,0,1,2.67-3.61,44.64,44.64,0,0,1,3.32-3.6c.85-.82,1.76-1.62,2.7-2.4,1.31-1.09,2.69-2.15,4.17-3.16.83-.56,1.68-1.11,2.57-1.64q1-.61,2.1-1.2a72.21,72.21,0,0,1,14.84-6Q555.06,396,575.92,396q22.67,0,39.2,4.42a80.69,80.69,0,0,1,16,6c.77.39,1.53.79,2.26,1.2l.07,0a51.14,51.14,0,0,1,7,4.77c1,.77,1.9,1.56,2.81,2.4q1.83,1.71,3.49,3.6,1.53,1.72,2.92,3.61c.57.77,1.12,1.57,1.66,2.39q1.51,2.29,2.87,4.81c.2.38.39.79.58,1.18,1,1.92,1.88,3.91,2.69,6v0c.75,1.92,1.42,3.92,2,6,.12.41.26.81.37,1.23.32,1.12.62,2.26.89,3.43H609.51a18.29,18.29,0,0,0-1.22-3.43,12.93,12.93,0,0,0-.63-1.23,15.53,15.53,0,0,0-6-6l0,0a20.63,20.63,0,0,0-3.32-1.51q-9.06-3.12-23.72-3.12-14.29,0-19.61,3a15,15,0,0,0-2.32,1.61l0,0a8,8,0,0,0-3,6c0,.08,0,.16,0,.24a7.93,7.93,0,0,0,.08,1,6.44,6.44,0,0,0,1.43,3.43,6.31,6.31,0,0,0,1.64,1.34,17.26,17.26,0,0,0,4.19,1.67c.92.26,2,.51,3.22.76,2.55.52,5.72,1,9.55,1.46q8.44,1,22.31,1.81c1.57.09,3.1.19,4.62.3a183.53,183.53,0,0,1,26.15,3.63c3.15.71,6.09,1.5,8.84,2.37a68.46,68.46,0,0,1,11.72,4.84c.39.21.79.41,1.16.62s.58.36.87.54A34,34,0,0,1,652.77,472.42Z"/><path d="M661.57,585.13c0,1.06,0,2.09-.1,3.12,0,.38-.06.76-.09,1.14a46.35,46.35,0,0,1-.84,6s0,0,0,.06a45,45,0,0,1-1.69,5.94c-.15.43-.31.85-.47,1.27a43.68,43.68,0,0,1-2.27,4.73c-.47.84-1,1.66-1.47,2.47-.41.65-.85,1.29-1.3,1.92s-.82,1.08-1.25,1.61a39.9,39.9,0,0,1-3.37,3.67c-.83.81-1.71,1.58-2.63,2.33a52.1,52.1,0,0,1-7.07,4.88c-.67.38-1.36.75-2.06,1.12a73.51,73.51,0,0,1-9.06,4q-3.06,1.11-6.44,2l-.28.08q-15.51,4.13-37.62,4.13-24.84,0-41.68-4.13l-.3-.08c-2.12-.53-4.16-1.09-6.08-1.71A77.18,77.18,0,0,1,525,625.39c-.73-.37-1.46-.74-2.17-1.12a54.62,54.62,0,0,1-7.36-4.88c-1-.75-1.89-1.52-2.77-2.33a44.18,44.18,0,0,1-3.58-3.67c-.43-.5-.85-1-1.25-1.51s-1-1.34-1.47-2-1.13-1.63-1.66-2.47c-1-1.52-1.88-3.09-2.72-4.73-.2-.41-.38-.85-.58-1.27-.91-1.9-1.75-3.87-2.5-5.94a.14.14,0,0,0,0-.06c-.68-1.92-1.28-3.93-1.82-6-.1-.38-.21-.75-.31-1.14-.38-1.58-.73-3.2-1-4.86-.08-.42-.18-.84-.25-1.27H549c.13.44.27.86.41,1.27a20.94,20.94,0,0,0,2.39,4.86q.4.59.84,1.14a20,20,0,0,0,8.08,6l.13.06c.34.14.67.31,1,.44q10,3.72,24.94,3.73,13.66,0,19.91-2.73a13.9,13.9,0,0,0,2.57-1.44l.07-.06a8.06,8.06,0,0,0,3.54-6,7.58,7.58,0,0,0,0-.84c0-.1,0-.2,0-.3a7.29,7.29,0,0,0-1.81-4.86,7.68,7.68,0,0,0-2-1.57,13.07,13.07,0,0,0-1.74-.77,54.48,54.48,0,0,0-12.54-2.45q-5.55-.58-13.66-1.2-7.15-.55-16.3-1.11a184.66,184.66,0,0,1-21.2-2.45c-3.84-.69-7.4-1.51-10.72-2.44a71.43,71.43,0,0,1-12.62-4.76c-.8-.4-1.57-.82-2.32-1.24-.51-.29-1-.58-1.5-.88a32.8,32.8,0,0,1-6.34-5.08l0,0a30.36,30.36,0,0,1-4.48-6c-.22-.39-.45-.77-.66-1.17a34.82,34.82,0,0,1-2-4.83q-.39-1.15-.72-2.37-.46-1.75-.78-3.63c-.2-1.16-.37-2.35-.49-3.57-.07-.8-.12-1.61-.16-2.43s-.08-1.95-.08-2.95c0-.61,0-1.22.05-1.82,0-.42,0-.82.07-1.23a46.1,46.1,0,0,1,.72-6v0a42,42,0,0,1,1.63-6c.14-.39.27-.79.42-1.18a39.39,39.39,0,0,1,2.3-4.82c.46-.8.93-1.6,1.45-2.38a38.17,38.17,0,0,1,2.67-3.61,42.88,42.88,0,0,1,3.32-3.6c.85-.82,1.76-1.62,2.69-2.4,1.32-1.1,2.7-2.15,4.18-3.16.83-.56,1.68-1.11,2.56-1.64q1-.62,2.1-1.2a72.3,72.3,0,0,1,14.85-6Q555,483,575.9,483q22.67,0,39.2,4.42a80.93,80.93,0,0,1,16,6c.77.39,1.52.79,2.26,1.2l.07,0a52.39,52.39,0,0,1,7,4.77c1,.77,1.9,1.56,2.8,2.4q1.83,1.71,3.5,3.6c1,1.15,2,2.35,2.91,3.61.58.77,1.12,1.57,1.66,2.38,1,1.54,2,3.14,2.88,4.82.2.38.38.79.58,1.18,1,1.92,1.88,3.91,2.69,6v0c.75,1.92,1.42,3.92,2,6,.13.41.26.81.38,1.23.32,1.12.62,2.26.89,3.43H609.49a18.29,18.29,0,0,0-1.22-3.43c-.2-.43-.41-.83-.63-1.23a15.62,15.62,0,0,0-6.06-6l0,0a20.36,20.36,0,0,0-3.33-1.51q-9-3.12-23.72-3.12-14.28,0-19.6,3a15,15,0,0,0-2.32,1.61l0,0a8,8,0,0,0-3,6,1.94,1.94,0,0,0,0,.24,7.93,7.93,0,0,0,.08,1,6.44,6.44,0,0,0,1.43,3.43,6.37,6.37,0,0,0,1.65,1.34,17.26,17.26,0,0,0,4.19,1.67c.92.26,2,.51,3.22.76,2.55.52,5.72,1,9.54,1.46q8.45,1,22.32,1.81c1.57.09,3.1.19,4.61.3A181.7,181.7,0,0,1,622.75,545q4.72,1.07,8.85,2.37a69.16,69.16,0,0,1,11.71,4.83l1.16.63c.31.17.58.36.88.54a34,34,0,0,1,7.4,6l0,0a30.25,30.25,0,0,1,4.24,6c.23.41.46.82.67,1.24a32.77,32.77,0,0,1,1.89,4.76c.26.8.49,1.61.7,2.44.28,1.15.51,2.34.7,3.56s.32,2.4.41,3.65c.06.77.1,1.55.13,2.34C661.55,584,661.57,584.54,661.57,585.13Z"/><path d="M232.11,385.42H181.64c0-.39,0-.78.07-1.17.13-1.64.32-3.24.53-4.83.11-.79.21-1.59.34-2.37.21-1.23.43-2.44.69-3.63s.54-2.4.86-3.57c.22-.83.48-1.63.72-2.43.5-1.62,1-3.22,1.64-4.78.17-.41.35-.81.52-1.22a65.23,65.23,0,0,1,2.8-6l0,0c.84-1.58,1.75-3.13,2.74-4.63.3-.47.62-.91.94-1.37s.54-.79.82-1.18c1.19-1.67,2.46-3.27,3.78-4.82.7-.81,1.41-1.61,2.14-2.38,1.18-1.25,2.4-2.46,3.68-3.62s2.79-2.44,4.26-3.59c1.07-.83,2.19-1.63,3.32-2.41a76.87,76.87,0,0,1,7.93-4.79c.79-.42,1.61-.81,2.42-1.2.53-.26,1-.53,1.57-.78A92.79,92.79,0,0,1,238,319.43a118.62,118.62,0,0,1,30.88-3.82,116.51,116.51,0,0,1,30.58,3.82,92,92,0,0,1,14.26,5.12c.61.28,1.22.58,1.82.88q1.2.58,2.37,1.2a75.87,75.87,0,0,1,7.84,4.79c1.12.78,2.21,1.58,3.27,2.41q2.18,1.73,4.2,3.59t3.63,3.62c.71.77,1.39,1.58,2.07,2.38,1.31,1.55,2.58,3.14,3.77,4.82l.8,1.18c.26.39.54.77.79,1.17,1,1.56,2,3.18,2.82,4.83v0a64.87,64.87,0,0,1,2.75,6c.17.41.35.81.51,1.22.59,1.56,1.11,3.16,1.6,4.78.24.8.49,1.6.7,2.43.31,1.17.6,2.36.85,3.57s.47,2.4.67,3.63c.13.78.23,1.58.33,2.37.21,1.59.4,3.19.52,4.83,0,.39,0,.78.07,1.17H304.64c-.05-.39-.1-.79-.16-1.17a38.4,38.4,0,0,0-1.08-4.83c-.24-.81-.5-1.61-.79-2.37a27.47,27.47,0,0,0-1.7-3.63,23.34,23.34,0,0,0-4.67-6c-.34-.32-.67-.64-1-.94a31.7,31.7,0,0,0-5.82-3.84c-.87-.44-1.78-.84-2.71-1.22a48,48,0,0,0-18.21-3.19,48.76,48.76,0,0,0-18.43,3.19c-.93.38-1.84.78-2.71,1.22a30.42,30.42,0,0,0-5.91,3.94c-.32.26-.6.56-.9.84a26.11,26.11,0,0,0-2.27,2.43,24.42,24.42,0,0,0-2.39,3.57,28.84,28.84,0,0,0-1.71,3.63c-.29.76-.55,1.56-.79,2.37a36.71,36.71,0,0,0-1.1,4.83C232.21,384.63,232.16,385,232.11,385.42Z"/><path d="M355.34,472.42H305.05a49.47,49.47,0,0,0-.41-6c-.05-.39-.1-.78-.16-1.16a36.88,36.88,0,0,0-1.08-4.84c-.24-.81-.5-1.61-.79-2.37a28.76,28.76,0,0,0-1.69-3.63,25.3,25.3,0,0,0-2.4-3.57,23.83,23.83,0,0,0-2.28-2.43c-.34-.32-.66-.64-1-.94a31.15,31.15,0,0,0-5.82-3.83c-.87-.45-1.78-.85-2.71-1.23a48,48,0,0,0-18.21-3.19,48.76,48.76,0,0,0-18.43,3.19c-.93.38-1.84.78-2.71,1.23a30.38,30.38,0,0,0-5.91,3.93c-.31.27-.6.56-.9.84a25.91,25.91,0,0,0-2.26,2.43,25,25,0,0,0-2.4,3.57,28.08,28.08,0,0,0-1.7,3.63c-.3.76-.56,1.56-.8,2.37a36.86,36.86,0,0,0-1.1,4.84c-.06.38-.11.77-.16,1.16a49.47,49.47,0,0,0-.41,6H181.41c0-2.05.1-4,.23-6,0-.39,0-.78.07-1.16.13-1.65.32-3.25.53-4.84.11-.79.21-1.59.34-2.37q.31-1.85.69-3.63c.26-1.21.55-2.4.86-3.57.22-.82.48-1.62.73-2.43.49-1.62,1-3.22,1.64-4.77.16-.42.35-.82.51-1.23a62.76,62.76,0,0,1,2.81-6v0c.85-1.58,1.75-3.12,2.74-4.63.3-.46.63-.91.94-1.37s.54-.79.82-1.18c1.19-1.67,2.46-3.27,3.78-4.81.7-.82,1.41-1.62,2.14-2.39q1.77-1.87,3.68-3.61t4.26-3.6c1.08-.83,2.19-1.62,3.32-2.4a76.25,76.25,0,0,1,7.93-4.8c.79-.42,1.61-.8,2.42-1.2.53-.26,1-.53,1.57-.78A92.91,92.91,0,0,1,238,400.43a118.52,118.52,0,0,1,30.86-3.82,116.59,116.59,0,0,1,30.59,3.82,91.63,91.63,0,0,1,14.26,5.12l1.82.88q1.2.58,2.37,1.2a76.09,76.09,0,0,1,7.85,4.8c1.11.77,2.21,1.57,3.26,2.4,1.46,1.15,2.85,2.35,4.2,3.6s2.47,2.36,3.63,3.61c.71.77,1.39,1.58,2.07,2.39,1.31,1.54,2.59,3.13,3.77,4.81l.8,1.18c.27.39.54.77.79,1.17,1,1.57,2,3.18,2.82,4.83v0a64.87,64.87,0,0,1,2.75,6c.17.41.36.81.51,1.23.59,1.55,1.11,3.15,1.6,4.77.24.81.49,1.61.71,2.43q.46,1.75.84,3.57c.25,1.19.48,2.4.68,3.63.12.78.22,1.58.33,2.37.21,1.59.39,3.19.52,4.84,0,.38,0,.77.06,1.16C355.24,468.38,355.33,470.37,355.34,472.42Z"/><path d="M355.31,559.4c0-2-.09-4-.22-6,0-.39,0-.78-.07-1.17-.12-1.64-.31-3.24-.52-4.83-.1-.79-.2-1.59-.33-2.37-.2-1.23-.42-2.44-.67-3.63s-.54-2.4-.85-3.57c-.21-.82-.46-1.62-.7-2.43-.49-1.62-1-3.22-1.6-4.77-.16-.42-.34-.82-.51-1.23a64.87,64.87,0,0,0-2.75-6v0q-1.31-2.48-2.82-4.83c-.26-.4-.53-.78-.79-1.17l-.8-1.18c-1.19-1.68-2.46-3.27-3.77-4.82-.68-.8-1.36-1.61-2.08-2.38q-1.74-1.87-3.62-3.61t-4.2-3.6q-1.59-1.24-3.27-2.4a75.94,75.94,0,0,0-7.84-4.8q-1.17-.62-2.37-1.2c-.6-.3-1.21-.6-1.83-.88a91.51,91.51,0,0,0-14.25-5.12,116.51,116.51,0,0,0-30.58-3.82A118.62,118.62,0,0,0,238,487.41a92.79,92.79,0,0,0-14.57,5.22c-.54.25-1,.52-1.57.78-.81.39-1.63.78-2.42,1.2a76.4,76.4,0,0,0-7.94,4.8c-1.13.78-2.24,1.57-3.31,2.4q-2.22,1.72-4.26,3.6T200.23,509c-.74.77-1.44,1.57-2.14,2.38-1.33,1.55-2.59,3.15-3.78,4.82-.28.39-.55.79-.82,1.18s-.64.91-1,1.37q-1.47,2.26-2.74,4.63s0,0,0,0a65.23,65.23,0,0,0-2.8,6c-.17.41-.36.81-.52,1.23-.61,1.55-1.14,3.15-1.64,4.77-.25.81-.5,1.61-.72,2.43-.32,1.17-.6,2.36-.86,3.57s-.49,2.4-.69,3.63c-.13.78-.23,1.58-.34,2.37-.22,1.59-.4,3.19-.53,4.83,0,.39-.05.78-.07,1.17-.13,2-.22,4-.23,6v0c0,.12,0,.24,0,.36v.4c0,1.77.05,3.49.13,5.2,0,.41,0,.83.05,1.24.09,1.62.23,3.2.39,4.76.09.82.17,1.64.27,2.44.16,1.2.33,2.39.53,3.56s.43,2.45.69,3.65c.17.79.37,1.57.57,2.34.41,1.66.85,3.29,1.35,4.86.13.39.28.76.41,1.14.71,2.07,1.48,4.08,2.36,6l0,.06a58.77,58.77,0,0,0,3.14,5.94c.25.42.49.83.75,1.24v0c1.06,1.64,2.19,3.21,3.37,4.73.66.84,1.32,1.67,2,2.47q1.58,1.83,3.3,3.53c1.29,1.28,2.64,2.51,4.06,3.67,1,.81,2,1.58,3,2.33a67.46,67.46,0,0,0,7.8,4.88c.74.39,1.49.75,2.24,1.12,1.41.69,2.84,1.35,4.34,2a95.35,95.35,0,0,0,12.1,4l.29.08a135,135,0,0,0,33.86,3.93,129,129,0,0,0,32.94-3.93l.28-.08a95.38,95.38,0,0,0,12.42-4.23c1.31-.56,2.59-1.16,3.84-1.77.75-.37,1.51-.74,2.24-1.12a70.87,70.87,0,0,0,7.88-4.88c1.05-.75,2.09-1.52,3.08-2.33,1.45-1.16,2.83-2.39,4.16-3.67s2.31-2.31,3.41-3.53c.71-.8,1.39-1.63,2.06-2.47,1.22-1.52,2.38-3.09,3.47-4.73l.22-.33c.2-.31.37-.63.56-.94a56,56,0,0,0,3.29-5.94l0-.06c.91-1.92,1.71-3.93,2.45-6,.14-.38.29-.75.42-1.14.52-1.57,1-3.2,1.41-4.86.2-.77.41-1.55.58-2.34.27-1.2.51-2.42.72-3.65s.39-2.36.54-3.56c.11-.8.19-1.62.28-2.44.17-1.56.32-3.14.41-4.76,0-.41,0-.83.05-1.24.07-1.64.12-3.3.12-5v-.6c0-.12,0-.24,0-.36Zm-50.53,6c0,.41-.07.84-.12,1.24a37.53,37.53,0,0,1-.91,4.76c-.21.84-.45,1.66-.72,2.44a27.18,27.18,0,0,1-1.51,3.56,24.11,24.11,0,0,1-2.28,3.65,23.08,23.08,0,0,1-2.07,2.34,21.68,21.68,0,0,1-2,1.74,31.16,31.16,0,0,1-4.95,3.12c-.8.41-1.64.79-2.5,1.14q-8.16,3.38-19.49,3.38a48.38,48.38,0,0,1-19-3.38c-.84-.35-1.65-.73-2.44-1.14a31,31,0,0,1-5.46-3.62c-.46-.39-.9-.81-1.33-1.24a25.26,25.26,0,0,1-2.17-2.34,25.89,25.89,0,0,1-2.41-3.65,28.82,28.82,0,0,1-1.62-3.56c-.29-.78-.55-1.61-.78-2.44a34.52,34.52,0,0,1-1-4.76c-.06-.4-.08-.83-.13-1.24a45.57,45.57,0,0,1-.31-5.2c0-.26,0-.51,0-.76v0a51.52,51.52,0,0,1,.42-6c0-.39.1-.78.16-1.17a36.71,36.71,0,0,1,1.1-4.83c.24-.81.5-1.61.79-2.37a29.47,29.47,0,0,1,1.7-3.63,25.3,25.3,0,0,1,2.4-3.57,27.43,27.43,0,0,1,2.27-2.43c.3-.28.58-.58.89-.84a30.76,30.76,0,0,1,5.92-3.93c.87-.45,1.78-.85,2.71-1.23a48.73,48.73,0,0,1,18.43-3.19,48,48,0,0,1,18.21,3.19c.93.38,1.84.78,2.7,1.23a30.9,30.9,0,0,1,5.83,3.83c.35.3.68.62,1,.94a23.34,23.34,0,0,1,4.67,6,27.47,27.47,0,0,1,1.7,3.63c.29.76.55,1.56.79,2.37a38.4,38.4,0,0,1,1.08,4.83c.06.39.11.78.16,1.17a53.87,53.87,0,0,1,.41,6v0c0,.25,0,.5,0,.76C305.05,562,304.94,563.74,304.78,565.4Z"/><polygon points="367.21 319.43 485.64 319.43 485.64 362.45 449.65 362.45 449.65 385.42 402.99 385.42 402.99 362.45 367.21 362.45 367.21 319.43"/><polygon points="485.64 244.43 485.64 287.46 449.65 287.46 449.65 304.42 403 304.42 403 287.46 367.21 287.46 367.21 244.43 485.64 244.43"/><polygon points="367.21 400.43 485.64 400.43 485.64 443.46 449.65 443.46 449.65 472.42 403 472.42 403 443.46 367.21 443.46 367.21 400.43"/><path d="M661.59,672.15c0,1.06,0,2.09-.1,3.12,0,.38,0,.76-.08,1.14a46.6,46.6,0,0,1-.85,6,.13.13,0,0,1,0,.06,42.13,42.13,0,0,1-1.69,5.94c-.15.42-.3.85-.47,1.26a42,42,0,0,1-2.27,4.74c-.47.83-1,1.66-1.47,2.47-.41.65-.85,1.29-1.3,1.92s-.82,1.08-1.25,1.61a41.24,41.24,0,0,1-3.36,3.67c-.83.8-1.72,1.57-2.63,2.33a51.29,51.29,0,0,1-7.08,4.87c-.66.39-1.36.76-2.06,1.13a72,72,0,0,1-9.06,4q-3.06,1.11-6.44,2l-.27.08q-15.53,4.14-37.63,4.14-24.84,0-41.68-4.14l-.3-.08q-3.18-.78-6.08-1.71A75.27,75.27,0,0,1,525,712.41c-.74-.37-1.47-.74-2.17-1.13a54.7,54.7,0,0,1-7.37-4.87c-1-.76-1.89-1.53-2.77-2.33a47.41,47.41,0,0,1-3.57-3.67c-.43-.5-.85-1-1.26-1.51s-1-1.34-1.47-2-1.12-1.63-1.66-2.47c-1-1.52-1.88-3.09-2.71-4.74-.21-.41-.39-.84-.59-1.26a63.28,63.28,0,0,1-2.49-5.94.14.14,0,0,1,0-.06c-.69-1.93-1.28-3.93-1.82-6-.1-.38-.22-.75-.32-1.14-.38-1.59-.73-3.21-1-4.86-.08-.43-.17-.84-.25-1.28H549c.12.44.26.86.41,1.28a20.74,20.74,0,0,0,2.39,4.86c.26.39.54.77.83,1.14a20,20,0,0,0,8.08,6l.13.06c.34.14.67.31,1,.44q10,3.72,24.94,3.72,13.68,0,19.91-2.72a13.9,13.9,0,0,0,2.57-1.44l.08-.06a8.09,8.09,0,0,0,3.54-6c0-.28,0-.55,0-.84,0-.1,0-.2,0-.3a7.28,7.28,0,0,0-1.8-4.86,7.94,7.94,0,0,0-2-1.58,13.07,13.07,0,0,0-1.74-.77,54.37,54.37,0,0,0-12.53-2.45q-5.55-.58-13.66-1.2-7.17-.54-16.31-1.11a185,185,0,0,1-21.2-2.44c-3.84-.69-7.4-1.51-10.72-2.45a72.54,72.54,0,0,1-12.62-4.75c-.79-.41-1.56-.82-2.31-1.25-.51-.28-1-.57-1.51-.87a32.47,32.47,0,0,1-6.34-5.09l0,0H652.77l0,0a31,31,0,0,1,4.25,6c.22.42.45.82.66,1.25a33.13,33.13,0,0,1,1.9,4.75c.25.8.49,1.61.69,2.45.28,1.15.51,2.33.7,3.55s.32,2.4.41,3.65c.06.78.1,1.56.13,2.35C661.58,671,661.59,671.56,661.59,672.15Z"/><path d="M355.35,646.81v.6c0,1.71-.05,3.37-.12,5,0,.42,0,.84-.05,1.25-.1,1.62-.24,3.19-.41,4.75-.09.82-.18,1.64-.28,2.45-.16,1.2-.34,2.38-.54,3.55s-.46,2.46-.73,3.65c-.17.8-.38,1.57-.58,2.35-.42,1.66-.88,3.28-1.41,4.86-.13.39-.28.76-.42,1.14a63.8,63.8,0,0,1-2.45,6l0,.06a58.81,58.81,0,0,1-3.28,5.94c-.2.31-.37.63-.57.93l-.22.33c-1.09,1.65-2.25,3.22-3.46,4.74-.67.84-1.36,1.66-2.07,2.47-1.09,1.22-2.23,2.39-3.41,3.53s-2.71,2.5-4.15,3.67c-1,.8-2,1.57-3.09,2.33a69.35,69.35,0,0,1-7.88,4.87c-.73.39-1.48.76-2.24,1.13-1.25.61-2.52,1.21-3.84,1.76a92.82,92.82,0,0,1-12.41,4.23l-.29.08a128.51,128.51,0,0,1-32.94,3.94,134.39,134.39,0,0,1-33.85-3.94l-.29-.08a91.93,91.93,0,0,1-12.11-4c-1.49-.61-2.92-1.28-4.33-2-.76-.37-1.51-.74-2.24-1.13a67.53,67.53,0,0,1-7.81-4.87c-1-.76-2-1.53-3-2.33q-2.12-1.76-4-3.67c-1.15-1.14-2.26-2.31-3.31-3.53-.69-.81-1.36-1.63-2-2.47-1.18-1.52-2.31-3.09-3.36-4.74v0c-.26-.4-.51-.82-.76-1.23a57.76,57.76,0,0,1-3.13-5.94l0-.06c-.88-1.93-1.65-3.93-2.36-6-.13-.38-.28-.75-.4-1.14-.51-1.58-.95-3.2-1.36-4.86-.19-.78-.4-1.55-.57-2.35-.25-1.19-.48-2.41-.69-3.65s-.37-2.35-.53-3.55c-.1-.81-.18-1.63-.26-2.45-.17-1.56-.3-3.13-.4-4.75,0-.41,0-.83-.05-1.25-.08-1.7-.13-3.42-.13-5.19v-.41c0-.12,0-.24,0-.36v0H231.7s0,0,0,0c0,.25,0,.5,0,.77a47.79,47.79,0,0,0,.31,5.19c.05.42.08.84.13,1.25a36.25,36.25,0,0,0,1,4.75c.23.84.49,1.66.79,2.45a26.69,26.69,0,0,0,1.62,3.55,23.76,23.76,0,0,0,2.41,3.65,25.27,25.27,0,0,0,2.16,2.35c.44.42.87.84,1.34,1.24a30.54,30.54,0,0,0,5.45,3.62c.79.41,1.61.79,2.45,1.14a48.33,48.33,0,0,0,18.95,3.38q11.34,0,19.49-3.38c.86-.35,1.7-.73,2.51-1.14a31.52,31.52,0,0,0,4.94-3.12,20.41,20.41,0,0,0,2-1.74,21.09,21.09,0,0,0,2.07-2.35,22.89,22.89,0,0,0,2.28-3.65,26.29,26.29,0,0,0,1.51-3.55c.28-.79.51-1.61.73-2.45a39.21,39.21,0,0,0,.91-4.75c0-.4.07-.83.11-1.25.16-1.66.27-3.38.27-5.19,0-.27,0-.52,0-.77v0h50.29v0C355.34,646.57,355.35,646.69,355.35,646.81Z"/><polygon points="485.62 631.38 367.19 631.38 367.19 587.75 402.97 587.75 402.97 530.44 367.19 530.44 367.19 487.41 485.62 487.41 485.62 530.44 449.63 530.44 449.63 587.75 485.62 587.75 485.62 631.38"/><polygon points="485.64 674.77 485.64 718.39 367.21 718.39 367.21 674.77 403 674.77 403 646.41 449.65 646.41 449.65 674.77 485.64 674.77"/><polygon points="449.65 755.77 485.64 755.77 485.64 799.39 367.21 799.39 367.21 755.77 403 755.77 403 733.41 449.65 733.41 449.65 755.77"/><polygon points="678.28 733.41 817.63 733.41 817.63 741.89 724.53 741.89 724.53 760.39 817.63 760.39 817.63 799.4 678.28 799.4 678.28 733.41"/><polygon points="817.63 646.41 817.63 660.89 724.53 660.89 724.53 679.39 817.63 679.39 817.63 718.4 678.28 718.4 678.28 646.41 817.63 646.41"/><path d="M661.55,826.41c0,.58,0,1.15,0,1.74,0,1.06,0,2.09-.1,3.12,0,.38,0,.76-.08,1.14a46.35,46.35,0,0,1-.85,6,.13.13,0,0,1,0,.06,42.13,42.13,0,0,1-1.69,5.94c-.15.42-.3.85-.47,1.27a41.89,41.89,0,0,1-2.27,4.73c-.47.84-1,1.66-1.47,2.47-.41.65-.85,1.29-1.3,1.92s-.82,1.08-1.25,1.61a41.24,41.24,0,0,1-3.36,3.67c-.83.8-1.72,1.58-2.63,2.33a51.29,51.29,0,0,1-7.08,4.87c-.66.39-1.36.76-2.06,1.13a73.51,73.51,0,0,1-9.06,4q-3.06,1.11-6.44,2l-.27.08q-15.53,4.13-37.63,4.13-24.84,0-41.68-4.13l-.3-.08c-2.12-.53-4.15-1.09-6.08-1.71A76.52,76.52,0,0,1,525,868.41c-.74-.37-1.47-.74-2.17-1.13a54.7,54.7,0,0,1-7.37-4.87c-1-.75-1.89-1.52-2.77-2.33a45.69,45.69,0,0,1-3.57-3.67c-.43-.5-.85-1-1.26-1.51s-1-1.34-1.47-2-1.12-1.63-1.66-2.47c-1-1.52-1.88-3.09-2.71-4.73-.21-.42-.39-.85-.59-1.27a62.18,62.18,0,0,1-2.49-5.94.14.14,0,0,1,0-.06c-.69-1.92-1.28-3.93-1.82-6-.1-.38-.22-.75-.32-1.14-.38-1.58-.73-3.2-1-4.86-.08-.42-.17-.84-.25-1.27H549c.12.44.26.85.41,1.27a20.74,20.74,0,0,0,2.39,4.86c.26.39.54.77.83,1.14a20,20,0,0,0,8.08,6l.13.06c.34.14.67.31,1,.44q10,3.72,24.94,3.72,13.68,0,19.91-2.72a13.9,13.9,0,0,0,2.57-1.44l.08-.06a8.09,8.09,0,0,0,3.54-6c0-.27,0-.55,0-.84,0-.1,0-.2,0-.3a7.28,7.28,0,0,0-1.8-4.86,7.91,7.91,0,0,0-2-1.57,13.07,13.07,0,0,0-1.74-.77,54.37,54.37,0,0,0-12.53-2.45q-5.55-.58-13.66-1.2-7.17-.55-16.31-1.12a185,185,0,0,1-21.2-2.44c-3.84-.69-7.4-1.51-10.72-2.44H659.62c.25.8.49,1.61.69,2.44.28,1.15.51,2.34.7,3.56s.32,2.4.41,3.65C661.48,824.84,661.52,825.62,661.55,826.41Z"/><path d="M612.89,757.41c0-.28,0-.55,0-.84,0-.1,0-.2,0-.3a7.28,7.28,0,0,0-1.8-4.86,7.94,7.94,0,0,0-2-1.58,13.07,13.07,0,0,0-1.74-.77,54.37,54.37,0,0,0-12.53-2.45q-5.55-.58-13.66-1.2-7.17-.54-16.31-1.11a185,185,0,0,1-21.2-2.44c-3.84-.69-7.4-1.51-10.72-2.45a72.54,72.54,0,0,1-12.62-4.75c-.79-.41-1.56-.82-2.31-1.25h139c.22.42.45.82.66,1.25a33.13,33.13,0,0,1,1.9,4.75c.25.8.49,1.61.69,2.45.28,1.15.51,2.33.7,3.55s.32,2.4.41,3.65c.06.78.1,1.56.13,2.35,0,.57,0,1.15,0,1.74,0,1.06,0,2.09-.1,3.12,0,.38,0,.76-.08,1.14a46.6,46.6,0,0,1-.85,6,.13.13,0,0,1,0,.06,42.13,42.13,0,0,1-1.69,5.94c-.15.42-.3.85-.47,1.26a42,42,0,0,1-2.27,4.74c-.47.83-1,1.66-1.47,2.47-.41.65-.85,1.29-1.3,1.92s-.82,1.08-1.25,1.61a41.24,41.24,0,0,1-3.36,3.67c-.83.8-1.72,1.57-2.63,2.33a51.29,51.29,0,0,1-7.08,4.87c-.66.39-1.36.76-2.06,1.13a72,72,0,0,1-9.06,4q-3.06,1.11-6.44,2l-.27.08q-15.53,4.14-37.63,4.14-24.84,0-41.68-4.14l-.3-.08q-3.18-.78-6.08-1.71A75.27,75.27,0,0,1,525,793.41c-.74-.37-1.47-.74-2.17-1.13a54.7,54.7,0,0,1-7.37-4.87c-1-.76-1.89-1.53-2.77-2.33a47.41,47.41,0,0,1-3.57-3.67c-.43-.5-.85-1-1.26-1.51s-1-1.34-1.47-2-1.12-1.63-1.66-2.47c-1-1.52-1.88-3.09-2.71-4.74-.21-.41-.39-.84-.59-1.26a63.28,63.28,0,0,1-2.49-5.94.14.14,0,0,1,0-.06c-.69-1.93-1.28-3.93-1.82-6-.1-.38-.22-.75-.32-1.14-.38-1.59-.73-3.21-1-4.86-.08-.43-.17-.84-.25-1.28H549c.12.44.26.86.41,1.28a20.74,20.74,0,0,0,2.39,4.86c.26.39.54.77.83,1.14a20,20,0,0,0,8.08,6l.13.06c.34.14.67.31,1,.44q10,3.72,24.94,3.72,13.68,0,19.91-2.72a13.9,13.9,0,0,0,2.57-1.44l.08-.06A8.09,8.09,0,0,0,612.89,757.41Z"/><path d="M303.78,814.42h51c-.09.82-.18,1.64-.28,2.44-.16,1.2-.34,2.39-.54,3.56s-.46,2.45-.73,3.65c-.17.79-.38,1.57-.58,2.34-.42,1.66-.88,3.29-1.41,4.86-.13.39-.28.76-.42,1.14a62.72,62.72,0,0,1-2.45,6l0,.06a57.74,57.74,0,0,1-3.28,5.94c-.2.31-.37.63-.57.94l-.22.33c-1.09,1.64-2.25,3.21-3.46,4.73-.67.84-1.36,1.67-2.07,2.47q-1.64,1.83-3.41,3.53-2,1.92-4.15,3.67c-1,.81-2,1.58-3.09,2.33a69.35,69.35,0,0,1-7.88,4.87c-.73.39-1.48.76-2.24,1.13-1.25.61-2.52,1.21-3.84,1.77a95.74,95.74,0,0,1-12.41,4.23l-.29.08a129,129,0,0,1-32.94,3.93,134.87,134.87,0,0,1-33.85-3.93l-.29-.08a95,95,0,0,1-12.11-4c-1.49-.62-2.92-1.28-4.33-2-.76-.37-1.51-.74-2.24-1.13a66.19,66.19,0,0,1-7.81-4.87c-1-.75-2-1.52-3-2.33q-2.12-1.76-4-3.67c-1.15-1.13-2.26-2.31-3.31-3.53-.69-.8-1.36-1.63-2-2.47-1.18-1.52-2.31-3.09-3.36-4.73v0c-.26-.41-.51-.82-.76-1.24a56.75,56.75,0,0,1-3.13-5.94l0-.06c-.88-1.92-1.65-3.93-2.36-6-.13-.38-.28-.75-.4-1.14-.51-1.57-.95-3.2-1.36-4.86-.19-.77-.4-1.55-.57-2.34-.25-1.2-.48-2.42-.69-3.65s-.37-2.36-.53-3.56c-.1-.8-.18-1.62-.26-2.44h51.13c.23.83.49,1.65.79,2.44a27.41,27.41,0,0,0,1.62,3.56,24.26,24.26,0,0,0,2.41,3.65,25.15,25.15,0,0,0,2.16,2.34c.44.42.87.85,1.34,1.24a30.54,30.54,0,0,0,5.45,3.62c.79.41,1.61.79,2.45,1.14a48.33,48.33,0,0,0,18.95,3.38q11.34,0,19.49-3.38c.86-.35,1.7-.73,2.51-1.14a31.52,31.52,0,0,0,4.94-3.12,20.41,20.41,0,0,0,2-1.74,21.92,21.92,0,0,0,2.07-2.34,23.82,23.82,0,0,0,2.28-3.65,25.89,25.89,0,0,0,1.51-3.56C303.33,816.08,303.56,815.26,303.78,814.42Z"/><path d="M355.23,733.41c0,.42,0,.84-.05,1.25-.1,1.62-.24,3.19-.41,4.75-.09.82-.18,1.64-.28,2.45-.16,1.2-.34,2.38-.54,3.55s-.46,2.46-.73,3.65c-.17.8-.38,1.57-.58,2.35-.42,1.66-.88,3.28-1.41,4.86-.13.39-.28.76-.42,1.14a63.8,63.8,0,0,1-2.45,6l0,.06a58.81,58.81,0,0,1-3.28,5.94c-.2.31-.37.63-.57.93l-.22.33c-1.09,1.65-2.25,3.22-3.46,4.74-.67.84-1.36,1.66-2.07,2.47-1.09,1.22-2.23,2.39-3.41,3.53s-2.71,2.5-4.15,3.67c-1,.8-2,1.57-3.09,2.33a69.35,69.35,0,0,1-7.88,4.87c-.73.39-1.48.76-2.24,1.13-1.25.61-2.52,1.21-3.84,1.76a92.82,92.82,0,0,1-12.41,4.23l-.29.08a128.51,128.51,0,0,1-32.94,3.94,134.39,134.39,0,0,1-33.85-3.94l-.29-.08a91.93,91.93,0,0,1-12.11-4c-1.49-.61-2.92-1.28-4.33-2-.76-.37-1.51-.74-2.24-1.13a67.53,67.53,0,0,1-7.81-4.87c-1-.76-2-1.53-3-2.33q-2.12-1.76-4-3.67c-1.15-1.14-2.26-2.31-3.31-3.53-.69-.81-1.36-1.63-2-2.47-1.18-1.52-2.31-3.09-3.36-4.74v0c-.26-.4-.51-.82-.76-1.23a57.76,57.76,0,0,1-3.13-5.94l0-.06c-.88-1.93-1.65-3.93-2.36-6-.13-.38-.28-.75-.4-1.14-.51-1.58-.95-3.2-1.36-4.86-.19-.78-.4-1.55-.57-2.35-.25-1.19-.48-2.41-.69-3.65s-.37-2.35-.53-3.55c-.1-.81-.18-1.63-.26-2.45-.17-1.56-.3-3.13-.4-4.75,0-.41,0-.83-.05-1.25H232c.05.42.08.84.13,1.25a36.25,36.25,0,0,0,1,4.75c.23.84.49,1.66.79,2.45a26.69,26.69,0,0,0,1.62,3.55,23.76,23.76,0,0,0,2.41,3.65,25.27,25.27,0,0,0,2.16,2.35c.44.42.87.84,1.34,1.24a30.54,30.54,0,0,0,5.45,3.62c.79.41,1.61.79,2.45,1.14a48.33,48.33,0,0,0,18.95,3.38q11.34,0,19.49-3.38c.86-.35,1.7-.73,2.51-1.14a31.52,31.52,0,0,0,4.94-3.12,20.41,20.41,0,0,0,2-1.74,21.09,21.09,0,0,0,2.07-2.35,22.89,22.89,0,0,0,2.28-3.65,26.29,26.29,0,0,0,1.51-3.55c.28-.79.51-1.61.73-2.45a39.21,39.21,0,0,0,.91-4.75c0-.4.07-.83.11-1.25Z"/><path d="M287.77,1021.41h63c-.73,2.06-1.54,4.07-2.45,6l0,.06a59.92,59.92,0,0,1-3.28,5.94c-.2.31-.37.63-.57.93l-.22.33c-1.09,1.64-2.25,3.22-3.46,4.74q-1,1.26-2.07,2.46c-1.09,1.23-2.23,2.4-3.41,3.54s-2.71,2.5-4.15,3.67c-1,.8-2,1.57-3.09,2.32a69.41,69.41,0,0,1-7.88,4.88c-.73.39-1.48.76-2.24,1.12-1.25.62-2.52,1.21-3.84,1.77a92.82,92.82,0,0,1-12.41,4.23l-.29.08a129,129,0,0,1-32.94,3.94,134.85,134.85,0,0,1-33.85-3.94l-.29-.08a91.93,91.93,0,0,1-12.11-4c-1.49-.61-2.92-1.28-4.33-2-.76-.36-1.51-.73-2.24-1.12a66.26,66.26,0,0,1-7.81-4.88c-1-.75-2-1.52-3-2.32-1.41-1.17-2.76-2.4-4-3.67s-2.26-2.31-3.31-3.54c-.69-.8-1.36-1.62-2-2.46-1.18-1.52-2.31-3.1-3.36-4.74v0c-.26-.4-.51-.82-.76-1.23a57.76,57.76,0,0,1-3.13-5.94l0-.06c-.88-1.93-1.65-3.94-2.36-6h63.54a48.51,48.51,0,0,0,18.95,3.38A51,51,0,0,0,287.77,1021.41Z"/><path d="M297.19,958.42h55.45c-.42,1.65-.88,3.28-1.41,4.85-.13.39-.28.76-.42,1.15-.73,2.06-1.54,4.07-2.45,6l0,.06a59.92,59.92,0,0,1-3.28,5.94c-.2.3-.37.63-.57.93l-.22.33c-1.09,1.64-2.25,3.22-3.46,4.74-.67.83-1.36,1.66-2.07,2.46-1.09,1.23-2.23,2.4-3.41,3.53q-2,1.92-4.15,3.68c-1,.8-2,1.57-3.09,2.32a70.87,70.87,0,0,1-7.88,4.88c-.73.38-1.48.75-2.24,1.12-1.25.62-2.52,1.21-3.84,1.77a94.26,94.26,0,0,1-12.41,4.23l-.29.08a129,129,0,0,1-32.94,3.93,134.87,134.87,0,0,1-33.85-3.93l-.29-.08a93.43,93.43,0,0,1-12.11-4c-1.49-.61-2.92-1.28-4.33-2-.76-.37-1.51-.73-2.24-1.12a66.26,66.26,0,0,1-7.81-4.88c-1-.75-2-1.52-3-2.32q-2.12-1.76-4-3.68c-1.15-1.13-2.26-2.3-3.31-3.53-.69-.8-1.36-1.63-2-2.46-1.18-1.52-2.31-3.1-3.36-4.74v0c-.26-.41-.51-.82-.76-1.23a57.76,57.76,0,0,1-3.13-5.94l0-.06c-.88-1.93-1.65-3.94-2.36-6-.13-.39-.28-.76-.4-1.15-.51-1.57-.95-3.2-1.36-4.85h56.06c.44.42.87.84,1.34,1.23a30.54,30.54,0,0,0,5.45,3.62c.79.41,1.61.79,2.45,1.15a48.51,48.51,0,0,0,18.95,3.38,51,51,0,0,0,19.49-3.38c.86-.36,1.7-.74,2.51-1.15a31.52,31.52,0,0,0,4.94-3.12A21.76,21.76,0,0,0,297.19,958.42Z"/><path d="M354,889.41c-.22,1.24-.46,2.46-.73,3.65-.17.8-.38,1.57-.58,2.35-.42,1.65-.88,3.28-1.41,4.85-.13.39-.28.76-.42,1.15-.73,2.06-1.54,4.07-2.45,6l0,.06a59.92,59.92,0,0,1-3.28,5.94c-.2.3-.37.63-.57.93l-.22.33c-1.09,1.64-2.25,3.22-3.46,4.74-.67.83-1.36,1.66-2.07,2.46-1.09,1.23-2.23,2.4-3.41,3.53s-2.71,2.51-4.15,3.68c-1,.8-2,1.57-3.09,2.32a70.87,70.87,0,0,1-7.88,4.88c-.73.39-1.48.75-2.24,1.12-1.25.62-2.52,1.21-3.84,1.77a94.26,94.26,0,0,1-12.41,4.23l-.29.08a129,129,0,0,1-32.94,3.93,134.87,134.87,0,0,1-33.85-3.93l-.29-.08a93.43,93.43,0,0,1-12.11-4c-1.49-.61-2.92-1.28-4.33-2-.76-.37-1.51-.73-2.24-1.12a66.26,66.26,0,0,1-7.81-4.88c-1-.75-2-1.52-3-2.32q-2.12-1.76-4-3.68c-1.15-1.13-2.26-2.3-3.31-3.53-.69-.8-1.36-1.63-2-2.46-1.18-1.52-2.31-3.1-3.36-4.74v0c-.26-.41-.51-.82-.76-1.23a57.76,57.76,0,0,1-3.13-5.94l0-.06c-.88-1.93-1.65-3.94-2.36-6-.13-.39-.28-.76-.4-1.15-.51-1.57-.95-3.2-1.36-4.85-.19-.78-.4-1.55-.57-2.35-.25-1.19-.48-2.41-.69-3.65h52.75a23.76,23.76,0,0,0,2.41,3.65,26.6,26.6,0,0,0,2.16,2.35c.44.42.87.84,1.34,1.23a30.54,30.54,0,0,0,5.45,3.62c.79.42,1.61.79,2.45,1.15a48.51,48.51,0,0,0,18.95,3.38,51,51,0,0,0,19.49-3.38c.86-.36,1.7-.73,2.51-1.15a31.52,31.52,0,0,0,4.94-3.12,20.32,20.32,0,0,0,2-1.73,22,22,0,0,0,2.07-2.35,22.89,22.89,0,0,0,2.28-3.65Z"/><path d="M661.59,897.14c0,1.06,0,2.09-.1,3.12,0,.39,0,.77-.08,1.15a46.85,46.85,0,0,1-.85,6,.13.13,0,0,1,0,.06,42.13,42.13,0,0,1-1.69,5.94c-.15.42-.3.84-.47,1.26a42,42,0,0,1-2.27,4.74c-.47.83-1,1.66-1.47,2.46s-.85,1.29-1.3,1.92-.82,1.09-1.25,1.61a41.35,41.35,0,0,1-3.36,3.68c-.83.8-1.72,1.57-2.63,2.32a50.47,50.47,0,0,1-7.08,4.88c-.66.38-1.36.75-2.06,1.12a70.6,70.6,0,0,1-9.06,4q-3.06,1.11-6.44,2l-.27.08q-15.53,4.13-37.63,4.13-24.84,0-41.68-4.13l-.3-.08c-2.12-.53-4.15-1.09-6.08-1.71A75.28,75.28,0,0,1,525,937.4c-.74-.37-1.47-.73-2.17-1.12a53.8,53.8,0,0,1-7.37-4.88c-1-.75-1.89-1.52-2.77-2.32a45.81,45.81,0,0,1-3.57-3.68c-.43-.49-.85-1-1.26-1.51s-1-1.34-1.47-2-1.12-1.63-1.66-2.46c-1-1.52-1.88-3.1-2.71-4.74-.21-.41-.39-.85-.59-1.26-.91-1.91-1.75-3.88-2.49-5.94a.14.14,0,0,1,0-.06c-.69-1.93-1.28-3.94-1.82-6-.1-.39-.22-.76-.32-1.15-.38-1.58-.73-3.2-1-4.85-.08-.43-.17-.85-.25-1.28H549c.12.44.26.86.41,1.28a20.48,20.48,0,0,0,2.39,4.85c.26.4.54.78.83,1.15a20.14,20.14,0,0,0,8.08,6l.13.06c.34.14.67.31,1,.44q10,3.72,24.94,3.72,13.68,0,19.91-2.72a13.9,13.9,0,0,0,2.57-1.44l.08-.06a8.09,8.09,0,0,0,3.54-6c0-.28,0-.56,0-.85,0-.1,0-.2,0-.3a7.26,7.26,0,0,0-1.8-4.85,7.72,7.72,0,0,0-2-1.58,13.07,13.07,0,0,0-1.74-.77,54.37,54.37,0,0,0-12.53-2.45q-5.55-.58-13.66-1.2H661c.18,1.18.32,2.4.41,3.65.06.77.1,1.56.13,2.35C661.58,896,661.59,896.56,661.59,897.14Z"/><polygon points="724.53 835.39 817.63 835.39 817.63 874.41 678.28 874.41 678.28 814.42 817.63 814.42 817.63 816.89 724.53 816.89 724.53 835.39"/><polygon points="724.53 904.39 817.63 904.39 817.63 943.4 678.28 943.4 678.28 889.41 724.53 889.41 724.53 904.39"/><polygon points="724.53 967.4 817.63 967.4 817.63 1006.41 678.28 1006.41 678.28 958.42 724.53 958.42 724.53 967.4"/><path d="M348.36,1078.42l0,.06a59.92,59.92,0,0,1-3.28,5.94c-.2.3-.37.63-.57.93l-.22.33c-1.09,1.64-2.25,3.22-3.46,4.74q-1,1.26-2.07,2.46c-1.09,1.23-2.23,2.4-3.41,3.54s-2.71,2.5-4.15,3.67c-1,.8-2,1.57-3.09,2.32a69.41,69.41,0,0,1-7.88,4.88c-.73.39-1.48.75-2.24,1.12-1.25.62-2.52,1.21-3.84,1.77a94.26,94.26,0,0,1-12.41,4.23l-.29.08a129,129,0,0,1-32.94,3.93,134.87,134.87,0,0,1-33.85-3.93l-.29-.08a93.43,93.43,0,0,1-12.11-4c-1.49-.61-2.92-1.28-4.33-2-.76-.37-1.51-.73-2.24-1.12a66.26,66.26,0,0,1-7.81-4.88c-1-.75-2-1.52-3-2.32-1.41-1.17-2.76-2.4-4-3.67s-2.26-2.31-3.31-3.54c-.69-.8-1.36-1.62-2-2.46-1.18-1.52-2.31-3.1-3.36-4.74v0c-.26-.4-.51-.82-.76-1.23a57.76,57.76,0,0,1-3.13-5.94l0-.06Z"/><polygon points="817.63 1024.39 817.63 1063.4 678.28 1063.4 678.28 1021.41 724.53 1021.41 724.53 1024.39 817.63 1024.39"/><rect x="678.28" y="1078.42" width="139.35" height="35.99"/><path d="M609.35,1078.42h51.21a.13.13,0,0,1,0,.06,42.13,42.13,0,0,1-1.69,5.94c-.15.42-.3.84-.47,1.26a42,42,0,0,1-2.27,4.74c-.47.83-1,1.66-1.47,2.46-.41.65-.85,1.29-1.3,1.92s-.82,1.09-1.25,1.62a42.68,42.68,0,0,1-3.36,3.67c-.83.8-1.72,1.57-2.63,2.32a50.47,50.47,0,0,1-7.08,4.88c-.66.39-1.36.76-2.06,1.12a70.6,70.6,0,0,1-9.06,4q-3.06,1.11-6.44,2l-.27.08q-15.53,4.13-37.63,4.13-24.84,0-41.68-4.13l-.3-.08c-2.12-.53-4.15-1.09-6.08-1.71a75.28,75.28,0,0,1-10.51-4.29c-.74-.36-1.47-.73-2.17-1.12a53.8,53.8,0,0,1-7.37-4.88c-1-.75-1.89-1.52-2.77-2.32a47.41,47.41,0,0,1-3.57-3.67c-.43-.5-.85-1-1.26-1.52s-1-1.34-1.47-2-1.12-1.62-1.66-2.46c-1-1.52-1.88-3.1-2.71-4.74-.21-.41-.39-.85-.59-1.26-.91-1.91-1.75-3.88-2.49-5.94a.14.14,0,0,1,0-.06H560.7l.13.06c.34.14.67.31,1,.44q10,3.72,24.94,3.72,13.68,0,19.91-2.72a13.9,13.9,0,0,0,2.57-1.44Z"/><path d="M661.59,960.15c0,1.06,0,2.09-.1,3.12,0,.39,0,.77-.08,1.15a46.85,46.85,0,0,1-.85,6,.13.13,0,0,1,0,.06,42.13,42.13,0,0,1-1.69,5.94c-.15.42-.3.84-.47,1.26a42,42,0,0,1-2.27,4.74c-.47.83-1,1.66-1.47,2.46s-.85,1.29-1.3,1.92-.82,1.08-1.25,1.61a41.35,41.35,0,0,1-3.36,3.68c-.83.8-1.72,1.57-2.63,2.32a50.47,50.47,0,0,1-7.08,4.88c-.66.38-1.36.75-2.06,1.12a70.6,70.6,0,0,1-9.06,4q-3.06,1.11-6.44,2l-.27.08q-15.53,4.13-37.63,4.13-24.84,0-41.68-4.13l-.3-.08c-2.12-.53-4.15-1.09-6.08-1.71a75.28,75.28,0,0,1-10.51-4.29c-.74-.37-1.47-.73-2.17-1.12a53.8,53.8,0,0,1-7.37-4.88c-1-.75-1.89-1.52-2.77-2.32a45.81,45.81,0,0,1-3.57-3.68c-.43-.49-.85-1-1.26-1.51s-1-1.34-1.47-2-1.12-1.63-1.66-2.46c-1-1.52-1.88-3.1-2.71-4.74-.21-.41-.39-.85-.59-1.26-.91-1.91-1.75-3.88-2.49-5.94a.14.14,0,0,1,0-.06c-.69-1.93-1.28-3.94-1.82-6-.1-.39-.22-.76-.32-1.15-.38-1.58-.73-3.2-1-4.85H549.4a20.48,20.48,0,0,0,2.39,4.85c.26.4.54.78.83,1.15a20.14,20.14,0,0,0,8.08,6l.13.06c.34.14.67.31,1,.44q10,3.72,24.94,3.72,13.68,0,19.91-2.72a13.9,13.9,0,0,0,2.57-1.44l.08-.06a8.09,8.09,0,0,0,3.54-6c0-.28,0-.56,0-.85,0-.1,0-.2,0-.3a7.26,7.26,0,0,0-1.8-4.85h50.44C661.58,959,661.59,959.56,661.59,960.15Z"/><path d="M661.41,1021.41a46.6,46.6,0,0,1-.85,6,.13.13,0,0,1,0,.06,42.13,42.13,0,0,1-1.69,5.94c-.15.42-.3.84-.47,1.26a42,42,0,0,1-2.27,4.74c-.47.83-1,1.66-1.47,2.46s-.85,1.29-1.3,1.92-.82,1.09-1.25,1.62a42.68,42.68,0,0,1-3.36,3.67c-.83.8-1.72,1.57-2.63,2.32a50.47,50.47,0,0,1-7.08,4.88c-.66.39-1.36.76-2.06,1.12a70.6,70.6,0,0,1-9.06,4q-3.06,1.11-6.44,2l-.27.08q-15.53,4.13-37.63,4.13-24.84,0-41.68-4.13l-.3-.08c-2.12-.53-4.15-1.09-6.08-1.71A75.28,75.28,0,0,1,525,1057.4c-.74-.36-1.47-.73-2.17-1.12a53.8,53.8,0,0,1-7.37-4.88c-1-.75-1.89-1.52-2.77-2.32a47.41,47.41,0,0,1-3.57-3.67c-.43-.5-.85-1-1.26-1.52s-1-1.34-1.47-2-1.12-1.62-1.66-2.46c-1-1.52-1.88-3.1-2.71-4.74-.21-.41-.39-.84-.59-1.26a63.28,63.28,0,0,1-2.49-5.94.14.14,0,0,1,0-.06c-.69-1.93-1.28-3.94-1.82-6h55.52a20,20,0,0,0,8.08,6l.13.06c.34.14.67.31,1,.44q10,3.72,24.94,3.72,13.68,0,19.91-2.72a13.9,13.9,0,0,0,2.57-1.44l.08-.06a8.09,8.09,0,0,0,3.54-6Z"/><polygon points="485.64 830.77 485.64 874.4 367.21 874.4 367.21 830.77 403 830.77 403 814.42 449.65 814.42 449.65 830.77 485.64 830.77"/><rect x="367.21" y="1078.42" width="118.43" height="35.98"/><rect x="367.21" y="1021.41" width="118.43" height="41.98"/><polygon points="449.65 962.77 485.64 962.77 485.64 1006.4 367.21 1006.4 367.21 962.77 403 962.77 403 958.42 449.65 958.42 449.65 962.77"/><polygon points="449.65 899.76 485.64 899.76 485.64 943.39 367.21 943.39 367.21 899.76 403 899.76 403 889.41 449.65 889.41 449.65 899.76"/><rect x="0.03" y="889.41" width="46.85" height="53.99"/><rect x="0.03" y="814.42" width="46.85" height="59.99"/><polygon points="46.88 472.42 0.03 472.42 0.03 400.43 47.08 400.43 52.1 406.43 53.07 407.59 57.11 412.43 59.08 414.79 62.11 418.43 65.1 422 67.13 424.43 71.12 429.2 72.14 430.42 77.13 436.4 77.15 436.42 82.16 442.42 83.15 443.61 87.17 448.42 89.17 450.81 92.18 454.42 95.19 458.01 97.2 460.42 101.2 465.22 102.21 466.42 107.22 472.42 58.15 472.42 53.2 466.42 52.21 465.22 48.26 460.42 46.88 458.74 46.88 472.42"/><rect x="0.03" y="646.41" width="46.85" height="71.99"/><rect x="0.03" y="733.41" width="46.85" height="65.99"/><rect x="0.03" y="1078.42" width="46.85" height="35.99"/><polygon points="102.2 385.42 0.03 385.42 0.03 319.43 47.08 319.43 52.09 325.43 53.07 326.59 57.1 331.42 59.08 333.79 62.11 337.42 65.09 341 67.12 343.42 71.12 348.2 72.14 349.42 77.13 355.4 77.14 355.42 82.16 361.42 83.15 362.6 87.17 367.42 89.16 369.81 92.18 373.42 95.19 377.01 97.2 379.42 101.2 384.21 102.2 385.42"/><rect x="0.03" y="1021.41" width="46.85" height="41.99"/><rect x="0.03" y="958.42" width="46.85" height="47.99"/><polygon points="87.17 160.42 0.03 160.42 0.03 112.43 47.08 112.43 52.1 118.43 53.07 119.59 57.11 124.42 59.08 126.79 62.11 130.42 65.1 134 67.13 136.42 71.12 141.2 72.14 142.42 77.13 148.4 77.15 148.42 82.16 154.42 83.15 155.6 87.17 160.42"/><polygon points="77.15 40.42 0.03 40.42 0.03 4.43 47.08 4.43 52.1 10.43 53.07 11.59 57.11 16.42 59.08 18.79 62.11 22.42 65.1 26 67.13 28.42 71.12 33.2 72.14 34.42 77.13 40.4 77.15 40.42"/><polygon points="82.16 97.42 0.03 97.42 0.03 55.42 47.08 55.42 52.1 61.42 53.07 62.59 57.11 67.42 59.08 69.79 62.11 73.42 65.1 76.99 67.13 79.42 71.12 84.2 72.14 85.42 77.13 91.4 77.15 91.42 82.16 97.42"/><polygon points="92.18 229.43 0.03 229.43 0.03 175.44 47.08 175.44 52.1 181.44 53.07 182.6 57.11 187.43 59.08 189.8 62.11 193.43 65.1 197.01 67.13 199.43 71.12 204.21 72.14 205.43 77.13 211.41 77.15 211.43 82.16 217.43 83.15 218.61 87.17 223.43 89.17 225.82 92.18 229.43"/><polygon points="0.03 304.42 0.03 244.43 47.08 244.43 52.1 250.43 53.07 251.59 57.11 256.43 59.08 258.79 62.11 262.43 65.1 266 67.13 268.42 71.12 273.2 72.14 274.42 77.13 280.4 77.15 280.42 82.16 286.42 83.15 287.61 87.17 292.42 89.17 294.81 92.18 298.42 95.19 302.01 97.2 304.42 0.03 304.42"/><rect x="116.46" y="4.43" width="46.45" height="35.99"/><rect x="116.46" y="112.43" width="46.45" height="47.99"/><rect x="116.45" y="319.43" width="46.45" height="65.99"/><rect x="116.46" y="55.42" width="46.45" height="42"/><rect x="116.46" y="244.43" width="46.45" height="59.99"/><rect x="116.46" y="175.44" width="46.45" height="53.99"/><polygon points="162.91 646.41 162.91 718.4 117.47 718.4 112.52 712.41 111.56 711.24 107.58 706.41 105.63 704.04 102.64 700.41 99.69 696.84 97.69 694.41 92.75 688.41 87.82 682.43 87.81 682.41 82.87 676.41 81.89 675.23 77.92 670.41 75.95 668.02 72.98 664.41 68.03 658.41 64.08 653.62 63.09 652.41 58.15 646.41 107.22 646.41 112.23 652.41 113.24 653.62 116.46 657.47 116.46 646.41 162.91 646.41"/><polygon points="63.07 565.4 58.13 559.4 53.18 553.4 52.19 552.19 48.24 547.4 46.85 545.72 46.85 631.39 0 631.39 0 493.41 0.03 493.41 0.03 487.42 47.08 487.42 52.1 493.42 52.08 493.42 53.05 494.57 57.08 499.41 59.06 501.77 62.09 505.41 65.07 508.98 67.1 511.4 71.09 516.18 72.12 517.4 77.11 523.38 77.12 523.4 82.14 529.4 83.13 530.59 87.15 535.4 89.14 537.79 92.16 541.4 95.16 544.99 97.17 547.4 101.18 552.19 102.18 553.4 107.2 559.4 112.21 565.4 113.21 566.6 116.43 570.45 116.43 487.41 162.88 487.41 162.88 631.39 117.44 631.39 112.5 625.39 111.54 624.22 107.56 619.39 105.61 617.02 102.61 613.39 99.67 609.82 97.67 607.39 92.73 601.39 87.8 595.41 87.78 595.39 82.84 589.39 81.87 588.21 77.9 583.39 75.93 581.01 72.95 577.4 68.01 571.4 64.06 566.6 63.07 565.4"/><polygon points="162.91 814.42 162.91 874.41 117.47 874.41 112.52 868.41 111.56 867.24 107.58 862.41 105.63 860.04 102.64 856.41 99.69 852.84 97.69 850.41 92.75 844.41 87.82 838.43 87.81 838.41 82.87 832.41 81.89 831.23 77.92 826.41 75.95 824.03 72.98 820.42 68.03 814.42 162.91 814.42"/><polygon points="72.98 889.41 162.91 889.41 162.91 943.4 117.47 943.4 112.52 937.4 111.56 936.24 107.58 931.4 105.63 929.04 102.64 925.4 99.69 921.83 97.69 919.41 92.75 913.41 87.82 907.43 87.81 907.41 82.87 901.41 81.89 900.22 77.92 895.41 75.95 893.02 72.98 889.41"/><polygon points="162.91 733.41 162.91 799.4 117.47 799.4 112.52 793.41 111.56 792.24 107.58 787.41 105.63 785.04 102.64 781.41 99.69 777.84 97.69 775.41 92.75 769.41 87.82 763.43 87.81 763.41 82.87 757.41 81.89 756.23 77.92 751.41 75.95 749.02 72.98 745.41 68.03 739.41 64.08 734.62 63.09 733.41 162.91 733.41"/><rect x="116.46" y="400.43" width="46.45" height="71.99"/><polygon points="82.87 1021.41 162.91 1021.41 162.91 1063.4 117.47 1063.4 112.52 1057.4 111.56 1056.24 107.58 1051.4 105.63 1049.04 102.64 1045.41 99.69 1041.83 97.69 1039.41 92.75 1033.41 87.82 1027.43 87.81 1027.41 82.87 1021.41"/><polygon points="162.91 958.42 162.91 1006.41 117.47 1006.41 112.52 1000.41 111.56 999.25 107.58 994.41 105.63 992.05 102.64 988.41 99.69 984.84 97.69 982.42 92.75 976.42 87.82 970.44 87.81 970.42 82.87 964.42 81.89 963.23 77.92 958.42 162.91 958.42"/><polygon points="87.81 1078.42 162.91 1078.42 162.91 1114.41 117.47 1114.41 112.52 1108.41 111.56 1107.25 107.58 1102.41 105.63 1100.05 102.64 1096.42 99.69 1092.84 97.69 1090.42 92.75 1084.42 87.82 1078.44 87.81 1078.42"/></g></g></svg>