<svg xmlns="http://www.w3.org/2000/svg" viewBox="0 0 817.63 1448.61"><g id="Layer_2" data-name="Layer 2"><g id="Layer_1-2" data-name="Layer 1"><polygon points="678.26 652.4 817.6 652.4 817.6 690.8 724.51 690.8 724.51 710.11 817.6 710.11 817.6 738.86 724.51 738.86 724.51 757.36 817.6 757.36 817.6 796.38 678.26 796.38 678.26 652.4"/><polygon points="817.63 565.42 817.63 603.82 724.53 603.82 724.53 623.13 817.63 623.13 817.63 637.41 678.28 637.41 678.28 565.42 817.63 565.42"/><polygon points="817.63 340.43 817.63 378.83 724.53 378.83 724.53 394.42 678.28 394.42 678.28 340.43 817.63 340.43"/><rect x="367.21" y="85.41" width="118.43" height="24"/><rect x="367.21" y="52.41" width="118.43" height="18"/><rect x="367.21" y="25.42" width="118.43" height="12"/><rect x="367.21" y="4.42" width="118.43" height="6"/><path d="M315.54,10.42H221.86c.53-.26,1-.53,1.57-.78A92.91,92.91,0,0,1,238,4.42,118.54,118.54,0,0,1,268.88.6a116.51,116.51,0,0,1,30.58,3.82,91.63,91.63,0,0,1,14.26,5.12Z"/><path d="M325.76,37.42H211.51a78,78,0,0,1,7.93-4.8c.79-.42,1.61-.8,2.42-1.2.53-.26,1-.53,1.57-.78A92.91,92.91,0,0,1,238,25.42a118.54,118.54,0,0,1,30.87-3.82,116.51,116.51,0,0,1,30.58,3.82,91.63,91.63,0,0,1,14.26,5.12l1.82.88q1.2.58,2.37,1.2A77.88,77.88,0,0,1,325.76,37.42Z"/><path d="M338.92,109.41H198.11c.7-.81,1.41-1.61,2.14-2.39q1.77-1.87,3.68-3.61c1.37-1.25,2.79-2.44,4.26-3.59,1.08-.83,2.19-1.63,3.32-2.41a76.18,76.18,0,0,1,7.93-4.79c.79-.42,1.61-.81,2.42-1.21.53-.25,1-.53,1.57-.77A92.93,92.93,0,0,1,238,85.41a118.54,118.54,0,0,1,30.87-3.82,116.51,116.51,0,0,1,30.58,3.82,92.69,92.69,0,0,1,14.26,5.13c.62.28,1.22.58,1.82.87.8.4,1.59.8,2.37,1.21a76,76,0,0,1,7.85,4.79c1.11.78,2.21,1.58,3.26,2.41,1.46,1.15,2.85,2.34,4.2,3.59s2.47,2.36,3.63,3.61C337.56,107.79,338.24,108.61,338.92,109.41Z"/><path d="M343.49,154.41h-150c.27-.39.54-.79.82-1.18,1.19-1.67,2.46-3.27,3.78-4.82.7-.81,1.41-1.61,2.14-2.39,1.18-1.24,2.41-2.45,3.68-3.61s2.79-2.44,4.26-3.59c1.08-.83,2.19-1.63,3.32-2.41a78,78,0,0,1,7.93-4.79c.79-.42,1.61-.81,2.42-1.21.53-.25,1-.53,1.57-.77A94,94,0,0,1,238,124.41a118.54,118.54,0,0,1,30.87-3.82,116.51,116.51,0,0,1,30.58,3.82,92.69,92.69,0,0,1,14.26,5.13c.62.28,1.22.58,1.82.87.8.4,1.59.8,2.37,1.21a76,76,0,0,1,7.85,4.79c1.11.78,2.21,1.58,3.26,2.41,1.46,1.15,2.85,2.35,4.2,3.59s2.47,2.37,3.63,3.61c.71.77,1.39,1.59,2.07,2.39,1.31,1.55,2.59,3.14,3.77,4.82Z"/><path d="M333.22,70.41H203.93q2.06-1.87,4.26-3.59c1.08-.84,2.19-1.63,3.32-2.41a78,78,0,0,1,7.93-4.8c.79-.42,1.61-.8,2.42-1.2.53-.26,1-.53,1.57-.78A92.91,92.91,0,0,1,238,52.41a118.54,118.54,0,0,1,30.87-3.82,116.51,116.51,0,0,1,30.58,3.82,91.63,91.63,0,0,1,14.26,5.12l1.82.88q1.2.59,2.37,1.2a77.88,77.88,0,0,1,7.85,4.8c1.11.78,2.21,1.57,3.26,2.41C330.48,68,331.87,69.16,333.22,70.41Z"/><path d="M631.11,10.42H524.9a72.21,72.21,0,0,1,14.84-6Q555.07,0,575.93,0q22.65,0,39.19,4.42A80.69,80.69,0,0,1,631.11,10.42Z"/><path d="M646.75,70.41H510a42.9,42.9,0,0,1,3.32-3.59c.85-.83,1.76-1.63,2.7-2.41,1.31-1.09,2.69-2.15,4.17-3.16.83-.56,1.68-1.11,2.57-1.64q1-.61,2.1-1.2a72.77,72.77,0,0,1,14.84-6Q555.07,48,575.93,48q22.65,0,39.19,4.42a81.32,81.32,0,0,1,16,6c.77.39,1.53.79,2.26,1.2l.07,0a51.14,51.14,0,0,1,7,4.77c1,.77,1.9,1.57,2.81,2.41A49.33,49.33,0,0,1,646.75,70.41Z"/><path d="M651.33,109.41H505.93c.45-.81.92-1.61,1.44-2.39a41.46,41.46,0,0,1,2.67-3.61,42.9,42.9,0,0,1,3.32-3.59c.85-.83,1.76-1.63,2.7-2.41,1.31-1.09,2.69-2.14,4.17-3.15.83-.56,1.68-1.11,2.57-1.64.68-.42,1.38-.82,2.1-1.21a72.77,72.77,0,0,1,14.84-6Q555.07,81,575.93,81q22.65,0,39.19,4.42a81.32,81.32,0,0,1,16,6c.77.39,1.53.79,2.26,1.21l.07,0a51.08,51.08,0,0,1,7,4.76c1,.78,1.9,1.57,2.81,2.41a49.33,49.33,0,0,1,3.49,3.59c1,1.15,2,2.36,2.92,3.61C650.24,107.8,650.79,108.6,651.33,109.41Z"/><path d="M657.47,205.41h-55.9a20.63,20.63,0,0,0-3.32-1.51q-9.06-3.12-23.72-3.12-14.29,0-19.61,3a15,15,0,0,0-2.32,1.61h-51a42,42,0,0,1,1.63-6c.14-.39.28-.79.43-1.18a37.34,37.34,0,0,1,2.3-4.82c.45-.81.92-1.61,1.44-2.38a40.13,40.13,0,0,1,2.67-3.62,44.52,44.52,0,0,1,3.32-3.59c.85-.82,1.76-1.62,2.7-2.41,1.31-1.09,2.69-2.14,4.17-3.15.83-.56,1.68-1.11,2.57-1.64q1-.62,2.1-1.2a71.65,71.65,0,0,1,14.84-6Q555.07,165,575.93,165q22.65,0,39.19,4.43a80.07,80.07,0,0,1,16,6c.77.39,1.53.79,2.26,1.2l.07,0a52,52,0,0,1,7,4.76c1,.78,1.9,1.57,2.81,2.41q1.83,1.71,3.49,3.59c1,1.16,2,2.36,2.92,3.62.57.77,1.12,1.57,1.66,2.38,1,1.54,2,3.14,2.87,4.82.2.38.39.79.58,1.18C655.75,201.33,656.66,203.32,657.47,205.41Z"/><path d="M640.45,37.42H516.06c1.31-1.09,2.69-2.15,4.17-3.15.83-.56,1.68-1.12,2.57-1.65q1-.61,2.1-1.2a72.77,72.77,0,0,1,14.84-6Q555.07,21,575.93,21q22.65,0,39.19,4.42a81.32,81.32,0,0,1,16,6c.77.39,1.53.79,2.26,1.2l.07,0A52.05,52.05,0,0,1,640.45,37.42Z"/><path d="M654.78,154.41H503.2c.14-.4.28-.79.43-1.18a36.72,36.72,0,0,1,2.3-4.82c.45-.81.92-1.61,1.44-2.39a41.46,41.46,0,0,1,2.67-3.61,44.52,44.52,0,0,1,3.32-3.59c.85-.83,1.76-1.62,2.7-2.41,1.31-1.09,2.69-2.14,4.17-3.15.83-.56,1.68-1.11,2.57-1.64.68-.42,1.38-.81,2.1-1.21a72.77,72.77,0,0,1,14.84-6Q555.07,120,575.93,120q22.65,0,39.19,4.42a81.32,81.32,0,0,1,16,6c.77.4,1.53.79,2.26,1.21l.07,0a51.08,51.08,0,0,1,7,4.76c1,.78,1.9,1.57,2.81,2.41a49.33,49.33,0,0,1,3.49,3.59c1,1.15,2,2.36,2.92,3.61.57.78,1.12,1.58,1.66,2.39,1,1.54,2,3.14,2.87,4.82C654.4,153.61,654.59,154,654.78,154.41Z"/><path d="M660.78,324.06H609.51a18.29,18.29,0,0,0-1.22-3.43c-.19-.42-.4-.82-.63-1.22a15.53,15.53,0,0,0-6-6l0,0a20.63,20.63,0,0,0-3.32-1.51q-9.06-3.12-23.72-3.12-14.29,0-19.61,3a14.35,14.35,0,0,0-2.32,1.61l0,0a8,8,0,0,0-3,6c0,.08,0,.15,0,.23a7.93,7.93,0,0,0,.08,1,6.4,6.4,0,0,0,1.43,3.43,6.33,6.33,0,0,0,1.64,1.35H500.8c-.05-1-.07-2-.07-3,0-.61,0-1.22,0-1.82,0-.41,0-.81.06-1.22a46.1,46.1,0,0,1,.73-6v0a42,42,0,0,1,1.63-6c.14-.39.28-.79.43-1.18a36.72,36.72,0,0,1,2.3-4.82c.45-.81.92-1.61,1.44-2.38a40.13,40.13,0,0,1,2.67-3.62,44.52,44.52,0,0,1,3.32-3.59c.85-.82,1.76-1.62,2.7-2.41,1.31-1.09,2.69-2.14,4.17-3.15.83-.56,1.68-1.11,2.57-1.64q1-.62,2.1-1.2a71.65,71.65,0,0,1,14.84-6Q555.07,273,575.93,273q22.65,0,39.19,4.43a80.07,80.07,0,0,1,16,6c.77.39,1.53.79,2.26,1.2l.07,0a52,52,0,0,1,7,4.76c1,.78,1.9,1.57,2.81,2.41,1.22,1.14,2.38,2.33,3.49,3.59s2,2.36,2.92,3.62c.57.77,1.12,1.57,1.66,2.38,1,1.54,2,3.14,2.87,4.82.2.38.39.79.58,1.18a65.65,65.65,0,0,1,2.69,6v0c.75,1.92,1.42,3.92,2,6,.12.41.26.81.37,1.22C660.21,321.75,660.51,322.89,660.78,324.06Z"/><path d="M549.6,262.41H500.84a45.88,45.88,0,0,1,.73-6v0a42,42,0,0,1,1.63-6c.14-.4.28-.79.43-1.18a36.72,36.72,0,0,1,2.3-4.82c.45-.81.92-1.61,1.44-2.39a41.46,41.46,0,0,1,2.67-3.61,42.9,42.9,0,0,1,3.32-3.59c.85-.83,1.76-1.63,2.7-2.41,1.31-1.09,2.69-2.14,4.17-3.15.83-.56,1.68-1.11,2.57-1.64.68-.42,1.38-.82,2.1-1.21a72.77,72.77,0,0,1,14.84-6Q555.07,216,575.93,216q22.65,0,39.19,4.42a81.32,81.32,0,0,1,16,6c.77.39,1.53.79,2.26,1.21l.07,0a51.08,51.08,0,0,1,7,4.76c1,.78,1.9,1.57,2.81,2.41a49.33,49.33,0,0,1,3.49,3.59c1,1.15,2,2.36,2.92,3.61.57.78,1.12,1.58,1.66,2.39,1,1.54,2,3.13,2.87,4.82.2.38.39.79.58,1.18a65.65,65.65,0,0,1,2.69,6v0c.75,1.92,1.42,3.92,2,6H607.66a15.53,15.53,0,0,0-6-6l0,0a19.8,19.8,0,0,0-3.32-1.51q-9.06-3.12-23.72-3.12-14.29,0-19.61,3a14.35,14.35,0,0,0-2.32,1.61l0,0A8,8,0,0,0,549.6,262.41Z"/><rect x="678.28" y="169.42" width="139.35" height="35.99"/><polygon points="678.28 220.41 817.63 220.41 817.63 258.82 724.53 258.82 724.53 262.41 678.28 262.41 678.28 220.41"/><polygon points="678.28 277.42 817.63 277.42 817.63 315.82 724.53 315.82 724.53 325.41 678.28 325.41 678.28 277.42"/><rect x="678.28" y="52.41" width="139.35" height="18"/><rect x="678.28" y="85.41" width="139.35" height="24"/><rect x="678.28" y="25.42" width="139.35" height="12"/><rect x="678.28" y="124.42" width="139.35" height="29.99"/><rect x="678.28" y="4.42" width="139.35" height="6"/><path d="M240.53,325.41H184.86c.49-1.62,1-3.22,1.64-4.78.16-.41.35-.81.51-1.22a62.76,62.76,0,0,1,2.81-6v0c.85-1.58,1.75-3.13,2.74-4.63.3-.47.63-.91.94-1.37s.54-.79.82-1.18c1.19-1.67,2.46-3.27,3.78-4.82.7-.81,1.41-1.61,2.14-2.38q1.77-1.87,3.68-3.62t4.26-3.59c1.08-.83,2.19-1.63,3.32-2.41a78,78,0,0,1,7.93-4.79c.79-.42,1.61-.81,2.42-1.2.53-.26,1-.53,1.57-.78A92.91,92.91,0,0,1,238,277.42a118.11,118.11,0,0,1,30.87-3.83,116.09,116.09,0,0,1,30.58,3.83,91.63,91.63,0,0,1,14.26,5.12c.62.28,1.22.58,1.82.88q1.2.58,2.37,1.2a76,76,0,0,1,7.85,4.79c1.11.78,2.21,1.58,3.26,2.41,1.46,1.15,2.85,2.35,4.2,3.59s2.47,2.37,3.63,3.62c.71.76,1.39,1.58,2.07,2.38,1.31,1.55,2.59,3.14,3.77,4.82l.8,1.18c.27.39.54.77.79,1.17,1,1.56,2,3.18,2.82,4.83v0a64.87,64.87,0,0,1,2.75,6c.17.41.36.81.51,1.22.59,1.56,1.11,3.16,1.6,4.78H296.24c-.34-.32-.66-.64-1-.94a31.19,31.19,0,0,0-5.82-3.84c-.87-.44-1.78-.84-2.71-1.22a48,48,0,0,0-18.21-3.19,48.76,48.76,0,0,0-18.43,3.19c-.93.38-1.84.78-2.71,1.22a30,30,0,0,0-5.91,3.94C241.12,324.83,240.83,325.13,240.53,325.41Z"/><path d="M347.1,205.41H189.83c.85-1.58,1.75-3.13,2.74-4.63.3-.47.63-.91.94-1.37s.54-.79.82-1.18c1.19-1.67,2.46-3.27,3.78-4.82.7-.81,1.41-1.61,2.14-2.38q1.77-1.87,3.68-3.62t4.26-3.59c1.08-.83,2.19-1.63,3.32-2.41a78,78,0,0,1,7.93-4.79c.79-.42,1.61-.81,2.42-1.2.53-.26,1-.53,1.57-.78A92.91,92.91,0,0,1,238,169.42a118.54,118.54,0,0,1,30.87-3.82,116.51,116.51,0,0,1,30.58,3.82,91.63,91.63,0,0,1,14.26,5.12c.62.28,1.22.58,1.82.88q1.2.59,2.37,1.2a76,76,0,0,1,7.85,4.79c1.11.78,2.21,1.58,3.26,2.41,1.46,1.15,2.85,2.35,4.2,3.59s2.47,2.37,3.63,3.62c.71.77,1.39,1.58,2.07,2.38,1.31,1.55,2.59,3.14,3.77,4.82l.8,1.18c.27.39.54.77.79,1.17C345.3,202.14,346.23,203.76,347.1,205.41Z"/><path d="M250.05,262.41H187a61.63,61.63,0,0,1,2.81-6v0c.85-1.58,1.75-3.13,2.74-4.63.3-.47.63-.92.94-1.37s.54-.79.82-1.18c1.19-1.67,2.46-3.27,3.78-4.82.7-.81,1.41-1.61,2.14-2.39q1.77-1.87,3.68-3.61c1.37-1.25,2.79-2.44,4.26-3.59,1.08-.83,2.19-1.63,3.32-2.41a76.18,76.18,0,0,1,7.93-4.79c.79-.42,1.61-.81,2.42-1.21.53-.25,1-.53,1.57-.77A92.93,92.93,0,0,1,238,220.41a118.54,118.54,0,0,1,30.87-3.82,116.51,116.51,0,0,1,30.58,3.82,91.66,91.66,0,0,1,14.26,5.13c.62.28,1.22.58,1.82.87.8.4,1.59.8,2.37,1.21a76,76,0,0,1,7.85,4.79c1.11.78,2.21,1.58,3.26,2.41,1.46,1.15,2.85,2.34,4.2,3.59s2.47,2.36,3.63,3.61c.71.77,1.39,1.59,2.07,2.39,1.31,1.55,2.59,3.14,3.77,4.82.27.38.53.79.8,1.18s.54.77.79,1.17c1,1.56,2,3.18,2.82,4.83v0a63.68,63.68,0,0,1,2.75,6H286.69a48,48,0,0,0-18.21-3.19A48.76,48.76,0,0,0,250.05,262.41Z"/><path d="M353.52,394.42h-52.6a24.74,24.74,0,0,0-2.4-3.57,23.83,23.83,0,0,0-2.28-2.43c-.34-.32-.66-.64-1-.94a31.7,31.7,0,0,0-5.82-3.84c-.87-.44-1.78-.84-2.71-1.22a48,48,0,0,0-18.21-3.19,48.76,48.76,0,0,0-18.43,3.19c-.93.38-1.84.78-2.71,1.22a30.42,30.42,0,0,0-5.91,3.94c-.31.26-.6.56-.9.84a24.72,24.72,0,0,0-2.26,2.43,24.47,24.47,0,0,0-2.4,3.57h-52.6c.26-1.21.55-2.4.86-3.57.22-.83.48-1.63.73-2.43.49-1.62,1-3.22,1.64-4.78.16-.41.35-.81.51-1.22a62.76,62.76,0,0,1,2.81-6v0c.85-1.58,1.75-3.13,2.74-4.63.3-.47.63-.91.94-1.37s.54-.79.82-1.18c1.19-1.67,2.46-3.27,3.78-4.82.7-.81,1.41-1.61,2.14-2.38q1.77-1.87,3.68-3.62t4.26-3.59c1.08-.83,2.19-1.63,3.32-2.41a78,78,0,0,1,7.93-4.79c.79-.42,1.61-.81,2.42-1.2.53-.26,1-.53,1.57-.78A92.91,92.91,0,0,1,238,340.43a118.54,118.54,0,0,1,30.87-3.82,116.51,116.51,0,0,1,30.58,3.82,91.63,91.63,0,0,1,14.26,5.12c.62.28,1.22.58,1.82.88q1.2.58,2.37,1.2a76,76,0,0,1,7.85,4.79c1.11.78,2.21,1.58,3.26,2.41,1.46,1.15,2.85,2.35,4.2,3.59s2.47,2.37,3.63,3.62c.71.77,1.39,1.58,2.07,2.38,1.31,1.55,2.59,3.14,3.77,4.82l.8,1.18c.27.39.54.77.79,1.17,1,1.56,2,3.18,2.82,4.83v0a64.87,64.87,0,0,1,2.75,6c.17.41.36.81.51,1.22.59,1.56,1.11,3.16,1.6,4.78.24.8.49,1.6.71,2.43Q353.15,392.6,353.52,394.42Z"/><polygon points="367.21 277.42 485.64 277.42 485.64 320.44 449.65 320.44 449.65 325.41 403 325.41 403 320.44 367.21 320.44 367.21 277.42"/><polygon points="367.21 340.43 485.64 340.43 485.64 383.45 449.65 383.45 449.65 394.42 403 394.42 403 383.45 367.21 383.45 367.21 340.43"/><rect x="367.21" y="220.41" width="118.43" height="42"/><rect x="367.21" y="169.42" width="118.43" height="35.99"/><rect x="367.21" y="124.41" width="118.43" height="30"/><path d="M549.6,451.41c0,.08,0,.16,0,.24a7.93,7.93,0,0,0,.08,1,6.44,6.44,0,0,0,1.43,3.43,6.31,6.31,0,0,0,1.64,1.34,17.26,17.26,0,0,0,4.19,1.67c.92.26,2,.51,3.22.76,2.55.52,5.72,1,9.55,1.46q8.44,1,22.31,1.81c1.57.09,3.1.19,4.62.3A182.1,182.1,0,0,1,622.78,467c3.15.71,6.09,1.5,8.84,2.37H503c-.26-.77-.51-1.56-.72-2.37-.31-1.17-.57-2.38-.79-3.63s-.36-2.35-.48-3.57c-.08-.8-.13-1.61-.17-2.43-.05-1-.07-2-.07-3,0-.61,0-1.22,0-1.82,0-.42,0-.82.06-1.23a46.1,46.1,0,0,1,.73-6v0a42,42,0,0,1,1.63-6c.14-.39.28-.79.43-1.18a38,38,0,0,1,2.3-4.82c.45-.8.92-1.6,1.44-2.38a38.63,38.63,0,0,1,2.67-3.61,44.64,44.64,0,0,1,3.32-3.6c.85-.82,1.76-1.62,2.7-2.4,1.31-1.1,2.69-2.15,4.17-3.16.83-.56,1.68-1.11,2.57-1.64q1-.62,2.1-1.2a72.21,72.21,0,0,1,14.84-6Q555.06,405,575.93,405q22.65,0,39.19,4.43a80.69,80.69,0,0,1,16,6c.77.39,1.53.79,2.26,1.2l.07,0a51.14,51.14,0,0,1,7,4.77c1,.77,1.9,1.56,2.81,2.4q1.83,1.71,3.49,3.6,1.53,1.72,2.92,3.61c.57.77,1.12,1.57,1.66,2.38,1,1.54,2,3.14,2.87,4.82.2.38.39.79.58,1.18,1,1.92,1.88,3.91,2.69,6v0c.75,1.92,1.42,3.92,2,6,.12.41.26.81.37,1.23.32,1.12.62,2.26.89,3.43H609.51a18.29,18.29,0,0,0-1.22-3.43,12.93,12.93,0,0,0-.63-1.23,15.53,15.53,0,0,0-6-6l0,0a20.63,20.63,0,0,0-3.32-1.51q-9.06-3.12-23.72-3.12-14.29,0-19.61,3a15,15,0,0,0-2.32,1.61l0,0A8,8,0,0,0,549.6,451.41Z"/><path d="M500.8,388.42c-.05-1-.07-1.95-.07-2.95,0-.62,0-1.23,0-1.83,0-.41,0-.81.06-1.22a46.1,46.1,0,0,1,.73-6v0a42,42,0,0,1,1.63-6c.14-.39.28-.79.43-1.18a37.34,37.34,0,0,1,2.3-4.82c.45-.81.92-1.61,1.44-2.38a40.13,40.13,0,0,1,2.67-3.62,44.52,44.52,0,0,1,3.32-3.59c.85-.82,1.76-1.62,2.7-2.41,1.31-1.09,2.69-2.14,4.17-3.15.83-.56,1.68-1.11,2.57-1.64q1-.61,2.1-1.2a71.65,71.65,0,0,1,14.84-6Q555.07,336,575.93,336q22.65,0,39.19,4.43a80.07,80.07,0,0,1,16,6c.77.39,1.53.79,2.26,1.2l.07,0a52,52,0,0,1,7,4.76c1,.78,1.9,1.57,2.81,2.41,1.22,1.14,2.38,2.33,3.49,3.59s2,2.36,2.92,3.62c.57.77,1.12,1.57,1.66,2.38,1,1.54,2,3.14,2.87,4.82.2.38.39.79.58,1.18,1,1.92,1.88,3.91,2.69,6v0c.75,1.92,1.42,3.92,2,6,.12.41.26.81.37,1.22.32,1.13.62,2.27.89,3.44H609.51a18.39,18.39,0,0,0-1.22-3.44c-.19-.42-.4-.82-.63-1.22a15.53,15.53,0,0,0-6-6l0,0a20.63,20.63,0,0,0-3.32-1.51q-9.06-3.12-23.72-3.12-14.29,0-19.61,3a15,15,0,0,0-2.32,1.61l0,0a8,8,0,0,0-3,6c0,.08,0,.15,0,.23a7.93,7.93,0,0,0,.08,1,6,6,0,0,0,3.07,4.78,17.26,17.26,0,0,0,4.19,1.67c.92.26,2,.51,3.22.76,2.55.52,5.72,1,9.55,1.46q8.44,1,22.31,1.81c1.57.09,3.1.19,4.62.3H501.45q-.3-1.74-.48-3.57C500.89,390.05,500.84,389.24,500.8,388.42Z"/><path d="M354.53,469.41H303.4c-.24-.81-.5-1.61-.79-2.37a28.76,28.76,0,0,0-1.69-3.63,25.3,25.3,0,0,0-2.4-3.57,23.83,23.83,0,0,0-2.28-2.43c-.34-.32-.66-.64-1-.94a31.15,31.15,0,0,0-5.82-3.83c-.87-.45-1.78-.85-2.71-1.23a48,48,0,0,0-18.21-3.19,48.76,48.76,0,0,0-18.43,3.19c-.93.38-1.84.78-2.71,1.23a30.38,30.38,0,0,0-5.91,3.93c-.31.26-.6.56-.9.84a25.91,25.91,0,0,0-2.26,2.43,24.47,24.47,0,0,0-2.4,3.57,28.08,28.08,0,0,0-1.7,3.63c-.3.76-.56,1.56-.8,2.37H182.24c.11-.79.21-1.59.34-2.37q.31-1.85.69-3.63c.26-1.21.55-2.4.86-3.57.22-.82.48-1.62.73-2.43.49-1.62,1-3.22,1.64-4.77.16-.42.35-.82.51-1.23a62.76,62.76,0,0,1,2.81-6v0c.85-1.58,1.75-3.12,2.74-4.63.3-.47.63-.91.94-1.37s.54-.79.82-1.18c1.19-1.67,2.46-3.27,3.78-4.82.7-.81,1.41-1.61,2.14-2.38q1.77-1.87,3.68-3.61t4.26-3.6c1.08-.83,2.19-1.63,3.32-2.4a76.25,76.25,0,0,1,7.93-4.8c.79-.42,1.61-.81,2.42-1.2.53-.26,1-.53,1.57-.78A92.91,92.91,0,0,1,238,409.42a118.54,118.54,0,0,1,30.87-3.82,116.51,116.51,0,0,1,30.58,3.82,91.63,91.63,0,0,1,14.26,5.12c.62.28,1.22.58,1.82.88q1.2.58,2.37,1.2a76.09,76.09,0,0,1,7.85,4.8c1.11.77,2.21,1.57,3.26,2.4,1.46,1.15,2.85,2.35,4.2,3.6s2.47,2.36,3.63,3.61c.71.77,1.39,1.58,2.07,2.38,1.31,1.55,2.59,3.14,3.77,4.82l.8,1.18c.27.39.54.77.79,1.17,1,1.57,2,3.18,2.82,4.83v0a64.87,64.87,0,0,1,2.75,6c.17.41.36.81.51,1.23.59,1.55,1.11,3.15,1.6,4.77.24.81.49,1.61.71,2.43q.46,1.76.84,3.57c.25,1.19.48,2.4.68,3.63C354.32,467.82,354.42,468.62,354.53,469.41Z"/><path d="M644.49,549.86c.31.18.58.37.88.55H505.65c-.22-.39-.45-.77-.65-1.17a35.38,35.38,0,0,1-2.05-4.83q-.39-1.15-.72-2.37-.47-1.75-.78-3.63c-.2-1.16-.37-2.35-.49-3.57-.07-.8-.12-1.61-.16-2.43s-.08-1.95-.08-2.95c0-.62,0-1.23,0-1.83,0-.41,0-.81.07-1.22a47.91,47.91,0,0,1,.72-6v0a42,42,0,0,1,1.63-6c.14-.39.27-.79.43-1.18a38.65,38.65,0,0,1,2.29-4.82c.46-.81.93-1.61,1.45-2.38a38.3,38.3,0,0,1,2.67-3.62,42.77,42.77,0,0,1,3.32-3.59c.85-.82,1.76-1.62,2.7-2.41,1.31-1.09,2.69-2.14,4.17-3.15.83-.56,1.68-1.11,2.56-1.64.69-.41,1.39-.81,2.11-1.2a71.43,71.43,0,0,1,14.84-6Q555.06,480,575.93,480q22.65,0,39.19,4.43a80.31,80.31,0,0,1,16,6c.77.39,1.52.79,2.26,1.2l.07,0a53.29,53.29,0,0,1,7,4.76c1,.78,1.9,1.57,2.8,2.41a49.41,49.41,0,0,1,3.5,3.59c1,1.16,2,2.36,2.92,3.62.57.77,1.11,1.57,1.65,2.38,1,1.54,2,3.14,2.88,4.82.2.38.38.79.58,1.18,1,1.92,1.88,3.91,2.69,6v0c.75,1.92,1.42,3.92,2,6,.13.41.26.81.38,1.22.32,1.13.62,2.27.89,3.44H609.51a18.39,18.39,0,0,0-1.22-3.44c-.19-.42-.41-.82-.63-1.22a15.67,15.67,0,0,0-6-6l0,0a20.36,20.36,0,0,0-3.33-1.51q-9-3.12-23.72-3.12-14.28,0-19.6,3a15,15,0,0,0-2.32,1.61l0,0a8,8,0,0,0-3,6,1.79,1.79,0,0,0,0,.23,7.93,7.93,0,0,0,.08,1,6.47,6.47,0,0,0,1.43,3.44,6.58,6.58,0,0,0,1.65,1.34,17.26,17.26,0,0,0,4.19,1.67c.92.26,2,.51,3.22.76,2.55.52,5.72,1,9.54,1.46q8.46,1,22.32,1.81c1.57.09,3.1.19,4.61.3A181.7,181.7,0,0,1,622.77,542c3.15.7,6.1,1.5,8.85,2.37a69.16,69.16,0,0,1,11.71,4.83C643.72,549.45,644.12,549.65,644.49,549.86Z"/><polygon points="678.28 484.42 817.63 484.42 817.63 522.82 724.53 522.82 724.53 542.13 817.63 542.13 817.63 550.41 678.28 550.41 678.28 484.42"/><polygon points="817.63 409.42 817.63 447.82 724.53 447.82 724.53 467.13 817.63 467.13 817.63 469.41 678.28 469.41 678.28 409.42 817.63 409.42"/><path d="M652.77,637.41H510.13a30.76,30.76,0,0,1-4.48-6c-.22-.39-.45-.77-.65-1.16a34.26,34.26,0,0,1-2-4.84c-.26-.77-.51-1.56-.72-2.37-.31-1.17-.57-2.38-.79-3.63s-.36-2.35-.48-3.57c-.08-.8-.13-1.61-.17-2.43s-.07-1.95-.07-2.95c0-.61,0-1.22,0-1.82,0-.41,0-.82.06-1.23a46.1,46.1,0,0,1,.73-6v0a42,42,0,0,1,1.63-6c.14-.39.28-.79.43-1.18a37.21,37.21,0,0,1,2.3-4.81c.45-.81.92-1.61,1.44-2.39a40,40,0,0,1,2.67-3.61,44.64,44.64,0,0,1,3.32-3.6c.85-.82,1.76-1.62,2.7-2.4,1.31-1.09,2.69-2.15,4.17-3.16.83-.56,1.68-1.11,2.57-1.64q1-.61,2.1-1.2a72.21,72.21,0,0,1,14.84-6Q555.06,561,575.92,561q22.67,0,39.2,4.42a80.69,80.69,0,0,1,16,6c.77.39,1.53.79,2.26,1.2l.07,0a51.14,51.14,0,0,1,7,4.77c1,.77,1.9,1.56,2.81,2.4q1.83,1.71,3.49,3.6,1.53,1.73,2.92,3.61c.57.77,1.12,1.57,1.66,2.39q1.51,2.3,2.87,4.81c.2.38.39.79.58,1.18,1,1.92,1.88,3.91,2.69,6v0c.75,1.92,1.42,3.92,2,6,.12.41.26.81.37,1.23.32,1.12.62,2.26.89,3.43H609.51a18.29,18.29,0,0,0-1.22-3.43,12.93,12.93,0,0,0-.63-1.23,15.53,15.53,0,0,0-6-6l0,0a20.63,20.63,0,0,0-3.32-1.51q-9.06-3.12-23.72-3.12-14.29,0-19.61,3a15,15,0,0,0-2.32,1.61l0,0a8,8,0,0,0-3,6c0,.08,0,.16,0,.24a7.93,7.93,0,0,0,.08,1,6.44,6.44,0,0,0,1.43,3.43,6.31,6.31,0,0,0,1.64,1.34,17.26,17.26,0,0,0,4.19,1.67c.92.26,2,.51,3.22.76,2.55.52,5.72,1,9.55,1.46q8.44,1,22.31,1.81c1.57.09,3.1.19,4.62.3A183.53,183.53,0,0,1,622.78,623c3.15.71,6.09,1.5,8.84,2.37a68.46,68.46,0,0,1,11.72,4.84c.39.21.79.41,1.16.62s.58.36.87.54A34,34,0,0,1,652.77,637.41Z"/><path d="M661.57,750.12c0,1.06,0,2.09-.1,3.12,0,.38-.06.76-.09,1.14a46.35,46.35,0,0,1-.84,6s0,0,0,.06a45,45,0,0,1-1.69,5.94c-.15.43-.31.85-.47,1.27a43.68,43.68,0,0,1-2.27,4.73c-.47.84-1,1.66-1.47,2.47-.41.65-.85,1.29-1.3,1.92s-.82,1.08-1.25,1.61a39.9,39.9,0,0,1-3.37,3.67c-.83.81-1.71,1.58-2.63,2.33a52.1,52.1,0,0,1-7.07,4.88c-.67.38-1.36.75-2.06,1.12a73.51,73.51,0,0,1-9.06,4q-3.06,1.11-6.44,2l-.28.08q-15.51,4.13-37.62,4.13-24.84,0-41.68-4.13l-.3-.08c-2.12-.53-4.16-1.09-6.08-1.71A77.18,77.18,0,0,1,525,790.38c-.73-.37-1.46-.74-2.17-1.12a54.62,54.62,0,0,1-7.36-4.88c-1-.75-1.89-1.52-2.77-2.33a44.18,44.18,0,0,1-3.58-3.67c-.43-.5-.85-1-1.25-1.51s-1-1.34-1.47-2-1.13-1.63-1.66-2.47c-1-1.52-1.88-3.09-2.72-4.73-.2-.41-.38-.85-.58-1.27-.91-1.9-1.75-3.87-2.5-5.94a.14.14,0,0,0,0-.06c-.68-1.92-1.28-3.93-1.82-6-.1-.38-.21-.75-.31-1.14-.38-1.58-.73-3.2-1-4.86-.08-.42-.18-.84-.25-1.27H549c.13.44.27.86.41,1.27a20.94,20.94,0,0,0,2.39,4.86q.4.59.84,1.14a20,20,0,0,0,8.08,6l.13.06c.34.14.67.31,1,.44q10,3.72,24.94,3.73,13.66,0,19.91-2.73a13.9,13.9,0,0,0,2.57-1.44l.07-.06a8.06,8.06,0,0,0,3.54-6,7.58,7.58,0,0,0,0-.84c0-.1,0-.2,0-.3a7.29,7.29,0,0,0-1.81-4.86,7.68,7.68,0,0,0-2-1.57,13.07,13.07,0,0,0-1.74-.77,54.48,54.48,0,0,0-12.54-2.45q-5.55-.58-13.66-1.2-7.15-.55-16.3-1.11a184.66,184.66,0,0,1-21.2-2.45c-3.84-.69-7.4-1.51-10.72-2.44a71.43,71.43,0,0,1-12.62-4.76c-.8-.4-1.57-.82-2.32-1.24-.51-.29-1-.58-1.5-.88a32.8,32.8,0,0,1-6.34-5.08l0,0a30.36,30.36,0,0,1-4.48-6c-.22-.39-.45-.77-.66-1.17a34.82,34.82,0,0,1-2-4.83q-.39-1.15-.72-2.37-.46-1.75-.78-3.63c-.2-1.16-.37-2.35-.49-3.57-.07-.8-.12-1.61-.16-2.43s-.08-1.95-.08-2.95c0-.61,0-1.22.05-1.82,0-.42,0-.82.07-1.23a46.1,46.1,0,0,1,.72-6v0a42,42,0,0,1,1.63-6c.14-.39.27-.79.42-1.18a39.39,39.39,0,0,1,2.3-4.82c.46-.8.93-1.6,1.45-2.38A38.17,38.17,0,0,1,510,670.4a42.88,42.88,0,0,1,3.32-3.6c.85-.82,1.76-1.62,2.69-2.4,1.32-1.1,2.7-2.15,4.18-3.16.83-.56,1.68-1.11,2.56-1.64q1-.61,2.1-1.2a72.3,72.3,0,0,1,14.85-6Q555,648,575.9,648q22.67,0,39.2,4.42a80.93,80.93,0,0,1,16,6c.77.39,1.52.79,2.26,1.2l.07,0a52.39,52.39,0,0,1,7,4.77c1,.77,1.9,1.56,2.8,2.4q1.83,1.71,3.5,3.6c1,1.15,2,2.35,2.91,3.61.58.77,1.12,1.57,1.66,2.38,1,1.54,2,3.14,2.88,4.82.2.38.38.79.58,1.18,1,1.92,1.88,3.91,2.69,6v0c.75,1.92,1.42,3.92,2,6,.13.41.26.81.38,1.23.32,1.12.62,2.26.89,3.43H609.49a18.29,18.29,0,0,0-1.22-3.43c-.2-.43-.41-.83-.63-1.23a15.62,15.62,0,0,0-6.06-6l0,0a20.36,20.36,0,0,0-3.33-1.51q-9-3.12-23.72-3.12-14.28,0-19.6,3a15,15,0,0,0-2.32,1.61l0,0a8,8,0,0,0-3,6,1.94,1.94,0,0,0,0,.24,7.93,7.93,0,0,0,.08,1,6.44,6.44,0,0,0,1.43,3.43,6.37,6.37,0,0,0,1.65,1.34,17.26,17.26,0,0,0,4.19,1.67c.92.26,2,.51,3.22.76,2.55.52,5.72,1,9.54,1.46q8.45,1,22.32,1.81c1.57.09,3.1.19,4.61.3A181.7,181.7,0,0,1,622.75,710q4.72,1.07,8.85,2.37a69.16,69.16,0,0,1,11.71,4.83l1.16.63c.31.17.58.36.88.54a34,34,0,0,1,7.4,6l0,0a30.25,30.25,0,0,1,4.24,6c.23.41.46.82.67,1.24a32.77,32.77,0,0,1,1.89,4.76c.26.8.49,1.61.7,2.44.28,1.15.51,2.34.7,3.56s.32,2.4.41,3.65c.06.77.1,1.55.13,2.34C661.55,749,661.57,749.53,661.57,750.12Z"/><path d="M232.11,550.41H181.64c0-.39,0-.78.07-1.17.13-1.64.32-3.24.53-4.83.11-.79.21-1.59.34-2.37.21-1.23.43-2.44.69-3.63s.54-2.4.86-3.57c.22-.83.48-1.63.72-2.43.5-1.62,1-3.22,1.64-4.78.17-.41.35-.81.52-1.22a65.23,65.23,0,0,1,2.8-6l0,0c.84-1.58,1.75-3.13,2.74-4.63.3-.47.62-.91.94-1.37s.54-.79.82-1.18c1.19-1.67,2.46-3.27,3.78-4.82.7-.81,1.41-1.61,2.14-2.38,1.18-1.25,2.4-2.46,3.68-3.62s2.79-2.44,4.26-3.59c1.07-.83,2.19-1.63,3.32-2.41a76.87,76.87,0,0,1,7.93-4.79c.79-.42,1.61-.81,2.42-1.2.53-.26,1-.53,1.57-.78A92.79,92.79,0,0,1,238,484.42a118.62,118.62,0,0,1,30.88-3.82,116.51,116.51,0,0,1,30.58,3.82,92,92,0,0,1,14.26,5.12c.61.28,1.22.58,1.82.88q1.2.58,2.37,1.2a75.87,75.87,0,0,1,7.84,4.79c1.12.78,2.21,1.58,3.27,2.41q2.18,1.73,4.2,3.59t3.63,3.62c.71.77,1.39,1.58,2.07,2.38,1.31,1.55,2.58,3.14,3.77,4.82l.8,1.18c.26.39.54.77.79,1.17,1,1.56,2,3.18,2.82,4.83v0a64.87,64.87,0,0,1,2.75,6c.17.41.35.81.51,1.22.59,1.56,1.11,3.16,1.6,4.78.24.8.49,1.6.7,2.43.31,1.17.6,2.36.85,3.57s.47,2.4.67,3.63c.13.78.23,1.58.33,2.37.21,1.59.4,3.19.52,4.83,0,.39,0,.78.07,1.17H304.64c-.05-.39-.1-.79-.16-1.17a38.4,38.4,0,0,0-1.08-4.83c-.24-.81-.5-1.61-.79-2.37a27.47,27.47,0,0,0-1.7-3.63,23.34,23.34,0,0,0-4.67-6c-.34-.32-.67-.64-1-.94a31.7,31.7,0,0,0-5.82-3.84c-.87-.44-1.78-.84-2.71-1.22a48,48,0,0,0-18.21-3.19,48.76,48.76,0,0,0-18.43,3.19c-.93.38-1.84.78-2.71,1.22a30.42,30.42,0,0,0-5.91,3.94c-.32.26-.6.56-.9.84a26.11,26.11,0,0,0-2.27,2.43,24.42,24.42,0,0,0-2.39,3.57,28.84,28.84,0,0,0-1.71,3.63c-.29.76-.55,1.56-.79,2.37a36.71,36.71,0,0,0-1.1,4.83C232.21,549.62,232.16,550,232.11,550.41Z"/><path d="M355.34,637.41H305.05a49.47,49.47,0,0,0-.41-6c-.05-.39-.1-.78-.16-1.16a36.88,36.88,0,0,0-1.08-4.84c-.24-.81-.5-1.61-.79-2.37a28.76,28.76,0,0,0-1.69-3.63,25.3,25.3,0,0,0-2.4-3.57,23.83,23.83,0,0,0-2.28-2.43c-.34-.32-.66-.64-1-.94a31.15,31.15,0,0,0-5.82-3.83c-.87-.45-1.78-.85-2.71-1.23a48,48,0,0,0-18.21-3.19,48.76,48.76,0,0,0-18.43,3.19c-.93.38-1.84.78-2.71,1.23a30.38,30.38,0,0,0-5.91,3.93c-.31.27-.6.56-.9.84a25.91,25.91,0,0,0-2.26,2.43,25,25,0,0,0-2.4,3.57,28.08,28.08,0,0,0-1.7,3.63c-.3.76-.56,1.56-.8,2.37a36.86,36.86,0,0,0-1.1,4.84c-.06.38-.11.77-.16,1.16a49.47,49.47,0,0,0-.41,6H181.41c0-2,.1-4,.23-6,0-.39,0-.78.07-1.16.13-1.65.32-3.25.53-4.84.11-.79.21-1.59.34-2.37q.31-1.85.69-3.63c.26-1.21.55-2.4.86-3.57.22-.82.48-1.62.73-2.43.49-1.62,1-3.22,1.64-4.77.16-.42.35-.82.51-1.23a62.76,62.76,0,0,1,2.81-6v0c.85-1.58,1.75-3.12,2.74-4.63.3-.46.63-.91.94-1.37s.54-.79.82-1.18c1.19-1.67,2.46-3.27,3.78-4.81.7-.82,1.41-1.62,2.14-2.39q1.77-1.87,3.68-3.61t4.26-3.6c1.08-.83,2.19-1.62,3.32-2.4a76.25,76.25,0,0,1,7.93-4.8c.79-.42,1.61-.8,2.42-1.2.53-.26,1-.53,1.57-.78A92.91,92.91,0,0,1,238,565.42a118.52,118.52,0,0,1,30.86-3.82,116.59,116.59,0,0,1,30.59,3.82,91.63,91.63,0,0,1,14.26,5.12l1.82.88q1.2.58,2.37,1.2a76.09,76.09,0,0,1,7.85,4.8c1.11.77,2.21,1.57,3.26,2.4,1.46,1.15,2.85,2.35,4.2,3.6s2.47,2.36,3.63,3.61c.71.77,1.39,1.58,2.07,2.39,1.31,1.54,2.59,3.13,3.77,4.81l.8,1.18c.27.39.54.77.79,1.17,1,1.57,2,3.18,2.82,4.83v0a64.87,64.87,0,0,1,2.75,6c.17.41.36.81.51,1.23.59,1.55,1.11,3.15,1.6,4.77.24.81.49,1.61.71,2.43q.46,1.75.84,3.57c.25,1.19.48,2.4.68,3.63.12.78.22,1.58.33,2.37.21,1.59.39,3.19.52,4.84,0,.38,0,.77.06,1.16C355.24,633.37,355.33,635.36,355.34,637.41Z"/><path d="M355.31,724.39c0-2-.09-4-.22-6,0-.39,0-.78-.07-1.17-.12-1.64-.31-3.24-.52-4.83-.1-.79-.2-1.59-.33-2.37-.2-1.23-.42-2.44-.67-3.63s-.54-2.4-.85-3.57c-.21-.82-.46-1.62-.7-2.43-.49-1.62-1-3.22-1.6-4.77-.16-.42-.34-.82-.51-1.23a64.87,64.87,0,0,0-2.75-6v0q-1.31-2.48-2.82-4.83c-.26-.4-.53-.78-.79-1.17l-.8-1.18c-1.19-1.68-2.46-3.27-3.77-4.82-.68-.8-1.36-1.61-2.08-2.38q-1.74-1.87-3.62-3.61t-4.2-3.6q-1.59-1.24-3.27-2.4a75.94,75.94,0,0,0-7.84-4.8q-1.17-.61-2.37-1.2c-.6-.3-1.21-.6-1.83-.88a91.51,91.51,0,0,0-14.25-5.12,116.51,116.51,0,0,0-30.58-3.82A118.62,118.62,0,0,0,238,652.4a92.79,92.79,0,0,0-14.57,5.22c-.54.25-1,.52-1.57.78-.81.39-1.63.78-2.42,1.2a76.4,76.4,0,0,0-7.94,4.8c-1.13.78-2.24,1.57-3.31,2.4q-2.22,1.73-4.26,3.6T200.23,674c-.74.77-1.44,1.57-2.14,2.38-1.33,1.55-2.59,3.15-3.78,4.82-.28.39-.55.79-.82,1.18s-.64.91-1,1.37q-1.47,2.26-2.74,4.63s0,0,0,0a65.23,65.23,0,0,0-2.8,6c-.17.41-.36.81-.52,1.23-.61,1.55-1.14,3.15-1.64,4.77-.25.81-.5,1.61-.72,2.43-.32,1.17-.6,2.36-.86,3.57s-.49,2.4-.69,3.63c-.13.78-.23,1.58-.34,2.37-.22,1.59-.4,3.19-.53,4.83,0,.39-.05.78-.07,1.17-.13,2-.22,4-.23,6v0c0,.12,0,.24,0,.36v.4c0,1.77.05,3.49.13,5.2,0,.41,0,.83.05,1.24.09,1.62.23,3.2.39,4.76.09.82.17,1.64.27,2.44.16,1.2.33,2.39.53,3.56s.43,2.45.69,3.65c.17.79.37,1.57.57,2.34.41,1.66.85,3.29,1.35,4.86.13.39.28.76.41,1.14.71,2.07,1.48,4.08,2.36,6l0,.06a58.77,58.77,0,0,0,3.14,5.94c.25.42.49.83.75,1.24v0c1.06,1.64,2.19,3.21,3.37,4.73.66.84,1.32,1.67,2,2.47q1.58,1.83,3.3,3.53c1.29,1.28,2.64,2.51,4.06,3.67,1,.81,2,1.58,3,2.33a67.46,67.46,0,0,0,7.8,4.88c.74.39,1.49.75,2.24,1.12,1.41.69,2.84,1.35,4.34,2a95.35,95.35,0,0,0,12.1,4l.29.08a135,135,0,0,0,33.86,3.93,129,129,0,0,0,32.94-3.93l.28-.08a95.38,95.38,0,0,0,12.42-4.23c1.31-.56,2.59-1.16,3.84-1.77.75-.37,1.51-.74,2.24-1.12a70.87,70.87,0,0,0,7.88-4.88c1.05-.75,2.09-1.52,3.08-2.33,1.45-1.16,2.83-2.39,4.16-3.67s2.31-2.31,3.41-3.53c.71-.8,1.39-1.63,2.06-2.47,1.22-1.52,2.38-3.09,3.47-4.73l.22-.33c.2-.31.37-.63.56-.94a56,56,0,0,0,3.29-5.94l0-.06c.91-1.92,1.71-3.93,2.45-6,.14-.38.29-.75.42-1.14.52-1.57,1-3.2,1.41-4.86.2-.77.41-1.55.58-2.34.27-1.2.51-2.42.72-3.65s.39-2.36.54-3.56c.11-.8.19-1.62.28-2.44.17-1.56.32-3.14.41-4.76,0-.41,0-.83.05-1.24.07-1.64.12-3.3.12-5v-.6c0-.12,0-.24,0-.36Zm-50.53,6c0,.41-.07.84-.12,1.24a37.53,37.53,0,0,1-.91,4.76c-.21.84-.45,1.66-.72,2.44a27.18,27.18,0,0,1-1.51,3.56,24.11,24.11,0,0,1-2.28,3.65,23.08,23.08,0,0,1-2.07,2.34,21.68,21.68,0,0,1-2,1.74,31.16,31.16,0,0,1-4.95,3.12c-.8.41-1.64.79-2.5,1.14q-8.16,3.38-19.49,3.38a48.38,48.38,0,0,1-19-3.38c-.84-.35-1.65-.73-2.44-1.14a31,31,0,0,1-5.46-3.62c-.46-.39-.9-.81-1.33-1.24A25.26,25.26,0,0,1,237.9,746a25.89,25.89,0,0,1-2.41-3.65,28.82,28.82,0,0,1-1.62-3.56c-.29-.78-.55-1.61-.78-2.44a34.52,34.52,0,0,1-1-4.76c-.06-.4-.08-.83-.13-1.24a45.57,45.57,0,0,1-.31-5.2c0-.26,0-.51,0-.76v0a51.52,51.52,0,0,1,.42-6c0-.39.1-.78.16-1.17a36.71,36.71,0,0,1,1.1-4.83c.24-.81.5-1.61.79-2.37a29.47,29.47,0,0,1,1.7-3.63,25.3,25.3,0,0,1,2.4-3.57,27.43,27.43,0,0,1,2.27-2.43c.3-.28.58-.58.89-.84a30.76,30.76,0,0,1,5.92-3.93c.87-.45,1.78-.85,2.71-1.23a48.73,48.73,0,0,1,18.43-3.19,48,48,0,0,1,18.21,3.19c.93.38,1.84.78,2.7,1.23a30.9,30.9,0,0,1,5.83,3.83c.35.3.68.62,1,.94a23.34,23.34,0,0,1,4.67,6,27.47,27.47,0,0,1,1.7,3.63c.29.76.55,1.56.79,2.37a38.4,38.4,0,0,1,1.08,4.83c.06.39.11.78.16,1.17a53.87,53.87,0,0,1,.41,6v0c0,.25,0,.5,0,.76C305.05,727,304.94,728.73,304.78,730.39Z"/><polygon points="367.21 484.42 485.64 484.42 485.64 527.44 449.65 527.44 449.65 550.41 402.99 550.41 402.99 527.44 367.21 527.44 367.21 484.42"/><polygon points="485.64 409.42 485.64 452.45 449.65 452.45 449.65 469.41 403 469.41 403 452.45 367.21 452.45 367.21 409.42 485.64 409.42"/><polygon points="367.21 565.42 485.64 565.42 485.64 608.45 449.65 608.45 449.65 637.41 403 637.41 403 608.45 367.21 608.45 367.21 565.42"/><path d="M661.59,837.14c0,1.06,0,2.09-.1,3.12,0,.38,0,.76-.08,1.14a46.6,46.6,0,0,1-.85,6,.13.13,0,0,1,0,.06,42.13,42.13,0,0,1-1.69,5.94c-.15.42-.3.85-.47,1.26a42,42,0,0,1-2.27,4.74c-.47.83-1,1.66-1.47,2.47-.41.65-.85,1.29-1.3,1.92s-.82,1.08-1.25,1.61a41.24,41.24,0,0,1-3.36,3.67c-.83.8-1.72,1.57-2.63,2.33a51.29,51.29,0,0,1-7.08,4.87c-.66.39-1.36.76-2.06,1.13a72,72,0,0,1-9.06,4q-3.06,1.11-6.44,2l-.27.08q-15.53,4.14-37.63,4.14-24.84,0-41.68-4.14l-.3-.08q-3.18-.78-6.08-1.71A75.27,75.27,0,0,1,525,877.4c-.74-.37-1.47-.74-2.17-1.13a54.7,54.7,0,0,1-7.37-4.87c-1-.76-1.89-1.53-2.77-2.33a47.41,47.41,0,0,1-3.57-3.67c-.43-.5-.85-1-1.26-1.51s-1-1.34-1.47-2-1.12-1.63-1.66-2.47c-1-1.52-1.88-3.09-2.71-4.74-.21-.41-.39-.84-.59-1.26a63.28,63.28,0,0,1-2.49-5.94.14.14,0,0,1,0-.06c-.69-1.93-1.28-3.93-1.82-6-.1-.38-.22-.75-.32-1.14-.38-1.59-.73-3.21-1-4.86-.08-.43-.17-.84-.25-1.28H549c.12.44.26.86.41,1.28a20.74,20.74,0,0,0,2.39,4.86c.26.39.54.77.83,1.14a20,20,0,0,0,8.08,6l.13.06c.34.14.67.31,1,.44q10,3.72,24.94,3.72,13.68,0,19.91-2.72a13.9,13.9,0,0,0,2.57-1.44l.08-.06a8.09,8.09,0,0,0,3.54-6c0-.28,0-.55,0-.84,0-.1,0-.2,0-.3a7.28,7.28,0,0,0-1.8-4.86,7.94,7.94,0,0,0-2-1.58,13.07,13.07,0,0,0-1.74-.77,54.37,54.37,0,0,0-12.53-2.45q-5.55-.58-13.66-1.2-7.17-.54-16.31-1.11a185,185,0,0,1-21.2-2.44c-3.84-.69-7.4-1.51-10.72-2.45a72.54,72.54,0,0,1-12.62-4.75c-.79-.41-1.56-.82-2.31-1.25-.51-.28-1-.57-1.51-.87a32.47,32.47,0,0,1-6.34-5.09l0,0H652.77l0,0a31,31,0,0,1,4.25,6c.22.42.45.82.66,1.25a33.13,33.13,0,0,1,1.9,4.75c.25.8.49,1.61.69,2.45.28,1.15.51,2.33.7,3.55s.32,2.4.41,3.65c.06.78.1,1.56.13,2.35C661.58,836,661.59,836.55,661.59,837.14Z"/><path d="M355.35,811.8v.6c0,1.71-.05,3.37-.12,5,0,.42,0,.84-.05,1.25-.1,1.62-.24,3.19-.41,4.75-.09.82-.18,1.64-.28,2.45-.16,1.2-.34,2.38-.54,3.55s-.46,2.46-.73,3.65c-.17.8-.38,1.57-.58,2.35-.42,1.66-.88,3.28-1.41,4.86-.13.39-.28.76-.42,1.14a63.8,63.8,0,0,1-2.45,6l0,.06a58.81,58.81,0,0,1-3.28,5.94c-.2.31-.37.63-.57.93l-.22.33c-1.09,1.65-2.25,3.22-3.46,4.74-.67.84-1.36,1.66-2.07,2.47-1.09,1.22-2.23,2.39-3.41,3.53s-2.71,2.5-4.15,3.67c-1,.8-2,1.57-3.09,2.33a69.35,69.35,0,0,1-7.88,4.87c-.73.39-1.48.76-2.24,1.13-1.25.61-2.52,1.21-3.84,1.76a92.82,92.82,0,0,1-12.41,4.23l-.29.08a128.51,128.51,0,0,1-32.94,3.94,134.39,134.39,0,0,1-33.85-3.94l-.29-.08a91.93,91.93,0,0,1-12.11-4c-1.49-.61-2.92-1.28-4.33-2-.76-.37-1.51-.74-2.24-1.13a67.53,67.53,0,0,1-7.81-4.87c-1-.76-2-1.53-3-2.33q-2.12-1.76-4-3.67c-1.15-1.14-2.26-2.31-3.31-3.53-.69-.81-1.36-1.63-2-2.47-1.18-1.52-2.31-3.09-3.36-4.74v0c-.26-.4-.51-.82-.76-1.23a57.76,57.76,0,0,1-3.13-5.94l0-.06c-.88-1.93-1.65-3.93-2.36-6-.13-.38-.28-.75-.4-1.14-.51-1.58-.95-3.2-1.36-4.86-.19-.78-.4-1.55-.57-2.35-.25-1.19-.48-2.41-.69-3.65s-.37-2.35-.53-3.55c-.1-.81-.18-1.63-.26-2.45-.17-1.56-.3-3.13-.4-4.75,0-.41,0-.83-.05-1.25-.08-1.7-.13-3.42-.13-5.19v-.41c0-.12,0-.24,0-.36v0H231.7s0,0,0,0c0,.25,0,.5,0,.77a47.79,47.79,0,0,0,.31,5.19c.05.42.08.84.13,1.25a36.25,36.25,0,0,0,1,4.75c.23.84.49,1.66.79,2.45a26.69,26.69,0,0,0,1.62,3.55,23.76,23.76,0,0,0,2.41,3.65,25.27,25.27,0,0,0,2.16,2.35c.44.42.87.84,1.34,1.24a30.54,30.54,0,0,0,5.45,3.62c.79.41,1.61.79,2.45,1.14a48.33,48.33,0,0,0,18.95,3.38q11.34,0,19.49-3.38c.86-.35,1.7-.73,2.51-1.14a31.52,31.52,0,0,0,4.94-3.12,20.41,20.41,0,0,0,2-1.74,21.09,21.09,0,0,0,2.07-2.35,22.89,22.89,0,0,0,2.28-3.65,26.29,26.29,0,0,0,1.51-3.55c.28-.79.51-1.61.73-2.45a39.21,39.21,0,0,0,.91-4.75c0-.4.07-.83.11-1.25.16-1.66.27-3.38.27-5.19,0-.27,0-.52,0-.77v0h50.29v0C355.34,811.56,355.35,811.68,355.35,811.8Z"/><polygon points="485.62 796.37 367.19 796.37 367.19 752.74 402.97 752.74 402.97 695.43 367.19 695.43 367.19 652.4 485.62 652.4 485.62 695.43 449.63 695.43 449.63 752.74 485.62 752.74 485.62 796.37"/><polygon points="485.64 839.76 485.64 883.38 367.21 883.38 367.21 839.76 403 839.76 403 811.4 449.65 811.4 449.65 839.76 485.64 839.76"/><polygon points="449.65 920.76 485.64 920.76 485.64 964.38 367.21 964.38 367.21 920.76 403 920.76 403 898.4 449.65 898.4 449.65 920.76"/><polygon points="678.28 898.4 817.63 898.4 817.63 906.88 724.53 906.88 724.53 925.38 817.63 925.38 817.63 964.39 678.28 964.39 678.28 898.4"/><polygon points="817.63 811.4 817.63 825.88 724.53 825.88 724.53 844.38 817.63 844.38 817.63 883.39 678.28 883.39 678.28 811.4 817.63 811.4"/><path d="M661.55,991.4c0,.58,0,1.15,0,1.74,0,1.06,0,2.09-.1,3.12,0,.38,0,.76-.08,1.14a46.35,46.35,0,0,1-.85,6,.13.13,0,0,1,0,.06,42.13,42.13,0,0,1-1.69,5.94c-.15.42-.3.85-.47,1.27a41.89,41.89,0,0,1-2.27,4.73c-.47.84-1,1.66-1.47,2.47-.41.65-.85,1.29-1.3,1.92s-.82,1.08-1.25,1.61a41.24,41.24,0,0,1-3.36,3.67c-.83.8-1.72,1.58-2.63,2.33a51.29,51.29,0,0,1-7.08,4.87c-.66.39-1.36.76-2.06,1.13a73.51,73.51,0,0,1-9.06,4q-3.06,1.11-6.44,2l-.27.08q-15.53,4.13-37.63,4.13-24.84,0-41.68-4.13l-.3-.08c-2.12-.53-4.15-1.09-6.08-1.71A76.52,76.52,0,0,1,525,1033.4c-.74-.37-1.47-.74-2.17-1.13a54.7,54.7,0,0,1-7.37-4.87c-1-.75-1.89-1.52-2.77-2.33a45.69,45.69,0,0,1-3.57-3.67c-.43-.5-.85-1-1.26-1.51s-1-1.34-1.47-2-1.12-1.63-1.66-2.47c-1-1.52-1.88-3.09-2.71-4.73-.21-.42-.39-.85-.59-1.27a62.18,62.18,0,0,1-2.49-5.94.14.14,0,0,1,0-.06c-.69-1.92-1.28-3.93-1.82-6-.1-.38-.22-.75-.32-1.14-.38-1.58-.73-3.2-1-4.86-.08-.42-.17-.84-.25-1.27H549c.12.44.26.85.41,1.27a20.74,20.74,0,0,0,2.39,4.86c.26.39.54.77.83,1.14a20,20,0,0,0,8.08,6l.13.06c.34.14.67.31,1,.44q10,3.72,24.94,3.72,13.68,0,19.91-2.72a13.9,13.9,0,0,0,2.57-1.44l.08-.06a8.09,8.09,0,0,0,3.54-6c0-.27,0-.55,0-.84,0-.1,0-.2,0-.3a7.28,7.28,0,0,0-1.8-4.86,7.91,7.91,0,0,0-2-1.57,13.07,13.07,0,0,0-1.74-.77,54.37,54.37,0,0,0-12.53-2.45q-5.55-.58-13.66-1.2-7.17-.55-16.31-1.12a185,185,0,0,1-21.2-2.44c-3.84-.69-7.4-1.51-10.72-2.44H659.62c.25.8.49,1.61.69,2.44.28,1.15.51,2.34.7,3.56s.32,2.4.41,3.65C661.48,989.83,661.52,990.61,661.55,991.4Z"/><path d="M612.89,922.4c0-.28,0-.55,0-.84,0-.1,0-.2,0-.3a7.28,7.28,0,0,0-1.8-4.86,7.94,7.94,0,0,0-2-1.58,13.07,13.07,0,0,0-1.74-.77,54.37,54.37,0,0,0-12.53-2.45q-5.55-.58-13.66-1.2-7.17-.54-16.31-1.11a185,185,0,0,1-21.2-2.44c-3.84-.69-7.4-1.51-10.72-2.45a72.54,72.54,0,0,1-12.62-4.75c-.79-.41-1.56-.82-2.31-1.25h139c.22.42.45.82.66,1.25a33.13,33.13,0,0,1,1.9,4.75c.25.8.49,1.61.69,2.45.28,1.15.51,2.33.7,3.55s.32,2.4.41,3.65c.06.78.1,1.56.13,2.35,0,.57,0,1.15,0,1.74,0,1.06,0,2.09-.1,3.12,0,.38,0,.76-.08,1.14a46.6,46.6,0,0,1-.85,6,.13.13,0,0,1,0,.06,42.13,42.13,0,0,1-1.69,5.94c-.15.42-.3.85-.47,1.26a42,42,0,0,1-2.27,4.74c-.47.83-1,1.66-1.47,2.47-.41.65-.85,1.29-1.3,1.92s-.82,1.08-1.25,1.61a41.24,41.24,0,0,1-3.36,3.67c-.83.8-1.72,1.57-2.63,2.33a51.29,51.29,0,0,1-7.08,4.87c-.66.39-1.36.76-2.06,1.13a72,72,0,0,1-9.06,4q-3.06,1.11-6.44,2l-.27.08q-15.53,4.14-37.63,4.14-24.84,0-41.68-4.14l-.3-.08q-3.18-.78-6.08-1.71A75.27,75.27,0,0,1,525,958.4c-.74-.37-1.47-.74-2.17-1.13a54.7,54.7,0,0,1-7.37-4.87c-1-.76-1.89-1.53-2.77-2.33a47.41,47.41,0,0,1-3.57-3.67c-.43-.5-.85-1-1.26-1.51s-1-1.34-1.47-2-1.12-1.63-1.66-2.47c-1-1.52-1.88-3.09-2.71-4.74-.21-.41-.39-.84-.59-1.26a63.28,63.28,0,0,1-2.49-5.94.14.14,0,0,1,0-.06c-.69-1.93-1.28-3.93-1.82-6-.1-.38-.22-.75-.32-1.14-.38-1.59-.73-3.21-1-4.86-.08-.43-.17-.84-.25-1.28H549c.12.44.26.86.41,1.28a20.74,20.74,0,0,0,2.39,4.86c.26.39.54.77.83,1.14a20,20,0,0,0,8.08,6l.13.06c.34.14.67.31,1,.44q10,3.72,24.94,3.72,13.68,0,19.91-2.72a13.9,13.9,0,0,0,2.57-1.44l.08-.06A8.09,8.09,0,0,0,612.89,922.4Z"/><path d="M303.78,979.41h51c-.09.82-.18,1.64-.28,2.44-.16,1.2-.34,2.39-.54,3.56s-.46,2.45-.73,3.65c-.17.79-.38,1.57-.58,2.34-.42,1.66-.88,3.29-1.41,4.86-.13.39-.28.76-.42,1.14a62.72,62.72,0,0,1-2.45,6l0,.06a57.74,57.74,0,0,1-3.28,5.94c-.2.31-.37.63-.57.94l-.22.33c-1.09,1.64-2.25,3.21-3.46,4.73-.67.84-1.36,1.67-2.07,2.47q-1.64,1.83-3.41,3.53-2,1.92-4.15,3.67c-1,.81-2,1.58-3.09,2.33a69.35,69.35,0,0,1-7.88,4.87c-.73.39-1.48.76-2.24,1.13-1.25.61-2.52,1.21-3.84,1.77a95.74,95.74,0,0,1-12.41,4.23l-.29.08a129,129,0,0,1-32.94,3.93,134.87,134.87,0,0,1-33.85-3.93l-.29-.08a95,95,0,0,1-12.11-4c-1.49-.62-2.92-1.28-4.33-2-.76-.37-1.51-.74-2.24-1.13a66.19,66.19,0,0,1-7.81-4.87c-1-.75-2-1.52-3-2.33q-2.12-1.75-4-3.67c-1.15-1.13-2.26-2.31-3.31-3.53-.69-.8-1.36-1.63-2-2.47-1.18-1.52-2.31-3.09-3.36-4.73v0c-.26-.41-.51-.82-.76-1.24a56.75,56.75,0,0,1-3.13-5.94l0-.06c-.88-1.92-1.65-3.93-2.36-6-.13-.38-.28-.75-.4-1.14-.51-1.57-.95-3.2-1.36-4.86-.19-.77-.4-1.55-.57-2.34-.25-1.2-.48-2.42-.69-3.65s-.37-2.36-.53-3.56c-.1-.8-.18-1.62-.26-2.44h51.13c.23.83.49,1.65.79,2.44a27.41,27.41,0,0,0,1.62,3.56,24.26,24.26,0,0,0,2.41,3.65,25.15,25.15,0,0,0,2.16,2.34c.44.42.87.85,1.34,1.24a30.54,30.54,0,0,0,5.45,3.62c.79.41,1.61.79,2.45,1.14a48.33,48.33,0,0,0,18.95,3.38q11.34,0,19.49-3.38c.86-.35,1.7-.73,2.51-1.14a31.52,31.52,0,0,0,4.94-3.12,20.41,20.41,0,0,0,2-1.74,21.92,21.92,0,0,0,2.07-2.34,23.82,23.82,0,0,0,2.28-3.65,25.89,25.89,0,0,0,1.51-3.56C303.33,981.07,303.56,980.25,303.78,979.41Z"/><path d="M355.23,898.4c0,.42,0,.84-.05,1.25-.1,1.62-.24,3.19-.41,4.75-.09.82-.18,1.64-.28,2.45-.16,1.2-.34,2.38-.54,3.55s-.46,2.46-.73,3.65c-.17.8-.38,1.57-.58,2.35-.42,1.66-.88,3.28-1.41,4.86-.13.39-.28.76-.42,1.14a63.8,63.8,0,0,1-2.45,6l0,.06a58.81,58.81,0,0,1-3.28,5.94c-.2.31-.37.63-.57.93l-.22.33c-1.09,1.65-2.25,3.22-3.46,4.74-.67.84-1.36,1.66-2.07,2.47-1.09,1.22-2.23,2.39-3.41,3.53s-2.71,2.5-4.15,3.67c-1,.8-2,1.57-3.09,2.33a69.35,69.35,0,0,1-7.88,4.87c-.73.39-1.48.76-2.24,1.13-1.25.61-2.52,1.21-3.84,1.76a92.82,92.82,0,0,1-12.41,4.23l-.29.08a128.51,128.51,0,0,1-32.94,3.94,134.39,134.39,0,0,1-33.85-3.94l-.29-.08a91.93,91.93,0,0,1-12.11-4c-1.49-.61-2.92-1.28-4.33-2-.76-.37-1.51-.74-2.24-1.13a67.53,67.53,0,0,1-7.81-4.87c-1-.76-2-1.53-3-2.33q-2.12-1.76-4-3.67c-1.15-1.14-2.26-2.31-3.31-3.53-.69-.81-1.36-1.63-2-2.47-1.18-1.52-2.31-3.09-3.36-4.74v0c-.26-.4-.51-.82-.76-1.23a57.76,57.76,0,0,1-3.13-5.94l0-.06c-.88-1.93-1.65-3.93-2.36-6-.13-.38-.28-.75-.4-1.14-.51-1.58-.95-3.2-1.36-4.86-.19-.78-.4-1.55-.57-2.35-.25-1.19-.48-2.41-.69-3.65s-.37-2.35-.53-3.55c-.1-.81-.18-1.63-.26-2.45-.17-1.56-.3-3.13-.4-4.75,0-.41,0-.83-.05-1.25H232c.05.42.08.84.13,1.25a36.25,36.25,0,0,0,1,4.75c.23.84.49,1.66.79,2.45a26.69,26.69,0,0,0,1.62,3.55,23.76,23.76,0,0,0,2.41,3.65,25.27,25.27,0,0,0,2.16,2.35c.44.42.87.84,1.34,1.24a30.54,30.54,0,0,0,5.45,3.62c.79.41,1.61.79,2.45,1.14a48.33,48.33,0,0,0,18.95,3.38q11.34,0,19.49-3.38c.86-.35,1.7-.73,2.51-1.14a31.52,31.52,0,0,0,4.94-3.12,20.41,20.41,0,0,0,2-1.74,21.09,21.09,0,0,0,2.07-2.35,22.89,22.89,0,0,0,2.28-3.65,26.29,26.29,0,0,0,1.51-3.55c.28-.79.51-1.61.73-2.45a39.21,39.21,0,0,0,.91-4.75c0-.4.07-.83.11-1.25Z"/><path d="M287.77,1186.4h63c-.73,2.06-1.54,4.07-2.45,6l0,.06a59.92,59.92,0,0,1-3.28,5.94c-.2.31-.37.63-.57.93l-.22.33c-1.09,1.64-2.25,3.22-3.46,4.74q-1,1.26-2.07,2.46c-1.09,1.23-2.23,2.4-3.41,3.54s-2.71,2.5-4.15,3.67c-1,.8-2,1.57-3.09,2.32a69.41,69.41,0,0,1-7.88,4.88c-.73.39-1.48.76-2.24,1.12-1.25.62-2.52,1.21-3.84,1.77a92.82,92.82,0,0,1-12.41,4.23l-.29.08a129,129,0,0,1-32.94,3.94,134.85,134.85,0,0,1-33.85-3.94l-.29-.08a91.93,91.93,0,0,1-12.11-4c-1.49-.61-2.92-1.28-4.33-2-.76-.36-1.51-.73-2.24-1.12a66.26,66.26,0,0,1-7.81-4.88c-1-.75-2-1.52-3-2.32-1.41-1.17-2.76-2.4-4-3.67s-2.26-2.31-3.31-3.54c-.69-.8-1.36-1.62-2-2.46-1.18-1.52-2.31-3.1-3.36-4.74v0c-.26-.4-.51-.82-.76-1.23a57.76,57.76,0,0,1-3.13-5.94l0-.06c-.88-1.93-1.65-3.94-2.36-6h63.54a48.51,48.51,0,0,0,18.95,3.38A51,51,0,0,0,287.77,1186.4Z"/><path d="M297.19,1123.41h55.45c-.42,1.65-.88,3.28-1.41,4.85-.13.39-.28.76-.42,1.15-.73,2.06-1.54,4.07-2.45,6l0,.06a59.92,59.92,0,0,1-3.28,5.94c-.2.3-.37.63-.57.93l-.22.33c-1.09,1.64-2.25,3.22-3.46,4.74-.67.83-1.36,1.66-2.07,2.46-1.09,1.23-2.23,2.4-3.41,3.53s-2.71,2.51-4.15,3.68c-1,.8-2,1.57-3.09,2.32a70.87,70.87,0,0,1-7.88,4.88c-.73.38-1.48.75-2.24,1.12-1.25.62-2.52,1.21-3.84,1.77a94.26,94.26,0,0,1-12.41,4.23l-.29.08a129,129,0,0,1-32.94,3.93,134.87,134.87,0,0,1-33.85-3.93l-.29-.08a93.43,93.43,0,0,1-12.11-4c-1.49-.61-2.92-1.28-4.33-2-.76-.37-1.51-.73-2.24-1.12a66.26,66.26,0,0,1-7.81-4.88c-1-.75-2-1.52-3-2.32q-2.12-1.75-4-3.68c-1.15-1.13-2.26-2.3-3.31-3.53-.69-.8-1.36-1.63-2-2.46-1.18-1.52-2.31-3.1-3.36-4.74v0c-.26-.41-.51-.82-.76-1.23a57.76,57.76,0,0,1-3.13-5.94l0-.06c-.88-1.93-1.65-3.94-2.36-6-.13-.39-.28-.76-.4-1.15-.51-1.57-.95-3.2-1.36-4.85h56.06c.44.42.87.84,1.34,1.23a30.54,30.54,0,0,0,5.45,3.62c.79.41,1.61.79,2.45,1.15a48.51,48.51,0,0,0,18.95,3.38,51,51,0,0,0,19.49-3.38c.86-.36,1.7-.74,2.51-1.15a31.52,31.52,0,0,0,4.94-3.12A21.76,21.76,0,0,0,297.19,1123.41Z"/><path d="M354,1054.4c-.22,1.24-.46,2.46-.73,3.65-.17.8-.38,1.57-.58,2.35-.42,1.65-.88,3.28-1.41,4.85-.13.39-.28.76-.42,1.15-.73,2.06-1.54,4.07-2.45,6l0,.06a59.92,59.92,0,0,1-3.28,5.94c-.2.3-.37.63-.57.93l-.22.33c-1.09,1.64-2.25,3.22-3.46,4.74-.67.83-1.36,1.66-2.07,2.46-1.09,1.23-2.23,2.4-3.41,3.53s-2.71,2.51-4.15,3.68c-1,.8-2,1.57-3.09,2.32a70.87,70.87,0,0,1-7.88,4.88c-.73.39-1.48.75-2.24,1.12-1.25.62-2.52,1.21-3.84,1.77a94.26,94.26,0,0,1-12.41,4.23l-.29.08a129,129,0,0,1-32.94,3.93,134.87,134.87,0,0,1-33.85-3.93l-.29-.08a93.43,93.43,0,0,1-12.11-4c-1.49-.61-2.92-1.28-4.33-2-.76-.37-1.51-.73-2.24-1.12a66.26,66.26,0,0,1-7.81-4.88c-1-.75-2-1.52-3-2.32q-2.12-1.75-4-3.68c-1.15-1.13-2.26-2.3-3.31-3.53-.69-.8-1.36-1.63-2-2.46-1.18-1.52-2.31-3.1-3.36-4.74v0c-.26-.41-.51-.82-.76-1.23a57.76,57.76,0,0,1-3.13-5.94l0-.06c-.88-1.93-1.65-3.94-2.36-6-.13-.39-.28-.76-.4-1.15-.51-1.57-.95-3.2-1.36-4.85-.19-.78-.4-1.55-.57-2.35-.25-1.19-.48-2.41-.69-3.65h52.75a23.76,23.76,0,0,0,2.41,3.65,26.6,26.6,0,0,0,2.16,2.35c.44.42.87.84,1.34,1.23a30.54,30.54,0,0,0,5.45,3.62c.79.42,1.61.79,2.45,1.15a48.51,48.51,0,0,0,18.95,3.38,51,51,0,0,0,19.49-3.38c.86-.36,1.7-.73,2.51-1.15a31.52,31.52,0,0,0,4.94-3.12,20.32,20.32,0,0,0,2-1.73,22,22,0,0,0,2.07-2.35,22.89,22.89,0,0,0,2.28-3.65Z"/><path d="M661.59,1062.13c0,1.06,0,2.09-.1,3.12,0,.39,0,.77-.08,1.15a46.85,46.85,0,0,1-.85,6,.13.13,0,0,1,0,.06,42.13,42.13,0,0,1-1.69,5.94c-.15.42-.3.84-.47,1.26a42,42,0,0,1-2.27,4.74c-.47.83-1,1.66-1.47,2.46s-.85,1.29-1.3,1.92-.82,1.09-1.25,1.61a41.35,41.35,0,0,1-3.36,3.68c-.83.8-1.72,1.57-2.63,2.32a50.47,50.47,0,0,1-7.08,4.88c-.66.38-1.36.75-2.06,1.12a70.6,70.6,0,0,1-9.06,4q-3.06,1.11-6.44,2l-.27.08q-15.53,4.13-37.63,4.13-24.84,0-41.68-4.13l-.3-.08c-2.12-.53-4.15-1.09-6.08-1.71a75.28,75.28,0,0,1-10.51-4.29c-.74-.37-1.47-.73-2.17-1.12a53.8,53.8,0,0,1-7.37-4.88c-1-.75-1.89-1.52-2.77-2.32a45.81,45.81,0,0,1-3.57-3.68c-.43-.49-.85-1-1.26-1.51s-1-1.34-1.47-2-1.12-1.63-1.66-2.46c-1-1.52-1.88-3.1-2.71-4.74-.21-.41-.39-.85-.59-1.26-.91-1.91-1.75-3.88-2.49-5.94a.14.14,0,0,1,0-.06c-.69-1.93-1.28-3.94-1.82-6-.1-.39-.22-.76-.32-1.15-.38-1.58-.73-3.2-1-4.85-.08-.43-.17-.85-.25-1.28H549c.12.44.26.86.41,1.28a20.48,20.48,0,0,0,2.39,4.85c.26.4.54.78.83,1.15a20.14,20.14,0,0,0,8.08,6l.13.06c.34.14.67.31,1,.44q10,3.72,24.94,3.72,13.68,0,19.91-2.72a13.9,13.9,0,0,0,2.57-1.44l.08-.06a8.09,8.09,0,0,0,3.54-6c0-.28,0-.56,0-.85,0-.1,0-.2,0-.3a7.26,7.26,0,0,0-1.8-4.85,7.72,7.72,0,0,0-2-1.58,13.07,13.07,0,0,0-1.74-.77,54.37,54.37,0,0,0-12.53-2.45q-5.55-.58-13.66-1.2H661c.18,1.18.32,2.4.41,3.65.06.77.1,1.56.13,2.35C661.58,1061,661.59,1061.55,661.59,1062.13Z"/><polygon points="724.53 1000.38 817.63 1000.38 817.63 1039.4 678.28 1039.4 678.28 979.41 817.63 979.41 817.63 981.88 724.53 981.88 724.53 1000.38"/><polygon points="724.53 1069.38 817.63 1069.38 817.63 1108.39 678.28 1108.39 678.28 1054.4 724.53 1054.4 724.53 1069.38"/><polygon points="724.53 1132.39 817.63 1132.39 817.63 1171.4 678.28 1171.4 678.28 1123.41 724.53 1123.41 724.53 1132.39"/><path d="M200.77,1378.41H335.32q-2,1.92-4.15,3.67c-1,.81-2,1.58-3.09,2.33a69.35,69.35,0,0,1-7.88,4.87c-.73.39-1.48.76-2.24,1.13-1.25.61-2.52,1.21-3.84,1.76a94.28,94.28,0,0,1-12.41,4.24l-.29.08a129,129,0,0,1-32.94,3.93,134.87,134.87,0,0,1-33.85-3.93l-.29-.08a93.44,93.44,0,0,1-12.11-4c-1.49-.61-2.92-1.27-4.33-2-.76-.37-1.51-.74-2.24-1.13a67.53,67.53,0,0,1-7.81-4.87c-1-.75-2-1.52-3-2.33Q202.71,1380.33,200.77,1378.41Z"/><path d="M207.85,1411.39H328.08a69.35,69.35,0,0,1-7.88,4.87c-.73.39-1.48.76-2.24,1.13-1.25.61-2.52,1.21-3.84,1.76a92.82,92.82,0,0,1-12.41,4.23l-.29.08a128.51,128.51,0,0,1-32.94,3.94,134.39,134.39,0,0,1-33.85-3.94l-.29-.08a91.93,91.93,0,0,1-12.11-4c-1.49-.61-2.92-1.28-4.33-2-.76-.37-1.51-.74-2.24-1.13A67.53,67.53,0,0,1,207.85,1411.39Z"/><path d="M195.44,1339.41H340.8c-.67.83-1.36,1.66-2.07,2.46-1.09,1.23-2.23,2.4-3.41,3.53s-2.71,2.51-4.15,3.68c-1,.8-2,1.57-3.09,2.32a70.87,70.87,0,0,1-7.88,4.88c-.73.38-1.48.75-2.24,1.12-1.25.62-2.52,1.21-3.84,1.77a94.26,94.26,0,0,1-12.41,4.23l-.29.08a129,129,0,0,1-32.94,3.93,134.87,134.87,0,0,1-33.85-3.93l-.29-.08a93.43,93.43,0,0,1-12.11-4c-1.49-.61-2.92-1.28-4.33-2-.76-.37-1.51-.73-2.24-1.12a66.26,66.26,0,0,1-7.81-4.88c-1-.75-2-1.52-3-2.32q-2.12-1.75-4-3.68c-1.15-1.13-2.26-2.3-3.31-3.53C196.77,1341.07,196.1,1340.24,195.44,1339.41Z"/><path d="M191.31,1294.41H345.05c-.2.31-.37.63-.57.93l-.22.33c-1.09,1.65-2.25,3.22-3.46,4.74-.67.84-1.36,1.66-2.07,2.47-1.09,1.22-2.23,2.39-3.41,3.53s-2.71,2.5-4.15,3.67c-1,.8-2,1.57-3.09,2.33a69.35,69.35,0,0,1-7.88,4.87c-.73.39-1.48.76-2.24,1.13-1.25.61-2.52,1.21-3.84,1.76a94.28,94.28,0,0,1-12.41,4.24l-.29.08a129,129,0,0,1-32.94,3.93,134.87,134.87,0,0,1-33.85-3.93l-.29-.08a93.44,93.44,0,0,1-12.11-4c-1.49-.61-2.92-1.27-4.33-2-.76-.37-1.51-.74-2.24-1.13a67.53,67.53,0,0,1-7.81-4.87c-1-.76-2-1.52-3-2.33q-2.12-1.75-4-3.67c-1.15-1.14-2.26-2.31-3.31-3.53-.69-.81-1.36-1.63-2-2.47-1.18-1.52-2.31-3.09-3.36-4.74v0C191.81,1295.24,191.56,1294.82,191.31,1294.41Z"/><path d="M217.9,1438.4H318c-1.26.61-2.53,1.21-3.85,1.77a94.72,94.72,0,0,1-12.41,4.23l-.28.08a129.05,129.05,0,0,1-32.95,3.93,134.92,134.92,0,0,1-33.85-3.93l-.29-.08a95.5,95.5,0,0,1-12.11-4C220.74,1439.75,219.31,1439.09,217.9,1438.4Z"/><path d="M348.36,1243.41l0,.06a59.92,59.92,0,0,1-3.28,5.94c-.2.3-.37.63-.57.93l-.22.33c-1.09,1.64-2.25,3.22-3.46,4.74q-1,1.26-2.07,2.46c-1.09,1.23-2.23,2.4-3.41,3.54s-2.71,2.5-4.15,3.67c-1,.8-2,1.57-3.09,2.32a69.41,69.41,0,0,1-7.88,4.88c-.73.39-1.48.75-2.24,1.12-1.25.62-2.52,1.21-3.84,1.77a94.26,94.26,0,0,1-12.41,4.23l-.29.08a129,129,0,0,1-32.94,3.93,134.87,134.87,0,0,1-33.85-3.93l-.29-.08a93.43,93.43,0,0,1-12.11-4c-1.49-.61-2.92-1.28-4.33-2-.76-.37-1.51-.73-2.24-1.12a66.26,66.26,0,0,1-7.81-4.88c-1-.75-2-1.52-3-2.32-1.41-1.17-2.76-2.4-4-3.67s-2.26-2.31-3.31-3.54c-.69-.8-1.36-1.62-2-2.46-1.18-1.52-2.31-3.1-3.36-4.74v0c-.26-.4-.51-.82-.76-1.23a57.76,57.76,0,0,1-3.13-5.94l0-.06Z"/><rect x="678.28" y="1294.41" width="139.35" height="30"/><polygon points="817.63 1189.38 817.63 1228.39 678.28 1228.39 678.28 1186.4 724.53 1186.4 724.53 1189.38 817.63 1189.38"/><rect x="678.28" y="1243.41" width="139.35" height="35.99"/><path d="M525,1438.4H637a73.51,73.51,0,0,1-9.06,4c-2,.74-4.19,1.41-6.43,2l-.28.08q-15.53,4.13-37.63,4.13-24.83,0-41.67-4.13l-.31-.08c-2.12-.53-4.15-1.09-6.08-1.71A77,77,0,0,1,525,1438.4Z"/><path d="M509.12,1378.41h143a41.24,41.24,0,0,1-3.36,3.67c-.83.8-1.72,1.57-2.63,2.33a51.29,51.29,0,0,1-7.08,4.87c-.66.39-1.36.76-2.06,1.13a73.51,73.51,0,0,1-9.06,4q-3.06,1.11-6.44,2l-.27.08q-15.53,4.13-37.63,4.13-24.84,0-41.68-4.13l-.3-.08c-2.12-.53-4.15-1.09-6.08-1.71a76.52,76.52,0,0,1-10.51-4.29c-.74-.37-1.47-.74-2.17-1.13a54.7,54.7,0,0,1-7.37-4.87c-1-.75-1.89-1.52-2.77-2.33A45.69,45.69,0,0,1,509.12,1378.41Z"/><path d="M515.46,1411.39H646.11a51.29,51.29,0,0,1-7.08,4.87c-.66.39-1.36.76-2.06,1.13a72,72,0,0,1-9.06,4q-3.06,1.11-6.44,2l-.27.08q-15.53,4.13-37.63,4.14-24.84,0-41.68-4.14l-.3-.08q-3.18-.78-6.08-1.71a76.51,76.51,0,0,1-10.51-4.28c-.74-.37-1.47-.74-2.17-1.13A54.7,54.7,0,0,1,515.46,1411.39Z"/><path d="M609.35,1243.41h51.21a.13.13,0,0,1,0,.06,42.13,42.13,0,0,1-1.69,5.94c-.15.42-.3.84-.47,1.26a42,42,0,0,1-2.27,4.74c-.47.83-1,1.66-1.47,2.46s-.85,1.29-1.3,1.92-.82,1.09-1.25,1.62a42.68,42.68,0,0,1-3.36,3.67c-.83.8-1.72,1.57-2.63,2.32a50.47,50.47,0,0,1-7.08,4.88c-.66.39-1.36.76-2.06,1.12a70.6,70.6,0,0,1-9.06,4q-3.06,1.11-6.44,2l-.27.08q-15.53,4.13-37.63,4.13-24.84,0-41.68-4.13l-.3-.08c-2.12-.53-4.15-1.09-6.08-1.71A75.28,75.28,0,0,1,525,1273.4c-.74-.36-1.47-.73-2.17-1.12a53.8,53.8,0,0,1-7.37-4.88c-1-.75-1.89-1.52-2.77-2.32a47.41,47.41,0,0,1-3.57-3.67c-.43-.5-.85-1-1.26-1.52s-1-1.34-1.47-2-1.12-1.62-1.66-2.46c-1-1.52-1.88-3.1-2.71-4.74-.21-.41-.39-.85-.59-1.26-.91-1.91-1.75-3.88-2.49-5.94a.14.14,0,0,1,0-.06H560.7l.13.06c.34.14.67.31,1,.44q10,3.72,24.94,3.72,13.68,0,19.91-2.72a13.9,13.9,0,0,0,2.57-1.44Z"/><path d="M504.73,1339.41H656.12c-.47.83-1,1.66-1.47,2.46s-.85,1.29-1.3,1.92-.82,1.08-1.25,1.61a41.35,41.35,0,0,1-3.36,3.68c-.83.8-1.72,1.57-2.63,2.32a50.47,50.47,0,0,1-7.08,4.88c-.66.38-1.36.75-2.06,1.12a70.6,70.6,0,0,1-9.06,4q-3.06,1.11-6.44,2l-.27.08q-15.53,4.13-37.63,4.13-24.84,0-41.68-4.13l-.3-.08c-2.12-.53-4.15-1.09-6.08-1.71A75.28,75.28,0,0,1,525,1357.4c-.74-.37-1.47-.73-2.17-1.12a53.8,53.8,0,0,1-7.37-4.88c-1-.75-1.89-1.52-2.77-2.32a45.81,45.81,0,0,1-3.57-3.68c-.43-.49-.85-1-1.26-1.51s-1-1.34-1.47-2S505.27,1340.24,504.73,1339.41Z"/><path d="M501.43,1294.41H658.86c-.15.42-.3.85-.47,1.26a42,42,0,0,1-2.27,4.74c-.47.83-1,1.66-1.47,2.47-.41.65-.85,1.29-1.3,1.92s-.82,1.08-1.25,1.61a41.24,41.24,0,0,1-3.36,3.67c-.83.8-1.72,1.57-2.63,2.33a51.29,51.29,0,0,1-7.08,4.87c-.66.39-1.36.76-2.06,1.13a72,72,0,0,1-9.06,4c-2,.74-4.19,1.41-6.44,2l-.27.08q-15.53,4.13-37.63,4.13-24.84,0-41.68-4.13l-.3-.08q-3.18-.79-6.08-1.72a75.27,75.27,0,0,1-10.51-4.28c-.74-.37-1.47-.74-2.17-1.13a54.7,54.7,0,0,1-7.37-4.87c-1-.76-1.89-1.53-2.77-2.33a47.41,47.41,0,0,1-3.57-3.67c-.43-.5-.85-1-1.26-1.51-.51-.66-1-1.34-1.47-2s-1.12-1.63-1.66-2.47c-1-1.52-1.88-3.09-2.71-4.74C501.81,1295.26,501.63,1294.83,501.43,1294.41Z"/><path d="M661.59,1125.14c0,1.06,0,2.09-.1,3.12,0,.39,0,.77-.08,1.15a46.85,46.85,0,0,1-.85,6,.13.13,0,0,1,0,.06,42.13,42.13,0,0,1-1.69,5.94c-.15.42-.3.84-.47,1.26a42,42,0,0,1-2.27,4.74c-.47.83-1,1.66-1.47,2.46s-.85,1.29-1.3,1.92-.82,1.08-1.25,1.61a41.35,41.35,0,0,1-3.36,3.68c-.83.8-1.72,1.57-2.63,2.32a50.47,50.47,0,0,1-7.08,4.88c-.66.38-1.36.75-2.06,1.12a70.6,70.6,0,0,1-9.06,4q-3.06,1.11-6.44,2l-.27.08q-15.53,4.13-37.63,4.13-24.84,0-41.68-4.13l-.3-.08c-2.12-.53-4.15-1.09-6.08-1.71A75.28,75.28,0,0,1,525,1165.4c-.74-.37-1.47-.73-2.17-1.12a53.8,53.8,0,0,1-7.37-4.88c-1-.75-1.89-1.52-2.77-2.32a45.81,45.81,0,0,1-3.57-3.68c-.43-.49-.85-1-1.26-1.51s-1-1.34-1.47-2-1.12-1.63-1.66-2.46c-1-1.52-1.88-3.1-2.71-4.74-.21-.41-.39-.85-.59-1.26-.91-1.91-1.75-3.88-2.49-5.94a.14.14,0,0,1,0-.06c-.69-1.93-1.28-3.94-1.82-6-.1-.39-.22-.76-.32-1.15-.38-1.58-.73-3.2-1-4.85H549.4a20.48,20.48,0,0,0,2.39,4.85c.26.4.54.78.83,1.15a20.14,20.14,0,0,0,8.08,6l.13.06c.34.14.67.31,1,.44q10,3.72,24.94,3.72,13.68,0,19.91-2.72a13.9,13.9,0,0,0,2.57-1.44l.08-.06a8.09,8.09,0,0,0,3.54-6c0-.28,0-.56,0-.85,0-.1,0-.2,0-.3a7.26,7.26,0,0,0-1.8-4.85h50.44C661.58,1124,661.59,1124.55,661.59,1125.14Z"/><path d="M661.41,1186.4a46.6,46.6,0,0,1-.85,6,.13.13,0,0,1,0,.06,42.13,42.13,0,0,1-1.69,5.94c-.15.42-.3.84-.47,1.26a42,42,0,0,1-2.27,4.74c-.47.83-1,1.66-1.47,2.46s-.85,1.29-1.3,1.92-.82,1.09-1.25,1.62a42.68,42.68,0,0,1-3.36,3.67c-.83.8-1.72,1.57-2.63,2.32a50.47,50.47,0,0,1-7.08,4.88c-.66.39-1.36.76-2.06,1.12a70.6,70.6,0,0,1-9.06,4q-3.06,1.11-6.44,2l-.27.08q-15.53,4.13-37.63,4.13-24.84,0-41.68-4.13l-.3-.08c-2.12-.53-4.15-1.09-6.08-1.71a75.28,75.28,0,0,1-10.51-4.29c-.74-.36-1.47-.73-2.17-1.12a53.8,53.8,0,0,1-7.37-4.88c-1-.75-1.89-1.52-2.77-2.32a47.41,47.41,0,0,1-3.57-3.67c-.43-.5-.85-1-1.26-1.52s-1-1.34-1.47-2-1.12-1.62-1.66-2.46c-1-1.52-1.88-3.1-2.71-4.74-.21-.41-.39-.84-.59-1.26a63.28,63.28,0,0,1-2.49-5.94.14.14,0,0,1,0-.06c-.69-1.93-1.28-3.94-1.82-6h55.52a20,20,0,0,0,8.08,6l.13.06c.34.14.67.31,1,.44q10,3.72,24.94,3.72,13.68,0,19.91-2.72a13.9,13.9,0,0,0,2.57-1.44l.08-.06a8.09,8.09,0,0,0,3.54-6Z"/><polygon points="485.64 995.76 485.64 1039.39 367.21 1039.39 367.21 995.76 403 995.76 403 979.41 449.65 979.41 449.65 995.76 485.64 995.76"/><rect x="367.21" y="1294.41" width="118.43" height="29.99"/><rect x="367.21" y="1243.41" width="118.43" height="35.98"/><rect x="367.21" y="1186.4" width="118.43" height="41.98"/><polygon points="449.65 1127.76 485.64 1127.76 485.64 1171.39 367.21 1171.39 367.21 1127.76 403 1127.76 403 1123.41 449.65 1123.41 449.65 1127.76"/><polygon points="449.65 1064.75 485.64 1064.75 485.64 1108.38 367.21 1108.38 367.21 1064.75 403 1064.75 403 1054.4 449.65 1054.4 449.65 1064.75"/><rect x="367.21" y="1339.41" width="118.43" height="23.98"/><rect x="367.21" y="1411.39" width="118.43" height="11.98"/><rect x="367.21" y="1378.41" width="118.43" height="17.99"/><rect x="367.21" y="1438.4" width="118.43" height="5.99"/><rect x="0.03" y="1054.4" width="46.85" height="53.99"/><rect x="0.03" y="979.41" width="46.85" height="59.99"/><polygon points="46.88 637.41 0.03 637.41 0.03 565.42 47.08 565.42 52.1 571.42 53.07 572.58 57.11 577.42 59.08 579.78 62.11 583.42 65.1 586.99 67.13 589.42 71.12 594.19 72.14 595.41 77.13 601.39 77.15 601.41 82.16 607.41 83.15 608.6 87.17 613.41 89.17 615.8 92.18 619.41 95.19 623 97.2 625.41 101.2 630.21 102.21 631.41 107.22 637.41 58.15 637.41 53.2 631.41 52.21 630.21 48.26 625.41 46.88 623.73 46.88 637.41"/><rect x="0.03" y="811.4" width="46.85" height="71.99"/><rect x="0.03" y="898.4" width="46.85" height="65.99"/><rect x="0.03" y="1243.41" width="46.85" height="35.99"/><rect x="0.03" y="1411.39" width="46.85" height="11.99"/><rect x="0.03" y="1438.4" width="46.85" height="6"/><rect x="0.03" y="1378.41" width="46.85" height="18"/><polygon points="52.1 10.42 0.03 10.42 0.03 4.42 47.08 4.42 52.1 10.42"/><polygon points="102.2 550.41 0.03 550.41 0.03 484.42 47.08 484.42 52.09 490.42 53.07 491.58 57.1 496.41 59.08 498.78 62.11 502.41 65.09 505.99 67.12 508.41 71.12 513.19 72.14 514.41 77.13 520.39 77.14 520.41 82.16 526.41 83.15 527.59 87.17 532.41 89.16 534.8 92.18 538.41 95.19 542 97.2 544.41 101.2 549.2 102.2 550.41"/><rect x="0.03" y="1294.41" width="46.85" height="30"/><rect x="0.03" y="1186.4" width="46.85" height="41.99"/><rect x="0.03" y="1123.41" width="46.85" height="47.99"/><rect x="0.03" y="1339.41" width="46.85" height="23.99"/><polygon points="67.13 109.41 0.03 109.41 0.03 85.41 47.08 85.41 52.1 91.41 53.07 92.58 57.11 97.41 59.08 99.78 62.11 103.41 65.1 106.98 67.13 109.41"/><polygon points="87.17 325.41 0.03 325.41 0.03 277.42 47.08 277.42 52.1 283.42 53.07 284.58 57.11 289.41 59.08 291.78 62.11 295.41 65.1 298.99 67.13 301.41 71.12 306.19 72.14 307.41 77.13 313.39 77.15 313.41 82.16 319.41 83.15 320.59 87.17 325.41"/><polygon points="77.15 205.41 0.03 205.41 0.03 169.42 47.08 169.42 52.1 175.42 53.07 176.58 57.11 181.41 59.08 183.78 62.11 187.41 65.1 190.99 67.13 193.41 71.12 198.19 72.14 199.41 77.13 205.39 77.15 205.41"/><polygon points="82.16 262.41 0.03 262.41 0.03 220.41 47.08 220.41 52.1 226.41 53.07 227.58 57.11 232.41 59.08 234.78 62.11 238.41 65.1 241.98 67.13 244.41 71.12 249.19 72.14 250.41 77.13 256.39 77.15 256.41 82.16 262.41"/><polygon points="92.18 394.42 0.03 394.42 0.03 340.43 47.08 340.43 52.1 346.43 53.07 347.59 57.11 352.42 59.08 354.79 62.11 358.42 65.1 362 67.13 364.42 71.12 369.2 72.14 370.42 77.13 376.4 77.15 376.42 82.16 382.42 83.15 383.6 87.17 388.42 89.17 390.81 92.18 394.42"/><polygon points="62.11 70.41 0.03 70.41 0.03 52.41 47.08 52.41 52.1 58.41 53.07 59.57 57.11 64.41 59.08 66.78 62.11 70.41"/><polygon points="0.03 469.41 0.03 409.42 47.08 409.42 52.1 415.42 53.07 416.58 57.11 421.42 59.08 423.78 62.11 427.42 65.1 430.99 67.13 433.41 71.12 438.19 72.14 439.41 77.13 445.39 77.15 445.41 82.16 451.41 83.15 452.6 87.17 457.41 89.17 459.8 92.18 463.41 95.19 467 97.2 469.41 0.03 469.41"/><polygon points="57.11 37.42 0.03 37.42 0.03 25.42 47.08 25.42 52.1 31.42 53.07 32.58 57.11 37.42"/><polygon points="72.14 154.41 0.03 154.41 0.03 124.41 47.08 124.41 52.1 130.41 53.07 131.58 57.11 136.41 59.08 138.78 62.11 142.41 65.1 145.98 67.13 148.41 71.12 153.19 72.14 154.41"/><rect x="116.46" y="169.42" width="46.45" height="35.99"/><rect x="116.46" y="85.41" width="46.45" height="24"/><rect x="116.46" y="277.42" width="46.45" height="47.99"/><rect x="116.45" y="484.42" width="46.45" height="65.99"/><rect x="116.46" y="52.41" width="46.45" height="18"/><rect x="116.46" y="4.42" width="46.45" height="6"/><rect x="116.46" y="124.41" width="46.45" height="30"/><rect x="116.46" y="220.41" width="46.45" height="42"/><rect x="116.46" y="25.42" width="46.45" height="12"/><rect x="116.46" y="409.42" width="46.45" height="59.99"/><rect x="116.46" y="340.43" width="46.45" height="53.99"/><polygon points="162.91 811.4 162.91 883.39 117.47 883.39 112.52 877.4 111.56 876.23 107.58 871.4 105.63 869.03 102.64 865.4 99.69 861.83 97.69 859.4 92.75 853.4 87.82 847.42 87.81 847.4 82.87 841.4 81.89 840.22 77.92 835.4 75.95 833.01 72.98 829.4 68.03 823.4 64.08 818.61 63.09 817.4 58.15 811.4 107.22 811.4 112.23 817.4 113.24 818.61 116.46 822.46 116.46 811.4 162.91 811.4"/><polygon points="63.07 730.39 58.13 724.39 53.18 718.39 52.19 717.18 48.24 712.39 46.85 710.71 46.85 796.38 0 796.38 0 658.4 0.03 658.4 0.03 652.41 47.08 652.41 52.1 658.41 52.08 658.41 53.05 659.56 57.08 664.4 59.06 666.76 62.09 670.4 65.07 673.97 67.1 676.39 71.09 681.17 72.12 682.39 77.11 688.37 77.12 688.39 82.14 694.39 83.13 695.58 87.15 700.39 89.14 702.78 92.16 706.39 95.16 709.98 97.17 712.39 101.18 717.18 102.18 718.39 107.2 724.39 112.21 730.39 113.21 731.59 116.43 735.44 116.43 652.4 162.88 652.4 162.88 796.38 117.44 796.38 112.5 790.38 111.54 789.21 107.56 784.38 105.61 782.01 102.61 778.38 99.67 774.81 97.67 772.38 92.73 766.38 87.8 760.4 87.78 760.38 82.84 754.38 81.87 753.2 77.9 748.38 75.93 746 72.95 742.39 68.01 736.39 64.06 731.59 63.07 730.39"/><polygon points="162.91 979.41 162.91 1039.4 117.47 1039.4 112.52 1033.4 111.56 1032.23 107.58 1027.4 105.63 1025.03 102.64 1021.4 99.69 1017.83 97.69 1015.4 92.75 1009.4 87.82 1003.42 87.81 1003.4 82.87 997.4 81.89 996.22 77.92 991.4 75.95 989.02 72.98 985.41 68.03 979.41 162.91 979.41"/><polygon points="72.98 1054.4 162.91 1054.4 162.91 1108.39 117.47 1108.39 112.52 1102.39 111.56 1101.23 107.58 1096.39 105.63 1094.03 102.64 1090.39 99.69 1086.82 97.69 1084.4 92.75 1078.4 87.82 1072.42 87.81 1072.4 82.87 1066.4 81.89 1065.21 77.92 1060.4 75.95 1058.01 72.98 1054.4"/><polygon points="162.91 898.4 162.91 964.39 117.47 964.39 112.52 958.4 111.56 957.23 107.58 952.4 105.63 950.03 102.64 946.4 99.69 942.83 97.69 940.4 92.75 934.4 87.82 928.42 87.81 928.4 82.87 922.4 81.89 921.22 77.92 916.4 75.95 914.01 72.98 910.4 68.03 904.4 64.08 899.61 63.09 898.4 162.91 898.4"/><rect x="116.46" y="565.42" width="46.45" height="71.99"/><polygon points="92.75 1294.41 162.91 1294.41 162.91 1324.41 117.47 1324.41 112.52 1318.41 111.56 1317.24 107.58 1312.41 105.63 1310.04 102.64 1306.41 99.69 1302.84 97.69 1300.41 92.75 1294.41"/><polygon points="102.64 1378.41 162.91 1378.41 162.91 1396.41 117.47 1396.41 112.52 1390.41 111.56 1389.24 107.58 1384.41 105.63 1382.04 102.64 1378.41"/><polygon points="112.52 1438.4 162.91 1438.4 162.91 1444.4 117.47 1444.4 112.52 1438.4"/><polygon points="97.69 1339.41 162.91 1339.41 162.91 1363.4 117.47 1363.4 112.52 1357.4 111.56 1356.24 107.58 1351.4 105.63 1349.04 102.64 1345.4 99.69 1341.83 97.69 1339.41"/><polygon points="82.87 1186.4 162.91 1186.4 162.91 1228.39 117.47 1228.39 112.52 1222.39 111.56 1221.23 107.58 1216.39 105.63 1214.03 102.64 1210.4 99.69 1206.82 97.69 1204.4 92.75 1198.4 87.82 1192.42 87.81 1192.4 82.87 1186.4"/><polygon points="162.91 1123.41 162.91 1171.4 117.47 1171.4 112.52 1165.4 111.56 1164.24 107.58 1159.4 105.63 1157.04 102.64 1153.4 99.69 1149.83 97.69 1147.41 92.75 1141.41 87.82 1135.43 87.81 1135.41 82.87 1129.41 81.89 1128.22 77.92 1123.41 162.91 1123.41"/><polygon points="107.58 1411.39 162.91 1411.39 162.91 1423.38 117.47 1423.38 112.52 1417.39 111.56 1416.22 107.58 1411.39"/><polygon points="87.81 1243.41 162.91 1243.41 162.91 1279.4 117.47 1279.4 112.52 1273.4 111.56 1272.24 107.58 1267.4 105.63 1265.04 102.64 1261.41 99.69 1257.83 97.69 1255.41 92.75 1249.41 87.82 1243.43 87.81 1243.41"/><rect x="678.28" y="1378.41" width="139.35" height="18"/><rect x="678.28" y="1438.4" width="139.35" height="6"/><rect x="678.28" y="1339.41" width="139.35" height="23.99"/><rect x="678.28" y="1411.39" width="139.35" height="11.99"/></g></g></svg>